<?xml version="1.0" encoding="utf-8"?>
<!-- Generator: Adobe Illustrator 27.0.1, SVG Export Plug-In . SVG Version: 6.00 Build 0)  -->
<svg version="1.1" id="Layer_1" xmlns="http://www.w3.org/2000/svg" xmlns:xlink="http://www.w3.org/1999/xlink" x="0px" y="0px"
	 viewBox="0 0 750 500" style="enable-background:new 0 0 750 500;" xml:space="preserve">
<style type="text/css">
	.st0{display:none;}
	.st1{opacity:0.75;fill:#FF671F;enable-background:new    ;}
	.st2{fill:none;}
	.st3{font-family:'Futura-Medium';}
	.st4{font-size:12.3691px;}
	.st5{font-size:8.6583px;}
	
		.st6{opacity:0.25;fill:none;stroke:#000000;stroke-width:0.5;stroke-miterlimit:10;stroke-dasharray:5,5;enable-background:new    ;}
	.st7{fill:none;stroke:#000000;stroke-width:2;stroke-miterlimit:10;}
</style>
<g id="BG" class="st0">
	
		<image style="display:inline;overflow:visible;enable-background:new    ;" width="1598" height="1100" xlink:href="3C640179B0654E2F.jpeg"  transform="matrix(0.3914 0 0 0.3914 39.4229 34.7185)">
	</image>
</g>
<g id="Layer_2_00000096053194296335572820000009481047557403805844_">
	<rect x="149.7" y="63.4" class="st1" width="77.6" height="343.4"/>
	<rect x="259.9" y="261.2" class="st1" width="77.6" height="145.5"/>
	<rect x="371.5" y="287.8" class="st1" width="77.6" height="119"/>
	<rect x="481.7" y="313.2" class="st1" width="77.6" height="93.5"/>
	<rect x="592.6" y="313.2" class="st1" width="77.6" height="93.5"/>
	<rect x="286.8" y="242.7" class="st2" width="42.3" height="19.4"/>
	<text transform="matrix(1 0 0 1 286.769 252.8938)" class="st3 st4">39%</text>
	<rect x="176.1" y="45.4" class="st2" width="42.3" height="19.4"/>
	<text transform="matrix(1 0 0 1 176.064 55.6438)" class="st3 st4">92%</text>
	<rect x="147.7" y="421.2" class="st2" width="81.7" height="64.2"/>
	<rect x="256" y="420.4" class="st2" width="81.7" height="64.2"/>
	<rect x="369.5" y="420.4" class="st2" width="81.7" height="64.2"/>
	<rect x="479.7" y="420.4" class="st2" width="81.7" height="64.2"/>
	<rect x="63.7" y="86.9" class="st2" width="14.1" height="194.2"/>
	<text transform="matrix(4.489659e-11 -1 1 4.489659e-11 70.8188 238.0049)" class="st3 st5">SHARE OF RESPONDENTS</text>
	<rect x="590.6" y="420.4" class="st2" width="81.7" height="64.2"/>
	<rect x="90.3" y="327.6" class="st2" width="42.3" height="19.4"/>
	<text transform="matrix(1 0 0 1 90.2847 337.7712)" class="st3 st4">20%</text>
	<rect x="90.3" y="251.5" class="st2" width="42.3" height="19.4"/>
	<text transform="matrix(1 0 0 1 90.2847 261.7395)" class="st3 st4">40%</text>
	<rect x="90.3" y="177.4" class="st2" width="42.3" height="19.4"/>
	<text transform="matrix(1 0 0 1 90.2847 187.6438)" class="st3 st4">60%</text>
	<rect x="90.3" y="101.7" class="st2" width="42.3" height="19.4"/>
	<text transform="matrix(1 0 0 1 90.2847 111.9485)" class="st3 st4">80%</text>
	<rect x="85.3" y="28.4" class="st2" width="42.3" height="19.4"/>
	<text transform="matrix(1 0 0 1 85.3364 38.5842)" class="st3 st4">100%</text>
	<rect x="397.1" y="270.4" class="st2" width="42.3" height="19.4"/>
	<text transform="matrix(1 0 0 1 397.0859 280.5837)" class="st3 st4">32%</text>
	<rect x="508" y="296.3" class="st2" width="42.3" height="19.4"/>
	<text transform="matrix(1 0 0 1 507.9619 306.488)" class="st3 st4">25%</text>
	<rect x="619" y="296.9" class="st2" width="42.3" height="19.4"/>
	<text transform="matrix(1 0 0 1 619.0254 307.1375)" class="st3 st4">25%</text>
</g>
<g id="Layer_3">
	<line class="st6" x1="686" y1="33.9" x2="132.6" y2="33.9"/>
	<line class="st6" x1="686" y1="106.8" x2="132.6" y2="106.8"/>
	<line class="st6" x1="686" y1="184" x2="132.6" y2="184"/>
	<line class="st6" x1="686" y1="257.1" x2="132.6" y2="257.1"/>
	<line class="st6" x1="686" y1="331.4" x2="132.6" y2="331.4"/>
	<line class="st7" x1="686" y1="405.7" x2="132.6" y2="405.7"/>
</g>
<rect x="270.9" y="421.4" class="st2" width="66.7" height="31.1"/>
<text transform="matrix(1 0 0 1 391.5517 424.6777)" class="st3 st5">DUNKIN</text>
<text transform="matrix(1 0 0 1 391.8517 435.0777)" class="st3 st5">USAGE</text>
<rect x="155.2" y="421.4" class="st2" width="66.7" height="31.1"/>
<text transform="matrix(1 0 0 1 278.9919 423.7517)" class="st3 st5">DUNKIN</text>
<text transform="matrix(1 0 0 1 271.3919 434.1517)" class="st3 st5">POPULARITY</text>
<text transform="matrix(1 0 0 1 316.6925 468.1997)" class="st3 st5">PERFORMANCE INDICATORS</text>
<rect x="377" y="422.2" class="st2" width="66.7" height="31.1"/>
<text transform="matrix(1 0 0 1 167 425.6089)" class="st3 st5">DUNKIN</text>
<text transform="matrix(1 0 0 1 160 436.0089)" class="st3 st5">AWARNESS</text>
<rect x="492.6" y="421.4" class="st2" width="66.7" height="31.1"/>
<text transform="matrix(1 0 0 1 508.2001 422.9402)" class="st3 st5">DUNKIN</text>
<text transform="matrix(1 0 0 1 507.8 433.3401)" class="st3 st5">LOYALTY</text>
<rect x="598.1" y="419.8" class="st2" width="66.7" height="31.1"/>
<text transform="matrix(1 0 0 1 611.0869 423.8373)" class="st3 st5">DUNKIN</text>
<text transform="matrix(1 0 0 1 617.6869 434.2373)" class="st3 st5">BUZZ</text>
</svg>
