<svg width="3608" height="1846" viewBox="0 0 3608 1846" fill="none" xmlns="http://www.w3.org/2000/svg">
<path d="M2871.17 160.444C2929.48 128.745 2995.88 115.031 3061.98 121.032L3045.93 297.89C3014.77 295.061 2983.47 301.526 2955.98 316.469L2871.17 160.444Z" fill="#E6F0F9"/>
<path d="M295.166 1071.44C340.755 1046.66 391.464 1032.78 443.317 1030.88C495.171 1028.98 546.759 1039.12 594.038 1060.5L520.865 1222.31C498.578 1212.23 474.259 1207.45 449.815 1208.35C425.371 1209.24 401.467 1215.79 379.977 1227.47L295.166 1071.44Z" fill="#E6F0F9"/>
<path d="M1327.88 1056.59C1408.77 1067.34 1482.98 1107.17 1536.66 1168.63C1590.33 1230.1 1619.8 1309 1619.56 1390.6L1441.98 1390.08C1442.09 1351.61 1428.2 1314.41 1402.9 1285.44C1377.59 1256.47 1342.61 1237.69 1304.48 1232.62L1327.88 1056.59Z" fill="#E6F0F9"/>
<path d="M1997.17 1094.44C2042.75 1069.66 2093.46 1055.78 2145.32 1053.88C2197.17 1051.98 2248.76 1062.12 2296.04 1083.5L2222.87 1245.31C2200.58 1235.23 2176.26 1230.45 2151.82 1231.35C2127.37 1232.24 2103.47 1238.79 2081.98 1250.47L1997.17 1094.44Z" fill="#E6F0F9"/>
<path d="M2991.17 1094.44C3036.75 1069.66 3087.46 1055.78 3139.32 1053.88C3191.17 1051.98 3242.76 1062.12 3290.04 1083.5L3216.87 1245.31C3194.58 1235.23 3170.26 1230.45 3145.82 1231.35C3121.37 1232.24 3097.47 1238.79 3075.98 1250.47L2991.17 1094.44Z" fill="#E6F0F9"/>
<path d="M2157.2 122.764C2228.13 132.479 2294.1 164.596 2345.49 214.434L2221.86 341.919C2197.63 318.426 2166.54 303.286 2133.1 298.706L2157.2 122.764Z" fill="#DCECFC" fill-opacity="0.6"/>
<path d="M1312.56 120.63C1236.85 115.988 1161.8 137.099 1099.62 180.527C1037.43 223.955 991.771 287.146 970.06 359.821C948.348 432.496 951.865 510.379 980.037 580.801C1008.21 651.224 1059.38 710.042 1125.23 747.69C1191.07 785.337 1267.72 799.598 1342.7 788.153C1417.68 776.708 1486.58 740.23 1538.2 684.653C1589.81 629.076 1621.11 557.67 1626.99 482.05C1632.87 406.429 1612.99 331.044 1570.59 268.156L1423.33 367.45C1443.32 397.096 1452.69 432.632 1449.91 468.28C1447.14 503.927 1432.39 537.588 1408.06 563.787C1383.73 589.986 1351.25 607.182 1315.9 612.577C1280.55 617.972 1244.42 611.25 1213.38 593.503C1182.34 575.756 1158.22 548.029 1144.94 514.831C1131.66 481.634 1130 444.92 1140.24 410.661C1150.47 376.402 1172 346.614 1201.31 326.142C1230.63 305.67 1266 295.718 1301.69 297.906L1312.56 120.63Z" fill="#FED0EE"/>
<path d="M3367.61 455.607C3367.61 394.124 3350.74 333.819 3318.84 281.261C3286.93 228.702 3241.22 185.905 3186.68 157.53L3104.71 315.093C3130.42 328.469 3151.97 348.644 3167.01 373.42C3182.05 398.196 3190 426.624 3190 455.607H3367.61Z" fill="#58321B"/>
<path d="M636.548 1649.73C702.342 1607.68 751.438 1544.03 775.399 1469.72C799.361 1395.4 796.691 1315.06 767.85 1242.5L602.8 1308.1C616.396 1342.31 617.655 1380.18 606.359 1415.21C595.064 1450.25 571.92 1480.25 540.905 1500.07L636.548 1649.73Z" fill="#58321B"/>
<path d="M1170.51 1706C1212.06 1720.85 1256.13 1727.38 1300.2 1725.2C1344.27 1723.02 1387.48 1712.18 1427.36 1693.3C1467.24 1674.43 1503.02 1647.88 1532.64 1615.18C1562.26 1582.47 1585.15 1544.26 1600 1502.71L1432.76 1442.92C1425.76 1462.51 1414.97 1480.52 1401 1495.94C1387.04 1511.36 1370.18 1523.87 1351.38 1532.77C1332.57 1541.67 1312.21 1546.78 1291.43 1547.8C1270.66 1548.83 1249.88 1545.76 1230.3 1538.76L1170.51 1706Z" fill="#58321B"/>
<path d="M2338.55 1672.73C2404.34 1630.68 2453.44 1567.03 2477.4 1492.72C2501.36 1418.4 2498.69 1338.06 2469.85 1265.5L2304.8 1331.1C2318.4 1365.31 2319.65 1403.18 2308.36 1438.21C2297.06 1473.25 2273.92 1503.25 2242.9 1523.07L2338.55 1672.73Z" fill="#58321B"/>
<path d="M3332.55 1672.73C3398.34 1630.68 3447.44 1567.03 3471.4 1492.72C3495.36 1418.4 3492.69 1338.06 3463.85 1265.5L3298.8 1331.1C3312.4 1365.31 3313.65 1403.18 3302.36 1438.21C3291.06 1473.25 3267.92 1503.25 3236.9 1523.07L3332.55 1672.73Z" fill="#58321B"/>
<path d="M2446.61 455.607C2446.61 415.391 2439.39 375.501 2425.29 337.836L2258.95 400.09C2265.6 417.845 2269 436.649 2269 455.607H2446.61Z" fill="#58321B"/>
<path d="M1452.44 160.782C1408.8 137.064 1360.45 123.317 1310.86 120.53L1300.89 297.859C1324.27 299.173 1347.06 305.653 1367.63 316.834L1452.44 160.782Z" fill="#DCECFC"/>
<path d="M3285.11 235.075C3226.62 167.843 3143.82 126.599 3054.92 120.417L3042.6 297.598C3084.51 300.513 3123.54 319.955 3151.11 351.648L3285.11 235.075Z" fill="#F9E9AD"/>
<path d="M768.975 1245.37C736.82 1162.26 672.967 1095.33 591.463 1059.3L519.652 1221.74C558.073 1238.73 588.173 1270.28 603.331 1309.45L768.975 1245.37Z" fill="#F9E9AD"/>
<path d="M1486.61 1657.35C1526.69 1626.96 1559.44 1587.96 1582.44 1543.22C1605.44 1498.48 1618.1 1449.15 1619.48 1398.87L1441.94 1393.97C1441.29 1417.68 1435.32 1440.93 1424.48 1462.02C1413.64 1483.11 1398.2 1501.5 1379.3 1515.82L1486.61 1657.35Z" fill="#F9E9AD"/>
<path d="M2470.97 1268.37C2438.82 1185.26 2374.97 1118.33 2293.46 1082.3L2221.65 1244.74C2260.07 1261.73 2290.17 1293.28 2305.33 1332.45L2470.97 1268.37Z" fill="#F9E9AD"/>
<path d="M3464.97 1268.37C3432.82 1185.26 3368.97 1118.33 3287.46 1082.3L3215.65 1244.74C3254.07 1261.73 3284.17 1293.28 3299.33 1332.45L3464.97 1268.37Z" fill="#F9E9AD"/>
<path d="M2426.42 338.182C2409.07 291.645 2381.61 249.535 2346.02 214.883L2222.11 342.13C2238.89 358.465 2251.83 378.315 2260.01 400.253L2426.42 338.182Z" fill="#F9E9AD"/>
<path d="M1447.47 158.134C1495.87 183.398 1537.39 220.076 1568.43 264.994L1422.31 365.96C1407.68 344.785 1388.11 327.495 1365.29 315.586L1447.47 158.134Z" fill="#58321B"/>
<path d="M3367.61 455.607C3367.61 515.082 3351.82 573.491 3321.86 624.869C3291.9 676.246 3248.84 718.75 3197.08 748.039C3145.32 777.328 3086.71 792.353 3027.24 791.579C2967.77 790.805 2909.57 774.259 2858.58 743.632C2807.6 713.005 2765.66 669.394 2737.05 617.254C2708.44 565.114 2694.18 506.314 2695.72 446.859C2697.27 387.404 2714.58 329.426 2745.86 278.846C2777.15 228.266 2821.31 186.898 2873.81 158.966L2957.22 315.771C2932.47 328.938 2911.66 348.439 2896.91 372.282C2882.16 396.125 2874 423.456 2873.27 451.483C2872.54 479.51 2879.27 507.229 2892.75 531.808C2906.24 556.387 2926.01 576.945 2950.05 591.382C2974.08 605.82 3001.51 613.62 3029.55 613.985C3057.58 614.35 3085.21 607.267 3109.61 593.46C3134.01 579.653 3154.31 559.617 3168.44 535.397C3182.56 511.178 3190 483.644 3190 455.607H3367.61Z" fill="#FCDCF1"/>
<path d="M645.534 1643.78C607.607 1669.77 564.749 1687.7 519.614 1696.46C474.478 1705.21 428.026 1704.61 383.131 1694.7C338.236 1684.78 295.854 1665.75 258.609 1638.8C221.364 1611.84 190.047 1577.52 166.597 1537.98C143.148 1498.43 128.064 1454.49 122.28 1408.88C116.496 1363.26 120.135 1316.95 132.971 1272.8C145.807 1228.65 167.567 1187.61 196.905 1152.21C226.243 1116.81 262.534 1087.8 303.533 1066.99L383.921 1225.37C364.594 1235.18 347.487 1248.85 333.657 1265.54C319.827 1282.23 309.569 1301.58 303.518 1322.39C297.467 1343.2 295.752 1365.03 298.478 1386.53C301.205 1408.03 308.315 1428.75 319.37 1447.39C330.424 1466.03 345.186 1482.21 362.744 1494.92C380.301 1507.62 400.28 1516.59 421.444 1521.27C442.607 1525.94 464.505 1526.23 485.782 1522.1C507.059 1517.97 527.262 1509.52 545.141 1497.27L645.534 1643.78Z" fill="#FCDCF1"/>
<path d="M1172.81 1706.81C1094.62 1679.5 1029.27 1624.27 989.308 1551.72C949.345 1479.18 937.586 1394.42 956.289 1313.74C974.991 1233.05 1022.84 1162.12 1090.64 1114.55C1158.44 1066.98 1241.43 1046.13 1323.66 1056L1302.49 1232.35C1263.73 1227.69 1224.61 1237.52 1192.64 1259.94C1160.68 1282.37 1138.13 1315.81 1129.31 1353.84C1120.49 1391.88 1126.04 1431.83 1144.88 1466.03C1163.71 1500.23 1194.52 1526.26 1231.38 1539.14L1172.81 1706.81Z" fill="#FCDCF1"/>
<path d="M2347.53 1666.78C2309.61 1692.77 2266.75 1710.7 2221.61 1719.46C2176.48 1728.21 2130.03 1727.61 2085.13 1717.7C2040.24 1707.78 1997.85 1688.75 1960.61 1661.8C1923.36 1634.84 1892.05 1600.52 1868.6 1560.98C1845.15 1521.43 1830.06 1477.49 1824.28 1431.88C1818.5 1386.26 1822.13 1339.95 1834.97 1295.8C1847.81 1251.65 1869.57 1210.61 1898.91 1175.21C1928.24 1139.81 1964.53 1110.8 2005.53 1089.99L2085.92 1248.37C2066.59 1258.18 2049.49 1271.85 2035.66 1288.54C2021.83 1305.23 2011.57 1324.58 2005.52 1345.39C1999.47 1366.2 1997.75 1388.03 2000.48 1409.53C2003.21 1431.03 2010.32 1451.75 2021.37 1470.39C2032.42 1489.03 2047.19 1505.21 2064.74 1517.92C2082.3 1530.62 2102.28 1539.59 2123.44 1544.27C2144.61 1548.94 2166.5 1549.23 2187.78 1545.1C2209.06 1540.97 2229.26 1532.52 2247.14 1520.27L2347.53 1666.78Z" fill="#FCDCF1"/>
<path d="M3341.53 1666.78C3303.61 1692.77 3260.75 1710.7 3215.61 1719.46C3170.48 1728.21 3124.03 1727.61 3079.13 1717.7C3034.24 1707.78 2991.85 1688.75 2954.61 1661.8C2917.36 1634.84 2886.05 1600.52 2862.6 1560.98C2839.15 1521.43 2824.06 1477.49 2818.28 1431.88C2812.5 1386.26 2816.13 1339.95 2828.97 1295.8C2841.81 1251.65 2863.57 1210.61 2892.91 1175.21C2922.24 1139.81 2958.53 1110.8 2999.53 1089.99L3079.92 1248.37C3060.59 1258.18 3043.49 1271.85 3029.66 1288.54C3015.83 1305.23 3005.57 1324.58 2999.52 1345.39C2993.47 1366.2 2991.75 1388.03 2994.48 1409.53C2997.21 1431.03 3004.32 1451.75 3015.37 1470.39C3026.42 1489.03 3041.19 1505.21 3058.74 1517.92C3076.3 1530.62 3096.28 1539.59 3117.44 1544.27C3138.61 1548.94 3160.5 1549.23 3181.78 1545.1C3203.06 1540.97 3223.26 1532.52 3241.14 1520.27L3341.53 1666.78Z" fill="#FCDCF1"/>
<path d="M2446.61 455.607C2446.61 523.923 2425.79 590.615 2386.92 646.793C2348.04 702.971 2292.97 745.965 2229.04 770.044C2165.11 794.123 2095.36 798.143 2029.08 781.567C1962.81 764.991 1903.16 728.607 1858.1 677.266C1813.03 625.925 1784.68 562.067 1776.83 494.204C1768.99 426.341 1782.01 357.698 1814.17 297.427C1846.33 237.156 1896.1 188.12 1956.85 156.856C2017.59 125.593 2086.42 113.588 2154.15 122.441L2131.14 298.552C2099.21 294.379 2066.76 300.038 2038.13 314.776C2009.49 329.513 1986.03 352.629 1970.87 381.041C1955.71 409.453 1949.57 441.811 1953.27 473.802C1956.97 505.792 1970.33 535.895 1991.58 560.098C2012.82 584.3 2040.94 601.451 2072.18 609.265C2103.42 617.079 2136.3 615.184 2166.44 603.833C2196.58 592.482 2222.54 572.215 2240.86 545.732C2259.19 519.25 2269 487.811 2269 455.607H2446.61Z" fill="#FCDCF1"/>
<path d="M633.44 151.22C708.372 185.994 767.868 247.153 800.563 323.015C833.258 398.877 836.861 484.125 810.683 562.475C784.506 640.825 730.383 706.786 658.652 747.759C586.922 788.731 502.611 801.843 421.825 784.59C341.039 767.337 269.44 720.929 220.705 654.229C171.969 587.53 149.512 505.214 157.624 423.005C165.736 340.797 203.848 264.458 264.68 208.57C325.512 152.682 404.801 121.162 487.401 120.031L489.832 297.624C450.894 298.157 413.517 313.016 384.841 339.361C356.165 365.707 338.199 401.693 334.375 440.446C330.551 479.199 341.137 518.003 364.111 549.445C387.085 580.888 420.837 602.765 458.92 610.898C497.002 619.031 536.746 612.85 570.56 593.535C604.374 574.221 629.888 543.127 642.228 506.192C654.568 469.258 652.869 429.072 637.457 393.311C622.044 357.549 593.998 328.719 558.675 312.326L633.44 151.22Z" fill="#FED0EE"/>
<path d="M634.328 151.634C588.717 130.305 538.895 119.5 488.546 120.018L490.372 297.618C514.106 297.374 537.592 302.467 559.094 312.522L634.328 151.634Z" fill="#58321B"/>
</svg>
