<svg width="8104" height="3117" viewBox="0 0 8104 3117" fill="none" xmlns="http://www.w3.org/2000/svg">
<path d="M806 1061.2L920.748 1165.04L1055.83 1268.89H1170.58L1264.27 1342.23L1326.72 1268.89L1419.68 1477.3L1482.14 1342.23L1565.66 1404.68L1700.74 1342.23L1805.32 1623.26L2086.38 1799.72L2169.18 1883.23L2304.98 1799.72L2408.84 2028.46L2533.75 1945.68L2679 2393L2846.04 2028.46L3043.58 1945.68H3241.12V1883.23L3334.81 1799.72L3522.18 1623.26H3595.53L3709.56 1477.3L3860.62 1855.63L3941.23 1727.1L4009.5 1883.23L4083.58 1945.68L4173.63 1855.63H4222.29L4318.88 1920.26H4390.05L4590.5 2127.22L4764.8 2156.27L4822.17 2243.41L4903.51 2029.91L4987.03 2127.22L5306.58 2091.64L5507.03 2175.15L5581.11 2156.27L5655.19 2029.91L5726.36 2069.13L5838.93 1945.68L5968.2 2000.87L6055.35 1945.68L6178.09 1727.1L6245.63 1804.07L6403.95 1436.63L6458.42 1323.35L6610.21 1168.67H6710.43L6777.97 1014L6865.12 1207.16L6933.39 1049.58L7000.93 1142.53L7162.16 1094.61L7213.72 1142.53L7297.97 1049.58L7404 1287.77" stroke="#58321B" stroke-width="22"/>
<path d="M5898 328L5898 2461" stroke="#FF98CE" stroke-width="20" stroke-dasharray="16 16"/>
<circle cx="5898" cy="372" r="44" fill="#FF98CE"/>
<path d="M6631.5 2493.5H689.5" stroke="#FF98CE" stroke-width="3" stroke-dasharray="6 6"/>
<path d="M158 1951.16L44.9141 1951.16L44.9141 1934.17C44.9141 1926.6 45.5 1920.57 46.6719 1916.08C47.8438 1911.54 49.8213 1907.7 52.6045 1904.58C55.4854 1901.41 59.0742 1898.89 63.3711 1897.04C67.7168 1895.13 72.1113 1894.18 76.5547 1894.18C84.6602 1894.18 91.5205 1897.28 97.1357 1903.48C99.1865 1897.47 102.775 1892.74 107.902 1889.27C112.98 1885.76 118.889 1884 125.627 1884C134.465 1884 141.936 1887.12 148.039 1893.37C151.799 1897.13 154.411 1901.36 155.876 1906.04C157.292 1911.17 158 1917.59 158 1925.31L158 1951.16ZM93.4736 1934.1L93.4736 1928.75C93.4736 1922.4 92.082 1917.76 89.2988 1914.83C86.4668 1911.85 82.3164 1910.37 76.8477 1910.37C71.5254 1910.37 67.4971 1911.88 64.7627 1914.91C61.9795 1917.93 60.5879 1922.33 60.5879 1928.09L60.5879 1934.1L93.4736 1934.1ZM141.96 1934.1L141.96 1923.55C141.96 1915.83 140.446 1910.17 137.419 1906.56C134.147 1902.75 129.997 1900.84 124.968 1900.84C120.085 1900.84 115.983 1902.67 112.663 1906.34C109.392 1909.9 107.756 1916.27 107.756 1925.45L107.756 1934.1L141.96 1934.1ZM86.6621 1849.06L127.604 1849.06C139.421 1849.06 145.329 1844.4 145.329 1835.07C145.329 1825.75 139.421 1821.08 127.604 1821.08L86.6621 1821.08L86.6621 1804.6L127.971 1804.6C133.684 1804.6 138.615 1805.31 142.766 1806.73C146.477 1808.09 149.821 1810.46 152.8 1813.83C157.634 1819.4 160.051 1826.48 160.051 1835.07C160.051 1843.62 157.634 1850.67 152.8 1856.24C149.821 1859.66 146.477 1862.07 142.766 1863.49C139.445 1864.86 134.514 1865.54 127.971 1865.54L86.6621 1865.54L86.6621 1849.06ZM142.473 1760.15L142.473 1717.74L158 1717.74L158 1792.81L102.043 1746.6L102.043 1783L86.6621 1783L86.6621 1714L142.473 1760.15ZM142.473 1678.55L142.473 1636.15L158 1636.15L158 1711.22L102.043 1665L102.043 1701.41L86.6621 1701.41L86.6621 1632.41L142.473 1678.55ZM61.7598 1507.24L69.9629 1521.08C65.4707 1523.67 62.541 1526.14 61.1738 1528.48C59.6113 1530.92 58.8301 1534.07 58.8301 1537.93C58.8301 1542.67 60.1729 1546.6 62.8584 1549.72C65.4951 1552.85 68.8154 1554.41 72.8193 1554.41C78.3369 1554.41 82.7803 1550.31 86.1494 1542.1L90.7637 1530.82C94.4746 1521.64 99.0156 1514.93 104.387 1510.68C109.709 1506.43 116.252 1504.31 124.016 1504.31C134.416 1504.31 143.01 1507.78 149.797 1514.71C156.633 1521.69 160.051 1530.36 160.051 1540.71C160.051 1550.53 157.146 1558.63 151.335 1565.03C145.524 1571.33 137.346 1575.26 126.799 1576.82L122.99 1559.54C129.631 1558.75 134.221 1557.39 136.76 1555.43C141.643 1551.92 144.084 1546.79 144.084 1540.05C144.084 1534.73 142.302 1530.31 138.737 1526.8C135.173 1523.28 130.656 1521.52 125.188 1521.52C122.99 1521.52 120.988 1521.84 119.182 1522.47C117.326 1523.06 115.642 1524.01 114.128 1525.33C112.565 1526.6 111.125 1528.26 109.807 1530.31C108.439 1532.36 107.146 1534.8 105.925 1537.64L101.384 1548.55C94.8408 1564.03 85.2705 1571.77 72.6729 1571.77C64.1768 1571.77 57.0723 1568.52 51.3594 1562.03C45.5977 1555.53 42.7168 1547.45 42.7168 1537.78C42.7168 1524.75 49.0645 1514.56 61.7598 1507.24ZM89.7383 1431.36L111.638 1431.36C107.048 1435.12 103.898 1438.49 102.189 1441.47C100.432 1444.4 99.5527 1447.84 99.5527 1451.8C99.5527 1458 101.726 1463.15 106.071 1467.25C110.417 1471.35 115.861 1473.4 122.404 1473.4C129.094 1473.4 134.587 1471.42 138.884 1467.47C143.181 1463.47 145.329 1458.36 145.329 1452.16C145.329 1448.21 144.475 1444.72 142.766 1441.69C141.105 1438.76 137.883 1435.32 133.098 1431.36L154.851 1431.36C158.317 1438.05 160.051 1444.74 160.051 1451.43C160.051 1462.46 156.486 1471.69 149.357 1479.12C142.18 1486.54 133.269 1490.25 122.624 1490.25C111.979 1490.25 102.995 1486.49 95.6709 1478.97C88.3467 1471.45 84.6846 1462.22 84.6846 1451.28C84.6846 1444.25 86.3691 1437.61 89.7383 1431.36ZM121.818 1418.76C111.516 1418.76 102.751 1415.08 95.5244 1407.7C88.2979 1400.33 84.6846 1391.35 84.6846 1380.75C84.6846 1370.11 88.3223 1361.07 95.5977 1353.65C102.873 1346.33 111.809 1342.67 122.404 1342.67C133.098 1342.67 142.058 1346.35 149.284 1353.72C156.462 1361.15 160.051 1370.25 160.051 1381.04C160.051 1391.74 156.389 1400.7 149.064 1407.92C141.838 1415.15 132.756 1418.76 121.818 1418.76ZM122.111 1401.92C129.24 1401.92 134.88 1400.01 139.03 1396.21C143.229 1392.3 145.329 1387.15 145.329 1380.75C145.329 1374.31 143.254 1369.15 139.104 1365.3C134.953 1361.44 129.411 1359.51 122.478 1359.51C115.544 1359.51 110.002 1361.44 105.852 1365.3C101.652 1369.2 99.5527 1374.35 99.5527 1380.75C99.5527 1387.05 101.652 1392.15 105.852 1396.06C110.051 1399.96 115.471 1401.92 122.111 1401.92ZM86.6621 1325.16L86.6621 1308.68L93.0342 1308.68C89.8604 1305.65 87.6875 1302.97 86.5156 1300.62C85.2949 1298.23 84.6846 1295.4 84.6846 1292.13C84.6846 1287.78 86.1006 1283.24 88.9326 1278.5L104.021 1286.05C101.774 1289.17 100.651 1292.23 100.651 1295.2C100.651 1304.19 107.438 1308.68 121.013 1308.68L158 1308.68L158 1325.16L86.6621 1325.16ZM126.213 1205.12L126.213 1256.24C132.072 1255.8 136.735 1253.9 140.202 1250.53C143.62 1247.16 145.329 1242.84 145.329 1237.56C145.329 1233.46 144.353 1230.07 142.399 1227.38C140.446 1224.75 136.833 1221.74 131.56 1218.37L139.323 1204.46C142.985 1206.61 146.135 1208.88 148.771 1211.27C151.359 1213.66 153.508 1216.22 155.217 1218.96C156.877 1221.69 158.098 1224.65 158.879 1227.82C159.66 1231 160.051 1234.44 160.051 1238.15C160.051 1248.79 156.633 1257.34 149.797 1263.78C142.912 1270.23 133.781 1273.45 122.404 1273.45C111.125 1273.45 101.994 1270.33 95.0117 1264.08C88.127 1257.78 84.6846 1249.43 84.6846 1239.03C84.6846 1228.53 88.0293 1220.23 94.7188 1214.13C101.359 1208.07 110.563 1205.04 122.331 1205.04L126.213 1205.12ZM112.736 1222.04C103.947 1224.33 99.5527 1229.87 99.5527 1238.66C99.5527 1240.66 99.8701 1242.54 100.505 1244.3C101.091 1246.06 101.97 1247.67 103.142 1249.13C104.265 1250.55 105.632 1251.77 107.243 1252.8C108.855 1253.82 110.686 1254.6 112.736 1255.14L112.736 1222.04ZM269.036 2005.36C261.956 2005.36 255.804 2002.65 250.579 1997.23C245.354 1991.71 242.742 1985.34 242.742 1978.11C242.742 1970.69 245.379 1964.3 250.652 1958.92C255.877 1953.55 262.127 1950.87 269.402 1950.87C276.727 1950.87 283.001 1953.55 288.226 1958.92C293.45 1964.3 296.063 1970.77 296.063 1978.33C296.063 1985.76 293.401 1992.13 288.079 1997.45C282.757 2002.72 276.409 2005.36 269.036 2005.36ZM269.256 1992.62C273.357 1992.62 276.824 1991.2 279.656 1988.37C282.488 1985.54 283.904 1982.09 283.904 1978.04C283.904 1974.09 282.488 1970.69 279.656 1967.86C276.824 1965.03 273.406 1963.61 269.402 1963.61C265.447 1963.61 262.054 1965.03 259.222 1967.86C256.39 1970.69 254.974 1974.11 254.974 1978.11C254.974 1982.12 256.39 1985.54 259.222 1988.37C262.054 1991.2 265.398 1992.62 269.256 1992.62ZM241.937 1913.88L246.478 1905.9L358.831 1970.64L353.997 1978.7L241.937 1913.88ZM330.999 1933.8C323.968 1933.8 317.84 1931.09 312.615 1925.67C307.391 1920.16 304.778 1913.78 304.778 1906.56C304.778 1899.09 307.415 1892.67 312.688 1887.29C317.913 1881.92 324.163 1879.24 331.438 1879.24C338.812 1879.24 345.086 1881.95 350.262 1887.37C355.438 1892.69 358.025 1899.16 358.025 1906.78C358.025 1914.2 355.389 1920.57 350.115 1925.89C344.842 1931.17 338.47 1933.8 330.999 1933.8ZM331.292 1920.99C335.394 1920.99 338.86 1919.59 341.692 1916.81C344.524 1913.98 345.94 1910.54 345.94 1906.48C345.94 1902.48 344.524 1899.09 341.692 1896.3C338.86 1893.47 335.442 1892.05 331.438 1892.05C327.435 1892.05 324.017 1893.47 321.185 1896.3C318.353 1899.09 316.937 1902.5 316.937 1906.56C316.937 1910.51 318.353 1913.91 321.185 1916.74C324.017 1919.57 327.386 1920.99 331.292 1920.99Z" fill="black"/>
<path d="M459.55 2724V2603.22L542.021 2689.5V2610.91H559.086V2730.88L476.615 2644.83V2724H459.55ZM580.766 2687.82C580.766 2677.52 584.452 2668.75 591.825 2661.52C599.198 2654.3 608.183 2650.68 618.778 2650.68C629.423 2650.68 638.456 2654.32 645.878 2661.6C653.202 2668.87 656.864 2677.81 656.864 2688.4C656.864 2699.1 653.178 2708.06 645.805 2715.28C638.383 2722.46 629.276 2726.05 618.485 2726.05C607.792 2726.05 598.832 2722.39 591.605 2715.06C584.379 2707.84 580.766 2698.76 580.766 2687.82ZM597.611 2688.11C597.611 2695.24 599.516 2700.88 603.324 2705.03C607.23 2709.23 612.382 2711.33 618.778 2711.33C625.224 2711.33 630.375 2709.25 634.232 2705.1C638.09 2700.95 640.019 2695.41 640.019 2688.48C640.019 2681.54 638.09 2676 634.232 2671.85C630.326 2667.65 625.175 2665.55 618.778 2665.55C612.479 2665.55 607.377 2667.65 603.471 2671.85C599.564 2676.05 597.611 2681.47 597.611 2688.11ZM680.155 2652.66L698.612 2692.73L716.996 2652.66H735.526L698.466 2728.91L661.698 2652.66H680.155ZM740.946 2715.8C740.946 2713.06 741.947 2710.69 743.949 2708.69C745.951 2706.69 748.344 2705.69 751.127 2705.69C753.91 2705.69 756.303 2706.69 758.305 2708.69C760.307 2710.69 761.308 2713.09 761.308 2715.87C761.308 2718.7 760.307 2721.12 758.305 2723.12C756.352 2725.07 753.959 2726.05 751.127 2726.05C748.246 2726.05 745.829 2725.07 743.876 2723.12C741.923 2721.17 740.946 2718.73 740.946 2715.8ZM780.644 2666.72C780.644 2648.71 784.843 2634.33 793.241 2623.58C800.761 2613.87 809.867 2609.01 820.561 2609.01C831.254 2609.01 840.36 2613.87 847.88 2623.58C856.278 2634.33 860.478 2648.95 860.478 2667.46C860.478 2685.91 856.278 2700.51 847.88 2711.26C840.36 2720.97 831.278 2725.83 820.634 2725.83C809.989 2725.83 800.858 2720.97 793.241 2711.26C784.843 2700.51 780.644 2685.67 780.644 2666.72ZM797.416 2666.8C797.416 2679.35 799.589 2689.77 803.935 2698.07C808.28 2706.23 813.822 2710.3 820.561 2710.3C827.25 2710.3 832.792 2706.23 837.187 2698.07C841.581 2689.97 843.778 2679.74 843.778 2667.38C843.778 2655.03 841.581 2644.78 837.187 2636.62C832.792 2628.52 827.25 2624.46 820.561 2624.46C813.92 2624.46 808.402 2628.52 804.008 2636.62C799.613 2644.68 797.416 2654.74 797.416 2666.8ZM895.927 2626.88H876.371L885.746 2610.91H912.992V2724H895.927V2626.88Z" fill="black"/>
<path d="M483.649 2273.88H464.094L473.469 2257.91H500.715V2371H483.649V2273.88ZM532.868 2313.72C532.868 2295.71 537.067 2281.33 545.466 2270.58C552.985 2260.87 562.092 2256.01 572.785 2256.01C583.479 2256.01 592.585 2260.87 600.104 2270.58C608.503 2281.33 612.702 2295.95 612.702 2314.46C612.702 2332.91 608.503 2347.51 600.104 2358.26C592.585 2367.97 583.503 2372.83 572.858 2372.83C562.214 2372.83 553.083 2367.97 545.466 2358.26C537.067 2347.51 532.868 2332.67 532.868 2313.72ZM549.641 2313.8C549.641 2326.35 551.813 2336.77 556.159 2345.07C560.505 2353.23 566.047 2357.3 572.785 2357.3C579.475 2357.3 585.017 2353.23 589.411 2345.07C593.806 2336.97 596.003 2326.74 596.003 2314.38C596.003 2302.03 593.806 2291.78 589.411 2283.62C585.017 2275.52 579.475 2271.46 572.785 2271.46C566.145 2271.46 560.627 2275.52 556.232 2283.62C551.838 2291.68 549.641 2301.74 549.641 2313.8Z" fill="black"/>
<path d="M483.649 2002.88H464.094L473.469 1986.91H500.715V2100H483.649V2002.88ZM554.255 2002.88H534.699L544.074 1986.91H571.32V2100H554.255V2002.88Z" fill="black"/>
<path d="M491.649 1709.88H472.094L481.469 1693.91H508.715V1807H491.649V1709.88ZM569.286 1790.96H611.4V1807H535.448L574.706 1759.47C578.563 1754.73 581.786 1750.63 584.374 1747.16C587.011 1743.69 589.013 1740.79 590.38 1738.45C593.163 1733.86 594.555 1729.73 594.555 1726.07C594.555 1720.79 592.699 1716.38 588.988 1712.81C585.277 1709.25 580.688 1707.46 575.219 1707.46C563.793 1707.46 557.25 1714.23 555.59 1727.75H538.598C541.332 1703.92 553.368 1692.01 574.706 1692.01C585.009 1692.01 593.651 1695.28 600.634 1701.82C607.665 1708.37 611.181 1716.47 611.181 1726.14C611.181 1732.29 609.545 1738.32 606.273 1744.23C604.613 1747.31 602.172 1750.97 598.949 1755.22C595.775 1759.42 591.747 1764.4 586.864 1770.16L569.286 1790.96Z" fill="black"/>
<path d="M491.649 1391.88H472.094L481.469 1375.91H508.715V1489H491.649V1391.88ZM571.557 1436.49V1421.91C578.783 1421.91 583.642 1421.1 586.132 1419.49C590.575 1416.66 592.797 1412.12 592.797 1405.87C592.797 1401.04 591.186 1397.11 587.963 1394.08C584.789 1391 580.663 1389.46 575.585 1389.46C570.849 1389.46 567.187 1390.61 564.599 1392.91C562.108 1395.25 560.253 1399.21 559.032 1404.77H542.04C543.798 1394.13 547.411 1386.34 552.88 1381.41C558.349 1376.43 565.99 1373.94 575.805 1373.94C585.717 1373.94 593.798 1376.87 600.048 1382.73C606.298 1388.54 609.423 1396.03 609.423 1405.21C609.423 1415.56 605.321 1423.62 597.118 1429.38C606.493 1434.9 611.181 1443.86 611.181 1456.26C611.181 1466.42 607.763 1474.72 600.927 1481.16C594.091 1487.61 585.326 1490.83 574.633 1490.83C561.01 1490.83 550.902 1485.83 544.311 1475.82C541.576 1471.62 539.843 1465.81 539.11 1458.38H555.59C556.469 1463.85 558.593 1468.05 561.962 1470.98C565.38 1473.86 569.823 1475.3 575.292 1475.3C580.81 1475.3 585.375 1473.47 588.988 1469.81C592.602 1466.05 594.408 1461.29 594.408 1455.53C594.408 1447.91 591.698 1442.49 586.278 1439.27C583.104 1437.41 578.197 1436.49 571.557 1436.49Z" fill="black"/>
<path d="M491.649 1065.88H472.094L481.469 1049.91H508.715V1163H491.649V1065.88ZM605.688 1131.43H617.699V1146.96H605.688V1163H588.622V1146.96H533.104L605.688 1041.49V1131.43ZM588.622 1131.43V1093.57L562.548 1131.43H588.622Z" fill="black"/>
<path d="M483.649 443.881H464.094L473.469 427.914H500.715V541H483.649V443.881ZM581.281 423.959L593.806 433.334L566.779 470.102C568.244 469.906 569.489 469.76 570.515 469.662C571.54 469.564 572.346 469.516 572.932 469.516C582.111 469.516 590.046 473.031 596.735 480.062C603.376 486.996 606.696 495.346 606.696 505.111C606.696 515.463 602.985 524.35 595.563 531.771C588.19 539.145 579.328 542.831 568.977 542.831C558.723 542.831 549.738 539.193 542.023 531.918C534.455 524.643 530.671 516.024 530.671 506.063C530.671 497.128 534.357 487.655 541.73 477.646L581.281 423.959ZM590.07 506.21C590.07 500.204 587.995 495.126 583.845 490.976C579.646 486.776 574.592 484.677 568.684 484.677C562.727 484.677 557.673 486.752 553.522 490.902C549.372 495.053 547.297 500.082 547.297 505.99C547.297 511.898 549.372 516.928 553.522 521.078C557.673 525.229 562.751 527.304 568.757 527.304C574.616 527.304 579.621 525.229 583.771 521.078C587.971 516.879 590.07 511.923 590.07 506.21Z" fill="black"/>
<path d="M483.649 759.881H464.094L473.469 743.914H500.715V857H483.649V759.881ZM602.595 759.881H567.731L562.165 778.631C562.995 778.533 563.776 778.46 564.509 778.411C565.29 778.362 565.998 778.338 566.633 778.338C577.619 778.338 586.628 782.049 593.659 789.471C600.739 796.844 604.279 806.292 604.279 817.815C604.279 829.729 600.275 839.544 592.268 847.259C584.26 854.974 574.177 858.831 562.019 858.831C547.028 858.831 535.212 851.8 526.569 837.737L539.46 826.824C543.024 832.879 546.613 837.151 550.227 839.642C553.84 842.083 558.259 843.304 563.483 843.304C570.319 843.304 576.057 840.911 580.695 836.126C585.334 831.194 587.653 825.213 587.653 818.182C587.653 810.955 585.358 805.047 580.769 800.457C576.179 795.721 570.441 793.353 563.557 793.353C555.891 793.353 549.274 796.697 543.708 803.387H538.068L555.866 743.914H602.595V759.881Z" fill="black"/>
<path d="M1822.55 2724V2603.22L1905.02 2689.5V2610.91H1922.09V2730.88L1839.62 2644.83V2724H1822.55ZM1943.77 2687.82C1943.77 2677.52 1947.45 2668.75 1954.83 2661.52C1962.2 2654.3 1971.18 2650.68 1981.78 2650.68C1992.42 2650.68 2001.46 2654.32 2008.88 2661.6C2016.2 2668.87 2019.86 2677.81 2019.86 2688.4C2019.86 2699.1 2016.18 2708.06 2008.8 2715.28C2001.38 2722.46 1992.28 2726.05 1981.49 2726.05C1970.79 2726.05 1961.83 2722.39 1954.61 2715.06C1947.38 2707.84 1943.77 2698.76 1943.77 2687.82ZM1960.61 2688.11C1960.61 2695.24 1962.52 2700.88 1966.32 2705.03C1970.23 2709.23 1975.38 2711.33 1981.78 2711.33C1988.22 2711.33 1993.38 2709.25 1997.23 2705.1C2001.09 2700.95 2003.02 2695.41 2003.02 2688.48C2003.02 2681.54 2001.09 2676 1997.23 2671.85C1993.33 2667.65 1988.17 2665.55 1981.78 2665.55C1975.48 2665.55 1970.38 2667.65 1966.47 2671.85C1962.56 2676.05 1960.61 2681.47 1960.61 2688.11ZM2043.16 2652.66L2061.61 2692.73L2080 2652.66H2098.53L2061.47 2728.91L2024.7 2652.66H2043.16ZM2103.95 2715.8C2103.95 2713.06 2104.95 2710.69 2106.95 2708.69C2108.95 2706.69 2111.34 2705.69 2114.13 2705.69C2116.91 2705.69 2119.3 2706.69 2121.3 2708.69C2123.31 2710.69 2124.31 2713.09 2124.31 2715.87C2124.31 2718.7 2123.31 2721.12 2121.3 2723.12C2119.35 2725.07 2116.96 2726.05 2114.13 2726.05C2111.25 2726.05 2108.83 2725.07 2106.88 2723.12C2104.92 2721.17 2103.95 2718.73 2103.95 2715.8ZM2165.91 2626.88H2146.35L2155.73 2610.91H2182.97V2724H2165.91V2626.88ZM2284.85 2626.88H2249.99L2244.42 2645.63C2245.25 2645.53 2246.04 2645.46 2246.77 2645.41C2247.55 2645.36 2248.26 2645.34 2248.89 2645.34C2259.88 2645.34 2268.89 2649.05 2275.92 2656.47C2283 2663.84 2286.54 2673.29 2286.54 2684.82C2286.54 2696.73 2282.54 2706.54 2274.53 2714.26C2266.52 2721.97 2256.44 2725.83 2244.28 2725.83C2229.29 2725.83 2217.47 2718.8 2208.83 2704.74L2221.72 2693.82C2225.28 2699.88 2228.87 2704.15 2232.49 2706.64C2236.1 2709.08 2240.52 2710.3 2245.74 2710.3C2252.58 2710.3 2258.32 2707.91 2262.96 2703.13C2267.59 2698.19 2269.91 2692.21 2269.91 2685.18C2269.91 2677.96 2267.62 2672.05 2263.03 2667.46C2258.44 2662.72 2252.7 2660.35 2245.82 2660.35C2238.15 2660.35 2231.53 2663.7 2225.97 2670.39H2220.33L2238.13 2610.91H2284.85V2626.88Z" fill="black"/>
<path d="M3250.55 2724V2603.22L3333.02 2689.5V2610.91H3350.09V2730.88L3267.62 2644.83V2724H3250.55ZM3371.77 2687.82C3371.77 2677.52 3375.45 2668.75 3382.83 2661.52C3390.2 2654.3 3399.18 2650.68 3409.78 2650.68C3420.42 2650.68 3429.46 2654.32 3436.88 2661.6C3444.2 2668.87 3447.86 2677.81 3447.86 2688.4C3447.86 2699.1 3444.18 2708.06 3436.8 2715.28C3429.38 2722.46 3420.28 2726.05 3409.49 2726.05C3398.79 2726.05 3389.83 2722.39 3382.61 2715.06C3375.38 2707.84 3371.77 2698.76 3371.77 2687.82ZM3388.61 2688.11C3388.61 2695.24 3390.52 2700.88 3394.32 2705.03C3398.23 2709.23 3403.38 2711.33 3409.78 2711.33C3416.22 2711.33 3421.38 2709.25 3425.23 2705.1C3429.09 2700.95 3431.02 2695.41 3431.02 2688.48C3431.02 2681.54 3429.09 2676 3425.23 2671.85C3421.33 2667.65 3416.17 2665.55 3409.78 2665.55C3403.48 2665.55 3398.38 2667.65 3394.47 2671.85C3390.56 2676.05 3388.61 2681.47 3388.61 2688.11ZM3471.16 2652.66L3489.61 2692.73L3508 2652.66H3526.53L3489.47 2728.91L3452.7 2652.66H3471.16ZM3531.95 2715.8C3531.95 2713.06 3532.95 2710.69 3534.95 2708.69C3536.95 2706.69 3539.34 2705.69 3542.13 2705.69C3544.91 2705.69 3547.3 2706.69 3549.3 2708.69C3551.31 2710.69 3552.31 2713.09 3552.31 2715.87C3552.31 2718.7 3551.31 2721.12 3549.3 2723.12C3547.35 2725.07 3544.96 2726.05 3542.13 2726.05C3539.25 2726.05 3536.83 2725.07 3534.88 2723.12C3532.92 2721.17 3531.95 2718.73 3531.95 2715.8ZM3602.84 2707.96H3644.96V2724H3569.01L3608.26 2676.47C3612.12 2671.73 3615.34 2667.63 3617.93 2664.16C3620.57 2660.69 3622.57 2657.79 3623.94 2655.45C3626.72 2650.86 3628.11 2646.73 3628.11 2643.07C3628.11 2637.79 3626.26 2633.38 3622.55 2629.81C3618.84 2626.25 3614.25 2624.46 3608.78 2624.46C3597.35 2624.46 3590.81 2631.23 3589.15 2644.75H3572.16C3574.89 2620.92 3586.93 2609.01 3608.26 2609.01C3618.57 2609.01 3627.21 2612.28 3634.19 2618.82C3641.22 2625.37 3644.74 2633.47 3644.74 2643.14C3644.74 2649.29 3643.1 2655.32 3639.83 2661.23C3638.17 2664.31 3635.73 2667.97 3632.51 2672.22C3629.33 2676.42 3625.31 2681.4 3620.42 2687.16L3602.84 2707.96ZM3691.54 2727.88L3679.02 2718.58L3706.04 2681.74C3704.58 2681.93 3703.33 2682.08 3702.31 2682.18C3701.28 2682.28 3700.45 2682.33 3699.82 2682.33C3690.69 2682.33 3682.78 2678.83 3676.09 2671.85C3669.45 2664.92 3666.13 2656.57 3666.13 2646.8C3666.13 2636.4 3669.81 2627.52 3677.19 2620.14C3684.61 2612.72 3693.49 2609.01 3703.85 2609.01C3714.15 2609.01 3723.11 2612.67 3730.73 2620C3738.34 2627.27 3742.15 2635.87 3742.15 2645.78C3742.15 2654.57 3738.44 2664.06 3731.02 2674.27L3691.54 2727.88ZM3682.75 2645.56C3682.75 2651.66 3684.83 2656.79 3688.98 2660.94C3693.18 2665.14 3698.23 2667.24 3704.14 2667.24C3710.05 2667.24 3715.08 2665.16 3719.23 2661.01C3723.43 2656.81 3725.53 2651.76 3725.53 2645.85C3725.53 2639.94 3723.43 2634.89 3719.23 2630.69C3715.08 2626.54 3710.02 2624.46 3704.07 2624.46C3698.21 2624.46 3693.2 2626.54 3689.05 2630.69C3684.85 2634.89 3682.75 2639.84 3682.75 2645.56Z" fill="black"/>
<path d="M4483.55 2724V2610.91H4507.28C4518.66 2610.91 4527.64 2612.04 4534.23 2614.28C4541.31 2616.48 4547.73 2620.22 4553.5 2625.49C4565.17 2636.13 4571 2650.12 4571 2667.46C4571 2684.84 4564.92 2698.9 4552.76 2709.64C4546.66 2715.02 4540.26 2718.75 4533.57 2720.85C4527.32 2722.95 4518.46 2724 4506.99 2724H4483.55ZM4500.62 2707.96H4508.31C4515.97 2707.96 4522.34 2707.15 4527.42 2705.54C4532.5 2703.83 4537.09 2701.12 4541.19 2697.41C4549.59 2689.75 4553.79 2679.76 4553.79 2667.46C4553.79 2655.05 4549.64 2645 4541.34 2637.28C4533.87 2630.4 4522.86 2626.95 4508.31 2626.95H4500.62V2707.96ZM4654.35 2692.21H4603.23C4603.67 2698.07 4605.57 2702.74 4608.94 2706.2C4612.31 2709.62 4616.63 2711.33 4621.9 2711.33C4626.01 2711.33 4629.4 2710.35 4632.08 2708.4C4634.72 2706.45 4637.72 2702.83 4641.09 2697.56L4655.01 2705.32C4652.86 2708.99 4650.59 2712.13 4648.2 2714.77C4645.81 2717.36 4643.24 2719.51 4640.51 2721.22C4637.77 2722.88 4634.82 2724.1 4631.65 2724.88C4628.47 2725.66 4625.03 2726.05 4621.32 2726.05C4610.67 2726.05 4602.13 2722.63 4595.68 2715.8C4589.24 2708.91 4586.02 2699.78 4586.02 2688.4C4586.02 2677.12 4589.14 2667.99 4595.39 2661.01C4601.69 2654.13 4610.04 2650.68 4620.44 2650.68C4630.94 2650.68 4639.24 2654.03 4645.34 2660.72C4651.4 2667.36 4654.42 2676.56 4654.42 2688.33L4654.35 2692.21ZM4637.43 2678.74C4635.14 2669.95 4629.59 2665.55 4620.81 2665.55C4618.8 2665.55 4616.92 2665.87 4615.17 2666.5C4613.41 2667.09 4611.8 2667.97 4610.33 2669.14C4608.92 2670.26 4607.7 2671.63 4606.67 2673.24C4605.64 2674.85 4604.86 2676.69 4604.33 2678.74H4637.43ZM4727.96 2655.74V2677.64C4724.2 2673.05 4720.83 2669.9 4717.85 2668.19C4714.92 2666.43 4711.48 2665.55 4707.52 2665.55C4701.32 2665.55 4696.17 2667.73 4692.07 2672.07C4687.97 2676.42 4685.92 2681.86 4685.92 2688.4C4685.92 2695.09 4687.9 2700.59 4691.85 2704.88C4695.85 2709.18 4700.96 2711.33 4707.16 2711.33C4711.11 2711.33 4714.6 2710.47 4717.63 2708.77C4720.56 2707.11 4724 2703.88 4727.96 2699.1V2720.85C4721.27 2724.32 4714.58 2726.05 4707.89 2726.05C4696.86 2726.05 4687.63 2722.49 4680.21 2715.36C4672.78 2708.18 4669.07 2699.27 4669.07 2688.62C4669.07 2677.98 4672.83 2669 4680.35 2661.67C4687.87 2654.35 4697.1 2650.68 4708.04 2650.68C4715.07 2650.68 4721.71 2652.37 4727.96 2655.74ZM4746.49 2715.8C4746.49 2713.06 4747.49 2710.69 4749.49 2708.69C4751.49 2706.69 4753.89 2705.69 4756.67 2705.69C4759.45 2705.69 4761.85 2706.69 4763.85 2708.69C4765.85 2710.69 4766.85 2713.09 4766.85 2715.87C4766.85 2718.7 4765.85 2721.12 4763.85 2723.12C4761.89 2725.07 4759.5 2726.05 4756.67 2726.05C4753.79 2726.05 4751.37 2725.07 4749.42 2723.12C4747.47 2721.17 4746.49 2718.73 4746.49 2715.8ZM4808.45 2626.88H4788.9L4798.27 2610.91H4825.52V2724H4808.45V2626.88ZM4888.36 2671.49V2656.91C4895.59 2656.91 4900.44 2656.1 4902.93 2654.49C4907.38 2651.66 4909.6 2647.12 4909.6 2640.87C4909.6 2636.04 4907.99 2632.11 4904.77 2629.08C4901.59 2626 4897.47 2624.46 4892.39 2624.46C4887.65 2624.46 4883.99 2625.61 4881.4 2627.91C4878.91 2630.25 4877.06 2634.21 4875.83 2639.77H4858.84C4860.6 2629.13 4864.21 2621.34 4869.68 2616.41C4875.15 2611.43 4882.79 2608.94 4892.61 2608.94C4902.52 2608.94 4910.6 2611.87 4916.85 2617.73C4923.1 2623.54 4926.23 2631.03 4926.23 2640.21C4926.23 2650.56 4922.12 2658.62 4913.92 2664.38C4923.3 2669.9 4927.98 2678.86 4927.98 2691.26C4927.98 2701.42 4924.57 2709.72 4917.73 2716.16C4910.89 2722.61 4902.13 2725.83 4891.44 2725.83C4877.81 2725.83 4867.71 2720.83 4861.11 2710.82C4858.38 2706.62 4856.65 2700.81 4855.91 2693.38H4872.39C4873.27 2698.85 4875.4 2703.05 4878.76 2705.98C4882.18 2708.86 4886.63 2710.3 4892.09 2710.3C4897.61 2710.3 4902.18 2708.47 4905.79 2704.81C4909.4 2701.05 4911.21 2696.29 4911.21 2690.53C4911.21 2682.91 4908.5 2677.49 4903.08 2674.27C4899.91 2672.41 4895 2671.49 4888.36 2671.49Z" fill="black"/>
<path d="M6267.55 3025V2904.22L6350.02 2990.5V2911.91H6367.09V3031.88L6284.62 2945.83V3025H6267.55ZM6388.77 2988.82C6388.77 2978.52 6392.45 2969.75 6399.83 2962.52C6407.2 2955.3 6416.18 2951.68 6426.78 2951.68C6437.42 2951.68 6446.46 2955.32 6453.88 2962.6C6461.2 2969.87 6464.86 2978.81 6464.86 2989.4C6464.86 3000.1 6461.18 3009.06 6453.8 3016.28C6446.38 3023.46 6437.28 3027.05 6426.49 3027.05C6415.79 3027.05 6406.83 3023.39 6399.61 3016.06C6392.38 3008.84 6388.77 2999.76 6388.77 2988.82ZM6405.61 2989.11C6405.61 2996.24 6407.52 3001.88 6411.32 3006.03C6415.23 3010.23 6420.38 3012.33 6426.78 3012.33C6433.22 3012.33 6438.38 3010.25 6442.23 3006.1C6446.09 3001.95 6448.02 2996.41 6448.02 2989.48C6448.02 2982.54 6446.09 2977 6442.23 2972.85C6438.33 2968.65 6433.17 2966.55 6426.78 2966.55C6420.48 2966.55 6415.38 2968.65 6411.47 2972.85C6407.56 2977.05 6405.61 2982.47 6405.61 2989.11ZM6488.16 2953.66L6506.61 2993.73L6525 2953.66H6543.53L6506.47 3029.91L6469.7 2953.66H6488.16ZM6628.19 3008.96H6670.31V3025H6594.36L6633.61 2977.47C6637.47 2972.73 6640.69 2968.63 6643.28 2965.16C6645.92 2961.69 6647.92 2958.79 6649.29 2956.45C6652.07 2951.86 6653.46 2947.73 6653.46 2944.07C6653.46 2938.79 6651.61 2934.38 6647.9 2930.81C6644.19 2927.25 6639.6 2925.46 6634.13 2925.46C6622.7 2925.46 6616.16 2932.23 6614.5 2945.75H6597.51C6600.24 2921.92 6612.28 2910.01 6633.61 2910.01C6643.92 2910.01 6652.56 2913.28 6659.54 2919.82C6666.57 2926.37 6670.09 2934.47 6670.09 2944.14C6670.09 2950.29 6668.45 2956.32 6665.18 2962.23C6663.52 2965.31 6661.08 2968.97 6657.86 2973.22C6654.68 2977.42 6650.66 2982.4 6645.77 2988.16L6628.19 3008.96ZM6689.57 2967.72C6689.57 2949.71 6693.77 2935.33 6702.17 2924.58C6709.69 2914.87 6718.79 2910.01 6729.49 2910.01C6740.18 2910.01 6749.29 2914.87 6756.81 2924.58C6765.21 2935.33 6769.41 2949.95 6769.41 2968.46C6769.41 2986.91 6765.21 3001.51 6756.81 3012.26C6749.29 3021.97 6740.21 3026.83 6729.56 3026.83C6718.92 3026.83 6709.79 3021.97 6702.17 3012.26C6693.77 3001.51 6689.57 2986.67 6689.57 2967.72ZM6706.34 2967.8C6706.34 2980.35 6708.52 2990.77 6712.86 2999.07C6717.21 3007.23 6722.75 3011.3 6729.49 3011.3C6736.18 3011.3 6741.72 3007.23 6746.11 2999.07C6750.51 2990.97 6752.71 2980.74 6752.71 2968.38C6752.71 2956.03 6750.51 2945.78 6746.11 2937.62C6741.72 2929.52 6736.18 2925.46 6729.49 2925.46C6722.85 2925.46 6717.33 2929.52 6712.94 2937.62C6708.54 2945.68 6706.34 2955.74 6706.34 2967.8ZM6804.85 2927.88H6785.3L6794.67 2911.91H6821.92V3025H6804.85V2927.88ZM6906.44 2927.88H6850.63V2911.91H6934.93L6863.59 3028.88L6850.04 3020.31L6906.44 2927.88ZM6935.45 2981.57H6968.11V2995.92H6935.45V2981.57ZM7062.37 2911.91V2985.08C7062.37 2993.82 7061.76 3000.34 7060.54 3004.64C7059.32 3009.52 7057.25 3013.65 7054.32 3017.02C7048.6 3023.71 7041.04 3027.05 7031.61 3027.05C7024.48 3027.05 7017.82 3025.2 7011.62 3021.48L7019.97 3006.91C7024.12 3009.69 7028 3011.08 7031.61 3011.08C7036.69 3011.08 7040.21 3009.16 7042.16 3005.3C7044.21 3001.44 7045.24 2994.7 7045.24 2985.08V2911.91H7062.37ZM7138.91 2953.66H7155.46V3025H7138.91V3017.53C7132.12 3023.88 7124.83 3027.05 7117.01 3027.05C7107.15 3027.05 7099 3023.49 7092.55 3016.36C7086.15 3009.08 7082.96 3000 7082.96 2989.11C7082.96 2978.42 7086.15 2969.51 7092.55 2962.38C7098.95 2955.25 7106.95 2951.68 7116.57 2951.68C7124.87 2951.68 7132.32 2955.1 7138.91 2961.94V2953.66ZM7099.8 2989.11C7099.8 2995.95 7101.63 3001.51 7105.29 3005.81C7109.05 3010.16 7113.79 3012.33 7119.5 3012.33C7125.61 3012.33 7130.54 3010.23 7134.3 3006.03C7138.06 3001.68 7139.94 2996.17 7139.94 2989.48C7139.94 2982.79 7138.06 2977.27 7134.3 2972.92C7130.54 2968.68 7125.66 2966.55 7119.65 2966.55C7113.99 2966.55 7109.25 2968.7 7105.44 2973C7101.68 2977.34 7099.8 2982.71 7099.8 2989.11ZM7176.27 2953.66H7192.82V2960.25C7198.58 2954.54 7205.07 2951.68 7212.3 2951.68C7220.6 2951.68 7227.07 2954.3 7231.71 2959.52C7235.71 2963.96 7237.72 2971.22 7237.72 2981.27V3025H7221.16V2985.16C7221.16 2978.12 7220.19 2973.27 7218.23 2970.58C7216.33 2967.85 7212.86 2966.48 7207.83 2966.48C7202.36 2966.48 7198.48 2968.29 7196.19 2971.9C7193.94 2975.46 7192.82 2981.69 7192.82 2990.58V3025H7176.27V2953.66ZM7332.05 3008.96H7374.17V3025H7298.21L7337.47 2977.47C7341.33 2972.73 7344.55 2968.63 7347.14 2965.16C7349.78 2961.69 7351.78 2958.79 7353.15 2956.45C7355.93 2951.86 7357.32 2947.73 7357.32 2944.07C7357.32 2938.79 7355.46 2934.38 7351.75 2930.81C7348.04 2927.25 7343.45 2925.46 7337.98 2925.46C7326.56 2925.46 7320.02 2932.23 7318.36 2945.75H7301.36C7304.1 2921.92 7316.13 2910.01 7337.47 2910.01C7347.77 2910.01 7356.42 2913.28 7363.4 2919.82C7370.43 2926.37 7373.95 2934.47 7373.95 2944.14C7373.95 2950.29 7372.31 2956.32 7369.04 2962.23C7367.38 2965.31 7364.94 2968.97 7361.71 2973.22C7358.54 2977.42 7354.51 2982.4 7349.63 2988.16L7332.05 3008.96ZM7393.43 2967.72C7393.43 2949.71 7397.63 2935.33 7406.03 2924.58C7413.55 2914.87 7422.65 2910.01 7433.35 2910.01C7444.04 2910.01 7453.15 2914.87 7460.67 2924.58C7469.06 2935.33 7473.26 2949.95 7473.26 2968.46C7473.26 2986.91 7469.06 3001.51 7460.67 3012.26C7453.15 3021.97 7444.06 3026.83 7433.42 3026.83C7422.77 3026.83 7413.64 3021.97 7406.03 3012.26C7397.63 3001.51 7393.43 2986.67 7393.43 2967.72ZM7410.2 2967.8C7410.2 2980.35 7412.37 2990.77 7416.72 2999.07C7421.07 3007.23 7426.61 3011.3 7433.35 3011.3C7440.04 3011.3 7445.58 3007.23 7449.97 2999.07C7454.37 2990.97 7456.56 2980.74 7456.56 2968.38C7456.56 2956.03 7454.37 2945.78 7449.97 2937.62C7445.58 2929.52 7440.04 2925.46 7433.35 2925.46C7426.71 2925.46 7421.19 2929.52 7416.79 2937.62C7412.4 2945.68 7410.2 2955.74 7410.2 2967.8ZM7508.71 2927.88H7489.16L7498.53 2911.91H7525.78V3025H7508.71V2927.88ZM7575.44 2966.19C7567.13 2960.33 7562.98 2952.34 7562.98 2942.24C7562.98 2933.06 7566.13 2925.39 7572.43 2919.24C7578.78 2913.09 7586.67 2910.01 7596.09 2910.01C7605.46 2910.01 7613.28 2913.09 7619.53 2919.24C7625.78 2925.34 7628.9 2933.03 7628.9 2942.31C7628.9 2952.03 7624.78 2959.96 7616.52 2966.11C7621.07 2968.55 7624.63 2972.12 7627.22 2976.81C7629.85 2981.49 7631.17 2986.77 7631.17 2992.63C7631.17 3002.64 7627.9 3010.84 7621.36 3017.24C7614.82 3023.63 7606.44 3026.83 7596.24 3026.83C7585.79 3026.83 7577.17 3023.61 7570.38 3017.16C7563.55 3010.72 7560.13 3002.61 7560.13 2992.85C7560.13 2980.15 7565.23 2971.26 7575.44 2966.19ZM7579.02 2942.16C7579.02 2947 7580.66 2951.05 7583.93 2954.32C7587.25 2957.64 7591.26 2959.3 7595.94 2959.3C7600.58 2959.3 7604.56 2957.64 7607.88 2954.32C7611.2 2951 7612.86 2947.02 7612.86 2942.38C7612.86 2937.74 7611.2 2933.76 7607.88 2930.44C7604.56 2927.12 7600.58 2925.46 7595.94 2925.46C7591.3 2925.46 7587.33 2927.12 7584 2930.44C7580.68 2933.76 7579.02 2937.67 7579.02 2942.16ZM7576.9 2992.26C7576.9 2997.49 7578.71 3001.98 7582.32 3005.74C7585.98 3009.45 7590.43 3011.3 7595.65 3011.3C7600.83 3011.3 7605.25 3009.47 7608.91 3005.81C7612.57 3002.1 7614.4 2997.66 7614.4 2992.48C7614.4 2987.26 7612.57 2982.81 7608.91 2979.15C7605.25 2975.49 7600.83 2973.66 7595.65 2973.66C7590.52 2973.66 7586.1 2975.49 7582.39 2979.15C7578.73 2982.81 7576.9 2987.18 7576.9 2992.26Z" fill="black"/>
<path d="M480.26 2953.29L465.025 3077H448.912L449.791 3069.6C445.787 3073.17 442.32 3075.58 439.391 3076.85C436.51 3078.03 432.945 3078.61 428.697 3078.61C419.029 3078.61 411.119 3075.41 404.967 3069.02C398.814 3062.57 395.738 3054.27 395.738 3044.11C395.738 3033.27 399.107 3024.27 405.846 3017.09C412.584 3009.91 421.056 3006.32 431.261 3006.32C436.485 3006.32 440.88 3007.22 444.444 3009.03C448.155 3010.89 452.037 3014.04 456.09 3018.48L464.073 2953.29H480.26ZM453.6 3039.5C453.6 3033.64 451.793 3028.9 448.18 3025.29C444.566 3021.68 439.83 3019.87 433.971 3019.87C427.623 3019.87 422.374 3022.24 418.224 3026.98C414.073 3031.71 411.998 3037.69 411.998 3044.92C411.998 3051.02 413.78 3055.93 417.345 3059.64C420.909 3063.3 425.646 3065.13 431.554 3065.13C437.706 3065.13 442.906 3062.64 447.154 3057.66C451.451 3052.78 453.6 3046.73 453.6 3039.5ZM565.074 3008.01L556.578 3077H540.392L541.344 3069.53C534.41 3075.58 527.232 3078.61 519.811 3078.61C510.68 3078.61 503.233 3075.51 497.472 3069.31C491.71 3063.11 488.829 3055.08 488.829 3045.21C488.829 3033.84 492.125 3024.51 498.717 3017.23C505.406 3009.96 513.976 3006.32 524.425 3006.32C529.356 3006.32 533.556 3007.13 537.022 3008.74C540.538 3010.35 544.127 3013.13 547.789 3017.09L548.888 3008.01H565.074ZM545.372 3040.53C545.372 3034.42 543.614 3029.47 540.099 3025.66C536.583 3021.8 532.042 3019.87 526.476 3019.87C520.421 3019.87 515.343 3022.24 511.241 3026.98C507.14 3031.76 505.089 3037.62 505.089 3044.55C505.089 3050.61 506.798 3055.56 510.216 3059.42C513.634 3063.28 518.028 3065.21 523.399 3065.21C529.356 3065.21 534.508 3062.79 538.854 3057.96C543.199 3053.03 545.372 3047.21 545.372 3040.53ZM603.233 3023.02L596.568 3077H580.382L587.047 3023.02H577.892L579.723 3008.01H588.878L592.833 2976H609.02L605.064 3008.01H620.006L618.175 3023.02H603.233ZM702.33 3008.01L693.834 3077H677.647L678.6 3069.53C671.666 3075.58 664.488 3078.61 657.066 3078.61C647.936 3078.61 640.489 3075.51 634.728 3069.31C628.966 3063.11 626.085 3055.08 626.085 3045.21C626.085 3033.84 629.381 3024.51 635.973 3017.23C642.662 3009.96 651.231 3006.32 661.681 3006.32C666.612 3006.32 670.812 3007.13 674.278 3008.74C677.794 3010.35 681.383 3013.13 685.045 3017.09L686.144 3008.01H702.33ZM682.628 3040.53C682.628 3034.42 680.87 3029.47 677.354 3025.66C673.839 3021.8 669.298 3019.87 663.731 3019.87C657.677 3019.87 652.599 3022.24 648.497 3026.98C644.396 3031.76 642.345 3037.62 642.345 3044.55C642.345 3050.61 644.054 3055.56 647.472 3059.42C650.89 3063.28 655.284 3065.21 660.655 3065.21C666.612 3065.21 671.764 3062.79 676.109 3057.96C680.455 3053.03 682.628 3047.21 682.628 3040.53ZM786.705 3023.02L780.113 3077H763.927L770.592 3023.02H760.045L761.876 3008.01H772.423L776.231 2977.17C777.208 2968.97 779.43 2962.94 782.896 2959.08C786.363 2955.22 791.319 2953.29 797.765 2953.29C801.671 2953.29 806.236 2954.54 811.461 2957.03L809.703 2971.24C806.676 2968.8 803.893 2967.58 801.354 2967.58C798.424 2967.58 796.251 2968.58 794.835 2970.58C793.517 2972.58 792.516 2976.27 791.832 2981.64L788.609 3008.01H803.258L801.427 3023.02H786.705ZM833.653 3008.01L832.921 3013.94C838.39 3008.76 843.907 3006.17 849.474 3006.17C854.356 3006.17 858.8 3007.96 862.804 3011.52L852.477 3024.85C849.498 3022.31 846.52 3021.04 843.541 3021.04C841.49 3021.04 839.684 3021.46 838.121 3022.29C836.559 3023.07 835.191 3024.34 834.02 3026.1C832.896 3027.81 831.944 3030.03 831.163 3032.76C830.431 3035.5 829.845 3038.77 829.405 3042.58L825.157 3077H808.971L817.467 3008.01H833.653ZM941.539 3041.84C941.539 3052.39 937.877 3061.25 930.553 3068.43C923.277 3075.61 914.293 3079.2 903.6 3079.2C892.418 3079.2 883.287 3075.8 876.207 3069.02C869.078 3062.18 865.514 3053.54 865.514 3043.09C865.514 3032.4 869.2 3023.51 876.573 3016.43C883.995 3009.3 893.272 3005.74 904.405 3005.74C915.343 3005.74 924.254 3009.1 931.139 3015.84C938.072 3022.48 941.539 3031.15 941.539 3041.84ZM925.206 3041.04C925.206 3034.4 923.277 3029.15 919.42 3025.29C915.562 3021.29 910.509 3019.29 904.259 3019.29C897.765 3019.29 892.394 3021.51 888.146 3025.95C883.897 3030.44 881.773 3036.08 881.773 3042.87C881.773 3049.71 883.775 3055.2 887.779 3059.35C891.783 3063.6 896.959 3065.72 903.307 3065.72C909.654 3065.72 914.879 3063.4 918.98 3058.76C923.131 3054.17 925.206 3048.26 925.206 3041.04ZM980.797 3008.01L980.064 3014.45C985.533 3008.98 991.856 3006.25 999.034 3006.25C1003.38 3006.25 1006.72 3007.05 1009.07 3008.67C1011.41 3010.18 1013.51 3013.04 1015.37 3017.23C1022.2 3009.96 1029.58 3006.32 1037.49 3006.32C1051.16 3006.32 1057.99 3012.6 1057.99 3025.14C1057.99 3026.41 1057.87 3028.2 1057.63 3030.49C1057.43 3032.79 1057.14 3035.62 1056.75 3038.99L1052.06 3077H1035.88L1040.86 3037.08C1041.29 3033.37 1041.51 3030.64 1041.51 3028.88C1041.51 3022.87 1038.49 3019.87 1032.43 3019.87C1030.04 3019.87 1027.96 3020.24 1026.21 3020.97C1024.45 3021.65 1022.94 3022.75 1021.67 3024.27C1020.45 3025.73 1019.42 3027.66 1018.59 3030.05C1017.81 3032.4 1017.2 3035.2 1016.76 3038.47L1012.07 3077H995.885L1000.94 3036.06C1001.38 3032.35 1001.6 3029.81 1001.6 3028.44C1001.6 3022.73 998.497 3019.87 992.296 3019.87C983.312 3019.87 978.062 3026.1 976.549 3038.55L971.788 3077H955.602L964.098 3008.01H980.797ZM1195.91 3008.01L1133.43 3116.48H1114.98L1142.74 3068.43L1118.05 3008.01H1135.34L1152.4 3052.1L1177.38 3008.01H1195.91ZM1274.79 3041.84C1274.79 3052.39 1271.13 3061.25 1263.8 3068.43C1256.53 3075.61 1247.54 3079.2 1236.85 3079.2C1225.67 3079.2 1216.54 3075.8 1209.46 3069.02C1202.33 3062.18 1198.77 3053.54 1198.77 3043.09C1198.77 3032.4 1202.45 3023.51 1209.83 3016.43C1217.25 3009.3 1226.52 3005.74 1237.66 3005.74C1248.59 3005.74 1257.51 3009.1 1264.39 3015.84C1271.32 3022.48 1274.79 3031.15 1274.79 3041.84ZM1258.46 3041.04C1258.46 3034.4 1256.53 3029.15 1252.67 3025.29C1248.81 3021.29 1243.76 3019.29 1237.51 3019.29C1231.02 3019.29 1225.65 3021.51 1221.4 3025.95C1217.15 3030.44 1215.03 3036.08 1215.03 3042.87C1215.03 3049.71 1217.03 3055.2 1221.03 3059.35C1225.04 3063.6 1230.21 3065.72 1236.56 3065.72C1242.91 3065.72 1248.13 3063.4 1252.23 3058.76C1256.38 3054.17 1258.46 3048.26 1258.46 3041.04ZM1356.75 3008.01L1351.84 3048.14C1351.45 3051.56 1350.96 3054.54 1350.38 3057.08C1349.79 3059.62 1349.16 3061.74 1348.47 3063.45C1347.11 3066.72 1344.81 3069.63 1341.59 3072.17C1336.12 3076.46 1328.92 3078.61 1319.98 3078.61C1311.49 3078.61 1304.7 3076.44 1299.62 3072.09C1294.54 3067.7 1292 3061.81 1292 3054.44C1292 3053.32 1292.05 3052 1292.15 3050.49C1292.3 3048.97 1292.49 3047.24 1292.74 3045.29L1297.28 3008.01H1313.46L1308.7 3046.75C1308.51 3048.41 1308.36 3049.88 1308.26 3051.15C1308.17 3052.37 1308.12 3053.39 1308.12 3054.22C1308.12 3061.5 1312.39 3065.13 1320.93 3065.13C1325.57 3065.13 1328.99 3063.94 1331.19 3061.55C1333.38 3059.15 1334.85 3054.95 1335.58 3048.95L1340.64 3008.01H1356.75ZM1448.81 3008.01L1440.32 3077.51C1439.78 3081.66 1439.17 3085.28 1438.49 3088.35C1437.85 3091.43 1437.12 3094.02 1436.29 3096.12C1434.58 3100.41 1432.04 3104.1 1428.67 3107.18C1422.13 3113.04 1413.63 3115.96 1403.18 3115.96C1392.39 3115.96 1383.65 3113.13 1376.96 3107.47C1373.55 3104.64 1371.15 3101.41 1369.79 3097.8C1368.42 3094.48 1367.74 3089.82 1367.74 3083.81H1383.41C1383.8 3090.31 1385.46 3095.02 1388.39 3097.95C1391.32 3100.93 1395.86 3102.42 1402.01 3102.42C1408.65 3102.42 1413.71 3100.63 1417.17 3097.07C1420.64 3093.55 1422.84 3087.94 1423.77 3080.22L1424.94 3070.77C1418.1 3076 1410.92 3078.61 1403.4 3078.61C1394.03 3078.61 1386.29 3075.41 1380.19 3069.02C1374.08 3062.47 1371.03 3054.32 1371.03 3044.55C1371.03 3033.57 1374.57 3024.46 1381.65 3017.23C1388.78 3009.96 1397.69 3006.32 1408.38 3006.32C1413.51 3006.32 1417.66 3007.08 1420.84 3008.59C1424.3 3010.06 1427.89 3012.72 1431.6 3016.58L1432.63 3008.01H1448.81ZM1430.21 3040.75C1430.21 3034.5 1428.31 3029.47 1424.5 3025.66C1420.69 3021.8 1415.71 3019.87 1409.56 3019.87C1403.16 3019.87 1397.84 3022.21 1393.59 3026.9C1389.39 3031.54 1387.29 3037.38 1387.29 3044.41C1387.29 3050.56 1389.1 3055.59 1392.71 3059.5C1396.37 3063.25 1401.21 3065.13 1407.21 3065.13C1413.9 3065.13 1419.4 3062.84 1423.69 3058.25C1428.04 3053.61 1430.21 3047.78 1430.21 3040.75ZM1539.2 3041.84C1539.2 3052.39 1535.53 3061.25 1528.21 3068.43C1520.93 3075.61 1511.95 3079.2 1501.26 3079.2C1490.07 3079.2 1480.94 3075.8 1473.86 3069.02C1466.73 3062.18 1463.17 3053.54 1463.17 3043.09C1463.17 3032.4 1466.86 3023.51 1474.23 3016.43C1481.65 3009.3 1490.93 3005.74 1502.06 3005.74C1513 3005.74 1521.91 3009.1 1528.79 3015.84C1535.73 3022.48 1539.2 3031.15 1539.2 3041.84ZM1522.86 3041.04C1522.86 3034.4 1520.93 3029.15 1517.08 3025.29C1513.22 3021.29 1508.17 3019.29 1501.92 3019.29C1495.42 3019.29 1490.05 3021.51 1485.8 3025.95C1481.55 3030.44 1479.43 3036.08 1479.43 3042.87C1479.43 3049.71 1481.43 3055.2 1485.44 3059.35C1489.44 3063.6 1494.62 3065.72 1500.96 3065.72C1507.31 3065.72 1512.54 3063.4 1516.64 3058.76C1520.79 3054.17 1522.86 3048.26 1522.86 3041.04ZM1620.93 3008.01L1573.47 3085.94L1548.94 3008.01H1565.78L1577.65 3052.1L1602.4 3008.01H1620.93ZM1639.9 3069.02C1639.9 3071.6 1638.9 3073.85 1636.9 3075.75C1634.9 3077.66 1632.58 3078.61 1629.94 3078.61C1627.26 3078.61 1624.96 3077.63 1623.06 3075.68C1621.15 3073.73 1620.2 3071.34 1620.2 3068.5C1620.2 3065.77 1621.08 3063.47 1622.84 3061.62C1624.69 3059.76 1626.92 3058.84 1629.5 3058.84C1632.38 3058.84 1634.83 3059.84 1636.83 3061.84C1638.88 3063.84 1639.9 3066.23 1639.9 3069.02ZM1722.89 3014.67L1720.84 3031.15C1717.52 3026.9 1714.34 3023.85 1711.31 3022C1708.34 3020.19 1704.82 3019.29 1700.77 3019.29C1694.62 3019.29 1689.56 3021.56 1685.61 3026.1C1681.65 3030.64 1679.67 3036.47 1679.67 3043.6C1679.67 3050.29 1681.53 3055.64 1685.24 3059.64C1689 3063.69 1693.86 3065.72 1699.82 3065.72C1705.53 3065.72 1711.44 3063.25 1717.54 3058.32L1715.42 3075.39C1709.17 3077.93 1703.21 3079.2 1697.54 3079.2C1687.44 3079.2 1679.21 3075.9 1672.86 3069.31C1666.56 3062.72 1663.41 3054.17 1663.41 3043.67C1663.41 3032.88 1666.81 3023.88 1673.59 3016.65C1680.43 3009.37 1688.93 3005.74 1699.08 3005.74C1707.38 3005.74 1715.32 3008.71 1722.89 3014.67ZM1808.43 3041.84C1808.43 3052.39 1804.77 3061.25 1797.45 3068.43C1790.17 3075.61 1781.19 3079.2 1770.49 3079.2C1759.31 3079.2 1750.18 3075.8 1743.1 3069.02C1735.97 3062.18 1732.41 3053.54 1732.41 3043.09C1732.41 3032.4 1736.09 3023.51 1743.47 3016.43C1750.89 3009.3 1760.17 3005.74 1771.3 3005.74C1782.24 3005.74 1791.15 3009.1 1798.03 3015.84C1804.97 3022.48 1808.43 3031.15 1808.43 3041.84ZM1792.1 3041.04C1792.1 3034.4 1790.17 3029.15 1786.31 3025.29C1782.46 3021.29 1777.4 3019.29 1771.15 3019.29C1764.66 3019.29 1759.29 3021.51 1755.04 3025.95C1750.79 3030.44 1748.67 3036.08 1748.67 3042.87C1748.67 3049.71 1750.67 3055.2 1754.67 3059.35C1758.68 3063.6 1763.85 3065.72 1770.2 3065.72C1776.55 3065.72 1781.77 3063.4 1785.88 3058.76C1790.03 3054.17 1792.1 3048.26 1792.1 3041.04ZM1847.69 3008.01L1846.96 3014.45C1852.43 3008.98 1858.75 3006.25 1865.93 3006.25C1870.27 3006.25 1873.62 3007.05 1875.96 3008.67C1878.31 3010.18 1880.41 3013.04 1882.26 3017.23C1889.1 3009.96 1896.47 3006.32 1904.38 3006.32C1918.05 3006.32 1924.89 3012.6 1924.89 3025.14C1924.89 3026.41 1924.77 3028.2 1924.52 3030.49C1924.33 3032.79 1924.03 3035.62 1923.64 3038.99L1918.96 3077H1902.77L1907.75 3037.08C1908.19 3033.37 1908.41 3030.64 1908.41 3028.88C1908.41 3022.87 1905.38 3019.87 1899.33 3019.87C1896.93 3019.87 1894.86 3020.24 1893.1 3020.97C1891.34 3021.65 1889.83 3022.75 1888.56 3024.27C1887.34 3025.73 1886.31 3027.66 1885.48 3030.05C1884.7 3032.4 1884.09 3035.2 1883.65 3038.47L1878.97 3077H1862.78L1867.83 3036.06C1868.27 3032.35 1868.49 3029.81 1868.49 3028.44C1868.49 3022.73 1865.39 3019.87 1859.19 3019.87C1850.21 3019.87 1844.96 3026.1 1843.44 3038.55L1838.68 3077H1822.5L1830.99 3008.01H1847.69Z" fill="black"/>
<path d="M5945.97 2610.91V2684.08C5945.97 2692.82 5945.36 2699.34 5944.14 2703.64C5942.92 2708.52 5940.85 2712.65 5937.92 2716.02C5932.2 2722.71 5924.64 2726.05 5915.21 2726.05C5908.08 2726.05 5901.42 2724.2 5895.22 2720.48L5903.57 2705.91C5907.72 2708.69 5911.6 2710.08 5915.21 2710.08C5920.29 2710.08 5923.81 2708.16 5925.76 2704.3C5927.81 2700.44 5928.83 2693.7 5928.83 2684.08V2610.91H5945.97ZM6022.51 2652.66H6039.06V2724H6022.51V2716.53C6015.72 2722.88 6008.42 2726.05 6000.61 2726.05C5990.75 2726.05 5982.59 2722.49 5976.15 2715.36C5969.75 2708.08 5966.55 2699 5966.55 2688.11C5966.55 2677.42 5969.75 2668.51 5976.15 2661.38C5982.55 2654.25 5990.55 2650.68 6000.17 2650.68C6008.47 2650.68 6015.92 2654.1 6022.51 2660.94V2652.66ZM5983.4 2688.11C5983.4 2694.95 5985.23 2700.51 5988.89 2704.81C5992.65 2709.16 5997.39 2711.33 6003.1 2711.33C6009.21 2711.33 6014.14 2709.23 6017.9 2705.03C6021.66 2700.68 6023.54 2695.17 6023.54 2688.48C6023.54 2681.79 6021.66 2676.27 6017.9 2671.92C6014.14 2667.68 6009.25 2665.55 6003.25 2665.55C5997.58 2665.55 5992.85 2667.7 5989.04 2672C5985.28 2676.34 5983.4 2681.71 5983.4 2688.11ZM6059.87 2652.66H6076.42V2659.25C6082.18 2653.54 6088.67 2650.68 6095.9 2650.68C6104.2 2650.68 6110.67 2653.3 6115.31 2658.52C6119.31 2662.96 6121.32 2670.22 6121.32 2680.27V2724H6104.76V2684.16C6104.76 2677.12 6103.79 2672.27 6101.83 2669.58C6099.93 2666.85 6096.46 2665.48 6091.43 2665.48C6085.96 2665.48 6082.08 2667.29 6079.79 2670.9C6077.54 2674.46 6076.42 2680.69 6076.42 2689.58V2724H6059.87V2652.66ZM6144.75 2715.8C6144.75 2713.06 6145.75 2710.69 6147.76 2708.69C6149.76 2706.69 6152.15 2705.69 6154.93 2705.69C6157.72 2705.69 6160.11 2706.69 6162.11 2708.69C6164.11 2710.69 6165.11 2713.09 6165.11 2715.87C6165.11 2718.7 6164.11 2721.12 6162.11 2723.12C6160.16 2725.07 6157.77 2726.05 6154.93 2726.05C6152.05 2726.05 6149.64 2725.07 6147.68 2723.12C6145.73 2721.17 6144.75 2718.73 6144.75 2715.8ZM6206.72 2626.88H6187.16L6196.54 2610.91H6223.78V2724H6206.72V2626.88ZM6255.93 2666.72C6255.93 2648.71 6260.13 2634.33 6268.53 2623.58C6276.05 2613.87 6285.16 2609.01 6295.85 2609.01C6306.54 2609.01 6315.65 2613.87 6323.17 2623.58C6331.57 2634.33 6335.77 2648.95 6335.77 2667.46C6335.77 2685.91 6331.57 2700.51 6323.17 2711.26C6315.65 2720.97 6306.57 2725.83 6295.92 2725.83C6285.28 2725.83 6276.15 2720.97 6268.53 2711.26C6260.13 2700.51 6255.93 2685.67 6255.93 2666.72ZM6272.71 2666.8C6272.71 2679.35 6274.88 2689.77 6279.23 2698.07C6283.57 2706.23 6289.11 2710.3 6295.85 2710.3C6302.54 2710.3 6308.08 2706.23 6312.48 2698.07C6316.87 2689.97 6319.07 2679.74 6319.07 2667.38C6319.07 2655.03 6316.87 2644.78 6312.48 2636.62C6308.08 2628.52 6302.54 2624.46 6295.85 2624.46C6289.21 2624.46 6283.69 2628.52 6279.3 2636.62C6274.9 2644.68 6272.71 2654.74 6272.71 2666.8Z" fill="black"/>
<path d="M7178.97 2610.91V2684.08C7178.97 2692.82 7178.36 2699.34 7177.14 2703.64C7175.92 2708.52 7173.85 2712.65 7170.92 2716.02C7165.2 2722.71 7157.64 2726.05 7148.21 2726.05C7141.08 2726.05 7134.42 2724.2 7128.22 2720.48L7136.57 2705.91C7140.72 2708.69 7144.6 2710.08 7148.21 2710.08C7153.29 2710.08 7156.81 2708.16 7158.76 2704.3C7160.81 2700.44 7161.83 2693.7 7161.83 2684.08V2610.91H7178.97ZM7255.51 2652.66H7272.06V2724H7255.51V2716.53C7248.72 2722.88 7241.42 2726.05 7233.61 2726.05C7223.75 2726.05 7215.59 2722.49 7209.15 2715.36C7202.75 2708.08 7199.55 2699 7199.55 2688.11C7199.55 2677.42 7202.75 2668.51 7209.15 2661.38C7215.55 2654.25 7223.55 2650.68 7233.17 2650.68C7241.47 2650.68 7248.92 2654.1 7255.51 2660.94V2652.66ZM7216.4 2688.11C7216.4 2694.95 7218.23 2700.51 7221.89 2704.81C7225.65 2709.16 7230.39 2711.33 7236.1 2711.33C7242.21 2711.33 7247.14 2709.23 7250.9 2705.03C7254.66 2700.68 7256.54 2695.17 7256.54 2688.48C7256.54 2681.79 7254.66 2676.27 7250.9 2671.92C7247.14 2667.68 7242.25 2665.55 7236.25 2665.55C7230.58 2665.55 7225.85 2667.7 7222.04 2672C7218.28 2676.34 7216.4 2681.71 7216.4 2688.11ZM7292.87 2652.66H7309.42V2659.25C7315.18 2653.54 7321.67 2650.68 7328.9 2650.68C7337.2 2650.68 7343.67 2653.3 7348.31 2658.52C7352.31 2662.96 7354.32 2670.22 7354.32 2680.27V2724H7337.76V2684.16C7337.76 2677.12 7336.79 2672.27 7334.83 2669.58C7332.93 2666.85 7329.46 2665.48 7324.43 2665.48C7318.96 2665.48 7315.08 2667.29 7312.79 2670.9C7310.54 2674.46 7309.42 2680.69 7309.42 2689.58V2724H7292.87V2652.66ZM7377.75 2715.8C7377.75 2713.06 7378.75 2710.69 7380.76 2708.69C7382.76 2706.69 7385.15 2705.69 7387.93 2705.69C7390.72 2705.69 7393.11 2706.69 7395.11 2708.69C7397.11 2710.69 7398.11 2713.09 7398.11 2715.87C7398.11 2718.7 7397.11 2721.12 7395.11 2723.12C7393.16 2725.07 7390.77 2726.05 7387.93 2726.05C7385.05 2726.05 7382.64 2725.07 7380.68 2723.12C7378.73 2721.17 7377.75 2718.73 7377.75 2715.8ZM7448.65 2707.96H7490.77V2724H7414.81L7454.07 2676.47C7457.93 2671.73 7461.15 2667.63 7463.74 2664.16C7466.38 2660.69 7468.38 2657.79 7469.75 2655.45C7472.53 2650.86 7473.92 2646.73 7473.92 2643.07C7473.92 2637.79 7472.06 2633.38 7468.35 2629.81C7464.64 2626.25 7460.05 2624.46 7454.58 2624.46C7443.16 2624.46 7436.62 2631.23 7434.96 2644.75H7417.96C7420.7 2620.92 7432.73 2609.01 7454.07 2609.01C7464.37 2609.01 7473.02 2612.28 7480 2618.82C7487.03 2625.37 7490.55 2633.47 7490.55 2643.14C7490.55 2649.29 7488.91 2655.32 7485.64 2661.23C7483.98 2664.31 7481.54 2667.97 7478.31 2672.22C7475.14 2676.42 7471.11 2681.4 7466.23 2687.16L7448.65 2707.96ZM7576.61 2692.43H7588.62V2707.96H7576.61V2724H7559.54V2707.96H7504.02L7576.61 2602.49V2692.43ZM7559.54 2692.43V2654.57L7533.47 2692.43H7559.54Z" fill="black"/>
<path d="M744 2029L7507 2029" stroke="#8E8E8E" stroke-opacity="0.6" stroke-width="6"/>
<path d="M744 2332L7507 2332" stroke="#8E8E8E" stroke-opacity="0.6" stroke-width="6"/>
<path d="M700 2494H7507" stroke="#8E8E8E" stroke-opacity="0.6" stroke-width="6"/>
<path d="M744 1711L7507 1711" stroke="#8E8E8E" stroke-opacity="0.6" stroke-width="6"/>
<path d="M744 1395L7507 1395" stroke="#8E8E8E" stroke-opacity="0.6" stroke-width="6"/>
<path d="M744 1079H7507.57" stroke="#8E8E8E" stroke-opacity="0.6" stroke-width="6"/>
<path d="M744 763H7507.57" stroke="#8E8E8E" stroke-opacity="0.6" stroke-width="6"/>
<path d="M744 605H7507.57" stroke="#8E8E8E" stroke-opacity="0.6" stroke-width="6"/>
<path d="M744 467H7507.57" stroke="#8E8E8E" stroke-opacity="0.6" stroke-width="6"/>
<path d="M744 921H7507.57" stroke="#8E8E8E" stroke-opacity="0.6" stroke-width="6"/>
<path d="M744 1237H7507.57" stroke="#8E8E8E" stroke-opacity="0.6" stroke-width="6"/>
<path d="M744 1553H7507.57" stroke="#8E8E8E" stroke-opacity="0.6" stroke-width="6"/>
<path d="M744 1871H7507.57" stroke="#8E8E8E" stroke-opacity="0.6" stroke-width="6"/>
<path d="M744 2187H7507.57" stroke="#8E8E8E" stroke-opacity="0.6" stroke-width="6"/>
<path d="M700 2553V2435" stroke="black" stroke-width="6"/>
<path d="M2059 2553V2435" stroke="black" stroke-width="6"/>
<path d="M3482 2553V2435" stroke="black" stroke-width="6"/>
<path d="M4726 2553V2435" stroke="black" stroke-width="6"/>
<path d="M6123 2553V2435" stroke="black" stroke-width="6"/>
<path d="M7356 2553V2435" stroke="black" stroke-width="6"/>
<path d="M7401 1287L7499.5 1342.5H7666.5" stroke="#58321B" stroke-width="22"/>
<path d="M7723.36 1321.89H7760.75V1324.88C7760.75 1331.68 7759.95 1337.69 7758.34 1342.93C7756.78 1347.77 7754.14 1352.3 7750.43 1356.52C7742.04 1365.97 7731.35 1370.7 7718.38 1370.7C7705.73 1370.7 7694.89 1366.13 7685.86 1356.99C7676.84 1347.81 7672.33 1336.79 7672.33 1323.94C7672.33 1310.82 7676.92 1299.68 7686.1 1290.54C7695.28 1281.36 7706.45 1276.77 7719.61 1276.77C7726.68 1276.77 7733.29 1278.22 7739.42 1281.11C7745.28 1284 7751.04 1288.69 7756.7 1295.17L7746.98 1304.49C7739.55 1294.61 7730.51 1289.66 7719.85 1289.66C7710.28 1289.66 7702.25 1292.96 7695.77 1299.57C7689.28 1306.05 7686.04 1314.18 7686.04 1323.94C7686.04 1334.02 7689.65 1342.32 7696.88 1348.84C7703.64 1354.9 7710.96 1357.93 7718.85 1357.93C7725.57 1357.93 7731.61 1355.66 7736.96 1351.13C7742.31 1346.56 7745.3 1341.09 7745.92 1334.72H7723.36V1321.89ZM7827.43 1343.57H7786.53C7786.88 1348.26 7788.4 1351.99 7791.1 1354.76C7793.79 1357.5 7797.25 1358.86 7801.47 1358.86C7804.75 1358.86 7807.46 1358.08 7809.61 1356.52C7811.72 1354.96 7814.12 1352.07 7816.82 1347.85L7827.95 1354.06C7826.23 1356.99 7824.42 1359.51 7822.5 1361.62C7820.59 1363.69 7818.54 1365.41 7816.35 1366.77C7814.16 1368.1 7811.8 1369.08 7809.26 1369.7C7806.72 1370.33 7803.97 1370.64 7801 1370.64C7792.48 1370.64 7785.65 1367.91 7780.49 1362.44C7775.34 1356.93 7772.76 1349.62 7772.76 1340.52C7772.76 1331.5 7775.26 1324.2 7780.26 1318.61C7785.3 1313.1 7791.98 1310.35 7800.3 1310.35C7808.7 1310.35 7815.34 1313.02 7820.22 1318.38C7825.06 1323.69 7827.48 1331.05 7827.48 1340.46L7827.43 1343.57ZM7813.89 1332.79C7812.05 1325.76 7807.62 1322.24 7800.59 1322.24C7798.99 1322.24 7797.48 1322.5 7796.08 1323C7794.67 1323.47 7793.38 1324.18 7792.21 1325.11C7791.08 1326.01 7790.1 1327.11 7789.28 1328.39C7788.46 1329.68 7787.84 1331.15 7787.41 1332.79H7813.89ZM7841.9 1311.93H7855.14V1317.2C7859.75 1312.63 7864.95 1310.35 7870.73 1310.35C7877.37 1310.35 7882.54 1312.44 7886.25 1316.62C7889.46 1320.17 7891.06 1325.97 7891.06 1334.02V1369H7877.82V1337.12C7877.82 1331.5 7877.04 1327.61 7875.47 1325.46C7873.95 1323.28 7871.18 1322.18 7867.15 1322.18C7862.78 1322.18 7859.67 1323.63 7857.84 1326.52C7856.04 1329.37 7855.14 1334.35 7855.14 1341.46V1369H7841.9V1311.93ZM7959.73 1343.57H7918.83C7919.18 1348.26 7920.71 1351.99 7923.4 1354.76C7926.1 1357.5 7929.55 1358.86 7933.77 1358.86C7937.05 1358.86 7939.77 1358.08 7941.92 1356.52C7944.03 1354.96 7946.43 1352.07 7949.12 1347.85L7960.26 1354.06C7958.54 1356.99 7956.72 1359.51 7954.81 1361.62C7952.89 1363.69 7950.84 1365.41 7948.66 1366.77C7946.47 1368.1 7944.11 1369.08 7941.57 1369.7C7939.03 1370.33 7936.27 1370.64 7933.3 1370.64C7924.79 1370.64 7917.95 1367.91 7912.8 1362.44C7907.64 1356.93 7905.06 1349.62 7905.06 1340.52C7905.06 1331.5 7907.56 1324.2 7912.56 1318.61C7917.6 1313.1 7924.28 1310.35 7932.6 1310.35C7941 1310.35 7947.64 1313.02 7952.52 1318.38C7957.37 1323.69 7959.79 1331.05 7959.79 1340.46L7959.73 1343.57ZM7946.2 1332.79C7944.36 1325.76 7939.93 1322.24 7932.89 1322.24C7931.29 1322.24 7929.79 1322.5 7928.38 1323C7926.98 1323.47 7925.69 1324.18 7924.52 1325.11C7923.38 1326.01 7922.41 1327.11 7921.59 1328.39C7920.77 1329.68 7920.14 1331.15 7919.71 1332.79H7946.2ZM7974.2 1311.93H7987.39V1317.03C7989.81 1314.49 7991.96 1312.75 7993.83 1311.81C7995.75 1310.84 7998.01 1310.35 8000.63 1310.35C8004.11 1310.35 8007.74 1311.48 8011.53 1313.75L8005.49 1325.82C8002.99 1324.02 8000.55 1323.12 7998.17 1323.12C7990.98 1323.12 7987.39 1328.55 7987.39 1339.41V1369H7974.2V1311.93ZM8060.34 1311.93H8073.58V1369H8060.34V1363.02C8054.91 1368.1 8049.07 1370.64 8042.82 1370.64C8034.93 1370.64 8028.4 1367.79 8023.25 1362.09C8018.13 1356.27 8015.57 1349 8015.57 1340.29C8015.57 1331.73 8018.13 1324.61 8023.25 1318.9C8028.36 1313.2 8034.77 1310.35 8042.46 1310.35C8049.11 1310.35 8055.06 1313.08 8060.34 1318.55V1311.93ZM8029.05 1340.29C8029.05 1345.76 8030.51 1350.21 8033.44 1353.65C8036.45 1357.12 8040.24 1358.86 8044.81 1358.86C8049.69 1358.86 8053.64 1357.18 8056.64 1353.82C8059.65 1350.35 8061.16 1345.93 8061.16 1340.58C8061.16 1335.23 8059.65 1330.82 8056.64 1327.34C8053.64 1323.94 8049.73 1322.24 8044.93 1322.24C8040.39 1322.24 8036.61 1323.96 8033.56 1327.4C8030.55 1330.88 8029.05 1335.17 8029.05 1340.29ZM8103.4 1270.04V1369H8090.22V1270.04H8103.4ZM7690.49 1472.26V1509H7676.84V1418.53H7692.31C7699.89 1418.53 7705.61 1419.06 7709.48 1420.11C7713.38 1421.17 7716.82 1423.16 7719.79 1426.09C7724.98 1431.17 7727.58 1437.57 7727.58 1445.31C7727.58 1453.59 7724.81 1460.15 7719.26 1465C7713.71 1469.84 7706.23 1472.26 7696.82 1472.26H7690.49ZM7690.49 1459.61H7695.59C7708.13 1459.61 7714.4 1454.78 7714.4 1445.13C7714.4 1435.8 7707.93 1431.13 7695 1431.13H7690.49V1459.61ZM7752.31 1451.93V1484.68C7752.31 1494.14 7756.04 1498.86 7763.5 1498.86C7770.96 1498.86 7774.69 1494.14 7774.69 1484.68V1451.93H7787.88V1484.98C7787.88 1489.55 7787.31 1493.49 7786.18 1496.81C7785.08 1499.78 7783.19 1502.46 7780.49 1504.84C7776.04 1508.71 7770.38 1510.64 7763.5 1510.64C7756.66 1510.64 7751.02 1508.71 7746.57 1504.84C7743.83 1502.46 7741.9 1499.78 7740.77 1496.81C7739.67 1494.16 7739.12 1490.21 7739.12 1484.98V1451.93H7752.31ZM7817.7 1410.04V1458.55C7822.97 1453.08 7828.95 1450.35 7835.63 1450.35C7843.32 1450.35 7849.73 1453.22 7854.85 1458.96C7859.96 1464.66 7862.52 1471.77 7862.52 1480.29C7862.52 1489.08 7859.95 1496.34 7854.79 1502.09C7849.67 1507.79 7843.21 1510.64 7835.39 1510.64C7828.79 1510.64 7822.89 1508.1 7817.7 1503.02V1509H7804.52V1410.04H7817.7ZM7849.05 1480.88C7849.05 1475.41 7847.56 1470.95 7844.59 1467.52C7841.59 1464 7837.82 1462.24 7833.29 1462.24C7828.44 1462.24 7824.5 1463.94 7821.45 1467.34C7818.44 1470.7 7816.94 1475.07 7816.94 1480.46C7816.94 1486.01 7818.42 1490.45 7821.39 1493.77C7824.36 1497.16 7828.27 1498.86 7833.11 1498.86C7837.68 1498.86 7841.47 1497.16 7844.48 1493.77C7847.52 1490.33 7849.05 1486.03 7849.05 1480.88ZM7889.65 1410.04V1509H7876.47V1410.04H7889.65ZM7919.54 1451.93V1509H7906.35V1451.93H7919.54ZM7904.36 1428.2C7904.36 1425.89 7905.2 1423.9 7906.88 1422.22C7908.56 1420.54 7910.57 1419.7 7912.91 1419.7C7915.3 1419.7 7917.33 1420.54 7919.01 1422.22C7920.69 1423.86 7921.53 1425.88 7921.53 1428.26C7921.53 1430.64 7920.69 1432.67 7919.01 1434.35C7917.37 1436.03 7915.36 1436.87 7912.97 1436.87C7910.59 1436.87 7908.56 1436.03 7906.88 1434.35C7905.2 1432.67 7904.36 1430.62 7904.36 1428.2ZM7980.65 1454.39V1471.91C7977.64 1468.24 7974.95 1465.72 7972.56 1464.35C7970.22 1462.95 7967.46 1462.24 7964.3 1462.24C7959.34 1462.24 7955.22 1463.98 7951.94 1467.46C7948.66 1470.93 7947.02 1475.29 7947.02 1480.52C7947.02 1485.88 7948.6 1490.27 7951.76 1493.71C7954.96 1497.14 7959.05 1498.86 7964.01 1498.86C7967.17 1498.86 7969.96 1498.18 7972.39 1496.81C7974.73 1495.48 7977.48 1492.91 7980.65 1489.08V1506.48C7975.3 1509.25 7969.95 1510.64 7964.59 1510.64C7955.77 1510.64 7948.38 1507.79 7942.45 1502.09C7936.51 1496.34 7933.54 1489.21 7933.54 1480.7C7933.54 1472.18 7936.55 1465 7942.56 1459.14C7948.58 1453.28 7955.96 1450.35 7964.71 1450.35C7970.34 1450.35 7975.65 1451.7 7980.65 1454.39Z" fill="black"/>
<path d="M5335.84 117V26.5312L5354.82 26.5312C5363.93 26.5312 5371.11 27.4297 5376.39 29.2266C5382.05 30.9844 5387.19 33.9727 5391.8 38.1914C5401.13 46.707 5405.8 57.8984 5405.8 71.7656C5405.8 85.6719 5400.94 96.9219 5391.21 105.516C5386.33 109.812 5381.21 112.801 5375.86 114.48C5370.86 116.16 5363.77 117 5354.59 117H5335.84ZM5349.49 104.168H5355.64C5361.78 104.168 5366.88 103.523 5370.94 102.234C5375 100.867 5378.67 98.6992 5381.95 95.7305C5388.67 89.5977 5392.03 81.6094 5392.03 71.7656C5392.03 61.8437 5388.71 53.7969 5382.07 47.625C5376.09 42.1172 5367.29 39.3633 5355.64 39.3633H5349.49V104.168ZM5433.69 59.9297V92.6836C5433.69 102.137 5437.42 106.863 5444.88 106.863C5452.34 106.863 5456.07 102.137 5456.07 92.6836V59.9297H5469.26V92.9766C5469.26 97.5469 5468.69 101.492 5467.56 104.812C5466.46 107.781 5464.57 110.457 5461.88 112.84C5457.42 116.707 5451.76 118.641 5444.88 118.641C5438.05 118.641 5432.4 116.707 5427.95 112.84C5425.21 110.457 5423.28 107.781 5422.15 104.812C5421.05 102.156 5420.51 98.2109 5420.51 92.9766V59.9297H5433.69ZM5485.9 59.9297L5499.14 59.9297V65.2031C5503.75 60.6328 5508.95 58.3477 5514.73 58.3477C5521.37 58.3477 5526.54 60.4375 5530.25 64.6172C5533.46 68.1719 5535.06 73.9727 5535.06 82.0195V117H5521.82V85.125C5521.82 79.5 5521.04 75.6133 5519.47 73.4648C5517.95 71.2773 5515.18 70.1836 5511.15 70.1836C5506.78 70.1836 5503.67 71.6289 5501.84 74.5195C5500.04 77.3711 5499.14 82.3516 5499.14 89.4609V117H5485.9V59.9297ZM5564.94 18.0352V78.3867L5583.52 59.9297H5601.21L5576.43 83.8945L5603.03 117H5585.92L5567.05 92.918L5564.94 95.0273V117H5551.76V18.0352H5564.94ZM5624.71 59.9297V117H5611.52V59.9297L5624.71 59.9297ZM5609.53 36.1992C5609.53 33.8945 5610.37 31.9023 5612.05 30.2227C5613.73 28.543 5615.74 27.7031 5618.09 27.7031C5620.47 27.7031 5622.5 28.543 5624.18 30.2227C5625.86 31.8633 5626.7 33.875 5626.7 36.2578C5626.7 38.6406 5625.86 40.6719 5624.18 42.3516C5622.54 44.0312 5620.53 44.8711 5618.14 44.8711C5615.76 44.8711 5613.73 44.0312 5612.05 42.3516C5610.37 40.6719 5609.53 38.6211 5609.53 36.1992ZM5641.41 59.9297H5654.65V65.2031C5659.26 60.6328 5664.45 58.3477 5670.23 58.3477C5676.88 58.3477 5682.05 60.4375 5685.76 64.6172C5688.96 68.1719 5690.57 73.9727 5690.57 82.0195V117H5677.32V85.125C5677.32 79.5 5676.54 75.6133 5674.98 73.4648C5673.46 71.2773 5670.68 70.1836 5666.66 70.1836C5662.29 70.1836 5659.18 71.6289 5657.34 74.5195C5655.55 77.3711 5654.65 82.3516 5654.65 89.4609V117H5641.41V59.9297ZM5719.75 22.6055L5731.46 27.1758L5714.77 60.6914L5705.86 57L5719.75 22.6055ZM5786.19 117V26.5312H5805.18C5814.28 26.5312 5821.46 27.4297 5826.74 29.2266C5832.4 30.9844 5837.54 33.9727 5842.15 38.1914C5851.48 46.707 5856.15 57.8984 5856.15 71.7656C5856.15 85.6719 5851.29 96.9219 5841.56 105.516C5836.68 109.812 5831.56 112.801 5826.21 114.48C5821.21 116.16 5814.12 117 5804.94 117H5786.19ZM5799.84 104.168H5806C5812.13 104.168 5817.23 103.523 5821.29 102.234C5825.35 100.867 5829.02 98.6992 5832.3 95.7305C5839.02 89.5977 5842.38 81.6094 5842.38 71.7656C5842.38 61.8437 5839.06 53.7969 5832.42 47.625C5826.45 42.1172 5817.64 39.3633 5806 39.3633H5799.84V104.168ZM5868.16 88.0547C5868.16 79.8125 5871.11 72.8008 5877.01 67.0195C5882.91 61.2383 5890.1 58.3477 5898.57 58.3477C5907.09 58.3477 5914.32 61.2578 5920.25 67.0781C5926.11 72.8984 5929.04 80.0469 5929.04 88.5234C5929.04 97.0781 5926.09 104.246 5920.2 110.027C5914.26 115.77 5906.97 118.641 5898.34 118.641C5889.79 118.641 5882.62 115.711 5876.84 109.852C5871.05 104.07 5868.16 96.8047 5868.16 88.0547ZM5881.64 88.2891C5881.64 93.9922 5883.16 98.5039 5886.21 101.824C5889.34 105.184 5893.46 106.863 5898.57 106.863C5903.73 106.863 5907.85 105.203 5910.94 101.883C5914.02 98.5625 5915.57 94.1289 5915.57 88.582C5915.57 83.0352 5914.02 78.6016 5910.94 75.2812C5907.81 71.9219 5903.69 70.2422 5898.57 70.2422C5893.54 70.2422 5889.45 71.9219 5886.33 75.2812C5883.2 78.6406 5881.64 82.9766 5881.64 88.2891ZM5943.05 59.9297H5956.29V65.2031C5960.9 60.6328 5966.09 58.3477 5971.88 58.3477C5978.52 58.3477 5983.69 60.4375 5987.4 64.6172C5990.61 68.1719 5992.21 73.9727 5992.21 82.0195V117H5978.96V85.125C5978.96 79.5 5978.18 75.6133 5976.62 73.4648C5975.1 71.2773 5972.32 70.1836 5968.3 70.1836C5963.93 70.1836 5960.82 71.6289 5958.98 74.5195C5957.19 77.3711 5956.29 82.3516 5956.29 89.4609V117H5943.05V59.9297ZM6022.09 59.9297V92.6836C6022.09 102.137 6025.82 106.863 6033.28 106.863C6040.74 106.863 6044.47 102.137 6044.47 92.6836V59.9297H6057.66V92.9766C6057.66 97.5469 6057.09 101.492 6055.96 104.812C6054.86 107.781 6052.97 110.457 6050.27 112.84C6045.82 116.707 6040.16 118.641 6033.28 118.641C6026.45 118.641 6020.8 116.707 6016.35 112.84C6013.61 110.457 6011.68 107.781 6010.55 104.812C6009.45 102.156 6008.91 98.2109 6008.91 92.9766V59.9297H6022.09ZM6087.89 72.2344V117H6074.71V72.2344H6069.08V59.9297H6074.71V39.0117L6087.89 39.0117V59.9297H6098.14V72.2344H6087.89ZM6140.27 69.6562L6129.38 75.457C6127.66 71.9414 6125.53 70.1836 6122.99 70.1836C6121.78 70.1836 6120.74 70.5937 6119.88 71.4141C6119.02 72.1953 6118.59 73.2109 6118.59 74.4609C6118.59 76.6484 6121.13 78.8164 6126.21 80.9648C6133.2 83.9727 6137.91 86.7461 6140.33 89.2852C6142.75 91.8242 6143.96 95.2422 6143.96 99.5391C6143.96 105.047 6141.93 109.656 6137.87 113.367C6133.93 116.883 6129.16 118.641 6123.57 118.641C6114 118.641 6107.23 113.973 6103.24 104.637L6114.49 99.4219C6116.05 102.156 6117.25 103.895 6118.07 104.637C6119.67 106.121 6121.58 106.863 6123.81 106.863C6128.26 106.863 6130.49 104.832 6130.49 100.77C6130.49 98.4258 6128.77 96.2383 6125.33 94.207C6124 93.543 6122.68 92.8984 6121.35 92.2734C6120.02 91.6484 6118.67 91.0039 6117.3 90.3398C6113.48 88.4648 6110.78 86.5898 6109.22 84.7148C6107.23 82.332 6106.23 79.2656 6106.23 75.5156C6106.23 70.5547 6107.93 66.4531 6111.33 63.2109C6114.8 59.9687 6119.02 58.3477 6123.98 58.3477C6131.29 58.3477 6136.72 62.1172 6140.27 69.6562ZM6206.07 18.0352V66.5508C6211.35 61.082 6217.32 58.3477 6224 58.3477C6231.7 58.3477 6238.11 61.2187 6243.22 66.9609C6248.34 72.6641 6250.9 79.7734 6250.9 88.2891C6250.9 97.0781 6248.32 104.344 6243.16 110.086C6238.05 115.789 6231.58 118.641 6223.77 118.641C6217.17 118.641 6211.27 116.102 6206.07 111.023V117H6192.89V18.0352H6206.07ZM6237.42 88.875C6237.42 83.4062 6235.94 78.9531 6232.97 75.5156C6229.96 72 6226.19 70.2422 6221.66 70.2422C6216.82 70.2422 6212.87 71.9414 6209.82 75.3398C6206.82 78.6992 6205.31 83.0742 6205.31 88.4648C6205.31 94.0117 6206.8 98.4453 6209.77 101.766C6212.73 105.164 6216.64 106.863 6221.48 106.863C6226.05 106.863 6229.84 105.164 6232.85 101.766C6235.9 98.3281 6237.42 94.0312 6237.42 88.875ZM6316.82 91.5703H6275.92C6276.27 96.2578 6277.79 99.9883 6280.49 102.762C6283.18 105.496 6286.64 106.863 6290.86 106.863C6294.14 106.863 6296.86 106.082 6299 104.52C6301.11 102.957 6303.52 100.066 6306.21 95.8477L6317.34 102.059C6315.62 104.988 6313.81 107.508 6311.89 109.617C6309.98 111.687 6307.93 113.406 6305.74 114.773C6303.55 116.102 6301.19 117.078 6298.65 117.703C6296.11 118.328 6293.36 118.641 6290.39 118.641C6281.88 118.641 6275.04 115.906 6269.88 110.437C6264.73 104.93 6262.15 97.625 6262.15 88.5234C6262.15 79.5 6264.65 72.1953 6269.65 66.6094C6274.69 61.1016 6281.37 58.3477 6289.69 58.3477C6298.09 58.3477 6304.73 61.0234 6309.61 66.375C6314.45 71.6875 6316.88 79.0508 6316.88 88.4648L6316.82 91.5703ZM6303.28 80.7891C6301.45 73.7578 6297.01 70.2422 6289.98 70.2422C6288.38 70.2422 6286.88 70.4961 6285.47 71.0039C6284.06 71.4727 6282.77 72.1758 6281.6 73.1133C6280.47 74.0117 6279.49 75.1055 6278.67 76.3945C6277.85 77.6836 6277.23 79.1484 6276.8 80.7891H6303.28ZM6386.48 115.652C6386.48 118.348 6386.39 120.711 6386.19 122.742C6386.04 124.812 6385.8 126.629 6385.49 128.191C6384.55 132.488 6382.71 136.18 6379.98 139.266C6374.82 145.203 6367.73 148.172 6358.71 148.172C6351.09 148.172 6344.82 146.121 6339.9 142.02C6334.82 137.801 6331.89 131.961 6331.11 124.5H6344.36C6344.86 127.312 6345.7 129.48 6346.88 131.004C6349.61 134.559 6353.59 136.336 6358.83 136.336C6368.48 136.336 6373.3 130.418 6373.3 118.582V110.613C6368.07 115.965 6362.03 118.641 6355.2 118.641C6347.42 118.641 6341.05 115.828 6336.09 110.203C6331.09 104.5 6328.59 97.3711 6328.59 88.8164C6328.59 80.4961 6330.92 73.4258 6335.57 67.6055C6340.57 61.4336 6347.17 58.3477 6355.37 58.3477C6362.56 58.3477 6368.54 61.0234 6373.3 66.375V59.9297H6386.48V115.652ZM6373.83 88.582C6373.83 83.0352 6372.34 78.6016 6369.38 75.2812C6366.37 71.8828 6362.52 70.1836 6357.83 70.1836C6352.83 70.1836 6348.89 72.0391 6346 75.75C6343.38 79.0703 6342.07 83.3672 6342.07 88.6406C6342.07 93.8359 6343.38 98.0937 6346 101.414C6348.85 105.047 6352.79 106.863 6357.83 106.863C6362.87 106.863 6366.86 105.027 6369.79 101.355C6372.48 98.0352 6373.83 93.7773 6373.83 88.582ZM6416.31 59.9297V117H6403.12V59.9297H6416.31ZM6401.13 36.1992C6401.13 33.8945 6401.97 31.9023 6403.65 30.2227C6405.33 28.543 6407.34 27.7031 6409.69 27.7031C6412.07 27.7031 6414.1 28.543 6415.78 30.2227C6417.46 31.8633 6418.3 33.875 6418.3 36.2578C6418.3 38.6406 6417.46 40.6719 6415.78 42.3516C6414.14 44.0312 6412.13 44.8711 6409.75 44.8711C6407.36 44.8711 6405.33 44.0312 6403.65 42.3516C6401.97 40.6719 6401.13 38.6211 6401.13 36.1992ZM6433.01 59.9297H6446.25V65.2031C6450.86 60.6328 6456.05 58.3477 6461.84 58.3477C6468.48 58.3477 6473.65 60.4375 6477.36 64.6172C6480.57 68.1719 6482.17 73.9727 6482.17 82.0195V117H6468.93V85.125C6468.93 79.5 6468.14 75.6133 6466.58 73.4648C6465.06 71.2773 6462.29 70.1836 6458.26 70.1836C6453.89 70.1836 6450.78 71.6289 6448.95 74.5195C6447.15 77.3711 6446.25 82.3516 6446.25 89.4609V117H6433.01V59.9297ZM6532.03 69.6562L6521.13 75.457C6519.41 71.9414 6517.29 70.1836 6514.75 70.1836C6513.54 70.1836 6512.5 70.5937 6511.64 71.4141C6510.78 72.1953 6510.35 73.2109 6510.35 74.4609C6510.35 76.6484 6512.89 78.8164 6517.97 80.9648C6524.96 83.9727 6529.67 86.7461 6532.09 89.2852C6534.51 91.8242 6535.72 95.2422 6535.72 99.5391C6535.72 105.047 6533.69 109.656 6529.63 113.367C6525.68 116.883 6520.92 118.641 6515.33 118.641C6505.76 118.641 6498.98 113.973 6495 104.637L6506.25 99.4219C6507.81 102.156 6509 103.895 6509.82 104.637C6511.43 106.121 6513.34 106.863 6515.57 106.863C6520.02 106.863 6522.25 104.832 6522.25 100.77C6522.25 98.4258 6520.53 96.2383 6517.09 94.207C6515.76 93.543 6514.43 92.8984 6513.11 92.2734C6511.78 91.6484 6510.43 91.0039 6509.06 90.3398C6505.23 88.4648 6502.54 86.5898 6500.98 84.7148C6498.98 82.332 6497.99 79.2656 6497.99 75.5156C6497.99 70.5547 6499.69 66.4531 6503.09 63.2109C6506.56 59.9687 6510.78 58.3477 6515.74 58.3477C6523.05 58.3477 6528.48 62.1172 6532.03 69.6562ZM5366.48 209.656L5355.59 215.457C5353.87 211.941 5351.74 210.184 5349.2 210.184C5347.99 210.184 5346.95 210.594 5346.09 211.414C5345.23 212.195 5344.8 213.211 5344.8 214.461C5344.8 216.648 5347.34 218.816 5352.42 220.965C5359.41 223.973 5364.12 226.746 5366.54 229.285C5368.96 231.824 5370.18 235.242 5370.18 239.539C5370.18 245.047 5368.14 249.656 5364.08 253.367C5360.14 256.883 5355.37 258.641 5349.79 258.641C5340.21 258.641 5333.44 253.973 5329.45 244.637L5340.7 239.422C5342.27 242.156 5343.46 243.895 5344.28 244.637C5345.88 246.121 5347.79 246.863 5350.02 246.863C5354.47 246.863 5356.7 244.832 5356.7 240.77C5356.7 238.426 5354.98 236.238 5351.54 234.207C5350.21 233.543 5348.89 232.898 5347.56 232.273C5346.23 231.648 5344.88 231.004 5343.52 230.34C5339.69 228.465 5336.99 226.59 5335.43 224.715C5333.44 222.332 5332.44 219.266 5332.44 215.516C5332.44 210.555 5334.14 206.453 5337.54 203.211C5341.02 199.969 5345.23 198.348 5350.2 198.348C5357.5 198.348 5362.93 202.117 5366.48 209.656ZM5426.48 202.391V219.91C5423.48 216.238 5420.78 213.719 5418.4 212.352C5416.05 210.945 5413.3 210.242 5410.14 210.242C5405.18 210.242 5401.05 211.98 5397.77 215.457C5394.49 218.934 5392.85 223.289 5392.85 228.523C5392.85 233.875 5394.43 238.27 5397.6 241.707C5400.8 245.145 5404.88 246.863 5409.84 246.863C5413.01 246.863 5415.8 246.18 5418.22 244.812C5420.57 243.484 5423.32 240.906 5426.48 237.078V254.48C5421.13 257.254 5415.78 258.641 5410.43 258.641C5401.6 258.641 5394.22 255.789 5388.28 250.086C5382.34 244.344 5379.38 237.215 5379.38 228.699C5379.38 220.184 5382.38 212.996 5388.4 207.137C5394.41 201.277 5401.8 198.348 5410.55 198.348C5416.17 198.348 5421.48 199.695 5426.48 202.391ZM5481.33 199.93H5494.57V257H5481.33V251.023C5475.9 256.102 5470.06 258.641 5463.81 258.641C5455.92 258.641 5449.39 255.789 5444.24 250.086C5439.12 244.266 5436.56 237 5436.56 228.289C5436.56 219.734 5439.12 212.605 5444.24 206.902C5449.36 201.199 5455.76 198.348 5463.46 198.348C5470.1 198.348 5476.05 201.082 5481.33 206.551V199.93ZM5450.04 228.289C5450.04 233.758 5451.5 238.211 5454.43 241.648C5457.44 245.125 5461.23 246.863 5465.8 246.863C5470.68 246.863 5474.63 245.184 5477.64 241.824C5480.64 238.348 5482.15 233.934 5482.15 228.582C5482.15 223.23 5480.64 218.816 5477.64 215.34C5474.63 211.941 5470.72 210.242 5465.92 210.242C5461.39 210.242 5457.6 211.961 5454.55 215.398C5451.54 218.875 5450.04 223.172 5450.04 228.289ZM5524.39 158.035V257H5511.21V158.035H5524.39ZM5554.28 199.93V257H5541.09V199.93H5554.28ZM5539.1 176.199C5539.1 173.895 5539.94 171.902 5541.62 170.223C5543.3 168.543 5545.31 167.703 5547.66 167.703C5550.04 167.703 5552.07 168.543 5553.75 170.223C5555.43 171.863 5556.27 173.875 5556.27 176.258C5556.27 178.641 5555.43 180.672 5553.75 182.352C5552.11 184.031 5550.1 184.871 5547.71 184.871C5545.33 184.871 5543.3 184.031 5541.62 182.352C5539.94 180.672 5539.1 178.621 5539.1 176.199ZM5570.98 199.93H5584.22V205.203C5588.83 200.633 5594.02 198.348 5599.8 198.348C5606.45 198.348 5611.62 200.437 5615.33 204.617C5618.54 208.172 5620.14 213.973 5620.14 222.02V257H5606.89V225.125C5606.89 219.5 5606.11 215.613 5604.55 213.465C5603.03 211.277 5600.25 210.184 5596.23 210.184C5591.86 210.184 5588.75 211.629 5586.91 214.52C5585.12 217.371 5584.22 222.352 5584.22 229.461V257H5570.98V199.93ZM5692.03 255.652C5692.03 258.348 5691.93 260.711 5691.74 262.742C5691.58 264.812 5691.35 266.629 5691.04 268.191C5690.1 272.488 5688.26 276.18 5685.53 279.266C5680.37 285.203 5673.28 288.172 5664.26 288.172C5656.64 288.172 5650.37 286.121 5645.45 282.02C5640.37 277.801 5637.44 271.961 5636.66 264.5H5649.9C5650.41 267.312 5651.25 269.48 5652.42 271.004C5655.16 274.559 5659.14 276.336 5664.38 276.336C5674.02 276.336 5678.85 270.418 5678.85 258.582V250.613C5673.61 255.965 5667.58 258.641 5660.74 258.641C5652.97 258.641 5646.6 255.828 5641.64 250.203C5636.64 244.5 5634.14 237.371 5634.14 228.816C5634.14 220.496 5636.46 213.426 5641.11 207.605C5646.11 201.434 5652.71 198.348 5660.92 198.348C5668.11 198.348 5674.08 201.023 5678.85 206.375V199.93H5692.03V255.652ZM5679.38 228.582C5679.38 223.035 5677.89 218.602 5674.92 215.281C5671.91 211.883 5668.07 210.184 5663.38 210.184C5658.38 210.184 5654.43 212.039 5651.54 215.75C5648.93 219.07 5647.62 223.367 5647.62 228.641C5647.62 233.836 5648.93 238.094 5651.54 241.414C5654.39 245.047 5658.34 246.863 5663.38 246.863C5668.42 246.863 5672.4 245.027 5675.33 241.355C5678.03 238.035 5679.38 233.777 5679.38 228.582ZM5758.89 158.035V206.551C5764.16 201.082 5770.14 198.348 5776.82 198.348C5784.51 198.348 5790.92 201.219 5796.04 206.961C5801.15 212.664 5803.71 219.773 5803.71 228.289C5803.71 237.078 5801.13 244.344 5795.98 250.086C5790.86 255.789 5784.39 258.641 5776.58 258.641C5769.98 258.641 5764.08 256.102 5758.89 251.023V257H5745.7V158.035H5758.89ZM5790.23 228.875C5790.23 223.406 5788.75 218.953 5785.78 215.516C5782.77 212 5779 210.242 5774.47 210.242C5769.63 210.242 5765.68 211.941 5762.64 215.34C5759.63 218.699 5758.12 223.074 5758.12 228.465C5758.12 234.012 5759.61 238.445 5762.58 241.766C5765.55 245.164 5769.45 246.863 5774.3 246.863C5778.87 246.863 5782.66 245.164 5785.66 241.766C5788.71 238.328 5790.23 234.031 5790.23 228.875ZM5859.73 199.93H5872.97V257H5859.73V251.023C5854.3 256.102 5848.46 258.641 5842.21 258.641C5834.32 258.641 5827.79 255.789 5822.64 250.086C5817.52 244.266 5814.96 237 5814.96 228.289C5814.96 219.734 5817.52 212.605 5822.64 206.902C5827.75 201.199 5834.16 198.348 5841.86 198.348C5848.5 198.348 5854.45 201.082 5859.73 206.551V199.93ZM5828.44 228.289C5828.44 233.758 5829.9 238.211 5832.83 241.648C5835.84 245.125 5839.63 246.863 5844.2 246.863C5849.08 246.863 5853.03 245.184 5856.04 241.824C5859.04 238.348 5860.55 233.934 5860.55 228.582C5860.55 223.23 5859.04 218.816 5856.04 215.34C5853.03 211.941 5849.12 210.242 5844.32 210.242C5839.79 210.242 5836 211.961 5832.95 215.398C5829.94 218.875 5828.44 223.172 5828.44 228.289ZM5934.02 202.391V219.91C5931.02 216.238 5928.32 213.719 5925.94 212.352C5923.59 210.945 5920.84 210.242 5917.68 210.242C5912.71 210.242 5908.59 211.98 5905.31 215.457C5902.03 218.934 5900.39 223.289 5900.39 228.523C5900.39 233.875 5901.97 238.27 5905.14 241.707C5908.34 245.145 5912.42 246.863 5917.38 246.863C5920.55 246.863 5923.34 246.18 5925.76 244.812C5928.11 243.484 5930.86 240.906 5934.02 237.078V254.48C5928.67 257.254 5923.32 258.641 5917.97 258.641C5909.14 258.641 5901.76 255.789 5895.82 250.086C5889.88 244.344 5886.91 237.215 5886.91 228.699C5886.91 220.184 5889.92 212.996 5895.94 207.137C5901.95 201.277 5909.34 198.348 5918.09 198.348C5923.71 198.348 5929.02 199.695 5934.02 202.391ZM5963.14 158.035V218.387L5981.72 199.93H5999.41L5974.63 223.895L6001.23 257H5984.12L5965.25 232.918L5963.14 235.027V257H5949.96V158.035H5963.14ZM6059.94 199.93V257H6046.76V199.93H6059.94ZM6044.77 176.199C6044.77 173.895 6045.61 171.902 6047.29 170.223C6048.96 168.543 6050.98 167.703 6053.32 167.703C6055.7 167.703 6057.73 168.543 6059.41 170.223C6061.09 171.863 6061.93 173.875 6061.93 176.258C6061.93 178.641 6061.09 180.672 6059.41 182.352C6057.77 184.031 6055.76 184.871 6053.38 184.871C6051 184.871 6048.96 184.031 6047.29 182.352C6045.61 180.672 6044.77 178.621 6044.77 176.199ZM6090.23 212.234V257H6077.05V212.234H6071.43V199.93H6077.05V179.012H6090.23V199.93H6100.49V212.234H6090.23ZM6142.62 209.656L6131.72 215.457C6130 211.941 6127.87 210.184 6125.33 210.184C6124.12 210.184 6123.09 210.594 6122.23 211.414C6121.37 212.195 6120.94 213.211 6120.94 214.461C6120.94 216.648 6123.48 218.816 6128.55 220.965C6135.55 223.973 6140.25 226.746 6142.68 229.285C6145.1 231.824 6146.31 235.242 6146.31 239.539C6146.31 245.047 6144.28 249.656 6140.21 253.367C6136.27 256.883 6131.5 258.641 6125.92 258.641C6116.35 258.641 6109.57 253.973 6105.59 244.637L6116.84 239.422C6118.4 242.156 6119.59 243.895 6120.41 244.637C6122.01 246.121 6123.93 246.863 6126.15 246.863C6130.61 246.863 6132.83 244.832 6132.83 240.77C6132.83 238.426 6131.11 236.238 6127.68 234.207C6126.35 233.543 6125.02 232.898 6123.69 232.273C6122.36 231.648 6121.02 231.004 6119.65 230.34C6115.82 228.465 6113.12 226.59 6111.56 224.715C6109.57 222.332 6108.57 219.266 6108.57 215.516C6108.57 210.555 6110.27 206.453 6113.67 203.211C6117.15 199.969 6121.37 198.348 6126.33 198.348C6133.63 198.348 6139.06 202.117 6142.62 209.656ZM6195.23 199.93H6208.42V205.203C6210.96 202.547 6213.12 200.75 6214.92 199.812C6216.84 198.836 6219.24 198.348 6222.13 198.348C6228.57 198.348 6233.67 201.16 6237.42 206.785C6241.56 201.16 6247.17 198.348 6254.24 198.348C6267.09 198.348 6273.52 206.141 6273.52 221.727V257H6260.27V225.301C6260.27 219.832 6259.61 215.965 6258.28 213.699C6256.91 211.395 6254.67 210.242 6251.54 210.242C6247.91 210.242 6245.25 211.609 6243.57 214.344C6241.93 217.078 6241.11 221.473 6241.11 227.527V257H6227.87V225.477C6227.87 215.32 6224.94 210.242 6219.08 210.242C6215.37 210.242 6212.66 211.629 6210.94 214.402C6209.26 217.176 6208.42 221.551 6208.42 227.527V257H6195.23V199.93ZM6342.13 231.57H6301.23C6301.58 236.258 6303.11 239.988 6305.8 242.762C6308.5 245.496 6311.95 246.863 6316.17 246.863C6319.45 246.863 6322.17 246.082 6324.32 244.52C6326.43 242.957 6328.83 240.066 6331.52 235.848L6342.66 242.059C6340.94 244.988 6339.12 247.508 6337.21 249.617C6335.29 251.687 6333.24 253.406 6331.05 254.773C6328.87 256.102 6326.5 257.078 6323.96 257.703C6321.43 258.328 6318.67 258.641 6315.7 258.641C6307.19 258.641 6300.35 255.906 6295.2 250.437C6290.04 244.93 6287.46 237.625 6287.46 228.523C6287.46 219.5 6289.96 212.195 6294.96 206.609C6300 201.102 6306.68 198.348 6315 198.348C6323.4 198.348 6330.04 201.023 6334.92 206.375C6339.77 211.687 6342.19 219.051 6342.19 228.465L6342.13 231.57ZM6328.59 220.789C6326.76 213.758 6322.32 210.242 6315.29 210.242C6313.69 210.242 6312.19 210.496 6310.78 211.004C6309.38 211.473 6308.09 212.176 6306.91 213.113C6305.78 214.012 6304.8 215.105 6303.98 216.395C6303.16 217.684 6302.54 219.148 6302.11 220.789H6328.59ZM6356.6 199.93H6369.84V205.203C6374.45 200.633 6379.65 198.348 6385.43 198.348C6392.07 198.348 6397.25 200.437 6400.96 204.617C6404.16 208.172 6405.76 213.973 6405.76 222.02V257H6392.52V225.125C6392.52 219.5 6391.74 215.613 6390.18 213.465C6388.65 211.277 6385.88 210.184 6381.86 210.184C6377.48 210.184 6374.38 211.629 6372.54 214.52C6370.74 217.371 6369.84 222.352 6369.84 229.461V257H6356.6V199.93ZM6435.64 199.93V232.684C6435.64 242.137 6439.38 246.863 6446.84 246.863C6454.3 246.863 6458.03 242.137 6458.03 232.684V199.93H6471.21V232.977C6471.21 237.547 6470.64 241.492 6469.51 244.812C6468.42 247.781 6466.52 250.457 6463.83 252.84C6459.38 256.707 6453.71 258.641 6446.84 258.641C6440 258.641 6434.36 256.707 6429.9 252.84C6427.17 250.457 6425.23 247.781 6424.1 244.812C6423.01 242.156 6422.46 238.211 6422.46 232.977V199.93H6435.64Z" fill="black"/>
</svg>
