<svg width="8326" height="4216" viewBox="0 0 8326 4216" fill="none" xmlns="http://www.w3.org/2000/svg">
<path d="M7743.7 2516.39V2532.57C7735.8 2525.96 7727.64 2522.66 7719.2 2522.66C7709.91 2522.66 7702.07 2526 7695.71 2532.68C7689.3 2539.32 7686.1 2547.45 7686.1 2557.06C7686.1 2566.55 7689.3 2574.56 7695.71 2581.08C7702.11 2587.61 7709.96 2590.87 7719.26 2590.87C7724.07 2590.87 7728.15 2590.09 7731.51 2588.52C7733.38 2587.74 7735.32 2586.69 7737.31 2585.36C7739.34 2584.03 7741.47 2582.43 7743.7 2580.55V2597.02C7735.88 2601.43 7727.68 2603.64 7719.09 2603.64C7706.16 2603.64 7695.12 2599.13 7685.98 2590.11C7676.88 2581 7672.33 2570.03 7672.33 2557.18C7672.33 2545.65 7676.14 2535.38 7683.75 2526.36C7693.13 2515.3 7705.26 2509.77 7720.14 2509.77C7728.27 2509.77 7736.12 2511.98 7743.7 2516.39ZM7771.64 2544.93V2577.68C7771.64 2587.14 7775.38 2591.86 7782.84 2591.86C7790.3 2591.86 7794.03 2587.14 7794.03 2577.68V2544.93H7807.21V2577.98C7807.21 2582.55 7806.64 2586.49 7805.51 2589.81C7804.42 2592.78 7802.52 2595.46 7799.83 2597.84C7795.38 2601.71 7789.71 2603.64 7782.84 2603.64C7776 2603.64 7770.36 2601.71 7765.9 2597.84C7763.17 2595.46 7761.23 2592.78 7760.1 2589.81C7759.01 2587.16 7758.46 2583.21 7758.46 2577.98V2544.93H7771.64ZM7823.85 2544.93H7837.04V2550.03C7839.46 2547.49 7841.61 2545.75 7843.48 2544.81C7845.39 2543.84 7847.66 2543.35 7850.28 2543.35C7853.75 2543.35 7857.39 2544.48 7861.18 2546.75L7855.14 2558.82C7852.64 2557.02 7850.2 2556.12 7847.82 2556.12C7840.63 2556.12 7837.04 2561.55 7837.04 2572.41V2602H7823.85V2544.93ZM7870.61 2544.93H7883.79V2550.03C7886.21 2547.49 7888.36 2545.75 7890.24 2544.81C7892.15 2543.84 7894.42 2543.35 7897.04 2543.35C7900.51 2543.35 7904.14 2544.48 7907.93 2546.75L7901.9 2558.82C7899.4 2557.02 7896.96 2556.12 7894.57 2556.12C7887.39 2556.12 7883.79 2561.55 7883.79 2572.41V2602H7870.61V2544.93ZM7966.64 2576.57H7925.75C7926.1 2581.26 7927.62 2584.99 7930.32 2587.76C7933.01 2590.5 7936.47 2591.86 7940.69 2591.86C7943.97 2591.86 7946.68 2591.08 7948.83 2589.52C7950.94 2587.96 7953.34 2585.07 7956.04 2580.85L7967.17 2587.06C7965.45 2589.99 7963.64 2592.51 7961.72 2594.62C7959.81 2596.69 7957.76 2598.41 7955.57 2599.77C7953.38 2601.1 7951.02 2602.08 7948.48 2602.7C7945.94 2603.33 7943.19 2603.64 7940.22 2603.64C7931.7 2603.64 7924.87 2600.91 7919.71 2595.44C7914.55 2589.93 7911.98 2582.62 7911.98 2573.52C7911.98 2564.5 7914.48 2557.2 7919.48 2551.61C7924.52 2546.1 7931.2 2543.35 7939.52 2543.35C7947.91 2543.35 7954.55 2546.02 7959.44 2551.38C7964.28 2556.69 7966.7 2564.05 7966.7 2573.46L7966.64 2576.57ZM7953.11 2565.79C7951.27 2558.76 7946.84 2555.24 7939.81 2555.24C7938.21 2555.24 7936.7 2555.5 7935.3 2556C7933.89 2556.47 7932.6 2557.18 7931.43 2558.11C7930.3 2559.01 7929.32 2560.11 7928.5 2561.39C7927.68 2562.68 7927.05 2564.15 7926.62 2565.79H7953.11ZM7981.12 2544.93H7994.36V2550.2C7998.97 2545.63 8004.16 2543.35 8009.95 2543.35C8016.59 2543.35 8021.76 2545.44 8025.47 2549.62C8028.68 2553.17 8030.28 2558.97 8030.28 2567.02V2602H8017.04V2570.12C8017.04 2564.5 8016.25 2560.61 8014.69 2558.46C8013.17 2556.28 8010.39 2555.18 8006.37 2555.18C8002 2555.18 7998.89 2556.63 7997.05 2559.52C7995.26 2562.37 7994.36 2567.35 7994.36 2574.46V2602H7981.12V2544.93ZM8060.57 2557.23V2602H8047.39V2557.23H8041.76V2544.93H8047.39V2524.01H8060.57V2544.93H8070.82V2557.23H8060.57ZM7743.7 2656.39V2672.57C7735.8 2665.96 7727.64 2662.66 7719.2 2662.66C7709.91 2662.66 7702.07 2666 7695.71 2672.68C7689.3 2679.32 7686.1 2687.45 7686.1 2697.06C7686.1 2706.55 7689.3 2714.56 7695.71 2721.08C7702.11 2727.61 7709.96 2730.87 7719.26 2730.87C7724.07 2730.87 7728.15 2730.09 7731.51 2728.52C7733.38 2727.74 7735.32 2726.69 7737.31 2725.36C7739.34 2724.03 7741.47 2722.43 7743.7 2720.55V2737.02C7735.88 2741.43 7727.68 2743.64 7719.09 2743.64C7706.16 2743.64 7695.12 2739.13 7685.98 2730.11C7676.88 2721 7672.33 2710.03 7672.33 2697.18C7672.33 2685.65 7676.14 2675.38 7683.75 2666.36C7693.13 2655.3 7705.26 2649.77 7720.14 2649.77C7728.27 2649.77 7736.12 2651.98 7743.7 2656.39ZM7771.64 2684.93V2717.68C7771.64 2727.14 7775.38 2731.86 7782.84 2731.86C7790.3 2731.86 7794.03 2727.14 7794.03 2717.68V2684.93H7807.21V2717.98C7807.21 2722.55 7806.64 2726.49 7805.51 2729.81C7804.42 2732.78 7802.52 2735.46 7799.83 2737.84C7795.38 2741.71 7789.71 2743.64 7782.84 2743.64C7776 2743.64 7770.36 2741.71 7765.9 2737.84C7763.17 2735.46 7761.23 2732.78 7760.1 2729.81C7759.01 2727.16 7758.46 2723.21 7758.46 2717.98V2684.93H7771.64ZM7857.02 2694.66L7846.12 2700.46C7844.4 2696.94 7842.27 2695.18 7839.73 2695.18C7838.52 2695.18 7837.48 2695.59 7836.62 2696.41C7835.77 2697.2 7835.34 2698.21 7835.34 2699.46C7835.34 2701.65 7837.88 2703.82 7842.95 2705.96C7849.95 2708.97 7854.65 2711.75 7857.07 2714.29C7859.5 2716.82 7860.71 2720.24 7860.71 2724.54C7860.71 2730.05 7858.68 2734.66 7854.61 2738.37C7850.67 2741.88 7845.9 2743.64 7840.32 2743.64C7830.75 2743.64 7823.97 2738.97 7819.98 2729.64L7831.23 2724.42C7832.8 2727.16 7833.99 2728.89 7834.81 2729.64C7836.41 2731.12 7838.32 2731.86 7840.55 2731.86C7845 2731.86 7847.23 2729.83 7847.23 2725.77C7847.23 2723.43 7845.51 2721.24 7842.07 2719.21C7840.75 2718.54 7839.42 2717.9 7838.09 2717.27C7836.76 2716.65 7835.41 2716 7834.05 2715.34C7830.22 2713.46 7827.52 2711.59 7825.96 2709.71C7823.97 2707.33 7822.97 2704.27 7822.97 2700.52C7822.97 2695.55 7824.67 2691.45 7828.07 2688.21C7831.55 2684.97 7835.77 2683.35 7840.73 2683.35C7848.03 2683.35 7853.46 2687.12 7857.02 2694.66ZM7886.2 2697.23V2742H7873.01V2697.23H7867.39V2684.93H7873.01V2664.01H7886.2V2684.93H7896.45V2697.23H7886.2ZM7903.54 2713.05C7903.54 2704.81 7906.49 2697.8 7912.39 2692.02C7918.29 2686.24 7925.47 2683.35 7933.95 2683.35C7942.46 2683.35 7949.69 2686.26 7955.63 2692.08C7961.49 2697.9 7964.42 2705.05 7964.42 2713.52C7964.42 2722.08 7961.47 2729.25 7955.57 2735.03C7949.63 2740.77 7942.35 2743.64 7933.71 2743.64C7925.16 2743.64 7917.99 2740.71 7912.21 2734.85C7906.43 2729.07 7903.54 2721.8 7903.54 2713.05ZM7917.02 2713.29C7917.02 2718.99 7918.54 2723.5 7921.59 2726.82C7924.71 2730.18 7928.83 2731.86 7933.95 2731.86C7939.11 2731.86 7943.23 2730.2 7946.31 2726.88C7949.4 2723.56 7950.94 2719.13 7950.94 2713.58C7950.94 2708.04 7949.4 2703.6 7946.31 2700.28C7943.19 2696.92 7939.07 2695.24 7933.95 2695.24C7928.91 2695.24 7924.83 2696.92 7921.7 2700.28C7918.58 2703.64 7917.02 2707.98 7917.02 2713.29ZM7978.42 2684.93H7991.61V2690.2C7994.14 2687.55 7996.31 2685.75 7998.11 2684.81C8000.02 2683.84 8002.43 2683.35 8005.32 2683.35C8011.76 2683.35 8016.86 2686.16 8020.61 2691.79C8024.75 2686.16 8030.36 2683.35 8037.43 2683.35C8050.28 2683.35 8056.7 2691.14 8056.7 2706.73V2742H8043.46V2710.3C8043.46 2704.83 8042.8 2700.96 8041.47 2698.7C8040.1 2696.39 8037.86 2695.24 8034.73 2695.24C8031.1 2695.24 8028.44 2696.61 8026.76 2699.34C8025.12 2702.08 8024.3 2706.47 8024.3 2712.53V2742H8011.06V2710.48C8011.06 2700.32 8008.13 2695.24 8002.27 2695.24C7998.56 2695.24 7995.84 2696.63 7994.12 2699.4C7992.45 2702.18 7991.61 2706.55 7991.61 2712.53V2742H7978.42V2684.93ZM8125.32 2716.57H8084.42C8084.77 2721.26 8086.29 2724.99 8088.99 2727.76C8091.68 2730.5 8095.14 2731.86 8099.36 2731.86C8102.64 2731.86 8105.36 2731.08 8107.5 2729.52C8109.61 2727.96 8112.02 2725.07 8114.71 2720.85L8125.84 2727.06C8124.12 2729.99 8122.31 2732.51 8120.39 2734.62C8118.48 2736.69 8116.43 2738.41 8114.24 2739.77C8112.05 2741.1 8109.69 2742.08 8107.15 2742.7C8104.61 2743.33 8101.86 2743.64 8098.89 2743.64C8090.38 2743.64 8083.54 2740.91 8078.38 2735.44C8073.23 2729.93 8070.65 2722.62 8070.65 2713.52C8070.65 2704.5 8073.15 2697.2 8078.15 2691.61C8083.19 2686.1 8089.87 2683.35 8098.19 2683.35C8106.59 2683.35 8113.23 2686.02 8118.11 2691.38C8122.95 2696.69 8125.38 2704.05 8125.38 2713.46L8125.32 2716.57ZM8111.78 2705.79C8109.95 2698.76 8105.51 2695.24 8098.48 2695.24C8096.88 2695.24 8095.38 2695.5 8093.97 2696C8092.56 2696.47 8091.27 2697.18 8090.1 2698.11C8088.97 2699.01 8087.99 2700.11 8087.17 2701.39C8086.35 2702.68 8085.73 2704.15 8085.3 2705.79H8111.78ZM8139.79 2684.93H8152.97V2690.03C8155.39 2687.49 8157.54 2685.75 8159.42 2684.81C8161.33 2683.84 8163.6 2683.35 8166.21 2683.35C8169.69 2683.35 8173.32 2684.48 8177.11 2686.75L8171.08 2698.82C8168.58 2697.02 8166.14 2696.12 8163.75 2696.12C8156.57 2696.12 8152.97 2701.55 8152.97 2712.41V2742H8139.79V2684.93ZM8217.84 2694.66L8206.94 2700.46C8205.22 2696.94 8203.09 2695.18 8200.55 2695.18C8199.34 2695.18 8198.3 2695.59 8197.45 2696.41C8196.59 2697.2 8196.16 2698.21 8196.16 2699.46C8196.16 2701.65 8198.7 2703.82 8203.77 2705.96C8210.77 2708.97 8215.47 2711.75 8217.89 2714.29C8220.32 2716.82 8221.53 2720.24 8221.53 2724.54C8221.53 2730.05 8219.5 2734.66 8215.43 2738.37C8211.49 2741.88 8206.72 2743.64 8201.14 2743.64C8191.57 2743.64 8184.79 2738.97 8180.8 2729.64L8192.05 2724.42C8193.62 2727.16 8194.81 2728.89 8195.63 2729.64C8197.23 2731.12 8199.14 2731.86 8201.37 2731.86C8205.82 2731.86 8208.05 2729.83 8208.05 2725.77C8208.05 2723.43 8206.33 2721.24 8202.89 2719.21C8201.57 2718.54 8200.24 2717.9 8198.91 2717.27C8197.58 2716.65 8196.23 2716 8194.87 2715.34C8191.04 2713.46 8188.34 2711.59 8186.78 2709.71C8184.79 2707.33 8183.79 2704.27 8183.79 2700.52C8183.79 2695.55 8185.49 2691.45 8188.89 2688.21C8192.37 2684.97 8196.59 2683.35 8201.55 2683.35C8208.85 2683.35 8214.28 2687.12 8217.84 2694.66Z" fill="black"/>
<path d="M6631.5 3592.5H689.5" stroke="#FF98CE" stroke-width="3" stroke-dasharray="6 6"/>
<path d="M158 3050.16L44.9141 3050.16L44.9141 3033.17C44.9141 3025.6 45.5 3019.57 46.6719 3015.08C47.8438 3010.54 49.8213 3006.7 52.6045 3003.58C55.4854 3000.41 59.0742 2997.89 63.3711 2996.04C67.7168 2994.13 72.1113 2993.18 76.5547 2993.18C84.6602 2993.18 91.5205 2996.28 97.1357 3002.48C99.1865 2996.47 102.775 2991.74 107.902 2988.27C112.98 2984.76 118.889 2983 125.627 2983C134.465 2983 141.936 2986.12 148.039 2992.37C151.799 2996.13 154.411 3000.36 155.876 3005.04C157.292 3010.17 158 3016.59 158 3024.31L158 3050.16ZM93.4736 3033.1L93.4736 3027.75C93.4736 3021.4 92.082 3016.76 89.2988 3013.83C86.4668 3010.85 82.3164 3009.37 76.8477 3009.37C71.5254 3009.37 67.4971 3010.88 64.7627 3013.91C61.9795 3016.93 60.5879 3021.33 60.5879 3027.09L60.5879 3033.1L93.4736 3033.1ZM141.96 3033.1L141.96 3022.55C141.96 3014.83 140.446 3009.17 137.419 3005.56C134.147 3001.75 129.997 2999.84 124.968 2999.84C120.085 2999.84 115.983 3001.67 112.663 3005.34C109.392 3008.9 107.756 3015.27 107.756 3024.45L107.756 3033.1L141.96 3033.1ZM86.6621 2948.06L127.604 2948.06C139.421 2948.06 145.329 2943.4 145.329 2934.07C145.329 2924.75 139.421 2920.08 127.604 2920.08L86.6621 2920.08L86.6621 2903.6L127.971 2903.6C133.684 2903.6 138.615 2904.31 142.766 2905.73C146.477 2907.09 149.821 2909.46 152.8 2912.83C157.634 2918.4 160.051 2925.48 160.051 2934.07C160.051 2942.62 157.634 2949.67 152.8 2955.24C149.821 2958.66 146.477 2961.07 142.766 2962.49C139.445 2963.86 134.514 2964.54 127.971 2964.54L86.6621 2964.54L86.6621 2948.06ZM142.473 2859.15L142.473 2816.74L158 2816.74L158 2891.81L102.043 2845.6L102.043 2882L86.6621 2882L86.6621 2813L142.473 2859.15ZM142.473 2777.55L142.473 2735.15L158 2735.15L158 2810.22L102.043 2764L102.043 2800.41L86.6621 2800.41L86.6621 2731.41L142.473 2777.55ZM61.7598 2606.24L69.9629 2620.08C65.4707 2622.67 62.541 2625.14 61.1738 2627.48C59.6113 2629.92 58.8301 2633.07 58.8301 2636.93C58.8301 2641.67 60.1729 2645.6 62.8584 2648.72C65.4951 2651.85 68.8154 2653.41 72.8193 2653.41C78.3369 2653.41 82.7803 2649.31 86.1494 2641.1L90.7637 2629.82C94.4746 2620.64 99.0156 2613.93 104.387 2609.68C109.709 2605.43 116.252 2603.31 124.016 2603.31C134.416 2603.31 143.01 2606.78 149.797 2613.71C156.633 2620.69 160.051 2629.36 160.051 2639.71C160.051 2649.53 157.146 2657.63 151.335 2664.03C145.524 2670.33 137.346 2674.26 126.799 2675.82L122.99 2658.54C129.631 2657.75 134.221 2656.39 136.76 2654.43C141.643 2650.92 144.084 2645.79 144.084 2639.05C144.084 2633.73 142.302 2629.31 138.737 2625.8C135.173 2622.28 130.656 2620.52 125.188 2620.52C122.99 2620.52 120.988 2620.84 119.182 2621.47C117.326 2622.06 115.642 2623.01 114.128 2624.33C112.565 2625.6 111.125 2627.26 109.807 2629.31C108.439 2631.36 107.146 2633.8 105.925 2636.64L101.384 2647.55C94.8408 2663.03 85.2705 2670.77 72.6729 2670.77C64.1768 2670.77 57.0723 2667.52 51.3594 2661.03C45.5977 2654.53 42.7168 2646.45 42.7168 2636.78C42.7168 2623.75 49.0645 2613.56 61.7598 2606.24ZM89.7383 2530.36L111.638 2530.36C107.048 2534.12 103.898 2537.49 102.189 2540.47C100.432 2543.4 99.5527 2546.84 99.5527 2550.8C99.5527 2557 101.726 2562.15 106.071 2566.25C110.417 2570.35 115.861 2572.4 122.404 2572.4C129.094 2572.4 134.587 2570.42 138.884 2566.47C143.181 2562.47 145.329 2557.36 145.329 2551.16C145.329 2547.21 144.475 2543.72 142.766 2540.69C141.105 2537.76 137.883 2534.32 133.098 2530.36L154.851 2530.36C158.317 2537.05 160.051 2543.74 160.051 2550.43C160.051 2561.46 156.486 2570.69 149.357 2578.12C142.18 2585.54 133.269 2589.25 122.624 2589.25C111.979 2589.25 102.995 2585.49 95.6709 2577.97C88.3467 2570.45 84.6846 2561.22 84.6846 2550.28C84.6846 2543.25 86.3691 2536.61 89.7383 2530.36ZM121.818 2517.76C111.516 2517.76 102.751 2514.08 95.5244 2506.7C88.2979 2499.33 84.6846 2490.35 84.6846 2479.75C84.6846 2469.11 88.3223 2460.07 95.5977 2452.65C102.873 2445.33 111.809 2441.67 122.404 2441.67C133.098 2441.67 142.058 2445.35 149.284 2452.72C156.462 2460.15 160.051 2469.25 160.051 2480.04C160.051 2490.74 156.389 2499.7 149.064 2506.92C141.838 2514.15 132.756 2517.76 121.818 2517.76ZM122.111 2500.92C129.24 2500.92 134.88 2499.01 139.03 2495.21C143.229 2491.3 145.329 2486.15 145.329 2479.75C145.329 2473.31 143.254 2468.15 139.104 2464.3C134.953 2460.44 129.411 2458.51 122.478 2458.51C115.544 2458.51 110.002 2460.44 105.852 2464.3C101.652 2468.2 99.5527 2473.35 99.5527 2479.75C99.5527 2486.05 101.652 2491.15 105.852 2495.06C110.051 2498.96 115.471 2500.92 122.111 2500.92ZM86.6621 2424.16L86.6621 2407.68L93.0342 2407.68C89.8604 2404.65 87.6875 2401.97 86.5156 2399.62C85.2949 2397.23 84.6846 2394.4 84.6846 2391.13C84.6846 2386.78 86.1006 2382.24 88.9326 2377.5L104.021 2385.05C101.774 2388.17 100.651 2391.23 100.651 2394.2C100.651 2403.19 107.438 2407.68 121.013 2407.68L158 2407.68L158 2424.16L86.6621 2424.16ZM126.213 2304.12L126.213 2355.24C132.072 2354.8 136.735 2352.9 140.202 2349.53C143.62 2346.16 145.329 2341.84 145.329 2336.56C145.329 2332.46 144.353 2329.07 142.399 2326.38C140.446 2323.75 136.833 2320.74 131.56 2317.37L139.323 2303.46C142.985 2305.61 146.135 2307.88 148.771 2310.27C151.359 2312.66 153.508 2315.22 155.217 2317.96C156.877 2320.69 158.098 2323.65 158.879 2326.82C159.66 2330 160.051 2333.44 160.051 2337.15C160.051 2347.79 156.633 2356.34 149.797 2362.78C142.912 2369.23 133.781 2372.45 122.404 2372.45C111.125 2372.45 101.994 2369.33 95.0117 2363.08C88.127 2356.78 84.6846 2348.43 84.6846 2338.03C84.6846 2327.53 88.0293 2319.23 94.7188 2313.13C101.359 2307.07 110.563 2304.04 122.331 2304.04L126.213 2304.12ZM112.736 2321.04C103.947 2323.33 99.5527 2328.87 99.5527 2337.66C99.5527 2339.66 99.8701 2341.54 100.505 2343.3C101.091 2345.06 101.97 2346.67 103.142 2348.13C104.265 2349.55 105.632 2350.77 107.243 2351.8C108.855 2352.82 110.686 2353.6 112.736 2354.14L112.736 2321.04ZM70.0361 2244.5C62.9561 2244.5 56.8037 2241.79 51.5791 2236.37C46.3545 2230.85 43.7422 2224.48 43.7422 2217.25C43.7422 2209.83 46.3789 2203.43 51.6524 2198.06C56.877 2192.69 63.127 2190 70.4024 2190C77.7266 2190 84.001 2192.69 89.2256 2198.06C94.4502 2203.43 97.0625 2209.9 97.0625 2217.47C97.0625 2224.89 94.4014 2231.26 89.0791 2236.59C83.7568 2241.86 77.4092 2244.5 70.0361 2244.5ZM70.2559 2231.75C74.3574 2231.75 77.8242 2230.34 80.6563 2227.5C83.4883 2224.67 84.9043 2221.23 84.9043 2217.18C84.9043 2213.22 83.4883 2209.83 80.6563 2207C77.8242 2204.17 74.4063 2202.75 70.4024 2202.75C66.4473 2202.75 63.0537 2204.17 60.2217 2207C57.3897 2209.83 55.9736 2213.25 55.9736 2217.25C55.9736 2221.25 57.3897 2224.67 60.2217 2227.5C63.0537 2230.34 66.3984 2231.75 70.2559 2231.75ZM42.9365 2153.02L47.4776 2145.03L159.831 2209.78L154.997 2217.84L42.9365 2153.02ZM131.999 2172.94C124.968 2172.94 118.84 2170.23 113.615 2164.81C108.391 2159.29 105.778 2152.92 105.778 2145.69C105.778 2138.22 108.415 2131.8 113.688 2126.43C118.913 2121.06 125.163 2118.37 132.438 2118.37C139.812 2118.37 146.086 2121.08 151.262 2126.5C156.438 2131.83 159.025 2138.3 159.025 2145.91C159.025 2153.33 156.389 2159.71 151.115 2165.03C145.842 2170.3 139.47 2172.94 131.999 2172.94ZM132.292 2160.12C136.394 2160.12 139.86 2158.73 142.692 2155.95C145.524 2153.12 146.94 2149.67 146.94 2145.62C146.94 2141.62 145.524 2138.22 142.692 2135.44C139.86 2132.61 136.442 2131.19 132.438 2131.19C128.435 2131.19 125.017 2132.61 122.185 2135.44C119.353 2138.22 117.937 2141.64 117.937 2145.69C117.937 2149.65 119.353 2153.04 122.185 2155.87C125.017 2158.71 128.386 2160.12 132.292 2160.12Z" fill="black"/>
<path d="M459.55 3823V3702.22L542.021 3788.5V3709.91H559.086V3829.88L476.615 3743.83V3823H459.55ZM580.766 3786.82C580.766 3776.52 584.452 3767.75 591.825 3760.52C599.198 3753.3 608.183 3749.68 618.778 3749.68C629.423 3749.68 638.456 3753.32 645.878 3760.6C653.202 3767.87 656.864 3776.81 656.864 3787.4C656.864 3798.1 653.178 3807.06 645.805 3814.28C638.383 3821.46 629.276 3825.05 618.485 3825.05C607.792 3825.05 598.832 3821.39 591.605 3814.06C584.379 3806.84 580.766 3797.76 580.766 3786.82ZM597.611 3787.11C597.611 3794.24 599.516 3799.88 603.324 3804.03C607.23 3808.23 612.382 3810.33 618.778 3810.33C625.224 3810.33 630.375 3808.25 634.232 3804.1C638.09 3799.95 640.019 3794.41 640.019 3787.48C640.019 3780.54 638.09 3775 634.232 3770.85C630.326 3766.65 625.175 3764.55 618.778 3764.55C612.479 3764.55 607.377 3766.65 603.471 3770.85C599.564 3775.05 597.611 3780.47 597.611 3787.11ZM680.155 3751.66L698.612 3791.73L716.996 3751.66H735.526L698.466 3827.91L661.698 3751.66H680.155ZM740.946 3814.8C740.946 3812.06 741.947 3809.69 743.949 3807.69C745.951 3805.69 748.344 3804.69 751.127 3804.69C753.91 3804.69 756.303 3805.69 758.305 3807.69C760.307 3809.69 761.308 3812.09 761.308 3814.87C761.308 3817.7 760.307 3820.12 758.305 3822.12C756.352 3824.07 753.959 3825.05 751.127 3825.05C748.246 3825.05 745.829 3824.07 743.876 3822.12C741.923 3820.17 740.946 3817.73 740.946 3814.8ZM780.644 3765.72C780.644 3747.71 784.843 3733.33 793.241 3722.58C800.761 3712.87 809.867 3708.01 820.561 3708.01C831.254 3708.01 840.36 3712.87 847.88 3722.58C856.278 3733.33 860.478 3747.95 860.478 3766.46C860.478 3784.91 856.278 3799.51 847.88 3810.26C840.36 3819.97 831.278 3824.83 820.634 3824.83C809.989 3824.83 800.858 3819.97 793.241 3810.26C784.843 3799.51 780.644 3784.67 780.644 3765.72ZM797.416 3765.8C797.416 3778.35 799.589 3788.77 803.935 3797.07C808.28 3805.23 813.822 3809.3 820.561 3809.3C827.25 3809.3 832.792 3805.23 837.187 3797.07C841.581 3788.97 843.778 3778.74 843.778 3766.38C843.778 3754.03 841.581 3743.78 837.187 3735.62C832.792 3727.52 827.25 3723.46 820.561 3723.46C813.92 3723.46 808.402 3727.52 804.008 3735.62C799.613 3743.68 797.416 3753.74 797.416 3765.8ZM895.927 3725.88H876.371L885.746 3709.91H912.992V3823H895.927V3725.88Z" fill="black"/>
<path d="M516.975 3438.43H528.986V3453.96H516.975V3470H499.909V3453.96H444.392L516.975 3348.49V3438.43ZM499.909 3438.43V3400.57L473.835 3438.43H499.909ZM576.228 3372.88H556.672L566.047 3356.91H593.293V3470H576.228V3372.88Z" fill="black"/>
<path d="M516.975 3167.43H528.986V3182.96H516.975V3199H499.909V3182.96H444.392L516.975 3077.49V3167.43ZM499.909 3167.43V3129.57L473.835 3167.43H499.909ZM573.151 3182.96H615.266V3199H539.313L578.571 3151.47C582.429 3146.73 585.651 3142.63 588.239 3139.16C590.876 3135.69 592.878 3132.79 594.245 3130.45C597.028 3125.86 598.42 3121.73 598.42 3118.07C598.42 3112.79 596.564 3108.38 592.854 3104.81C589.143 3101.25 584.553 3099.46 579.084 3099.46C567.658 3099.46 561.115 3106.23 559.455 3119.75H542.463C545.197 3095.92 557.233 3084.01 578.571 3084.01C588.874 3084.01 597.517 3087.28 604.499 3093.82C611.53 3100.37 615.046 3108.47 615.046 3118.14C615.046 3124.29 613.41 3130.32 610.139 3136.23C608.479 3139.31 606.037 3142.97 602.814 3147.22C599.641 3151.42 595.612 3156.4 590.729 3162.16L573.151 3182.96Z" fill="black"/>
<path d="M524.975 2874.43H536.986V2889.96H524.975V2906H507.909V2889.96H452.392L524.975 2784.49V2874.43ZM507.909 2874.43V2836.57L481.835 2874.43H507.909ZM582.396 2853.49V2838.91C589.623 2838.91 594.481 2838.1 596.972 2836.49C601.415 2833.66 603.637 2829.12 603.637 2822.87C603.637 2818.04 602.025 2814.11 598.803 2811.08C595.629 2808 591.503 2806.46 586.425 2806.46C581.688 2806.46 578.026 2807.61 575.438 2809.91C572.948 2812.25 571.093 2816.21 569.872 2821.77H552.88C554.638 2811.13 558.251 2803.34 563.72 2798.41C569.188 2793.43 576.83 2790.94 586.645 2790.94C596.557 2790.94 604.638 2793.87 610.888 2799.73C617.138 2805.54 620.263 2813.03 620.263 2822.21C620.263 2832.56 616.161 2840.62 607.958 2846.38C617.333 2851.9 622.021 2860.86 622.021 2873.26C622.021 2883.42 618.603 2891.72 611.767 2898.16C604.931 2904.61 596.166 2907.83 585.473 2907.83C571.85 2907.83 561.742 2902.83 555.15 2892.82C552.416 2888.62 550.683 2882.81 549.95 2875.38H566.43C567.309 2880.85 569.433 2885.05 572.802 2887.98C576.22 2890.86 580.663 2892.3 586.132 2892.3C591.649 2892.3 596.215 2890.47 599.828 2886.81C603.441 2883.05 605.248 2878.29 605.248 2872.53C605.248 2864.91 602.538 2859.49 597.118 2856.27C593.944 2854.41 589.037 2853.49 582.396 2853.49Z" fill="black"/>
<path d="M524.975 2556.43H536.986V2571.96H524.975V2588H507.909V2571.96H452.392L524.975 2466.49V2556.43ZM507.909 2556.43V2518.57L481.835 2556.43H507.909ZM617.553 2556.43H629.564V2571.96H617.553V2588H600.487V2571.96H544.97L617.553 2466.49V2556.43ZM600.487 2556.43V2518.57L574.413 2556.43H600.487Z" fill="black"/>
<path d="M524.975 2230.43H536.986V2245.96H524.975V2262H507.909V2245.96H452.392L524.975 2140.49V2230.43ZM507.909 2230.43V2192.57L481.835 2230.43H507.909ZM622.46 2164.88H587.597L582.03 2183.63C582.86 2183.53 583.642 2183.46 584.374 2183.41C585.155 2183.36 585.863 2183.34 586.498 2183.34C597.484 2183.34 606.493 2187.05 613.524 2194.47C620.604 2201.84 624.145 2211.29 624.145 2222.82C624.145 2234.73 620.141 2244.54 612.133 2252.26C604.125 2259.97 594.042 2263.83 581.884 2263.83C566.894 2263.83 555.077 2256.8 546.435 2242.74L559.325 2231.82C562.89 2237.88 566.479 2242.15 570.092 2244.64C573.705 2247.08 578.124 2248.3 583.349 2248.3C590.185 2248.3 595.922 2245.91 600.561 2241.13C605.199 2236.19 607.519 2230.21 607.519 2223.18C607.519 2215.96 605.224 2210.05 600.634 2205.46C596.044 2200.72 590.307 2198.35 583.422 2198.35C575.756 2198.35 569.14 2201.7 563.573 2208.39H557.934L575.731 2148.91H622.46V2164.88Z" fill="black"/>
<path d="M516.975 1608.43H528.986V1623.96H516.975V1640H499.909V1623.96H444.392L516.975 1518.49V1608.43ZM499.909 1608.43V1570.57L473.835 1608.43H499.909ZM599.152 1542.88H543.342V1526.91H627.644L556.306 1643.88L542.756 1635.31L599.152 1542.88Z" fill="black"/>
<path d="M516.975 1310.43H528.986V1325.96H516.975V1342H499.909V1325.96H444.392L516.975 1220.49V1310.43ZM499.909 1310.43V1272.57L473.835 1310.43H499.909ZM561.652 1283.19C553.352 1277.33 549.201 1269.34 549.201 1259.24C549.201 1250.06 552.351 1242.39 558.649 1236.24C564.997 1230.09 572.883 1227.01 582.307 1227.01C591.682 1227.01 599.494 1230.09 605.744 1236.24C611.994 1242.34 615.119 1250.03 615.119 1259.31C615.119 1269.03 610.993 1276.96 602.741 1283.11C607.282 1285.55 610.847 1289.12 613.435 1293.81C616.071 1298.49 617.39 1303.77 617.39 1309.63C617.39 1319.64 614.118 1327.84 607.575 1334.24C601.032 1340.63 592.658 1343.83 582.453 1343.83C572.004 1343.83 563.386 1340.61 556.599 1334.16C549.763 1327.72 546.345 1319.61 546.345 1309.85C546.345 1297.15 551.447 1288.26 561.652 1283.19ZM565.241 1259.16C565.241 1264 566.877 1268.05 570.148 1271.32C573.469 1274.64 577.473 1276.3 582.16 1276.3C586.799 1276.3 590.778 1274.64 594.099 1271.32C597.419 1268 599.079 1264.02 599.079 1259.38C599.079 1254.74 597.419 1250.76 594.099 1247.44C590.778 1244.12 586.799 1242.46 582.16 1242.46C577.521 1242.46 573.542 1244.12 570.222 1247.44C566.901 1250.76 565.241 1254.67 565.241 1259.16ZM563.117 1309.26C563.117 1314.49 564.924 1318.98 568.537 1322.74C572.199 1326.45 576.643 1328.3 581.867 1328.3C587.043 1328.3 591.462 1326.47 595.124 1322.81C598.786 1319.1 600.617 1314.66 600.617 1309.48C600.617 1304.26 598.786 1299.81 595.124 1296.15C591.462 1292.49 587.043 1290.66 581.867 1290.66C576.74 1290.66 572.321 1292.49 568.61 1296.15C564.948 1299.81 563.117 1304.18 563.117 1309.26Z" fill="black"/>
<path d="M516.975 1013.43H528.986V1028.96H516.975V1045H499.909V1028.96H444.392L516.975 923.491V1013.43ZM499.909 1013.43V975.566L473.835 1013.43H499.909ZM569.27 1048.88L556.745 1039.58L583.771 1002.74C582.307 1002.93 581.062 1003.08 580.036 1003.18C579.011 1003.28 578.181 1003.33 577.546 1003.33C568.415 1003.33 560.505 999.834 553.815 992.852C547.175 985.918 543.854 977.568 543.854 967.803C543.854 957.402 547.541 948.516 554.914 941.143C562.336 933.721 571.223 930.01 581.574 930.01C591.877 930.01 600.837 933.672 608.454 940.996C616.071 948.271 619.88 956.865 619.88 966.777C619.88 975.566 616.169 985.063 608.747 995.269L569.27 1048.88ZM560.48 966.558C560.48 972.661 562.556 977.788 566.706 981.938C570.905 986.138 575.959 988.237 581.867 988.237C587.775 988.237 592.805 986.162 596.955 982.012C601.154 977.812 603.254 972.759 603.254 966.851C603.254 960.942 601.154 955.889 596.955 951.689C592.805 947.539 587.751 945.464 581.794 945.464C575.935 945.464 570.93 947.539 566.779 951.689C562.58 955.889 560.48 960.845 560.48 966.558Z" fill="black"/>
<path d="M521.882 641.881H487.019L481.452 660.631C482.282 660.533 483.063 660.46 483.796 660.411C484.577 660.362 485.285 660.338 485.92 660.338C496.906 660.338 505.915 664.049 512.946 671.471C520.026 678.844 523.566 688.292 523.566 699.815C523.566 711.729 519.562 721.544 511.555 729.259C503.547 736.974 493.464 740.831 481.306 740.831C466.315 740.831 454.499 733.8 445.856 719.737L458.747 708.824C462.312 714.879 465.9 719.151 469.514 721.642C473.127 724.083 477.546 725.304 482.771 725.304C489.606 725.304 495.344 722.911 499.982 718.126C504.621 713.194 506.94 707.213 506.94 700.182C506.94 692.955 504.646 687.047 500.056 682.457C495.466 677.721 489.729 675.353 482.844 675.353C475.178 675.353 468.562 678.697 462.995 685.387H457.355L475.153 625.914H521.882V641.881ZM541.95 681.725C541.95 663.707 546.149 649.327 554.548 638.585C562.067 628.868 571.174 624.01 581.867 624.01C592.561 624.01 601.667 628.868 609.187 638.585C617.585 649.327 621.784 663.951 621.784 682.457C621.784 700.914 617.585 715.514 609.187 726.256C601.667 735.973 592.585 740.831 581.94 740.831C571.296 740.831 562.165 735.973 554.548 726.256C546.149 715.514 541.95 700.67 541.95 681.725ZM558.723 681.798C558.723 694.347 560.896 704.771 565.241 713.072C569.587 721.227 575.129 725.304 581.867 725.304C588.557 725.304 594.099 721.227 598.493 713.072C602.888 704.967 605.085 694.737 605.085 682.384C605.085 670.03 602.888 659.776 598.493 651.622C594.099 643.517 588.557 639.464 581.867 639.464C575.227 639.464 569.709 643.517 565.314 651.622C560.92 659.679 558.723 669.737 558.723 681.798Z" fill="black"/>
<path d="M516.975 1924.43H528.986V1939.96H516.975V1956H499.909V1939.96H444.392L516.975 1834.49V1924.43ZM499.909 1924.43V1886.57L473.835 1924.43H499.909ZM594.465 1838.96L606.989 1848.33L579.963 1885.1C581.428 1884.91 582.673 1884.76 583.698 1884.66C584.724 1884.56 585.529 1884.52 586.115 1884.52C595.295 1884.52 603.229 1888.03 609.919 1895.06C616.56 1902 619.88 1910.35 619.88 1920.11C619.88 1930.46 616.169 1939.35 608.747 1946.77C601.374 1954.14 592.512 1957.83 582.16 1957.83C571.906 1957.83 562.922 1954.19 555.207 1946.92C547.639 1939.64 543.854 1931.02 543.854 1921.06C543.854 1912.13 547.541 1902.66 554.914 1892.65L594.465 1838.96ZM603.254 1921.21C603.254 1915.2 601.179 1910.13 597.028 1905.98C592.829 1901.78 587.775 1899.68 581.867 1899.68C575.91 1899.68 570.856 1901.75 566.706 1905.9C562.556 1910.05 560.48 1915.08 560.48 1920.99C560.48 1926.9 562.556 1931.93 566.706 1936.08C570.856 1940.23 575.935 1942.3 581.94 1942.3C587.8 1942.3 592.805 1940.23 596.955 1936.08C601.154 1931.88 603.254 1926.92 603.254 1921.21Z" fill="black"/>
<path d="M1822.55 3823V3702.22L1905.02 3788.5V3709.91H1922.09V3829.88L1839.62 3743.83V3823H1822.55ZM1943.77 3786.82C1943.77 3776.52 1947.45 3767.75 1954.83 3760.52C1962.2 3753.3 1971.18 3749.68 1981.78 3749.68C1992.42 3749.68 2001.46 3753.32 2008.88 3760.6C2016.2 3767.87 2019.86 3776.81 2019.86 3787.4C2019.86 3798.1 2016.18 3807.06 2008.8 3814.28C2001.38 3821.46 1992.28 3825.05 1981.49 3825.05C1970.79 3825.05 1961.83 3821.39 1954.61 3814.06C1947.38 3806.84 1943.77 3797.76 1943.77 3786.82ZM1960.61 3787.11C1960.61 3794.24 1962.52 3799.88 1966.32 3804.03C1970.23 3808.23 1975.38 3810.33 1981.78 3810.33C1988.22 3810.33 1993.38 3808.25 1997.23 3804.1C2001.09 3799.95 2003.02 3794.41 2003.02 3787.48C2003.02 3780.54 2001.09 3775 1997.23 3770.85C1993.33 3766.65 1988.17 3764.55 1981.78 3764.55C1975.48 3764.55 1970.38 3766.65 1966.47 3770.85C1962.56 3775.05 1960.61 3780.47 1960.61 3787.11ZM2043.16 3751.66L2061.61 3791.73L2080 3751.66H2098.53L2061.47 3827.91L2024.7 3751.66H2043.16ZM2103.95 3814.8C2103.95 3812.06 2104.95 3809.69 2106.95 3807.69C2108.95 3805.69 2111.34 3804.69 2114.13 3804.69C2116.91 3804.69 2119.3 3805.69 2121.3 3807.69C2123.31 3809.69 2124.31 3812.09 2124.31 3814.87C2124.31 3817.7 2123.31 3820.12 2121.3 3822.12C2119.35 3824.07 2116.96 3825.05 2114.13 3825.05C2111.25 3825.05 2108.83 3824.07 2106.88 3822.12C2104.92 3820.17 2103.95 3817.73 2103.95 3814.8ZM2165.91 3725.88H2146.35L2155.73 3709.91H2182.97V3823H2165.91V3725.88ZM2284.85 3725.88H2249.99L2244.42 3744.63C2245.25 3744.53 2246.04 3744.46 2246.77 3744.41C2247.55 3744.36 2248.26 3744.34 2248.89 3744.34C2259.88 3744.34 2268.89 3748.05 2275.92 3755.47C2283 3762.84 2286.54 3772.29 2286.54 3783.82C2286.54 3795.73 2282.54 3805.54 2274.53 3813.26C2266.52 3820.97 2256.44 3824.83 2244.28 3824.83C2229.29 3824.83 2217.47 3817.8 2208.83 3803.74L2221.72 3792.82C2225.28 3798.88 2228.87 3803.15 2232.49 3805.64C2236.1 3808.08 2240.52 3809.3 2245.74 3809.3C2252.58 3809.3 2258.32 3806.91 2262.96 3802.13C2267.59 3797.19 2269.91 3791.21 2269.91 3784.18C2269.91 3776.96 2267.62 3771.05 2263.03 3766.46C2258.44 3761.72 2252.7 3759.35 2245.82 3759.35C2238.15 3759.35 2231.53 3762.7 2225.97 3769.39H2220.33L2238.13 3709.91H2284.85V3725.88Z" fill="black"/>
<path d="M3250.55 3823V3702.22L3333.02 3788.5V3709.91H3350.09V3829.88L3267.62 3743.83V3823H3250.55ZM3371.77 3786.82C3371.77 3776.52 3375.45 3767.75 3382.83 3760.52C3390.2 3753.3 3399.18 3749.68 3409.78 3749.68C3420.42 3749.68 3429.46 3753.32 3436.88 3760.6C3444.2 3767.87 3447.86 3776.81 3447.86 3787.4C3447.86 3798.1 3444.18 3807.06 3436.8 3814.28C3429.38 3821.46 3420.28 3825.05 3409.49 3825.05C3398.79 3825.05 3389.83 3821.39 3382.61 3814.06C3375.38 3806.84 3371.77 3797.76 3371.77 3786.82ZM3388.61 3787.11C3388.61 3794.24 3390.52 3799.88 3394.32 3804.03C3398.23 3808.23 3403.38 3810.33 3409.78 3810.33C3416.22 3810.33 3421.38 3808.25 3425.23 3804.1C3429.09 3799.95 3431.02 3794.41 3431.02 3787.48C3431.02 3780.54 3429.09 3775 3425.23 3770.85C3421.33 3766.65 3416.17 3764.55 3409.78 3764.55C3403.48 3764.55 3398.38 3766.65 3394.47 3770.85C3390.56 3775.05 3388.61 3780.47 3388.61 3787.11ZM3471.16 3751.66L3489.61 3791.73L3508 3751.66H3526.53L3489.47 3827.91L3452.7 3751.66H3471.16ZM3531.95 3814.8C3531.95 3812.06 3532.95 3809.69 3534.95 3807.69C3536.95 3805.69 3539.34 3804.69 3542.13 3804.69C3544.91 3804.69 3547.3 3805.69 3549.3 3807.69C3551.31 3809.69 3552.31 3812.09 3552.31 3814.87C3552.31 3817.7 3551.31 3820.12 3549.3 3822.12C3547.35 3824.07 3544.96 3825.05 3542.13 3825.05C3539.25 3825.05 3536.83 3824.07 3534.88 3822.12C3532.92 3820.17 3531.95 3817.73 3531.95 3814.8ZM3602.84 3806.96H3644.96V3823H3569.01L3608.26 3775.47C3612.12 3770.73 3615.34 3766.63 3617.93 3763.16C3620.57 3759.69 3622.57 3756.79 3623.94 3754.45C3626.72 3749.86 3628.11 3745.73 3628.11 3742.07C3628.11 3736.79 3626.26 3732.38 3622.55 3728.81C3618.84 3725.25 3614.25 3723.46 3608.78 3723.46C3597.35 3723.46 3590.81 3730.23 3589.15 3743.75H3572.16C3574.89 3719.92 3586.93 3708.01 3608.26 3708.01C3618.57 3708.01 3627.21 3711.28 3634.19 3717.82C3641.22 3724.37 3644.74 3732.47 3644.74 3742.14C3644.74 3748.29 3643.1 3754.32 3639.83 3760.23C3638.17 3763.31 3635.73 3766.97 3632.51 3771.22C3629.33 3775.42 3625.31 3780.4 3620.42 3786.16L3602.84 3806.96ZM3691.54 3826.88L3679.02 3817.58L3706.04 3780.74C3704.58 3780.93 3703.33 3781.08 3702.31 3781.18C3701.28 3781.28 3700.45 3781.33 3699.82 3781.33C3690.69 3781.33 3682.78 3777.83 3676.09 3770.85C3669.45 3763.92 3666.13 3755.57 3666.13 3745.8C3666.13 3735.4 3669.81 3726.52 3677.19 3719.14C3684.61 3711.72 3693.49 3708.01 3703.85 3708.01C3714.15 3708.01 3723.11 3711.67 3730.73 3719C3738.34 3726.27 3742.15 3734.87 3742.15 3744.78C3742.15 3753.57 3738.44 3763.06 3731.02 3773.27L3691.54 3826.88ZM3682.75 3744.56C3682.75 3750.66 3684.83 3755.79 3688.98 3759.94C3693.18 3764.14 3698.23 3766.24 3704.14 3766.24C3710.05 3766.24 3715.08 3764.16 3719.23 3760.01C3723.43 3755.81 3725.53 3750.76 3725.53 3744.85C3725.53 3738.94 3723.43 3733.89 3719.23 3729.69C3715.08 3725.54 3710.02 3723.46 3704.07 3723.46C3698.21 3723.46 3693.2 3725.54 3689.05 3729.69C3684.85 3733.89 3682.75 3738.84 3682.75 3744.56Z" fill="black"/>
<path d="M4483.55 3823V3709.91H4507.28C4518.66 3709.91 4527.64 3711.04 4534.23 3713.28C4541.31 3715.48 4547.73 3719.22 4553.5 3724.49C4565.17 3735.13 4571 3749.12 4571 3766.46C4571 3783.84 4564.92 3797.9 4552.76 3808.64C4546.66 3814.02 4540.26 3817.75 4533.57 3819.85C4527.32 3821.95 4518.46 3823 4506.99 3823H4483.55ZM4500.62 3806.96H4508.31C4515.97 3806.96 4522.34 3806.15 4527.42 3804.54C4532.5 3802.83 4537.09 3800.12 4541.19 3796.41C4549.59 3788.75 4553.79 3778.76 4553.79 3766.46C4553.79 3754.05 4549.64 3744 4541.34 3736.28C4533.87 3729.4 4522.86 3725.95 4508.31 3725.95H4500.62V3806.96ZM4654.35 3791.21H4603.23C4603.67 3797.07 4605.57 3801.74 4608.94 3805.2C4612.31 3808.62 4616.63 3810.33 4621.9 3810.33C4626.01 3810.33 4629.4 3809.35 4632.08 3807.4C4634.72 3805.45 4637.72 3801.83 4641.09 3796.56L4655.01 3804.32C4652.86 3807.99 4650.59 3811.13 4648.2 3813.77C4645.81 3816.36 4643.24 3818.51 4640.51 3820.22C4637.77 3821.88 4634.82 3823.1 4631.65 3823.88C4628.47 3824.66 4625.03 3825.05 4621.32 3825.05C4610.67 3825.05 4602.13 3821.63 4595.68 3814.8C4589.24 3807.91 4586.02 3798.78 4586.02 3787.4C4586.02 3776.12 4589.14 3766.99 4595.39 3760.01C4601.69 3753.13 4610.04 3749.68 4620.44 3749.68C4630.94 3749.68 4639.24 3753.03 4645.34 3759.72C4651.4 3766.36 4654.42 3775.56 4654.42 3787.33L4654.35 3791.21ZM4637.43 3777.74C4635.14 3768.95 4629.59 3764.55 4620.81 3764.55C4618.8 3764.55 4616.92 3764.87 4615.17 3765.5C4613.41 3766.09 4611.8 3766.97 4610.33 3768.14C4608.92 3769.26 4607.7 3770.63 4606.67 3772.24C4605.64 3773.85 4604.86 3775.69 4604.33 3777.74H4637.43ZM4727.96 3754.74V3776.64C4724.2 3772.05 4720.83 3768.9 4717.85 3767.19C4714.92 3765.43 4711.48 3764.55 4707.52 3764.55C4701.32 3764.55 4696.17 3766.73 4692.07 3771.07C4687.97 3775.42 4685.92 3780.86 4685.92 3787.4C4685.92 3794.09 4687.9 3799.59 4691.85 3803.88C4695.85 3808.18 4700.96 3810.33 4707.16 3810.33C4711.11 3810.33 4714.6 3809.47 4717.63 3807.77C4720.56 3806.11 4724 3802.88 4727.96 3798.1V3819.85C4721.27 3823.32 4714.58 3825.05 4707.89 3825.05C4696.86 3825.05 4687.63 3821.49 4680.21 3814.36C4672.78 3807.18 4669.07 3798.27 4669.07 3787.62C4669.07 3776.98 4672.83 3768 4680.35 3760.67C4687.87 3753.35 4697.1 3749.68 4708.04 3749.68C4715.07 3749.68 4721.71 3751.37 4727.96 3754.74ZM4746.49 3814.8C4746.49 3812.06 4747.49 3809.69 4749.49 3807.69C4751.49 3805.69 4753.89 3804.69 4756.67 3804.69C4759.45 3804.69 4761.85 3805.69 4763.85 3807.69C4765.85 3809.69 4766.85 3812.09 4766.85 3814.87C4766.85 3817.7 4765.85 3820.12 4763.85 3822.12C4761.89 3824.07 4759.5 3825.05 4756.67 3825.05C4753.79 3825.05 4751.37 3824.07 4749.42 3822.12C4747.47 3820.17 4746.49 3817.73 4746.49 3814.8ZM4808.45 3725.88H4788.9L4798.27 3709.91H4825.52V3823H4808.45V3725.88ZM4888.36 3770.49V3755.91C4895.59 3755.91 4900.44 3755.1 4902.93 3753.49C4907.38 3750.66 4909.6 3746.12 4909.6 3739.87C4909.6 3735.04 4907.99 3731.11 4904.77 3728.08C4901.59 3725 4897.47 3723.46 4892.39 3723.46C4887.65 3723.46 4883.99 3724.61 4881.4 3726.91C4878.91 3729.25 4877.06 3733.21 4875.83 3738.77H4858.84C4860.6 3728.13 4864.21 3720.34 4869.68 3715.41C4875.15 3710.43 4882.79 3707.94 4892.61 3707.94C4902.52 3707.94 4910.6 3710.87 4916.85 3716.73C4923.1 3722.54 4926.23 3730.03 4926.23 3739.21C4926.23 3749.56 4922.12 3757.62 4913.92 3763.38C4923.3 3768.9 4927.98 3777.86 4927.98 3790.26C4927.98 3800.42 4924.57 3808.72 4917.73 3815.16C4910.89 3821.61 4902.13 3824.83 4891.44 3824.83C4877.81 3824.83 4867.71 3819.83 4861.11 3809.82C4858.38 3805.62 4856.65 3799.81 4855.91 3792.38H4872.39C4873.27 3797.85 4875.4 3802.05 4878.76 3804.98C4882.18 3807.86 4886.63 3809.3 4892.09 3809.3C4897.61 3809.3 4902.18 3807.47 4905.79 3803.81C4909.4 3800.05 4911.21 3795.29 4911.21 3789.53C4911.21 3781.91 4908.5 3776.49 4903.08 3773.27C4899.91 3771.41 4895 3770.49 4888.36 3770.49Z" fill="black"/>
<path d="M6267.55 4166V4045.22L6350.02 4131.5V4052.91H6367.09V4172.88L6284.62 4086.83V4166H6267.55ZM6388.77 4129.82C6388.77 4119.52 6392.45 4110.75 6399.83 4103.52C6407.2 4096.3 6416.18 4092.68 6426.78 4092.68C6437.42 4092.68 6446.46 4096.32 6453.88 4103.6C6461.2 4110.87 6464.86 4119.81 6464.86 4130.4C6464.86 4141.1 6461.18 4150.06 6453.8 4157.28C6446.38 4164.46 6437.28 4168.05 6426.49 4168.05C6415.79 4168.05 6406.83 4164.39 6399.61 4157.06C6392.38 4149.84 6388.77 4140.76 6388.77 4129.82ZM6405.61 4130.11C6405.61 4137.24 6407.52 4142.88 6411.32 4147.03C6415.23 4151.23 6420.38 4153.33 6426.78 4153.33C6433.22 4153.33 6438.38 4151.25 6442.23 4147.1C6446.09 4142.95 6448.02 4137.41 6448.02 4130.48C6448.02 4123.54 6446.09 4118 6442.23 4113.85C6438.33 4109.65 6433.17 4107.55 6426.78 4107.55C6420.48 4107.55 6415.38 4109.65 6411.47 4113.85C6407.56 4118.05 6405.61 4123.47 6405.61 4130.11ZM6488.16 4094.66L6506.61 4134.73L6525 4094.66H6543.53L6506.47 4170.91L6469.7 4094.66H6488.16ZM6628.19 4149.96H6670.31V4166H6594.36L6633.61 4118.47C6637.47 4113.73 6640.69 4109.63 6643.28 4106.16C6645.92 4102.69 6647.92 4099.79 6649.29 4097.45C6652.07 4092.86 6653.46 4088.73 6653.46 4085.07C6653.46 4079.79 6651.61 4075.38 6647.9 4071.81C6644.19 4068.25 6639.6 4066.46 6634.13 4066.46C6622.7 4066.46 6616.16 4073.23 6614.5 4086.75H6597.51C6600.24 4062.92 6612.28 4051.01 6633.61 4051.01C6643.92 4051.01 6652.56 4054.28 6659.54 4060.82C6666.57 4067.37 6670.09 4075.47 6670.09 4085.14C6670.09 4091.29 6668.45 4097.32 6665.18 4103.23C6663.52 4106.31 6661.08 4109.97 6657.86 4114.22C6654.68 4118.42 6650.66 4123.4 6645.77 4129.16L6628.19 4149.96ZM6689.57 4108.72C6689.57 4090.71 6693.77 4076.33 6702.17 4065.58C6709.69 4055.87 6718.79 4051.01 6729.49 4051.01C6740.18 4051.01 6749.29 4055.87 6756.81 4065.58C6765.21 4076.33 6769.41 4090.95 6769.41 4109.46C6769.41 4127.91 6765.21 4142.51 6756.81 4153.26C6749.29 4162.97 6740.21 4167.83 6729.56 4167.83C6718.92 4167.83 6709.79 4162.97 6702.17 4153.26C6693.77 4142.51 6689.57 4127.67 6689.57 4108.72ZM6706.34 4108.8C6706.34 4121.35 6708.52 4131.77 6712.86 4140.07C6717.21 4148.23 6722.75 4152.3 6729.49 4152.3C6736.18 4152.3 6741.72 4148.23 6746.11 4140.07C6750.51 4131.97 6752.71 4121.74 6752.71 4109.38C6752.71 4097.03 6750.51 4086.78 6746.11 4078.62C6741.72 4070.52 6736.18 4066.46 6729.49 4066.46C6722.85 4066.46 6717.33 4070.52 6712.94 4078.62C6708.54 4086.68 6706.34 4096.74 6706.34 4108.8ZM6804.85 4068.88H6785.3L6794.67 4052.91H6821.92V4166H6804.85V4068.88ZM6906.44 4068.88H6850.63V4052.91H6934.93L6863.59 4169.88L6850.04 4161.31L6906.44 4068.88ZM6935.45 4122.57H6968.11V4136.92H6935.45V4122.57ZM7062.37 4052.91V4126.08C7062.37 4134.82 7061.76 4141.34 7060.54 4145.64C7059.32 4150.52 7057.25 4154.65 7054.32 4158.02C7048.6 4164.71 7041.04 4168.05 7031.61 4168.05C7024.48 4168.05 7017.82 4166.2 7011.62 4162.48L7019.97 4147.91C7024.12 4150.69 7028 4152.08 7031.61 4152.08C7036.69 4152.08 7040.21 4150.16 7042.16 4146.3C7044.21 4142.44 7045.24 4135.7 7045.24 4126.08V4052.91H7062.37ZM7138.91 4094.66H7155.46V4166H7138.91V4158.53C7132.12 4164.88 7124.83 4168.05 7117.01 4168.05C7107.15 4168.05 7099 4164.49 7092.55 4157.36C7086.15 4150.08 7082.96 4141 7082.96 4130.11C7082.96 4119.42 7086.15 4110.51 7092.55 4103.38C7098.95 4096.25 7106.95 4092.68 7116.57 4092.68C7124.87 4092.68 7132.32 4096.1 7138.91 4102.94V4094.66ZM7099.8 4130.11C7099.8 4136.95 7101.63 4142.51 7105.29 4146.81C7109.05 4151.16 7113.79 4153.33 7119.5 4153.33C7125.61 4153.33 7130.54 4151.23 7134.3 4147.03C7138.06 4142.68 7139.94 4137.17 7139.94 4130.48C7139.94 4123.79 7138.06 4118.27 7134.3 4113.92C7130.54 4109.68 7125.66 4107.55 7119.65 4107.55C7113.99 4107.55 7109.25 4109.7 7105.44 4114C7101.68 4118.34 7099.8 4123.71 7099.8 4130.11ZM7176.27 4094.66H7192.82V4101.25C7198.58 4095.54 7205.07 4092.68 7212.3 4092.68C7220.6 4092.68 7227.07 4095.3 7231.71 4100.52C7235.71 4104.96 7237.72 4112.22 7237.72 4122.27V4166H7221.16V4126.16C7221.16 4119.12 7220.19 4114.27 7218.23 4111.58C7216.33 4108.85 7212.86 4107.48 7207.83 4107.48C7202.36 4107.48 7198.48 4109.29 7196.19 4112.9C7193.94 4116.46 7192.82 4122.69 7192.82 4131.58V4166H7176.27V4094.66ZM7332.05 4149.96H7374.17V4166H7298.21L7337.47 4118.47C7341.33 4113.73 7344.55 4109.63 7347.14 4106.16C7349.78 4102.69 7351.78 4099.79 7353.15 4097.45C7355.93 4092.86 7357.32 4088.73 7357.32 4085.07C7357.32 4079.79 7355.46 4075.38 7351.75 4071.81C7348.04 4068.25 7343.45 4066.46 7337.98 4066.46C7326.56 4066.46 7320.02 4073.23 7318.36 4086.75H7301.36C7304.1 4062.92 7316.13 4051.01 7337.47 4051.01C7347.77 4051.01 7356.42 4054.28 7363.4 4060.82C7370.43 4067.37 7373.95 4075.47 7373.95 4085.14C7373.95 4091.29 7372.31 4097.32 7369.04 4103.23C7367.38 4106.31 7364.94 4109.97 7361.71 4114.22C7358.54 4118.42 7354.51 4123.4 7349.63 4129.16L7332.05 4149.96ZM7393.43 4108.72C7393.43 4090.71 7397.63 4076.33 7406.03 4065.58C7413.55 4055.87 7422.65 4051.01 7433.35 4051.01C7444.04 4051.01 7453.15 4055.87 7460.67 4065.58C7469.06 4076.33 7473.26 4090.95 7473.26 4109.46C7473.26 4127.91 7469.06 4142.51 7460.67 4153.26C7453.15 4162.97 7444.06 4167.83 7433.42 4167.83C7422.77 4167.83 7413.64 4162.97 7406.03 4153.26C7397.63 4142.51 7393.43 4127.67 7393.43 4108.72ZM7410.2 4108.8C7410.2 4121.35 7412.37 4131.77 7416.72 4140.07C7421.07 4148.23 7426.61 4152.3 7433.35 4152.3C7440.04 4152.3 7445.58 4148.23 7449.97 4140.07C7454.37 4131.97 7456.56 4121.74 7456.56 4109.38C7456.56 4097.03 7454.37 4086.78 7449.97 4078.62C7445.58 4070.52 7440.04 4066.46 7433.35 4066.46C7426.71 4066.46 7421.19 4070.52 7416.79 4078.62C7412.4 4086.68 7410.2 4096.74 7410.2 4108.8ZM7508.71 4068.88H7489.16L7498.53 4052.91H7525.78V4166H7508.71V4068.88ZM7575.44 4107.19C7567.13 4101.33 7562.98 4093.34 7562.98 4083.24C7562.98 4074.06 7566.13 4066.39 7572.43 4060.24C7578.78 4054.09 7586.67 4051.01 7596.09 4051.01C7605.46 4051.01 7613.28 4054.09 7619.53 4060.24C7625.78 4066.34 7628.9 4074.03 7628.9 4083.31C7628.9 4093.03 7624.78 4100.96 7616.52 4107.11C7621.07 4109.55 7624.63 4113.12 7627.22 4117.81C7629.85 4122.49 7631.17 4127.77 7631.17 4133.63C7631.17 4143.64 7627.9 4151.84 7621.36 4158.24C7614.82 4164.63 7606.44 4167.83 7596.24 4167.83C7585.79 4167.83 7577.17 4164.61 7570.38 4158.16C7563.55 4151.72 7560.13 4143.61 7560.13 4133.85C7560.13 4121.15 7565.23 4112.26 7575.44 4107.19ZM7579.02 4083.16C7579.02 4088 7580.66 4092.05 7583.93 4095.32C7587.25 4098.64 7591.26 4100.3 7595.94 4100.3C7600.58 4100.3 7604.56 4098.64 7607.88 4095.32C7611.2 4092 7612.86 4088.02 7612.86 4083.38C7612.86 4078.74 7611.2 4074.76 7607.88 4071.44C7604.56 4068.12 7600.58 4066.46 7595.94 4066.46C7591.3 4066.46 7587.33 4068.12 7584 4071.44C7580.68 4074.76 7579.02 4078.67 7579.02 4083.16ZM7576.9 4133.26C7576.9 4138.49 7578.71 4142.98 7582.32 4146.74C7585.98 4150.45 7590.43 4152.3 7595.65 4152.3C7600.83 4152.3 7605.25 4150.47 7608.91 4146.81C7612.57 4143.1 7614.4 4138.66 7614.4 4133.48C7614.4 4128.26 7612.57 4123.81 7608.91 4120.15C7605.25 4116.49 7600.83 4114.66 7595.65 4114.66C7590.52 4114.66 7586.1 4116.49 7582.39 4120.15C7578.73 4123.81 7576.9 4128.18 7576.9 4133.26Z" fill="black"/>
<path d="M6267.55 4166V4045.22L6350.02 4131.5V4052.91H6367.09V4172.88L6284.62 4086.83V4166H6267.55ZM6388.77 4129.82C6388.77 4119.52 6392.45 4110.75 6399.83 4103.52C6407.2 4096.3 6416.18 4092.68 6426.78 4092.68C6437.42 4092.68 6446.46 4096.32 6453.88 4103.6C6461.2 4110.87 6464.86 4119.81 6464.86 4130.4C6464.86 4141.1 6461.18 4150.06 6453.8 4157.28C6446.38 4164.46 6437.28 4168.05 6426.49 4168.05C6415.79 4168.05 6406.83 4164.39 6399.61 4157.06C6392.38 4149.84 6388.77 4140.76 6388.77 4129.82ZM6405.61 4130.11C6405.61 4137.24 6407.52 4142.88 6411.32 4147.03C6415.23 4151.23 6420.38 4153.33 6426.78 4153.33C6433.22 4153.33 6438.38 4151.25 6442.23 4147.1C6446.09 4142.95 6448.02 4137.41 6448.02 4130.48C6448.02 4123.54 6446.09 4118 6442.23 4113.85C6438.33 4109.65 6433.17 4107.55 6426.78 4107.55C6420.48 4107.55 6415.38 4109.65 6411.47 4113.85C6407.56 4118.05 6405.61 4123.47 6405.61 4130.11ZM6488.16 4094.66L6506.61 4134.73L6525 4094.66H6543.53L6506.47 4170.91L6469.7 4094.66H6488.16ZM6628.19 4149.96H6670.31V4166H6594.36L6633.61 4118.47C6637.47 4113.73 6640.69 4109.63 6643.28 4106.16C6645.92 4102.69 6647.92 4099.79 6649.29 4097.45C6652.07 4092.86 6653.46 4088.73 6653.46 4085.07C6653.46 4079.79 6651.61 4075.38 6647.9 4071.81C6644.19 4068.25 6639.6 4066.46 6634.13 4066.46C6622.7 4066.46 6616.16 4073.23 6614.5 4086.75H6597.51C6600.24 4062.92 6612.28 4051.01 6633.61 4051.01C6643.92 4051.01 6652.56 4054.28 6659.54 4060.82C6666.57 4067.37 6670.09 4075.47 6670.09 4085.14C6670.09 4091.29 6668.45 4097.32 6665.18 4103.23C6663.52 4106.31 6661.08 4109.97 6657.86 4114.22C6654.68 4118.42 6650.66 4123.4 6645.77 4129.16L6628.19 4149.96ZM6689.57 4108.72C6689.57 4090.71 6693.77 4076.33 6702.17 4065.58C6709.69 4055.87 6718.79 4051.01 6729.49 4051.01C6740.18 4051.01 6749.29 4055.87 6756.81 4065.58C6765.21 4076.33 6769.41 4090.95 6769.41 4109.46C6769.41 4127.91 6765.21 4142.51 6756.81 4153.26C6749.29 4162.97 6740.21 4167.83 6729.56 4167.83C6718.92 4167.83 6709.79 4162.97 6702.17 4153.26C6693.77 4142.51 6689.57 4127.67 6689.57 4108.72ZM6706.34 4108.8C6706.34 4121.35 6708.52 4131.77 6712.86 4140.07C6717.21 4148.23 6722.75 4152.3 6729.49 4152.3C6736.18 4152.3 6741.72 4148.23 6746.11 4140.07C6750.51 4131.97 6752.71 4121.74 6752.71 4109.38C6752.71 4097.03 6750.51 4086.78 6746.11 4078.62C6741.72 4070.52 6736.18 4066.46 6729.49 4066.46C6722.85 4066.46 6717.33 4070.52 6712.94 4078.62C6708.54 4086.68 6706.34 4096.74 6706.34 4108.8ZM6804.85 4068.88H6785.3L6794.67 4052.91H6821.92V4166H6804.85V4068.88ZM6906.44 4068.88H6850.63V4052.91H6934.93L6863.59 4169.88L6850.04 4161.31L6906.44 4068.88ZM6935.45 4122.57H6968.11V4136.92H6935.45V4122.57ZM7062.37 4052.91V4126.08C7062.37 4134.82 7061.76 4141.34 7060.54 4145.64C7059.32 4150.52 7057.25 4154.65 7054.32 4158.02C7048.6 4164.71 7041.04 4168.05 7031.61 4168.05C7024.48 4168.05 7017.82 4166.2 7011.62 4162.48L7019.97 4147.91C7024.12 4150.69 7028 4152.08 7031.61 4152.08C7036.69 4152.08 7040.21 4150.16 7042.16 4146.3C7044.21 4142.44 7045.24 4135.7 7045.24 4126.08V4052.91H7062.37ZM7138.91 4094.66H7155.46V4166H7138.91V4158.53C7132.12 4164.88 7124.83 4168.05 7117.01 4168.05C7107.15 4168.05 7099 4164.49 7092.55 4157.36C7086.15 4150.08 7082.96 4141 7082.96 4130.11C7082.96 4119.42 7086.15 4110.51 7092.55 4103.38C7098.95 4096.25 7106.95 4092.68 7116.57 4092.68C7124.87 4092.68 7132.32 4096.1 7138.91 4102.94V4094.66ZM7099.8 4130.11C7099.8 4136.95 7101.63 4142.51 7105.29 4146.81C7109.05 4151.16 7113.79 4153.33 7119.5 4153.33C7125.61 4153.33 7130.54 4151.23 7134.3 4147.03C7138.06 4142.68 7139.94 4137.17 7139.94 4130.48C7139.94 4123.79 7138.06 4118.27 7134.3 4113.92C7130.54 4109.68 7125.66 4107.55 7119.65 4107.55C7113.99 4107.55 7109.25 4109.7 7105.44 4114C7101.68 4118.34 7099.8 4123.71 7099.8 4130.11ZM7176.27 4094.66H7192.82V4101.25C7198.58 4095.54 7205.07 4092.68 7212.3 4092.68C7220.6 4092.68 7227.07 4095.3 7231.71 4100.52C7235.71 4104.96 7237.72 4112.22 7237.72 4122.27V4166H7221.16V4126.16C7221.16 4119.12 7220.19 4114.27 7218.23 4111.58C7216.33 4108.85 7212.86 4107.48 7207.83 4107.48C7202.36 4107.48 7198.48 4109.29 7196.19 4112.9C7193.94 4116.46 7192.82 4122.69 7192.82 4131.58V4166H7176.27V4094.66ZM7332.05 4149.96H7374.17V4166H7298.21L7337.47 4118.47C7341.33 4113.73 7344.55 4109.63 7347.14 4106.16C7349.78 4102.69 7351.78 4099.79 7353.15 4097.45C7355.93 4092.86 7357.32 4088.73 7357.32 4085.07C7357.32 4079.79 7355.46 4075.38 7351.75 4071.81C7348.04 4068.25 7343.45 4066.46 7337.98 4066.46C7326.56 4066.46 7320.02 4073.23 7318.36 4086.75H7301.36C7304.1 4062.92 7316.13 4051.01 7337.47 4051.01C7347.77 4051.01 7356.42 4054.28 7363.4 4060.82C7370.43 4067.37 7373.95 4075.47 7373.95 4085.14C7373.95 4091.29 7372.31 4097.32 7369.04 4103.23C7367.38 4106.31 7364.94 4109.97 7361.71 4114.22C7358.54 4118.42 7354.51 4123.4 7349.63 4129.16L7332.05 4149.96ZM7393.43 4108.72C7393.43 4090.71 7397.63 4076.33 7406.03 4065.58C7413.55 4055.87 7422.65 4051.01 7433.35 4051.01C7444.04 4051.01 7453.15 4055.87 7460.67 4065.58C7469.06 4076.33 7473.26 4090.95 7473.26 4109.46C7473.26 4127.91 7469.06 4142.51 7460.67 4153.26C7453.15 4162.97 7444.06 4167.83 7433.42 4167.83C7422.77 4167.83 7413.64 4162.97 7406.03 4153.26C7397.63 4142.51 7393.43 4127.67 7393.43 4108.72ZM7410.2 4108.8C7410.2 4121.35 7412.37 4131.77 7416.72 4140.07C7421.07 4148.23 7426.61 4152.3 7433.35 4152.3C7440.04 4152.3 7445.58 4148.23 7449.97 4140.07C7454.37 4131.97 7456.56 4121.74 7456.56 4109.38C7456.56 4097.03 7454.37 4086.78 7449.97 4078.62C7445.58 4070.52 7440.04 4066.46 7433.35 4066.46C7426.71 4066.46 7421.19 4070.52 7416.79 4078.62C7412.4 4086.68 7410.2 4096.74 7410.2 4108.8ZM7508.71 4068.88H7489.16L7498.53 4052.91H7525.78V4166H7508.71V4068.88ZM7575.44 4107.19C7567.13 4101.33 7562.98 4093.34 7562.98 4083.24C7562.98 4074.06 7566.13 4066.39 7572.43 4060.24C7578.78 4054.09 7586.67 4051.01 7596.09 4051.01C7605.46 4051.01 7613.28 4054.09 7619.53 4060.24C7625.78 4066.34 7628.9 4074.03 7628.9 4083.31C7628.9 4093.03 7624.78 4100.96 7616.52 4107.11C7621.07 4109.55 7624.63 4113.12 7627.22 4117.81C7629.85 4122.49 7631.17 4127.77 7631.17 4133.63C7631.17 4143.64 7627.9 4151.84 7621.36 4158.24C7614.82 4164.63 7606.44 4167.83 7596.24 4167.83C7585.79 4167.83 7577.17 4164.61 7570.38 4158.16C7563.55 4151.72 7560.13 4143.61 7560.13 4133.85C7560.13 4121.15 7565.23 4112.26 7575.44 4107.19ZM7579.02 4083.16C7579.02 4088 7580.66 4092.05 7583.93 4095.32C7587.25 4098.64 7591.26 4100.3 7595.94 4100.3C7600.58 4100.3 7604.56 4098.64 7607.88 4095.32C7611.2 4092 7612.86 4088.02 7612.86 4083.38C7612.86 4078.74 7611.2 4074.76 7607.88 4071.44C7604.56 4068.12 7600.58 4066.46 7595.94 4066.46C7591.3 4066.46 7587.33 4068.12 7584 4071.44C7580.68 4074.76 7579.02 4078.67 7579.02 4083.16ZM7576.9 4133.26C7576.9 4138.49 7578.71 4142.98 7582.32 4146.74C7585.98 4150.45 7590.43 4152.3 7595.65 4152.3C7600.83 4152.3 7605.25 4150.47 7608.91 4146.81C7612.57 4143.1 7614.4 4138.66 7614.4 4133.48C7614.4 4128.26 7612.57 4123.81 7608.91 4120.15C7605.25 4116.49 7600.83 4114.66 7595.65 4114.66C7590.52 4114.66 7586.1 4116.49 7582.39 4120.15C7578.73 4123.81 7576.9 4128.18 7576.9 4133.26Z" fill="black"/>
<path d="M480.26 4052.29L465.025 4176H448.912L449.791 4168.6C445.787 4172.17 442.32 4174.58 439.391 4175.85C436.51 4177.03 432.945 4177.61 428.697 4177.61C419.029 4177.61 411.119 4174.41 404.967 4168.02C398.814 4161.57 395.738 4153.27 395.738 4143.11C395.738 4132.27 399.107 4123.27 405.846 4116.09C412.584 4108.91 421.056 4105.32 431.261 4105.32C436.485 4105.32 440.88 4106.22 444.444 4108.03C448.155 4109.89 452.037 4113.04 456.09 4117.48L464.073 4052.29H480.26ZM453.6 4138.5C453.6 4132.64 451.793 4127.9 448.18 4124.29C444.566 4120.68 439.83 4118.87 433.971 4118.87C427.623 4118.87 422.374 4121.24 418.224 4125.98C414.073 4130.71 411.998 4136.69 411.998 4143.92C411.998 4150.02 413.78 4154.93 417.345 4158.64C420.909 4162.3 425.646 4164.13 431.554 4164.13C437.706 4164.13 442.906 4161.64 447.154 4156.66C451.451 4151.78 453.6 4145.73 453.6 4138.5ZM565.074 4107.01L556.578 4176H540.392L541.344 4168.53C534.41 4174.58 527.232 4177.61 519.811 4177.61C510.68 4177.61 503.233 4174.51 497.472 4168.31C491.71 4162.11 488.829 4154.08 488.829 4144.21C488.829 4132.84 492.125 4123.51 498.717 4116.23C505.406 4108.96 513.976 4105.32 524.425 4105.32C529.356 4105.32 533.556 4106.13 537.022 4107.74C540.538 4109.35 544.127 4112.13 547.789 4116.09L548.888 4107.01H565.074ZM545.372 4139.53C545.372 4133.42 543.614 4128.47 540.099 4124.66C536.583 4120.8 532.042 4118.87 526.476 4118.87C520.421 4118.87 515.343 4121.24 511.241 4125.98C507.14 4130.76 505.089 4136.62 505.089 4143.55C505.089 4149.61 506.798 4154.56 510.216 4158.42C513.634 4162.28 518.028 4164.21 523.399 4164.21C529.356 4164.21 534.508 4161.79 538.854 4156.96C543.199 4152.03 545.372 4146.21 545.372 4139.53ZM603.233 4122.02L596.568 4176H580.382L587.047 4122.02H577.892L579.723 4107.01H588.878L592.833 4075H609.02L605.064 4107.01H620.006L618.175 4122.02H603.233ZM702.33 4107.01L693.834 4176H677.647L678.6 4168.53C671.666 4174.58 664.488 4177.61 657.066 4177.61C647.936 4177.61 640.489 4174.51 634.728 4168.31C628.966 4162.11 626.085 4154.08 626.085 4144.21C626.085 4132.84 629.381 4123.51 635.973 4116.23C642.662 4108.96 651.231 4105.32 661.681 4105.32C666.612 4105.32 670.812 4106.13 674.278 4107.74C677.794 4109.35 681.383 4112.13 685.045 4116.09L686.144 4107.01H702.33ZM682.628 4139.53C682.628 4133.42 680.87 4128.47 677.354 4124.66C673.839 4120.8 669.298 4118.87 663.731 4118.87C657.677 4118.87 652.599 4121.24 648.497 4125.98C644.396 4130.76 642.345 4136.62 642.345 4143.55C642.345 4149.61 644.054 4154.56 647.472 4158.42C650.89 4162.28 655.284 4164.21 660.655 4164.21C666.612 4164.21 671.764 4161.79 676.109 4156.96C680.455 4152.03 682.628 4146.21 682.628 4139.53ZM786.705 4122.02L780.113 4176H763.927L770.592 4122.02H760.045L761.876 4107.01H772.423L776.231 4076.17C777.208 4067.97 779.43 4061.94 782.896 4058.08C786.363 4054.22 791.319 4052.29 797.765 4052.29C801.671 4052.29 806.236 4053.54 811.461 4056.03L809.703 4070.24C806.676 4067.8 803.893 4066.58 801.354 4066.58C798.424 4066.58 796.251 4067.58 794.835 4069.58C793.517 4071.58 792.516 4075.27 791.832 4080.64L788.609 4107.01H803.258L801.427 4122.02H786.705ZM833.653 4107.01L832.921 4112.94C838.39 4107.76 843.907 4105.17 849.474 4105.17C854.356 4105.17 858.8 4106.96 862.804 4110.52L852.477 4123.85C849.498 4121.31 846.52 4120.04 843.541 4120.04C841.49 4120.04 839.684 4120.46 838.121 4121.29C836.559 4122.07 835.191 4123.34 834.02 4125.1C832.896 4126.81 831.944 4129.03 831.163 4131.76C830.431 4134.5 829.845 4137.77 829.405 4141.58L825.157 4176H808.971L817.467 4107.01H833.653ZM941.539 4140.84C941.539 4151.39 937.877 4160.25 930.553 4167.43C923.277 4174.61 914.293 4178.2 903.6 4178.2C892.418 4178.2 883.287 4174.8 876.207 4168.02C869.078 4161.18 865.514 4152.54 865.514 4142.09C865.514 4131.4 869.2 4122.51 876.573 4115.43C883.995 4108.3 893.272 4104.74 904.405 4104.74C915.343 4104.74 924.254 4108.1 931.139 4114.84C938.072 4121.48 941.539 4130.15 941.539 4140.84ZM925.206 4140.04C925.206 4133.4 923.277 4128.15 919.42 4124.29C915.562 4120.29 910.509 4118.29 904.259 4118.29C897.765 4118.29 892.394 4120.51 888.146 4124.95C883.897 4129.44 881.773 4135.08 881.773 4141.87C881.773 4148.71 883.775 4154.2 887.779 4158.35C891.783 4162.6 896.959 4164.72 903.307 4164.72C909.654 4164.72 914.879 4162.4 918.98 4157.76C923.131 4153.17 925.206 4147.26 925.206 4140.04ZM980.797 4107.01L980.064 4113.45C985.533 4107.98 991.856 4105.25 999.034 4105.25C1003.38 4105.25 1006.72 4106.05 1009.07 4107.67C1011.41 4109.18 1013.51 4112.04 1015.37 4116.23C1022.2 4108.96 1029.58 4105.32 1037.49 4105.32C1051.16 4105.32 1057.99 4111.6 1057.99 4124.14C1057.99 4125.41 1057.87 4127.2 1057.63 4129.49C1057.43 4131.79 1057.14 4134.62 1056.75 4137.99L1052.06 4176H1035.88L1040.86 4136.08C1041.29 4132.37 1041.51 4129.64 1041.51 4127.88C1041.51 4121.87 1038.49 4118.87 1032.43 4118.87C1030.04 4118.87 1027.96 4119.24 1026.21 4119.97C1024.45 4120.65 1022.94 4121.75 1021.67 4123.27C1020.45 4124.73 1019.42 4126.66 1018.59 4129.05C1017.81 4131.4 1017.2 4134.2 1016.76 4137.47L1012.07 4176H995.885L1000.94 4135.06C1001.38 4131.35 1001.6 4128.81 1001.6 4127.44C1001.6 4121.73 998.497 4118.87 992.296 4118.87C983.312 4118.87 978.062 4125.1 976.549 4137.55L971.788 4176H955.602L964.098 4107.01H980.797ZM1195.91 4107.01L1133.43 4215.48H1114.98L1142.74 4167.43L1118.05 4107.01H1135.34L1152.4 4151.1L1177.38 4107.01H1195.91ZM1274.79 4140.84C1274.79 4151.39 1271.13 4160.25 1263.8 4167.43C1256.53 4174.61 1247.54 4178.2 1236.85 4178.2C1225.67 4178.2 1216.54 4174.8 1209.46 4168.02C1202.33 4161.18 1198.77 4152.54 1198.77 4142.09C1198.77 4131.4 1202.45 4122.51 1209.83 4115.43C1217.25 4108.3 1226.52 4104.74 1237.66 4104.74C1248.59 4104.74 1257.51 4108.1 1264.39 4114.84C1271.32 4121.48 1274.79 4130.15 1274.79 4140.84ZM1258.46 4140.04C1258.46 4133.4 1256.53 4128.15 1252.67 4124.29C1248.81 4120.29 1243.76 4118.29 1237.51 4118.29C1231.02 4118.29 1225.65 4120.51 1221.4 4124.95C1217.15 4129.44 1215.03 4135.08 1215.03 4141.87C1215.03 4148.71 1217.03 4154.2 1221.03 4158.35C1225.04 4162.6 1230.21 4164.72 1236.56 4164.72C1242.91 4164.72 1248.13 4162.4 1252.23 4157.76C1256.38 4153.17 1258.46 4147.26 1258.46 4140.04ZM1356.75 4107.01L1351.84 4147.14C1351.45 4150.56 1350.96 4153.54 1350.38 4156.08C1349.79 4158.62 1349.16 4160.74 1348.47 4162.45C1347.11 4165.72 1344.81 4168.63 1341.59 4171.17C1336.12 4175.46 1328.92 4177.61 1319.98 4177.61C1311.49 4177.61 1304.7 4175.44 1299.62 4171.09C1294.54 4166.7 1292 4160.81 1292 4153.44C1292 4152.32 1292.05 4151 1292.15 4149.49C1292.3 4147.97 1292.49 4146.24 1292.74 4144.29L1297.28 4107.01H1313.46L1308.7 4145.75C1308.51 4147.41 1308.36 4148.88 1308.26 4150.15C1308.17 4151.37 1308.12 4152.39 1308.12 4153.22C1308.12 4160.5 1312.39 4164.13 1320.93 4164.13C1325.57 4164.13 1328.99 4162.94 1331.19 4160.55C1333.38 4158.15 1334.85 4153.95 1335.58 4147.95L1340.64 4107.01H1356.75ZM1448.81 4107.01L1440.32 4176.51C1439.78 4180.66 1439.17 4184.28 1438.49 4187.35C1437.85 4190.43 1437.12 4193.02 1436.29 4195.12C1434.58 4199.41 1432.04 4203.1 1428.67 4206.18C1422.13 4212.04 1413.63 4214.96 1403.18 4214.96C1392.39 4214.96 1383.65 4212.13 1376.96 4206.47C1373.55 4203.64 1371.15 4200.41 1369.79 4196.8C1368.42 4193.48 1367.74 4188.82 1367.74 4182.81H1383.41C1383.8 4189.31 1385.46 4194.02 1388.39 4196.95C1391.32 4199.93 1395.86 4201.42 1402.01 4201.42C1408.65 4201.42 1413.71 4199.63 1417.17 4196.07C1420.64 4192.55 1422.84 4186.94 1423.77 4179.22L1424.94 4169.77C1418.1 4175 1410.92 4177.61 1403.4 4177.61C1394.03 4177.61 1386.29 4174.41 1380.19 4168.02C1374.08 4161.47 1371.03 4153.32 1371.03 4143.55C1371.03 4132.57 1374.57 4123.46 1381.65 4116.23C1388.78 4108.96 1397.69 4105.32 1408.38 4105.32C1413.51 4105.32 1417.66 4106.08 1420.84 4107.59C1424.3 4109.06 1427.89 4111.72 1431.6 4115.58L1432.63 4107.01H1448.81ZM1430.21 4139.75C1430.21 4133.5 1428.31 4128.47 1424.5 4124.66C1420.69 4120.8 1415.71 4118.87 1409.56 4118.87C1403.16 4118.87 1397.84 4121.21 1393.59 4125.9C1389.39 4130.54 1387.29 4136.38 1387.29 4143.41C1387.29 4149.56 1389.1 4154.59 1392.71 4158.5C1396.37 4162.25 1401.21 4164.13 1407.21 4164.13C1413.9 4164.13 1419.4 4161.84 1423.69 4157.25C1428.04 4152.61 1430.21 4146.78 1430.21 4139.75ZM1539.2 4140.84C1539.2 4151.39 1535.53 4160.25 1528.21 4167.43C1520.93 4174.61 1511.95 4178.2 1501.26 4178.2C1490.07 4178.2 1480.94 4174.8 1473.86 4168.02C1466.73 4161.18 1463.17 4152.54 1463.17 4142.09C1463.17 4131.4 1466.86 4122.51 1474.23 4115.43C1481.65 4108.3 1490.93 4104.74 1502.06 4104.74C1513 4104.74 1521.91 4108.1 1528.79 4114.84C1535.73 4121.48 1539.2 4130.15 1539.2 4140.84ZM1522.86 4140.04C1522.86 4133.4 1520.93 4128.15 1517.08 4124.29C1513.22 4120.29 1508.17 4118.29 1501.92 4118.29C1495.42 4118.29 1490.05 4120.51 1485.8 4124.95C1481.55 4129.44 1479.43 4135.08 1479.43 4141.87C1479.43 4148.71 1481.43 4154.2 1485.44 4158.35C1489.44 4162.6 1494.62 4164.72 1500.96 4164.72C1507.31 4164.72 1512.54 4162.4 1516.64 4157.76C1520.79 4153.17 1522.86 4147.26 1522.86 4140.04ZM1620.93 4107.01L1573.47 4184.94L1548.94 4107.01H1565.78L1577.65 4151.1L1602.4 4107.01H1620.93ZM1639.9 4168.02C1639.9 4170.6 1638.9 4172.85 1636.9 4174.75C1634.9 4176.66 1632.58 4177.61 1629.94 4177.61C1627.26 4177.61 1624.96 4176.63 1623.06 4174.68C1621.15 4172.73 1620.2 4170.34 1620.2 4167.5C1620.2 4164.77 1621.08 4162.47 1622.84 4160.62C1624.69 4158.76 1626.92 4157.84 1629.5 4157.84C1632.38 4157.84 1634.83 4158.84 1636.83 4160.84C1638.88 4162.84 1639.9 4165.23 1639.9 4168.02ZM1722.89 4113.67L1720.84 4130.15C1717.52 4125.9 1714.34 4122.85 1711.31 4121C1708.34 4119.19 1704.82 4118.29 1700.77 4118.29C1694.62 4118.29 1689.56 4120.56 1685.61 4125.1C1681.65 4129.64 1679.67 4135.47 1679.67 4142.6C1679.67 4149.29 1681.53 4154.64 1685.24 4158.64C1689 4162.69 1693.86 4164.72 1699.82 4164.72C1705.53 4164.72 1711.44 4162.25 1717.54 4157.32L1715.42 4174.39C1709.17 4176.93 1703.21 4178.2 1697.54 4178.2C1687.44 4178.2 1679.21 4174.9 1672.86 4168.31C1666.56 4161.72 1663.41 4153.17 1663.41 4142.67C1663.41 4131.88 1666.81 4122.88 1673.59 4115.65C1680.43 4108.37 1688.93 4104.74 1699.08 4104.74C1707.38 4104.74 1715.32 4107.71 1722.89 4113.67ZM1808.43 4140.84C1808.43 4151.39 1804.77 4160.25 1797.45 4167.43C1790.17 4174.61 1781.19 4178.2 1770.49 4178.2C1759.31 4178.2 1750.18 4174.8 1743.1 4168.02C1735.97 4161.18 1732.41 4152.54 1732.41 4142.09C1732.41 4131.4 1736.09 4122.51 1743.47 4115.43C1750.89 4108.3 1760.17 4104.74 1771.3 4104.74C1782.24 4104.74 1791.15 4108.1 1798.03 4114.84C1804.97 4121.48 1808.43 4130.15 1808.43 4140.84ZM1792.1 4140.04C1792.1 4133.4 1790.17 4128.15 1786.31 4124.29C1782.46 4120.29 1777.4 4118.29 1771.15 4118.29C1764.66 4118.29 1759.29 4120.51 1755.04 4124.95C1750.79 4129.44 1748.67 4135.08 1748.67 4141.87C1748.67 4148.71 1750.67 4154.2 1754.67 4158.35C1758.68 4162.6 1763.85 4164.72 1770.2 4164.72C1776.55 4164.72 1781.77 4162.4 1785.88 4157.76C1790.03 4153.17 1792.1 4147.26 1792.1 4140.04ZM1847.69 4107.01L1846.96 4113.45C1852.43 4107.98 1858.75 4105.25 1865.93 4105.25C1870.27 4105.25 1873.62 4106.05 1875.96 4107.67C1878.31 4109.18 1880.41 4112.04 1882.26 4116.23C1889.1 4108.96 1896.47 4105.32 1904.38 4105.32C1918.05 4105.32 1924.89 4111.6 1924.89 4124.14C1924.89 4125.41 1924.77 4127.2 1924.52 4129.49C1924.33 4131.79 1924.03 4134.62 1923.64 4137.99L1918.96 4176H1902.77L1907.75 4136.08C1908.19 4132.37 1908.41 4129.64 1908.41 4127.88C1908.41 4121.87 1905.38 4118.87 1899.33 4118.87C1896.93 4118.87 1894.86 4119.24 1893.1 4119.97C1891.34 4120.65 1889.83 4121.75 1888.56 4123.27C1887.34 4124.73 1886.31 4126.66 1885.48 4129.05C1884.7 4131.4 1884.09 4134.2 1883.65 4137.47L1878.97 4176H1862.78L1867.83 4135.06C1868.27 4131.35 1868.49 4128.81 1868.49 4127.44C1868.49 4121.73 1865.39 4118.87 1859.19 4118.87C1850.21 4118.87 1844.96 4125.1 1843.44 4137.55L1838.68 4176H1822.5L1830.99 4107.01H1847.69Z" fill="black"/>
<path d="M5945.97 3709.91V3783.08C5945.97 3791.82 5945.36 3798.34 5944.14 3802.64C5942.92 3807.52 5940.85 3811.65 5937.92 3815.02C5932.2 3821.71 5924.64 3825.05 5915.21 3825.05C5908.08 3825.05 5901.42 3823.2 5895.22 3819.48L5903.57 3804.91C5907.72 3807.69 5911.6 3809.08 5915.21 3809.08C5920.29 3809.08 5923.81 3807.16 5925.76 3803.3C5927.81 3799.44 5928.83 3792.7 5928.83 3783.08V3709.91H5945.97ZM6022.51 3751.66H6039.06V3823H6022.51V3815.53C6015.72 3821.88 6008.42 3825.05 6000.61 3825.05C5990.75 3825.05 5982.59 3821.49 5976.15 3814.36C5969.75 3807.08 5966.55 3798 5966.55 3787.11C5966.55 3776.42 5969.75 3767.51 5976.15 3760.38C5982.55 3753.25 5990.55 3749.68 6000.17 3749.68C6008.47 3749.68 6015.92 3753.1 6022.51 3759.94V3751.66ZM5983.4 3787.11C5983.4 3793.95 5985.23 3799.51 5988.89 3803.81C5992.65 3808.16 5997.39 3810.33 6003.1 3810.33C6009.21 3810.33 6014.14 3808.23 6017.9 3804.03C6021.66 3799.68 6023.54 3794.17 6023.54 3787.48C6023.54 3780.79 6021.66 3775.27 6017.9 3770.92C6014.14 3766.68 6009.25 3764.55 6003.25 3764.55C5997.58 3764.55 5992.85 3766.7 5989.04 3771C5985.28 3775.34 5983.4 3780.71 5983.4 3787.11ZM6059.87 3751.66H6076.42V3758.25C6082.18 3752.54 6088.67 3749.68 6095.9 3749.68C6104.2 3749.68 6110.67 3752.3 6115.31 3757.52C6119.31 3761.96 6121.32 3769.22 6121.32 3779.27V3823H6104.76V3783.16C6104.76 3776.12 6103.79 3771.27 6101.83 3768.58C6099.93 3765.85 6096.46 3764.48 6091.43 3764.48C6085.96 3764.48 6082.08 3766.29 6079.79 3769.9C6077.54 3773.46 6076.42 3779.69 6076.42 3788.58V3823H6059.87V3751.66ZM6144.75 3814.8C6144.75 3812.06 6145.75 3809.69 6147.76 3807.69C6149.76 3805.69 6152.15 3804.69 6154.93 3804.69C6157.72 3804.69 6160.11 3805.69 6162.11 3807.69C6164.11 3809.69 6165.11 3812.09 6165.11 3814.87C6165.11 3817.7 6164.11 3820.12 6162.11 3822.12C6160.16 3824.07 6157.77 3825.05 6154.93 3825.05C6152.05 3825.05 6149.64 3824.07 6147.68 3822.12C6145.73 3820.17 6144.75 3817.73 6144.75 3814.8ZM6206.72 3725.88H6187.16L6196.54 3709.91H6223.78V3823H6206.72V3725.88ZM6255.93 3765.72C6255.93 3747.71 6260.13 3733.33 6268.53 3722.58C6276.05 3712.87 6285.16 3708.01 6295.85 3708.01C6306.54 3708.01 6315.65 3712.87 6323.17 3722.58C6331.57 3733.33 6335.77 3747.95 6335.77 3766.46C6335.77 3784.91 6331.57 3799.51 6323.17 3810.26C6315.65 3819.97 6306.57 3824.83 6295.92 3824.83C6285.28 3824.83 6276.15 3819.97 6268.53 3810.26C6260.13 3799.51 6255.93 3784.67 6255.93 3765.72ZM6272.71 3765.8C6272.71 3778.35 6274.88 3788.77 6279.23 3797.07C6283.57 3805.23 6289.11 3809.3 6295.85 3809.3C6302.54 3809.3 6308.08 3805.23 6312.48 3797.07C6316.87 3788.97 6319.07 3778.74 6319.07 3766.38C6319.07 3754.03 6316.87 3743.78 6312.48 3735.62C6308.08 3727.52 6302.54 3723.46 6295.85 3723.46C6289.21 3723.46 6283.69 3727.52 6279.3 3735.62C6274.9 3743.68 6272.71 3753.74 6272.71 3765.8Z" fill="black"/>
<path d="M7178.97 3709.91V3783.08C7178.97 3791.82 7178.36 3798.34 7177.14 3802.64C7175.92 3807.52 7173.85 3811.65 7170.92 3815.02C7165.2 3821.71 7157.64 3825.05 7148.21 3825.05C7141.08 3825.05 7134.42 3823.2 7128.22 3819.48L7136.57 3804.91C7140.72 3807.69 7144.6 3809.08 7148.21 3809.08C7153.29 3809.08 7156.81 3807.16 7158.76 3803.3C7160.81 3799.44 7161.83 3792.7 7161.83 3783.08V3709.91H7178.97ZM7255.51 3751.66H7272.06V3823H7255.51V3815.53C7248.72 3821.88 7241.42 3825.05 7233.61 3825.05C7223.75 3825.05 7215.59 3821.49 7209.15 3814.36C7202.75 3807.08 7199.55 3798 7199.55 3787.11C7199.55 3776.42 7202.75 3767.51 7209.15 3760.38C7215.55 3753.25 7223.55 3749.68 7233.17 3749.68C7241.47 3749.68 7248.92 3753.1 7255.51 3759.94V3751.66ZM7216.4 3787.11C7216.4 3793.95 7218.23 3799.51 7221.89 3803.81C7225.65 3808.16 7230.39 3810.33 7236.1 3810.33C7242.21 3810.33 7247.14 3808.23 7250.9 3804.03C7254.66 3799.68 7256.54 3794.17 7256.54 3787.48C7256.54 3780.79 7254.66 3775.27 7250.9 3770.92C7247.14 3766.68 7242.25 3764.55 7236.25 3764.55C7230.58 3764.55 7225.85 3766.7 7222.04 3771C7218.28 3775.34 7216.4 3780.71 7216.4 3787.11ZM7292.87 3751.66H7309.42V3758.25C7315.18 3752.54 7321.67 3749.68 7328.9 3749.68C7337.2 3749.68 7343.67 3752.3 7348.31 3757.52C7352.31 3761.96 7354.32 3769.22 7354.32 3779.27V3823H7337.76V3783.16C7337.76 3776.12 7336.79 3771.27 7334.83 3768.58C7332.93 3765.85 7329.46 3764.48 7324.43 3764.48C7318.96 3764.48 7315.08 3766.29 7312.79 3769.9C7310.54 3773.46 7309.42 3779.69 7309.42 3788.58V3823H7292.87V3751.66ZM7377.75 3814.8C7377.75 3812.06 7378.75 3809.69 7380.76 3807.69C7382.76 3805.69 7385.15 3804.69 7387.93 3804.69C7390.72 3804.69 7393.11 3805.69 7395.11 3807.69C7397.11 3809.69 7398.11 3812.09 7398.11 3814.87C7398.11 3817.7 7397.11 3820.12 7395.11 3822.12C7393.16 3824.07 7390.77 3825.05 7387.93 3825.05C7385.05 3825.05 7382.64 3824.07 7380.68 3822.12C7378.73 3820.17 7377.75 3817.73 7377.75 3814.8ZM7448.65 3806.96H7490.77V3823H7414.81L7454.07 3775.47C7457.93 3770.73 7461.15 3766.63 7463.74 3763.16C7466.38 3759.69 7468.38 3756.79 7469.75 3754.45C7472.53 3749.86 7473.92 3745.73 7473.92 3742.07C7473.92 3736.79 7472.06 3732.38 7468.35 3728.81C7464.64 3725.25 7460.05 3723.46 7454.58 3723.46C7443.16 3723.46 7436.62 3730.23 7434.96 3743.75H7417.96C7420.7 3719.92 7432.73 3708.01 7454.07 3708.01C7464.37 3708.01 7473.02 3711.28 7480 3717.82C7487.03 3724.37 7490.55 3732.47 7490.55 3742.14C7490.55 3748.29 7488.91 3754.32 7485.64 3760.23C7483.98 3763.31 7481.54 3766.97 7478.31 3771.22C7475.14 3775.42 7471.11 3780.4 7466.23 3786.16L7448.65 3806.96ZM7576.61 3791.43H7588.62V3806.96H7576.61V3823H7559.54V3806.96H7504.02L7576.61 3701.49V3791.43ZM7559.54 3791.43V3753.57L7533.47 3791.43H7559.54Z" fill="black"/>
<path d="M744 3128L7507 3128" stroke="#8E8E8E" stroke-opacity="0.6" stroke-width="6"/>
<path d="M744 3431L7507 3431" stroke="#8E8E8E" stroke-opacity="0.6" stroke-width="6"/>
<path d="M700 3593H7507" stroke="#8E8E8E" stroke-opacity="0.6" stroke-width="6"/>
<path d="M744 2810L7507 2810" stroke="#8E8E8E" stroke-opacity="0.6" stroke-width="6"/>
<path d="M744 2494H7507" stroke="#8E8E8E" stroke-opacity="0.6" stroke-width="6"/>
<path d="M744 2178H7507.57" stroke="#8E8E8E" stroke-opacity="0.6" stroke-width="6"/>
<path d="M744 1862H7507.57" stroke="#8E8E8E" stroke-opacity="0.6" stroke-width="6"/>
<path d="M744 1575H7507.57" stroke="#8E8E8E" stroke-opacity="0.6" stroke-width="6"/>
<path d="M744 1277H7507.57" stroke="#8E8E8E" stroke-opacity="0.6" stroke-width="6"/>
<path d="M744 980H7507.57" stroke="#8E8E8E" stroke-opacity="0.6" stroke-width="6"/>
<path d="M744 1704H7507.57" stroke="#8E8E8E" stroke-opacity="0.6" stroke-width="6"/>
<path d="M744 1417H7507.57" stroke="#8E8E8E" stroke-opacity="0.6" stroke-width="6"/>
<path d="M744 1119H7507.57" stroke="#8E8E8E" stroke-opacity="0.6" stroke-width="6"/>
<path d="M744 822H7507.57" stroke="#8E8E8E" stroke-opacity="0.6" stroke-width="6"/>
<path d="M744 684H7507.57" stroke="#8E8E8E" stroke-opacity="0.6" stroke-width="6"/>
<path d="M744 2020H7507.57" stroke="#8E8E8E" stroke-opacity="0.6" stroke-width="6"/>
<path d="M744 2336H7507.57" stroke="#8E8E8E" stroke-opacity="0.6" stroke-width="6"/>
<path d="M744 2652H7507.57" stroke="#8E8E8E" stroke-opacity="0.6" stroke-width="6"/>
<path d="M744 2970H7507.57" stroke="#8E8E8E" stroke-opacity="0.6" stroke-width="6"/>
<path d="M744 3286H7507.57" stroke="#8E8E8E" stroke-opacity="0.6" stroke-width="6"/>
<path d="M700 3652V3534" stroke="black" stroke-width="6"/>
<path d="M2059 3652V3534" stroke="black" stroke-width="6"/>
<path d="M3482 3652V3534" stroke="black" stroke-width="6"/>
<path d="M4726 3652V3534" stroke="black" stroke-width="6"/>
<path d="M6123 3652V3534" stroke="black" stroke-width="6"/>
<path d="M7356 3652V3534" stroke="black" stroke-width="6"/>
<path d="M5890 404L5890 3636" stroke="#FF98CE" stroke-width="20" stroke-dasharray="16 16"/>
<circle cx="5890" cy="448" r="44" fill="#FF98CE"/>
<path d="M835 2418.31L986.26 2751.71L1046.62 2682.22L1117.89 2751.71L1229.15 2544.89L1291.69 2516.76L1357.14 2189.98L1429.86 2326.48L1593.48 1494.23L1749.83 1361.87L1829.83 1432.19L1880.73 1361.87L1968 1403.23L2117.08 1184H2197.8L2332.33 1452.87L2397.78 1833.42L2495.95 2082.43L2550.49 2189.98L2630.49 3013.13L2699.57 3310.95L2779.57 3215.82L2881.38 3075.18L2928.64 2988.31L3001.37 2839.4L3077.72 3137.22L3183.17 3166.18L3223.17 3373H3292.25L3361.34 3137.22L3528.6 2901.45L3601.32 2744.26L3677.67 2367.85L3739.49 2413.35L3906.75 2839.4L3968.56 2698.76L4044.92 2678.08L4092.91 2744.26L4194.72 2818.72L4267.44 2678.08L4329.26 2868.36L4409.25 2818.72H4496.51L4565.6 2868.36L4652.87 3013.13L4729.22 2901.45L4798.31 2628.44L4856.49 3013.13L4958.29 3137.22L5045.56 3013.13L5085.56 3373L5169.19 2603.62L5300.08 2003.84L5412.8 1825.15L5467.34 1614.19L5572.79 1701.05L5692.78 1262.59L5761.86 1614.19L5856.4 1701.05L5889.13 1394.96L5932.76 1262.59L6144.38 1283.27L6278.91 2041.07L6362.54 2198.25H6518.89L6587.98 2400.94L6682.52 2231.34L6751.6 2276.85L6820.69 2198.25L6875.23 2789.76L6966.13 3083.45L7031.58 2971.77L7104.3 3273.73L7158.84 3013.13V2893.17L7326.1 2516.76L7417 2661.53" stroke="#FF7E51" stroke-width="22"/>
<path d="M7419.5 2663.5L7475.5 2700H7632.5" stroke="#FF7E51" stroke-width="22"/>
<path d="M5469.84 117V26.5312L5488.82 26.5312C5497.93 26.5312 5505.11 27.4297 5510.39 29.2266C5516.05 30.9844 5521.19 33.9727 5525.8 38.1914C5535.13 46.707 5539.8 57.8984 5539.8 71.7656C5539.8 85.6719 5534.94 96.9219 5525.21 105.516C5520.33 109.812 5515.21 112.801 5509.86 114.48C5504.86 116.16 5497.77 117 5488.59 117H5469.84ZM5483.49 104.168H5489.64C5495.78 104.168 5500.88 103.523 5504.94 102.234C5509 100.867 5512.67 98.6992 5515.95 95.7305C5522.67 89.5977 5526.03 81.6094 5526.03 71.7656C5526.03 61.8437 5522.71 53.7969 5516.07 47.625C5510.09 42.1172 5501.29 39.3633 5489.64 39.3633H5483.49V104.168ZM5567.69 59.9297V92.6836C5567.69 102.137 5571.42 106.863 5578.88 106.863C5586.34 106.863 5590.07 102.137 5590.07 92.6836V59.9297H5603.26V92.9766C5603.26 97.5469 5602.69 101.492 5601.56 104.812C5600.46 107.781 5598.57 110.457 5595.88 112.84C5591.42 116.707 5585.76 118.641 5578.88 118.641C5572.05 118.641 5566.4 116.707 5561.95 112.84C5559.21 110.457 5557.28 107.781 5556.15 104.812C5555.05 102.156 5554.51 98.2109 5554.51 92.9766V59.9297H5567.69ZM5619.9 59.9297L5633.14 59.9297V65.2031C5637.75 60.6328 5642.95 58.3477 5648.73 58.3477C5655.37 58.3477 5660.54 60.4375 5664.25 64.6172C5667.46 68.1719 5669.06 73.9727 5669.06 82.0195V117H5655.82V85.125C5655.82 79.5 5655.04 75.6133 5653.47 73.4648C5651.95 71.2773 5649.18 70.1836 5645.15 70.1836C5640.78 70.1836 5637.67 71.6289 5635.84 74.5195C5634.04 77.3711 5633.14 82.3516 5633.14 89.4609V117H5619.9V59.9297ZM5698.94 18.0352V78.3867L5717.52 59.9297H5735.21L5710.43 83.8945L5737.03 117H5719.92L5701.05 92.918L5698.94 95.0273V117H5685.76V18.0352H5698.94ZM5758.71 59.9297V117H5745.52V59.9297L5758.71 59.9297ZM5743.53 36.1992C5743.53 33.8945 5744.37 31.9023 5746.05 30.2227C5747.73 28.543 5749.74 27.7031 5752.09 27.7031C5754.47 27.7031 5756.5 28.543 5758.18 30.2227C5759.86 31.8633 5760.7 33.875 5760.7 36.2578C5760.7 38.6406 5759.86 40.6719 5758.18 42.3516C5756.54 44.0312 5754.53 44.8711 5752.14 44.8711C5749.76 44.8711 5747.73 44.0312 5746.05 42.3516C5744.37 40.6719 5743.53 38.6211 5743.53 36.1992ZM5775.41 59.9297H5788.65V65.2031C5793.26 60.6328 5798.45 58.3477 5804.23 58.3477C5810.88 58.3477 5816.05 60.4375 5819.76 64.6172C5822.96 68.1719 5824.57 73.9727 5824.57 82.0195V117H5811.32V85.125C5811.32 79.5 5810.54 75.6133 5808.98 73.4648C5807.46 71.2773 5804.68 70.1836 5800.66 70.1836C5796.29 70.1836 5793.18 71.6289 5791.34 74.5195C5789.55 77.3711 5788.65 82.3516 5788.65 89.4609V117H5775.41V59.9297ZM5853.75 22.6055L5865.46 27.1758L5848.77 60.6914L5839.86 57L5853.75 22.6055ZM5920.19 117V26.5312H5939.18C5948.28 26.5312 5955.46 27.4297 5960.74 29.2266C5966.4 30.9844 5971.54 33.9727 5976.15 38.1914C5985.48 46.707 5990.15 57.8984 5990.15 71.7656C5990.15 85.6719 5985.29 96.9219 5975.56 105.516C5970.68 109.812 5965.56 112.801 5960.21 114.48C5955.21 116.16 5948.12 117 5938.94 117H5920.19ZM5933.84 104.168H5940C5946.13 104.168 5951.23 103.523 5955.29 102.234C5959.35 100.867 5963.02 98.6992 5966.3 95.7305C5973.02 89.5977 5976.38 81.6094 5976.38 71.7656C5976.38 61.8437 5973.06 53.7969 5966.42 47.625C5960.45 42.1172 5951.64 39.3633 5940 39.3633H5933.84V104.168ZM6002.16 88.0547C6002.16 79.8125 6005.11 72.8008 6011.01 67.0195C6016.91 61.2383 6024.1 58.3477 6032.57 58.3477C6041.09 58.3477 6048.32 61.2578 6054.25 67.0781C6060.11 72.8984 6063.04 80.0469 6063.04 88.5234C6063.04 97.0781 6060.09 104.246 6054.2 110.027C6048.26 115.77 6040.97 118.641 6032.34 118.641C6023.79 118.641 6016.62 115.711 6010.84 109.852C6005.05 104.07 6002.16 96.8047 6002.16 88.0547ZM6015.64 88.2891C6015.64 93.9922 6017.16 98.5039 6020.21 101.824C6023.34 105.184 6027.46 106.863 6032.57 106.863C6037.73 106.863 6041.85 105.203 6044.94 101.883C6048.02 98.5625 6049.57 94.1289 6049.57 88.582C6049.57 83.0352 6048.02 78.6016 6044.94 75.2812C6041.81 71.9219 6037.69 70.2422 6032.57 70.2422C6027.54 70.2422 6023.45 71.9219 6020.33 75.2812C6017.2 78.6406 6015.64 82.9766 6015.64 88.2891ZM6077.05 59.9297H6090.29V65.2031C6094.9 60.6328 6100.09 58.3477 6105.88 58.3477C6112.52 58.3477 6117.69 60.4375 6121.4 64.6172C6124.61 68.1719 6126.21 73.9727 6126.21 82.0195V117H6112.96V85.125C6112.96 79.5 6112.18 75.6133 6110.62 73.4648C6109.1 71.2773 6106.32 70.1836 6102.3 70.1836C6097.93 70.1836 6094.82 71.6289 6092.98 74.5195C6091.19 77.3711 6090.29 82.3516 6090.29 89.4609V117H6077.05V59.9297ZM6156.09 59.9297V92.6836C6156.09 102.137 6159.82 106.863 6167.28 106.863C6174.74 106.863 6178.47 102.137 6178.47 92.6836V59.9297H6191.66V92.9766C6191.66 97.5469 6191.09 101.492 6189.96 104.812C6188.86 107.781 6186.97 110.457 6184.27 112.84C6179.82 116.707 6174.16 118.641 6167.28 118.641C6160.45 118.641 6154.8 116.707 6150.35 112.84C6147.61 110.457 6145.68 107.781 6144.55 104.812C6143.45 102.156 6142.91 98.2109 6142.91 92.9766V59.9297H6156.09ZM6221.89 72.2344V117H6208.71V72.2344H6203.08V59.9297H6208.71V39.0117L6221.89 39.0117V59.9297H6232.14V72.2344H6221.89ZM6274.27 69.6562L6263.38 75.457C6261.66 71.9414 6259.53 70.1836 6256.99 70.1836C6255.78 70.1836 6254.74 70.5937 6253.88 71.4141C6253.02 72.1953 6252.59 73.2109 6252.59 74.4609C6252.59 76.6484 6255.13 78.8164 6260.21 80.9648C6267.2 83.9727 6271.91 86.7461 6274.33 89.2852C6276.75 91.8242 6277.96 95.2422 6277.96 99.5391C6277.96 105.047 6275.93 109.656 6271.87 113.367C6267.93 116.883 6263.16 118.641 6257.57 118.641C6248 118.641 6241.23 113.973 6237.24 104.637L6248.49 99.4219C6250.05 102.156 6251.25 103.895 6252.07 104.637C6253.67 106.121 6255.58 106.863 6257.81 106.863C6262.26 106.863 6264.49 104.832 6264.49 100.77C6264.49 98.4258 6262.77 96.2383 6259.33 94.207C6258 93.543 6256.68 92.8984 6255.35 92.2734C6254.02 91.6484 6252.67 91.0039 6251.3 90.3398C6247.48 88.4648 6244.78 86.5898 6243.22 84.7148C6241.23 82.332 6240.23 79.2656 6240.23 75.5156C6240.23 70.5547 6241.93 66.4531 6245.33 63.2109C6248.8 59.9687 6253.02 58.3477 6257.98 58.3477C6265.29 58.3477 6270.72 62.1172 6274.27 69.6562ZM6340.07 18.0352V66.5508C6345.35 61.082 6351.32 58.3477 6358 58.3477C6365.7 58.3477 6372.11 61.2187 6377.22 66.9609C6382.34 72.6641 6384.9 79.7734 6384.9 88.2891C6384.9 97.0781 6382.32 104.344 6377.16 110.086C6372.05 115.789 6365.58 118.641 6357.77 118.641C6351.17 118.641 6345.27 116.102 6340.07 111.023V117H6326.89V18.0352H6340.07ZM6371.42 88.875C6371.42 83.4062 6369.94 78.9531 6366.97 75.5156C6363.96 72 6360.19 70.2422 6355.66 70.2422C6350.82 70.2422 6346.87 71.9414 6343.82 75.3398C6340.82 78.6992 6339.31 83.0742 6339.31 88.4648C6339.31 94.0117 6340.8 98.4453 6343.77 101.766C6346.73 105.164 6350.64 106.863 6355.48 106.863C6360.05 106.863 6363.84 105.164 6366.85 101.766C6369.9 98.3281 6371.42 94.0312 6371.42 88.875ZM6450.82 91.5703H6409.92C6410.27 96.2578 6411.79 99.9883 6414.49 102.762C6417.18 105.496 6420.64 106.863 6424.86 106.863C6428.14 106.863 6430.86 106.082 6433 104.52C6435.11 102.957 6437.52 100.066 6440.21 95.8477L6451.34 102.059C6449.62 104.988 6447.81 107.508 6445.89 109.617C6443.98 111.687 6441.93 113.406 6439.74 114.773C6437.55 116.102 6435.19 117.078 6432.65 117.703C6430.11 118.328 6427.36 118.641 6424.39 118.641C6415.88 118.641 6409.04 115.906 6403.88 110.437C6398.73 104.93 6396.15 97.625 6396.15 88.5234C6396.15 79.5 6398.65 72.1953 6403.65 66.6094C6408.69 61.1016 6415.37 58.3477 6423.69 58.3477C6432.09 58.3477 6438.73 61.0234 6443.61 66.375C6448.45 71.6875 6450.88 79.0508 6450.88 88.4648L6450.82 91.5703ZM6437.28 80.7891C6435.45 73.7578 6431.01 70.2422 6423.98 70.2422C6422.38 70.2422 6420.88 70.4961 6419.47 71.0039C6418.06 71.4727 6416.77 72.1758 6415.6 73.1133C6414.47 74.0117 6413.49 75.1055 6412.67 76.3945C6411.85 77.6836 6411.23 79.1484 6410.8 80.7891H6437.28ZM6520.48 115.652C6520.48 118.348 6520.39 120.711 6520.19 122.742C6520.04 124.812 6519.8 126.629 6519.49 128.191C6518.55 132.488 6516.71 136.18 6513.98 139.266C6508.82 145.203 6501.73 148.172 6492.71 148.172C6485.09 148.172 6478.82 146.121 6473.9 142.02C6468.82 137.801 6465.89 131.961 6465.11 124.5H6478.36C6478.86 127.312 6479.7 129.48 6480.88 131.004C6483.61 134.559 6487.59 136.336 6492.83 136.336C6502.48 136.336 6507.3 130.418 6507.3 118.582V110.613C6502.07 115.965 6496.03 118.641 6489.2 118.641C6481.42 118.641 6475.05 115.828 6470.09 110.203C6465.09 104.5 6462.59 97.3711 6462.59 88.8164C6462.59 80.4961 6464.92 73.4258 6469.57 67.6055C6474.57 61.4336 6481.17 58.3477 6489.37 58.3477C6496.56 58.3477 6502.54 61.0234 6507.3 66.375V59.9297H6520.48V115.652ZM6507.83 88.582C6507.83 83.0352 6506.34 78.6016 6503.38 75.2812C6500.37 71.8828 6496.52 70.1836 6491.83 70.1836C6486.83 70.1836 6482.89 72.0391 6480 75.75C6477.38 79.0703 6476.07 83.3672 6476.07 88.6406C6476.07 93.8359 6477.38 98.0937 6480 101.414C6482.85 105.047 6486.79 106.863 6491.83 106.863C6496.87 106.863 6500.86 105.027 6503.79 101.355C6506.48 98.0352 6507.83 93.7773 6507.83 88.582ZM6550.31 59.9297V117H6537.12V59.9297H6550.31ZM6535.13 36.1992C6535.13 33.8945 6535.97 31.9023 6537.65 30.2227C6539.33 28.543 6541.34 27.7031 6543.69 27.7031C6546.07 27.7031 6548.1 28.543 6549.78 30.2227C6551.46 31.8633 6552.3 33.875 6552.3 36.2578C6552.3 38.6406 6551.46 40.6719 6549.78 42.3516C6548.14 44.0312 6546.13 44.8711 6543.75 44.8711C6541.36 44.8711 6539.33 44.0312 6537.65 42.3516C6535.97 40.6719 6535.13 38.6211 6535.13 36.1992ZM6567.01 59.9297H6580.25V65.2031C6584.86 60.6328 6590.05 58.3477 6595.84 58.3477C6602.48 58.3477 6607.65 60.4375 6611.36 64.6172C6614.57 68.1719 6616.17 73.9727 6616.17 82.0195V117H6602.93V85.125C6602.93 79.5 6602.14 75.6133 6600.58 73.4648C6599.06 71.2773 6596.29 70.1836 6592.26 70.1836C6587.89 70.1836 6584.78 71.6289 6582.95 74.5195C6581.15 77.3711 6580.25 82.3516 6580.25 89.4609V117H6567.01V59.9297ZM6666.03 69.6562L6655.13 75.457C6653.41 71.9414 6651.29 70.1836 6648.75 70.1836C6647.54 70.1836 6646.5 70.5937 6645.64 71.4141C6644.78 72.1953 6644.35 73.2109 6644.35 74.4609C6644.35 76.6484 6646.89 78.8164 6651.97 80.9648C6658.96 83.9727 6663.67 86.7461 6666.09 89.2852C6668.51 91.8242 6669.72 95.2422 6669.72 99.5391C6669.72 105.047 6667.69 109.656 6663.63 113.367C6659.68 116.883 6654.92 118.641 6649.33 118.641C6639.76 118.641 6632.98 113.973 6629 104.637L6640.25 99.4219C6641.81 102.156 6643 103.895 6643.82 104.637C6645.43 106.121 6647.34 106.863 6649.57 106.863C6654.02 106.863 6656.25 104.832 6656.25 100.77C6656.25 98.4258 6654.53 96.2383 6651.09 94.207C6649.76 93.543 6648.43 92.8984 6647.11 92.2734C6645.78 91.6484 6644.43 91.0039 6643.06 90.3398C6639.23 88.4648 6636.54 86.5898 6634.98 84.7148C6632.98 82.332 6631.99 79.2656 6631.99 75.5156C6631.99 70.5547 6633.69 66.4531 6637.09 63.2109C6640.56 59.9687 6644.78 58.3477 6649.74 58.3477C6657.05 58.3477 6662.48 62.1172 6666.03 69.6562ZM5500.48 209.656L5489.59 215.457C5487.87 211.941 5485.74 210.184 5483.2 210.184C5481.99 210.184 5480.95 210.594 5480.09 211.414C5479.23 212.195 5478.8 213.211 5478.8 214.461C5478.8 216.648 5481.34 218.816 5486.42 220.965C5493.41 223.973 5498.12 226.746 5500.54 229.285C5502.96 231.824 5504.18 235.242 5504.18 239.539C5504.18 245.047 5502.14 249.656 5498.08 253.367C5494.14 256.883 5489.37 258.641 5483.79 258.641C5474.21 258.641 5467.44 253.973 5463.45 244.637L5474.7 239.422C5476.27 242.156 5477.46 243.895 5478.28 244.637C5479.88 246.121 5481.79 246.863 5484.02 246.863C5488.47 246.863 5490.7 244.832 5490.7 240.77C5490.7 238.426 5488.98 236.238 5485.54 234.207C5484.21 233.543 5482.89 232.898 5481.56 232.273C5480.23 231.648 5478.88 231.004 5477.52 230.34C5473.69 228.465 5470.99 226.59 5469.43 224.715C5467.44 222.332 5466.44 219.266 5466.44 215.516C5466.44 210.555 5468.14 206.453 5471.54 203.211C5475.02 199.969 5479.23 198.348 5484.2 198.348C5491.5 198.348 5496.93 202.117 5500.48 209.656ZM5560.48 202.391V219.91C5557.48 216.238 5554.78 213.719 5552.4 212.352C5550.05 210.945 5547.3 210.242 5544.14 210.242C5539.18 210.242 5535.05 211.98 5531.77 215.457C5528.49 218.934 5526.85 223.289 5526.85 228.523C5526.85 233.875 5528.43 238.27 5531.6 241.707C5534.8 245.145 5538.88 246.863 5543.84 246.863C5547.01 246.863 5549.8 246.18 5552.22 244.812C5554.57 243.484 5557.32 240.906 5560.48 237.078V254.48C5555.13 257.254 5549.78 258.641 5544.43 258.641C5535.6 258.641 5528.22 255.789 5522.28 250.086C5516.34 244.344 5513.38 237.215 5513.38 228.699C5513.38 220.184 5516.38 212.996 5522.4 207.137C5528.41 201.277 5535.8 198.348 5544.55 198.348C5550.17 198.348 5555.48 199.695 5560.48 202.391ZM5615.33 199.93H5628.57V257H5615.33V251.023C5609.9 256.102 5604.06 258.641 5597.81 258.641C5589.92 258.641 5583.39 255.789 5578.24 250.086C5573.12 244.266 5570.56 237 5570.56 228.289C5570.56 219.734 5573.12 212.605 5578.24 206.902C5583.36 201.199 5589.76 198.348 5597.46 198.348C5604.1 198.348 5610.05 201.082 5615.33 206.551V199.93ZM5584.04 228.289C5584.04 233.758 5585.5 238.211 5588.43 241.648C5591.44 245.125 5595.23 246.863 5599.8 246.863C5604.68 246.863 5608.63 245.184 5611.64 241.824C5614.64 238.348 5616.15 233.934 5616.15 228.582C5616.15 223.23 5614.64 218.816 5611.64 215.34C5608.63 211.941 5604.72 210.242 5599.92 210.242C5595.39 210.242 5591.6 211.961 5588.55 215.398C5585.54 218.875 5584.04 223.172 5584.04 228.289ZM5658.39 158.035V257H5645.21V158.035H5658.39ZM5688.28 199.93V257H5675.09V199.93H5688.28ZM5673.1 176.199C5673.1 173.895 5673.94 171.902 5675.62 170.223C5677.3 168.543 5679.31 167.703 5681.66 167.703C5684.04 167.703 5686.07 168.543 5687.75 170.223C5689.43 171.863 5690.27 173.875 5690.27 176.258C5690.27 178.641 5689.43 180.672 5687.75 182.352C5686.11 184.031 5684.1 184.871 5681.71 184.871C5679.33 184.871 5677.3 184.031 5675.62 182.352C5673.94 180.672 5673.1 178.621 5673.1 176.199ZM5704.98 199.93H5718.22V205.203C5722.83 200.633 5728.02 198.348 5733.8 198.348C5740.45 198.348 5745.62 200.437 5749.33 204.617C5752.54 208.172 5754.14 213.973 5754.14 222.02V257H5740.89V225.125C5740.89 219.5 5740.11 215.613 5738.55 213.465C5737.03 211.277 5734.25 210.184 5730.23 210.184C5725.86 210.184 5722.75 211.629 5720.91 214.52C5719.12 217.371 5718.22 222.352 5718.22 229.461V257H5704.98V199.93ZM5826.03 255.652C5826.03 258.348 5825.93 260.711 5825.74 262.742C5825.58 264.812 5825.35 266.629 5825.04 268.191C5824.1 272.488 5822.26 276.18 5819.53 279.266C5814.37 285.203 5807.28 288.172 5798.26 288.172C5790.64 288.172 5784.37 286.121 5779.45 282.02C5774.37 277.801 5771.44 271.961 5770.66 264.5H5783.9C5784.41 267.312 5785.25 269.48 5786.42 271.004C5789.16 274.559 5793.14 276.336 5798.38 276.336C5808.02 276.336 5812.85 270.418 5812.85 258.582V250.613C5807.61 255.965 5801.58 258.641 5794.74 258.641C5786.97 258.641 5780.6 255.828 5775.64 250.203C5770.64 244.5 5768.14 237.371 5768.14 228.816C5768.14 220.496 5770.46 213.426 5775.11 207.605C5780.11 201.434 5786.71 198.348 5794.92 198.348C5802.11 198.348 5808.08 201.023 5812.85 206.375V199.93H5826.03V255.652ZM5813.38 228.582C5813.38 223.035 5811.89 218.602 5808.92 215.281C5805.91 211.883 5802.07 210.184 5797.38 210.184C5792.38 210.184 5788.43 212.039 5785.54 215.75C5782.93 219.07 5781.62 223.367 5781.62 228.641C5781.62 233.836 5782.93 238.094 5785.54 241.414C5788.39 245.047 5792.34 246.863 5797.38 246.863C5802.42 246.863 5806.4 245.027 5809.33 241.355C5812.03 238.035 5813.38 233.777 5813.38 228.582ZM5892.89 158.035V206.551C5898.16 201.082 5904.14 198.348 5910.82 198.348C5918.51 198.348 5924.92 201.219 5930.04 206.961C5935.15 212.664 5937.71 219.773 5937.71 228.289C5937.71 237.078 5935.13 244.344 5929.98 250.086C5924.86 255.789 5918.39 258.641 5910.58 258.641C5903.98 258.641 5898.08 256.102 5892.89 251.023V257H5879.7V158.035H5892.89ZM5924.23 228.875C5924.23 223.406 5922.75 218.953 5919.78 215.516C5916.77 212 5913 210.242 5908.47 210.242C5903.63 210.242 5899.68 211.941 5896.64 215.34C5893.63 218.699 5892.12 223.074 5892.12 228.465C5892.12 234.012 5893.61 238.445 5896.58 241.766C5899.55 245.164 5903.45 246.863 5908.3 246.863C5912.87 246.863 5916.66 245.164 5919.66 241.766C5922.71 238.328 5924.23 234.031 5924.23 228.875ZM5993.73 199.93H6006.97V257H5993.73V251.023C5988.3 256.102 5982.46 258.641 5976.21 258.641C5968.32 258.641 5961.79 255.789 5956.64 250.086C5951.52 244.266 5948.96 237 5948.96 228.289C5948.96 219.734 5951.52 212.605 5956.64 206.902C5961.75 201.199 5968.16 198.348 5975.86 198.348C5982.5 198.348 5988.45 201.082 5993.73 206.551V199.93ZM5962.44 228.289C5962.44 233.758 5963.9 238.211 5966.83 241.648C5969.84 245.125 5973.63 246.863 5978.2 246.863C5983.08 246.863 5987.03 245.184 5990.04 241.824C5993.04 238.348 5994.55 233.934 5994.55 228.582C5994.55 223.23 5993.04 218.816 5990.04 215.34C5987.03 211.941 5983.12 210.242 5978.32 210.242C5973.79 210.242 5970 211.961 5966.95 215.398C5963.94 218.875 5962.44 223.172 5962.44 228.289ZM6068.02 202.391V219.91C6065.02 216.238 6062.32 213.719 6059.94 212.352C6057.59 210.945 6054.84 210.242 6051.68 210.242C6046.71 210.242 6042.59 211.98 6039.31 215.457C6036.03 218.934 6034.39 223.289 6034.39 228.523C6034.39 233.875 6035.97 238.27 6039.14 241.707C6042.34 245.145 6046.42 246.863 6051.38 246.863C6054.55 246.863 6057.34 246.18 6059.76 244.812C6062.11 243.484 6064.86 240.906 6068.02 237.078V254.48C6062.67 257.254 6057.32 258.641 6051.97 258.641C6043.14 258.641 6035.76 255.789 6029.82 250.086C6023.88 244.344 6020.91 237.215 6020.91 228.699C6020.91 220.184 6023.92 212.996 6029.94 207.137C6035.95 201.277 6043.34 198.348 6052.09 198.348C6057.71 198.348 6063.02 199.695 6068.02 202.391ZM6097.14 158.035V218.387L6115.72 199.93H6133.41L6108.63 223.895L6135.23 257H6118.12L6099.25 232.918L6097.14 235.027V257H6083.96V158.035H6097.14ZM6193.94 199.93V257H6180.76V199.93H6193.94ZM6178.77 176.199C6178.77 173.895 6179.61 171.902 6181.29 170.223C6182.96 168.543 6184.98 167.703 6187.32 167.703C6189.7 167.703 6191.73 168.543 6193.41 170.223C6195.09 171.863 6195.93 173.875 6195.93 176.258C6195.93 178.641 6195.09 180.672 6193.41 182.352C6191.77 184.031 6189.76 184.871 6187.38 184.871C6185 184.871 6182.96 184.031 6181.29 182.352C6179.61 180.672 6178.77 178.621 6178.77 176.199ZM6224.23 212.234V257H6211.05V212.234H6205.43V199.93H6211.05V179.012H6224.23V199.93H6234.49V212.234H6224.23ZM6276.62 209.656L6265.72 215.457C6264 211.941 6261.87 210.184 6259.33 210.184C6258.12 210.184 6257.09 210.594 6256.23 211.414C6255.37 212.195 6254.94 213.211 6254.94 214.461C6254.94 216.648 6257.48 218.816 6262.55 220.965C6269.55 223.973 6274.25 226.746 6276.68 229.285C6279.1 231.824 6280.31 235.242 6280.31 239.539C6280.31 245.047 6278.28 249.656 6274.21 253.367C6270.27 256.883 6265.5 258.641 6259.92 258.641C6250.35 258.641 6243.57 253.973 6239.59 244.637L6250.84 239.422C6252.4 242.156 6253.59 243.895 6254.41 244.637C6256.01 246.121 6257.93 246.863 6260.15 246.863C6264.61 246.863 6266.83 244.832 6266.83 240.77C6266.83 238.426 6265.11 236.238 6261.68 234.207C6260.35 233.543 6259.02 232.898 6257.69 232.273C6256.36 231.648 6255.02 231.004 6253.65 230.34C6249.82 228.465 6247.12 226.59 6245.56 224.715C6243.57 222.332 6242.57 219.266 6242.57 215.516C6242.57 210.555 6244.27 206.453 6247.67 203.211C6251.15 199.969 6255.37 198.348 6260.33 198.348C6267.63 198.348 6273.06 202.117 6276.62 209.656ZM6329.23 199.93H6342.42V205.203C6344.96 202.547 6347.12 200.75 6348.92 199.812C6350.84 198.836 6353.24 198.348 6356.13 198.348C6362.57 198.348 6367.67 201.16 6371.42 206.785C6375.56 201.16 6381.17 198.348 6388.24 198.348C6401.09 198.348 6407.52 206.141 6407.52 221.727V257H6394.27V225.301C6394.27 219.832 6393.61 215.965 6392.28 213.699C6390.91 211.395 6388.67 210.242 6385.54 210.242C6381.91 210.242 6379.25 211.609 6377.57 214.344C6375.93 217.078 6375.11 221.473 6375.11 227.527V257H6361.87V225.477C6361.87 215.32 6358.94 210.242 6353.08 210.242C6349.37 210.242 6346.66 211.629 6344.94 214.402C6343.26 217.176 6342.42 221.551 6342.42 227.527V257H6329.23V199.93ZM6476.13 231.57H6435.23C6435.58 236.258 6437.11 239.988 6439.8 242.762C6442.5 245.496 6445.95 246.863 6450.17 246.863C6453.45 246.863 6456.17 246.082 6458.32 244.52C6460.43 242.957 6462.83 240.066 6465.52 235.848L6476.66 242.059C6474.94 244.988 6473.12 247.508 6471.21 249.617C6469.29 251.687 6467.24 253.406 6465.05 254.773C6462.87 256.102 6460.5 257.078 6457.96 257.703C6455.43 258.328 6452.67 258.641 6449.7 258.641C6441.19 258.641 6434.35 255.906 6429.2 250.437C6424.04 244.93 6421.46 237.625 6421.46 228.523C6421.46 219.5 6423.96 212.195 6428.96 206.609C6434 201.102 6440.68 198.348 6449 198.348C6457.4 198.348 6464.04 201.023 6468.92 206.375C6473.77 211.687 6476.19 219.051 6476.19 228.465L6476.13 231.57ZM6462.59 220.789C6460.76 213.758 6456.32 210.242 6449.29 210.242C6447.69 210.242 6446.19 210.496 6444.78 211.004C6443.38 211.473 6442.09 212.176 6440.91 213.113C6439.78 214.012 6438.8 215.105 6437.98 216.395C6437.16 217.684 6436.54 219.148 6436.11 220.789H6462.59ZM6490.6 199.93H6503.84V205.203C6508.45 200.633 6513.65 198.348 6519.43 198.348C6526.07 198.348 6531.25 200.437 6534.96 204.617C6538.16 208.172 6539.76 213.973 6539.76 222.02V257H6526.52V225.125C6526.52 219.5 6525.74 215.613 6524.18 213.465C6522.65 211.277 6519.88 210.184 6515.86 210.184C6511.48 210.184 6508.38 211.629 6506.54 214.52C6504.74 217.371 6503.84 222.352 6503.84 229.461V257H6490.6V199.93ZM6569.64 199.93V232.684C6569.64 242.137 6573.38 246.863 6580.84 246.863C6588.3 246.863 6592.03 242.137 6592.03 232.684V199.93H6605.21V232.977C6605.21 237.547 6604.64 241.492 6603.51 244.812C6602.42 247.781 6600.52 250.457 6597.83 252.84C6593.38 256.707 6587.71 258.641 6580.84 258.641C6574 258.641 6568.36 256.707 6563.9 252.84C6561.17 250.457 6559.23 247.781 6558.1 244.812C6557.01 242.156 6556.46 238.211 6556.46 232.977V199.93H6569.64Z" fill="black"/>
</svg>
