<svg width="7508" height="3462" viewBox="0 0 7508 3462" fill="none" xmlns="http://www.w3.org/2000/svg">
<path d="M676 1216L863 1270.5L1260 1052.5L1431.5 1130L1640 1088L1819.5 1149L2031 1130L2584 1332L2996.5 1267.5L3190 1332L3387.5 1364.5L3556 1307H3954.5L4141 1404L4327.5 1440L4521.5 1307L4708 1404H4880.5H5052.5L5275 1490L5512 1364.5L5680.5 1224.5L6050 1038L6283.5 1059.5L6649.5 894.5" stroke="#FF7E51" stroke-width="22"/>
<path d="M5289 287L5289 2420" stroke="#FF98CE" stroke-width="20" stroke-dasharray="16 16"/>
<path d="M6631.5 2410.5H689.5" stroke="#FF98CE" stroke-width="3" stroke-dasharray="6 6"/>
<path d="M158 1868.16L44.9141 1868.16L44.9141 1851.17C44.9141 1843.6 45.5 1837.57 46.6719 1833.08C47.8438 1828.54 49.8213 1824.7 52.6045 1821.58C55.4854 1818.41 59.0742 1815.89 63.3711 1814.04C67.7168 1812.13 72.1113 1811.18 76.5547 1811.18C84.6602 1811.18 91.5205 1814.28 97.1357 1820.48C99.1865 1814.47 102.775 1809.74 107.902 1806.27C112.98 1802.76 118.889 1801 125.627 1801C134.465 1801 141.936 1804.12 148.039 1810.37C151.799 1814.13 154.411 1818.36 155.876 1823.04C157.292 1828.17 158 1834.59 158 1842.31L158 1868.16ZM93.4736 1851.1L93.4736 1845.75C93.4736 1839.4 92.082 1834.76 89.2988 1831.83C86.4668 1828.85 82.3164 1827.37 76.8477 1827.37C71.5254 1827.37 67.4971 1828.88 64.7627 1831.91C61.9795 1834.93 60.5879 1839.33 60.5879 1845.09L60.5879 1851.1L93.4736 1851.1ZM141.96 1851.1L141.96 1840.55C141.96 1832.83 140.446 1827.17 137.419 1823.56C134.147 1819.75 129.997 1817.84 124.968 1817.84C120.085 1817.84 115.983 1819.67 112.663 1823.34C109.392 1826.9 107.756 1833.27 107.756 1842.45L107.756 1851.1L141.96 1851.1ZM86.6621 1766.06L127.604 1766.06C139.421 1766.06 145.329 1761.4 145.329 1752.07C145.329 1742.75 139.421 1738.08 127.604 1738.08L86.6621 1738.08L86.6621 1721.6L127.971 1721.6C133.684 1721.6 138.615 1722.31 142.766 1723.73C146.477 1725.09 149.821 1727.46 152.8 1730.83C157.634 1736.4 160.051 1743.48 160.051 1752.07C160.051 1760.62 157.634 1767.67 152.8 1773.24C149.821 1776.66 146.477 1779.07 142.766 1780.49C139.445 1781.86 134.514 1782.54 127.971 1782.54L86.6621 1782.54L86.6621 1766.06ZM142.473 1677.15L142.473 1634.74L158 1634.74L158 1709.81L102.043 1663.6L102.043 1700L86.6621 1700L86.6621 1631L142.473 1677.15ZM142.473 1595.55L142.473 1553.15L158 1553.15L158 1628.22L102.043 1582L102.043 1618.41L86.6621 1618.41L86.6621 1549.41L142.473 1595.55ZM61.7598 1424.24L69.9629 1438.08C65.4707 1440.67 62.541 1443.14 61.1738 1445.48C59.6113 1447.92 58.8301 1451.07 58.8301 1454.93C58.8301 1459.67 60.1729 1463.6 62.8584 1466.72C65.4951 1469.85 68.8154 1471.41 72.8193 1471.41C78.3369 1471.41 82.7803 1467.31 86.1494 1459.1L90.7637 1447.82C94.4746 1438.64 99.0156 1431.93 104.387 1427.68C109.709 1423.43 116.252 1421.31 124.016 1421.31C134.416 1421.31 143.01 1424.78 149.797 1431.71C156.633 1438.69 160.051 1447.36 160.051 1457.71C160.051 1467.53 157.146 1475.63 151.335 1482.03C145.524 1488.33 137.346 1492.26 126.799 1493.82L122.99 1476.54C129.631 1475.75 134.221 1474.39 136.76 1472.43C141.643 1468.92 144.084 1463.79 144.084 1457.05C144.084 1451.73 142.302 1447.31 138.737 1443.8C135.173 1440.28 130.656 1438.52 125.188 1438.52C122.99 1438.52 120.988 1438.84 119.182 1439.47C117.326 1440.06 115.642 1441.01 114.128 1442.33C112.565 1443.6 111.125 1445.26 109.807 1447.31C108.439 1449.36 107.146 1451.8 105.925 1454.64L101.384 1465.55C94.8408 1481.03 85.2705 1488.77 72.6729 1488.77C64.1768 1488.77 57.0723 1485.52 51.3594 1479.03C45.5977 1472.53 42.7168 1464.45 42.7168 1454.78C42.7168 1441.75 49.0645 1431.56 61.7598 1424.24ZM89.7383 1348.36L111.638 1348.36C107.048 1352.12 103.898 1355.49 102.189 1358.47C100.432 1361.4 99.5527 1364.84 99.5527 1368.8C99.5527 1375 101.726 1380.15 106.071 1384.25C110.417 1388.35 115.861 1390.4 122.404 1390.4C129.094 1390.4 134.587 1388.42 138.884 1384.47C143.181 1380.47 145.329 1375.36 145.329 1369.16C145.329 1365.21 144.475 1361.72 142.766 1358.69C141.105 1355.76 137.883 1352.32 133.098 1348.36L154.851 1348.36C158.317 1355.05 160.051 1361.74 160.051 1368.43C160.051 1379.46 156.486 1388.69 149.357 1396.12C142.18 1403.54 133.269 1407.25 122.624 1407.25C111.979 1407.25 102.995 1403.49 95.6709 1395.97C88.3467 1388.45 84.6846 1379.22 84.6846 1368.28C84.6846 1361.25 86.3691 1354.61 89.7383 1348.36ZM121.818 1335.76C111.516 1335.76 102.751 1332.08 95.5244 1324.7C88.2979 1317.33 84.6846 1308.35 84.6846 1297.75C84.6846 1287.11 88.3223 1278.07 95.5977 1270.65C102.873 1263.33 111.809 1259.67 122.404 1259.67C133.098 1259.67 142.058 1263.35 149.284 1270.72C156.462 1278.15 160.051 1287.25 160.051 1298.04C160.051 1308.74 156.389 1317.7 149.064 1324.92C141.838 1332.15 132.756 1335.76 121.818 1335.76ZM122.111 1318.92C129.24 1318.92 134.88 1317.01 139.03 1313.21C143.229 1309.3 145.329 1304.15 145.329 1297.75C145.329 1291.31 143.254 1286.15 139.104 1282.3C134.953 1278.44 129.411 1276.51 122.478 1276.51C115.544 1276.51 110.002 1278.44 105.852 1282.3C101.652 1286.2 99.5527 1291.35 99.5527 1297.75C99.5527 1304.05 101.652 1309.15 105.852 1313.06C110.051 1316.96 115.471 1318.92 122.111 1318.92ZM86.6621 1242.16L86.6621 1225.68L93.0342 1225.68C89.8604 1222.65 87.6875 1219.97 86.5156 1217.62C85.2949 1215.23 84.6846 1212.4 84.6846 1209.13C84.6846 1204.78 86.1006 1200.24 88.9326 1195.5L104.021 1203.05C101.774 1206.17 100.651 1209.23 100.651 1212.2C100.651 1221.19 107.438 1225.68 121.013 1225.68L158 1225.68L158 1242.16L86.6621 1242.16ZM126.213 1122.12L126.213 1173.24C132.072 1172.8 136.735 1170.9 140.202 1167.53C143.62 1164.16 145.329 1159.84 145.329 1154.56C145.329 1150.46 144.353 1147.07 142.399 1144.38C140.446 1141.75 136.833 1138.74 131.56 1135.37L139.323 1121.46C142.985 1123.61 146.135 1125.88 148.771 1128.27C151.359 1130.66 153.508 1133.22 155.217 1135.96C156.877 1138.69 158.098 1141.65 158.879 1144.82C159.66 1148 160.051 1151.44 160.051 1155.15C160.051 1165.79 156.633 1174.34 149.797 1180.78C142.912 1187.23 133.781 1190.45 122.404 1190.45C111.125 1190.45 101.994 1187.33 95.0117 1181.08C88.127 1174.78 84.6846 1166.43 84.6846 1156.03C84.6846 1145.53 88.0293 1137.23 94.7188 1131.13C101.359 1125.07 110.563 1122.04 122.331 1122.04L126.213 1122.12ZM112.736 1139.04C103.947 1141.33 99.5527 1146.87 99.5527 1155.66C99.5527 1157.66 99.8701 1159.54 100.505 1161.3C101.091 1163.06 101.97 1164.67 103.142 1166.13C104.265 1167.55 105.632 1168.77 107.243 1169.8C108.855 1170.82 110.686 1171.6 112.736 1172.14L112.736 1139.04Z" fill="black"/>
<path d="M523.49 2544.76L509.647 2552.96C507.06 2548.47 504.594 2545.54 502.25 2544.17C499.809 2542.61 496.659 2541.83 492.802 2541.83C488.065 2541.83 484.135 2543.17 481.01 2545.86C477.885 2548.5 476.322 2551.82 476.322 2555.82C476.322 2561.34 480.424 2565.78 488.627 2569.15L499.906 2573.76C509.086 2577.47 515.8 2582.02 520.048 2587.39C524.296 2592.71 526.42 2599.25 526.42 2607.02C526.42 2617.42 522.953 2626.01 516.02 2632.8C509.037 2639.63 500.37 2643.05 490.019 2643.05C480.204 2643.05 472.099 2640.15 465.702 2634.33C459.403 2628.52 455.473 2620.35 453.91 2609.8L471.195 2605.99C471.977 2612.63 473.344 2617.22 475.297 2619.76C478.812 2624.64 483.939 2627.08 490.678 2627.08C496 2627.08 500.419 2625.3 503.935 2621.74C507.45 2618.17 509.208 2613.66 509.208 2608.19C509.208 2605.99 508.891 2603.99 508.256 2602.18C507.67 2600.33 506.718 2598.64 505.399 2597.13C504.13 2595.57 502.47 2594.12 500.419 2592.81C498.368 2591.44 495.927 2590.15 493.095 2588.92L482.182 2584.38C466.703 2577.84 458.964 2568.27 458.964 2555.67C458.964 2547.18 462.211 2540.07 468.705 2534.36C475.199 2528.6 483.28 2525.72 492.948 2525.72C505.985 2525.72 516.166 2532.06 523.49 2544.76ZM608.817 2609.21H557.694C558.134 2615.07 560.038 2619.74 563.407 2623.2C566.776 2626.62 571.098 2628.33 576.371 2628.33C580.473 2628.33 583.866 2627.35 586.552 2625.4C589.188 2623.45 592.191 2619.83 595.561 2614.56L609.477 2622.32C607.328 2625.99 605.058 2629.13 602.665 2631.77C600.272 2634.36 597.709 2636.51 594.975 2638.22C592.24 2639.88 589.286 2641.1 586.112 2641.88C582.938 2642.66 579.496 2643.05 575.785 2643.05C565.141 2643.05 556.596 2639.63 550.15 2632.8C543.705 2625.91 540.482 2616.78 540.482 2605.4C540.482 2594.12 543.607 2584.99 549.857 2578.01C556.156 2571.13 564.506 2567.68 574.906 2567.68C585.404 2567.68 593.705 2571.03 599.809 2577.72C605.863 2584.36 608.891 2593.56 608.891 2605.33L608.817 2609.21ZM591.898 2595.74C589.604 2586.95 584.062 2582.55 575.272 2582.55C573.271 2582.55 571.391 2582.87 569.633 2583.5C567.875 2584.09 566.264 2584.97 564.799 2586.14C563.383 2587.26 562.162 2588.63 561.137 2590.24C560.111 2591.85 559.33 2593.69 558.793 2595.74H591.898ZM643.388 2679.82H626.908V2569.66H643.388V2577.43C649.882 2570.93 657.255 2567.68 665.507 2567.68C675.321 2567.68 683.402 2571.3 689.75 2578.52C696.195 2585.7 699.418 2594.76 699.418 2605.7C699.418 2616.39 696.22 2625.3 689.823 2632.43C683.476 2639.51 675.468 2643.05 665.8 2643.05C657.45 2643.05 649.979 2639.71 643.388 2633.02V2679.82ZM682.572 2605.77C682.572 2598.93 680.717 2593.37 677.006 2589.07C673.246 2584.73 668.51 2582.55 662.797 2582.55C656.742 2582.55 651.835 2584.65 648.075 2588.85C644.315 2593.05 642.436 2598.57 642.436 2605.4C642.436 2612.09 644.315 2617.61 648.075 2621.96C651.786 2626.21 656.669 2628.33 662.724 2628.33C668.437 2628.33 673.148 2626.18 676.859 2621.88C680.668 2617.59 682.572 2612.22 682.572 2605.77ZM719.413 2632.8C719.413 2630.06 720.414 2627.69 722.416 2625.69C724.418 2623.69 726.811 2622.69 729.594 2622.69C732.377 2622.69 734.77 2623.69 736.771 2625.69C738.773 2627.69 739.774 2630.09 739.774 2632.87C739.774 2635.7 738.773 2638.12 736.771 2640.12C734.818 2642.07 732.426 2643.05 729.594 2643.05C726.713 2643.05 724.296 2642.07 722.343 2640.12C720.39 2638.17 719.413 2635.73 719.413 2632.8ZM759.11 2583.72C759.11 2565.71 763.31 2551.33 771.708 2540.58C779.228 2530.87 788.334 2526.01 799.027 2526.01C809.721 2526.01 818.827 2530.87 826.347 2540.58C834.745 2551.33 838.944 2565.95 838.944 2584.46C838.944 2602.91 834.745 2617.51 826.347 2628.26C818.827 2637.97 809.745 2642.83 799.101 2642.83C788.456 2642.83 779.325 2637.97 771.708 2628.26C763.31 2617.51 759.11 2602.67 759.11 2583.72ZM775.883 2583.8C775.883 2596.35 778.056 2606.77 782.401 2615.07C786.747 2623.23 792.289 2627.3 799.027 2627.3C805.717 2627.3 811.259 2623.23 815.653 2615.07C820.048 2606.97 822.245 2596.74 822.245 2584.38C822.245 2572.03 820.048 2561.78 815.653 2553.62C811.259 2545.52 805.717 2541.46 799.027 2541.46C792.387 2541.46 786.869 2545.52 782.475 2553.62C778.08 2561.68 775.883 2571.74 775.883 2583.8ZM874.394 2543.88H854.838L864.213 2527.91H891.459V2641H874.394V2543.88Z" fill="black"/>
<path d="M444.372 2343.72C444.372 2325.71 448.571 2311.33 456.97 2300.58C464.489 2290.87 473.596 2286.01 484.289 2286.01C494.982 2286.01 504.089 2290.87 511.608 2300.58C520.007 2311.33 524.206 2325.95 524.206 2344.46C524.206 2362.91 520.007 2377.51 511.608 2388.26C504.089 2397.97 495.007 2402.83 484.362 2402.83C473.718 2402.83 464.587 2397.97 456.97 2388.26C448.571 2377.51 444.372 2362.67 444.372 2343.72ZM461.145 2343.8C461.145 2356.35 463.317 2366.77 467.663 2375.07C472.009 2383.23 477.551 2387.3 484.289 2387.3C490.979 2387.3 496.521 2383.23 500.915 2375.07C505.31 2366.97 507.507 2356.74 507.507 2344.38C507.507 2332.03 505.31 2321.78 500.915 2313.62C496.521 2305.52 490.979 2301.46 484.289 2301.46C477.648 2301.46 472.131 2305.52 467.736 2313.62C463.342 2321.68 461.145 2331.74 461.145 2343.8Z" fill="black"/>
<path d="M516.882 1958.88H482.019L476.452 1977.63C477.282 1977.53 478.063 1977.46 478.796 1977.41C479.577 1977.36 480.285 1977.34 480.92 1977.34C491.906 1977.34 500.915 1981.05 507.946 1988.47C515.026 1995.84 518.566 2005.29 518.566 2016.82C518.566 2028.73 514.562 2038.54 506.555 2046.26C498.547 2053.97 488.464 2057.83 476.306 2057.83C461.315 2057.83 449.499 2050.8 440.856 2036.74L453.747 2025.82C457.312 2031.88 460.9 2036.15 464.514 2038.64C468.127 2041.08 472.546 2042.3 477.771 2042.3C484.606 2042.3 490.344 2039.91 494.982 2035.13C499.621 2030.19 501.94 2024.21 501.94 2017.18C501.94 2009.96 499.646 2004.05 495.056 1999.46C490.466 1994.72 484.729 1992.35 477.844 1992.35C470.178 1992.35 463.562 1995.7 457.995 2002.39H452.355L470.153 1942.91H516.882V1958.88Z" fill="black"/>
<path d="M478.649 1550.88H459.094L468.469 1534.91H495.715V1648H478.649V1550.88ZM527.868 1590.72C527.868 1572.71 532.067 1558.33 540.466 1547.58C547.985 1537.87 557.092 1533.01 567.785 1533.01C578.479 1533.01 587.585 1537.87 595.104 1547.58C603.503 1558.33 607.702 1572.95 607.702 1591.46C607.702 1609.91 603.503 1624.51 595.104 1635.26C587.585 1644.97 578.503 1649.83 567.858 1649.83C557.214 1649.83 548.083 1644.97 540.466 1635.26C532.067 1624.51 527.868 1609.67 527.868 1590.72ZM544.641 1590.8C544.641 1603.35 546.813 1613.77 551.159 1622.07C555.505 1630.23 561.047 1634.3 567.785 1634.3C574.475 1634.3 580.017 1630.23 584.411 1622.07C588.806 1613.97 591.003 1603.74 591.003 1591.38C591.003 1579.03 588.806 1568.78 584.411 1560.62C580.017 1552.52 574.475 1548.46 567.785 1548.46C561.145 1548.46 555.627 1552.52 551.232 1560.62C546.838 1568.68 544.641 1578.74 544.641 1590.8Z" fill="black"/>
<path d="M475.573 1255.96H517.688V1272H441.735L480.993 1224.47C484.851 1219.73 488.073 1215.63 490.661 1212.16C493.298 1208.69 495.3 1205.79 496.667 1203.45C499.45 1198.86 500.842 1194.73 500.842 1191.07C500.842 1185.79 498.986 1181.38 495.275 1177.81C491.564 1174.25 486.975 1172.46 481.506 1172.46C470.08 1172.46 463.537 1179.23 461.877 1192.75H444.885C447.619 1168.92 459.655 1157.01 480.993 1157.01C491.296 1157.01 499.938 1160.28 506.921 1166.82C513.952 1173.37 517.468 1181.47 517.468 1191.14C517.468 1197.29 515.832 1203.32 512.561 1209.23C510.9 1212.31 508.459 1215.97 505.236 1220.22C502.062 1224.42 498.034 1229.4 493.151 1235.16L475.573 1255.96ZM536.95 1214.72C536.95 1196.71 541.149 1182.33 549.548 1171.58C557.067 1161.87 566.174 1157.01 576.867 1157.01C587.561 1157.01 596.667 1161.87 604.187 1171.58C612.585 1182.33 616.784 1196.95 616.784 1215.46C616.784 1233.91 612.585 1248.51 604.187 1259.26C596.667 1268.97 587.585 1273.83 576.94 1273.83C566.296 1273.83 557.165 1268.97 549.548 1259.26C541.149 1248.51 536.95 1233.67 536.95 1214.72ZM553.723 1214.8C553.723 1227.35 555.896 1237.77 560.241 1246.07C564.587 1254.23 570.129 1258.3 576.867 1258.3C583.557 1258.3 589.099 1254.23 593.493 1246.07C597.888 1237.97 600.085 1227.74 600.085 1215.38C600.085 1203.03 597.888 1192.78 593.493 1184.62C589.099 1176.52 583.557 1172.46 576.867 1172.46C570.227 1172.46 564.709 1176.52 560.314 1184.62C555.92 1192.68 553.723 1202.74 553.723 1214.8Z" fill="black"/>
<path d="M475.573 879.96H517.688V896H441.735L480.993 848.466C484.851 843.729 488.073 839.628 490.661 836.161C493.298 832.694 495.3 829.789 496.667 827.445C499.45 822.855 500.842 818.729 500.842 815.067C500.842 809.794 498.986 805.375 495.275 801.811C491.564 798.246 486.975 796.464 481.506 796.464C470.08 796.464 463.537 803.227 461.877 816.752H444.885C447.619 792.924 459.655 781.01 480.993 781.01C491.296 781.01 499.938 784.281 506.921 790.824C513.952 797.367 517.468 805.473 517.468 815.141C517.468 821.293 515.832 827.323 512.561 833.231C510.9 836.308 508.459 839.97 505.236 844.218C502.062 848.417 498.034 853.397 493.151 859.159L475.573 879.96ZM609.46 798.881H574.597L569.03 817.631C569.86 817.533 570.642 817.46 571.374 817.411C572.155 817.362 572.863 817.338 573.498 817.338C584.484 817.338 593.493 821.049 600.524 828.471C607.604 835.844 611.145 845.292 611.145 856.815C611.145 868.729 607.141 878.544 599.133 886.259C591.125 893.974 581.042 897.831 568.884 897.831C553.894 897.831 542.077 890.8 533.435 876.737L546.325 865.824C549.89 871.879 553.479 876.151 557.092 878.642C560.705 881.083 565.124 882.304 570.349 882.304C577.185 882.304 582.922 879.911 587.561 875.126C592.199 870.194 594.519 864.213 594.519 857.182C594.519 849.955 592.224 844.047 587.634 839.457C583.044 834.721 577.307 832.353 570.422 832.353C562.756 832.353 556.14 835.697 550.573 842.387H544.934L562.731 782.914H609.46V798.881Z" fill="black"/>
<path d="M476.818 518.485V503.91C484.045 503.91 488.903 503.104 491.394 501.493C495.837 498.661 498.059 494.12 498.059 487.87C498.059 483.036 496.447 479.105 493.225 476.078C490.051 473.002 485.925 471.464 480.847 471.464C476.11 471.464 472.448 472.611 469.86 474.906C467.37 477.25 465.515 481.205 464.294 486.771H447.302C449.06 476.127 452.673 468.339 458.142 463.407C463.61 458.427 471.252 455.937 481.066 455.937C490.979 455.937 499.06 458.866 505.31 464.726C511.56 470.536 514.685 478.031 514.685 487.211C514.685 497.562 510.583 505.619 502.38 511.381C511.755 516.898 516.442 525.858 516.442 538.261C516.442 548.417 513.024 556.718 506.188 563.163C499.353 569.608 490.588 572.831 479.895 572.831C466.271 572.831 456.164 567.826 449.572 557.816C446.838 553.617 445.104 547.807 444.372 540.385H460.852C461.73 545.854 463.854 550.053 467.224 552.982C470.642 555.863 475.085 557.304 480.554 557.304C486.071 557.304 490.637 555.473 494.25 551.811C497.863 548.051 499.67 543.29 499.67 537.528C499.67 529.911 496.96 524.491 491.54 521.269C488.366 519.413 483.459 518.485 476.818 518.485ZM536.95 513.725C536.95 495.707 541.149 481.327 549.548 470.585C557.067 460.868 566.174 456.01 576.867 456.01C587.561 456.01 596.667 460.868 604.187 470.585C612.585 481.327 616.784 495.951 616.784 514.457C616.784 532.914 612.585 547.514 604.187 558.256C596.667 567.973 587.585 572.831 576.94 572.831C566.296 572.831 557.165 567.973 549.548 558.256C541.149 547.514 536.95 532.67 536.95 513.725ZM553.723 513.798C553.723 526.347 555.896 536.771 560.241 545.072C564.587 553.227 570.129 557.304 576.867 557.304C583.557 557.304 589.099 553.227 593.493 545.072C597.888 536.967 600.085 526.737 600.085 514.384C600.085 502.03 597.888 491.776 593.493 483.622C589.099 475.517 583.557 471.464 576.867 471.464C570.227 471.464 564.709 475.517 560.314 483.622C555.92 491.679 553.723 501.737 553.723 513.798Z" fill="black"/>
<path d="M1886.49 2544.76L1872.65 2552.96C1870.06 2548.47 1867.59 2545.54 1865.25 2544.17C1862.81 2542.61 1859.66 2541.83 1855.8 2541.83C1851.07 2541.83 1847.13 2543.17 1844.01 2545.86C1840.88 2548.5 1839.32 2551.82 1839.32 2555.82C1839.32 2561.34 1843.42 2565.78 1851.63 2569.15L1862.91 2573.76C1872.09 2577.47 1878.8 2582.02 1883.05 2587.39C1887.3 2592.71 1889.42 2599.25 1889.42 2607.02C1889.42 2617.42 1885.95 2626.01 1879.02 2632.8C1872.04 2639.63 1863.37 2643.05 1853.02 2643.05C1843.2 2643.05 1835.1 2640.15 1828.7 2634.33C1822.4 2628.52 1818.47 2620.35 1816.91 2609.8L1834.2 2605.99C1834.98 2612.63 1836.34 2617.22 1838.3 2619.76C1841.81 2624.64 1846.94 2627.08 1853.68 2627.08C1859 2627.08 1863.42 2625.3 1866.93 2621.74C1870.45 2618.17 1872.21 2613.66 1872.21 2608.19C1872.21 2605.99 1871.89 2603.99 1871.26 2602.18C1870.67 2600.33 1869.72 2598.64 1868.4 2597.13C1867.13 2595.57 1865.47 2594.12 1863.42 2592.81C1861.37 2591.44 1858.93 2590.15 1856.09 2588.92L1845.18 2584.38C1829.7 2577.84 1821.96 2568.27 1821.96 2555.67C1821.96 2547.18 1825.21 2540.07 1831.71 2534.36C1838.2 2528.6 1846.28 2525.72 1855.95 2525.72C1868.99 2525.72 1879.17 2532.06 1886.49 2544.76ZM1971.82 2609.21H1920.69C1921.13 2615.07 1923.04 2619.74 1926.41 2623.2C1929.78 2626.62 1934.1 2628.33 1939.37 2628.33C1943.47 2628.33 1946.87 2627.35 1949.55 2625.4C1952.19 2623.45 1955.19 2619.83 1958.56 2614.56L1972.48 2622.32C1970.33 2625.99 1968.06 2629.13 1965.67 2631.77C1963.27 2634.36 1960.71 2636.51 1957.97 2638.22C1955.24 2639.88 1952.29 2641.1 1949.11 2641.88C1945.94 2642.66 1942.5 2643.05 1938.79 2643.05C1928.14 2643.05 1919.6 2639.63 1913.15 2632.8C1906.71 2625.91 1903.48 2616.78 1903.48 2605.4C1903.48 2594.12 1906.61 2584.99 1912.86 2578.01C1919.16 2571.13 1927.51 2567.68 1937.91 2567.68C1948.4 2567.68 1956.71 2571.03 1962.81 2577.72C1968.86 2584.36 1971.89 2593.56 1971.89 2605.33L1971.82 2609.21ZM1954.9 2595.74C1952.6 2586.95 1947.06 2582.55 1938.27 2582.55C1936.27 2582.55 1934.39 2582.87 1932.63 2583.5C1930.88 2584.09 1929.26 2584.97 1927.8 2586.14C1926.38 2587.26 1925.16 2588.63 1924.14 2590.24C1923.11 2591.85 1922.33 2593.69 1921.79 2595.74H1954.9ZM2006.39 2679.82H1989.91V2569.66H2006.39V2577.43C2012.88 2570.93 2020.25 2567.68 2028.51 2567.68C2038.32 2567.68 2046.4 2571.3 2052.75 2578.52C2059.2 2585.7 2062.42 2594.76 2062.42 2605.7C2062.42 2616.39 2059.22 2625.3 2052.82 2632.43C2046.48 2639.51 2038.47 2643.05 2028.8 2643.05C2020.45 2643.05 2012.98 2639.71 2006.39 2633.02V2679.82ZM2045.57 2605.77C2045.57 2598.93 2043.72 2593.37 2040.01 2589.07C2036.25 2584.73 2031.51 2582.55 2025.8 2582.55C2019.74 2582.55 2014.83 2584.65 2011.08 2588.85C2007.32 2593.05 2005.44 2598.57 2005.44 2605.4C2005.44 2612.09 2007.32 2617.61 2011.08 2621.96C2014.79 2626.21 2019.67 2628.33 2025.72 2628.33C2031.44 2628.33 2036.15 2626.18 2039.86 2621.88C2043.67 2617.59 2045.57 2612.22 2045.57 2605.77ZM2082.41 2632.8C2082.41 2630.06 2083.41 2627.69 2085.42 2625.69C2087.42 2623.69 2089.81 2622.69 2092.59 2622.69C2095.38 2622.69 2097.77 2623.69 2099.77 2625.69C2101.77 2627.69 2102.77 2630.09 2102.77 2632.87C2102.77 2635.7 2101.77 2638.12 2099.77 2640.12C2097.82 2642.07 2095.43 2643.05 2092.59 2643.05C2089.71 2643.05 2087.3 2642.07 2085.34 2640.12C2083.39 2638.17 2082.41 2635.73 2082.41 2632.8ZM2122.11 2583.72C2122.11 2565.71 2126.31 2551.33 2134.71 2540.58C2142.23 2530.87 2151.33 2526.01 2162.03 2526.01C2172.72 2526.01 2181.83 2530.87 2189.35 2540.58C2197.75 2551.33 2201.94 2565.95 2201.94 2584.46C2201.94 2602.91 2197.75 2617.51 2189.35 2628.26C2181.83 2637.97 2172.75 2642.83 2162.1 2642.83C2151.46 2642.83 2142.33 2637.97 2134.71 2628.26C2126.31 2617.51 2122.11 2602.67 2122.11 2583.72ZM2138.88 2583.8C2138.88 2596.35 2141.06 2606.77 2145.4 2615.07C2149.75 2623.23 2155.29 2627.3 2162.03 2627.3C2168.72 2627.3 2174.26 2623.23 2178.65 2615.07C2183.05 2606.97 2185.25 2596.74 2185.25 2584.38C2185.25 2572.03 2183.05 2561.78 2178.65 2553.62C2174.26 2545.52 2168.72 2541.46 2162.03 2541.46C2155.39 2541.46 2149.87 2545.52 2145.47 2553.62C2141.08 2561.68 2138.88 2571.74 2138.88 2583.8ZM2234.39 2582.19C2226.09 2576.33 2221.94 2568.34 2221.94 2558.24C2221.94 2549.06 2225.09 2541.39 2231.39 2535.24C2237.74 2529.09 2245.62 2526.01 2255.04 2526.01C2264.42 2526.01 2272.23 2529.09 2278.48 2535.24C2284.73 2541.34 2287.86 2549.03 2287.86 2558.31C2287.86 2568.03 2283.73 2575.96 2275.48 2582.11C2280.02 2584.55 2283.58 2588.12 2286.17 2592.81C2288.81 2597.49 2290.13 2602.77 2290.13 2608.63C2290.13 2618.64 2286.86 2626.84 2280.31 2633.24C2273.77 2639.63 2265.4 2642.83 2255.19 2642.83C2244.74 2642.83 2236.12 2639.61 2229.34 2633.16C2222.5 2626.72 2219.08 2618.61 2219.08 2608.85C2219.08 2596.15 2224.19 2587.26 2234.39 2582.19ZM2237.98 2558.16C2237.98 2563 2239.62 2567.05 2242.89 2570.32C2246.21 2573.64 2250.21 2575.3 2254.9 2575.3C2259.54 2575.3 2263.52 2573.64 2266.84 2570.32C2270.16 2567 2271.82 2563.02 2271.82 2558.38C2271.82 2553.74 2270.16 2549.76 2266.84 2546.44C2263.52 2543.12 2259.54 2541.46 2254.9 2541.46C2250.26 2541.46 2246.28 2543.12 2242.96 2546.44C2239.64 2549.76 2237.98 2553.67 2237.98 2558.16ZM2235.86 2608.26C2235.86 2613.49 2237.66 2617.98 2241.28 2621.74C2244.94 2625.45 2249.38 2627.3 2254.61 2627.3C2259.78 2627.3 2264.2 2625.47 2267.86 2621.81C2271.52 2618.1 2273.36 2613.66 2273.36 2608.48C2273.36 2603.26 2271.52 2598.81 2267.86 2595.15C2264.2 2591.49 2259.78 2589.66 2254.61 2589.66C2249.48 2589.66 2245.06 2591.49 2241.35 2595.15C2237.69 2598.81 2235.86 2603.18 2235.86 2608.26Z" fill="black"/>
<path d="M3314.49 2544.76L3300.65 2552.96C3298.06 2548.47 3295.59 2545.54 3293.25 2544.17C3290.81 2542.61 3287.66 2541.83 3283.8 2541.83C3279.07 2541.83 3275.13 2543.17 3272.01 2545.86C3268.88 2548.5 3267.32 2551.82 3267.32 2555.82C3267.32 2561.34 3271.42 2565.78 3279.63 2569.15L3290.91 2573.76C3300.09 2577.47 3306.8 2582.02 3311.05 2587.39C3315.3 2592.71 3317.42 2599.25 3317.42 2607.02C3317.42 2617.42 3313.95 2626.01 3307.02 2632.8C3300.04 2639.63 3291.37 2643.05 3281.02 2643.05C3271.2 2643.05 3263.1 2640.15 3256.7 2634.33C3250.4 2628.52 3246.47 2620.35 3244.91 2609.8L3262.2 2605.99C3262.98 2612.63 3264.34 2617.22 3266.3 2619.76C3269.81 2624.64 3274.94 2627.08 3281.68 2627.08C3287 2627.08 3291.42 2625.3 3294.93 2621.74C3298.45 2618.17 3300.21 2613.66 3300.21 2608.19C3300.21 2605.99 3299.89 2603.99 3299.26 2602.18C3298.67 2600.33 3297.72 2598.64 3296.4 2597.13C3295.13 2595.57 3293.47 2594.12 3291.42 2592.81C3289.37 2591.44 3286.93 2590.15 3284.09 2588.92L3273.18 2584.38C3257.7 2577.84 3249.96 2568.27 3249.96 2555.67C3249.96 2547.18 3253.21 2540.07 3259.71 2534.36C3266.2 2528.6 3274.28 2525.72 3283.95 2525.72C3296.99 2525.72 3307.17 2532.06 3314.49 2544.76ZM3399.82 2609.21H3348.69C3349.13 2615.07 3351.04 2619.74 3354.41 2623.2C3357.78 2626.62 3362.1 2628.33 3367.37 2628.33C3371.47 2628.33 3374.87 2627.35 3377.55 2625.4C3380.19 2623.45 3383.19 2619.83 3386.56 2614.56L3400.48 2622.32C3398.33 2625.99 3396.06 2629.13 3393.67 2631.77C3391.27 2634.36 3388.71 2636.51 3385.97 2638.22C3383.24 2639.88 3380.29 2641.1 3377.11 2641.88C3373.94 2642.66 3370.5 2643.05 3366.79 2643.05C3356.14 2643.05 3347.6 2639.63 3341.15 2632.8C3334.71 2625.91 3331.48 2616.78 3331.48 2605.4C3331.48 2594.12 3334.61 2584.99 3340.86 2578.01C3347.16 2571.13 3355.51 2567.68 3365.91 2567.68C3376.4 2567.68 3384.71 2571.03 3390.81 2577.72C3396.86 2584.36 3399.89 2593.56 3399.89 2605.33L3399.82 2609.21ZM3382.9 2595.74C3380.6 2586.95 3375.06 2582.55 3366.27 2582.55C3364.27 2582.55 3362.39 2582.87 3360.63 2583.5C3358.88 2584.09 3357.26 2584.97 3355.8 2586.14C3354.38 2587.26 3353.16 2588.63 3352.14 2590.24C3351.11 2591.85 3350.33 2593.69 3349.79 2595.74H3382.9ZM3434.39 2679.82H3417.91V2569.66H3434.39V2577.43C3440.88 2570.93 3448.25 2567.68 3456.51 2567.68C3466.32 2567.68 3474.4 2571.3 3480.75 2578.52C3487.2 2585.7 3490.42 2594.76 3490.42 2605.7C3490.42 2616.39 3487.22 2625.3 3480.82 2632.43C3474.48 2639.51 3466.47 2643.05 3456.8 2643.05C3448.45 2643.05 3440.98 2639.71 3434.39 2633.02V2679.82ZM3473.57 2605.77C3473.57 2598.93 3471.72 2593.37 3468.01 2589.07C3464.25 2584.73 3459.51 2582.55 3453.8 2582.55C3447.74 2582.55 3442.83 2584.65 3439.08 2588.85C3435.32 2593.05 3433.44 2598.57 3433.44 2605.4C3433.44 2612.09 3435.32 2617.61 3439.08 2621.96C3442.79 2626.21 3447.67 2628.33 3453.72 2628.33C3459.44 2628.33 3464.15 2626.18 3467.86 2621.88C3471.67 2617.59 3473.57 2612.22 3473.57 2605.77ZM3510.41 2632.8C3510.41 2630.06 3511.41 2627.69 3513.42 2625.69C3515.42 2623.69 3517.81 2622.69 3520.59 2622.69C3523.38 2622.69 3525.77 2623.69 3527.77 2625.69C3529.77 2627.69 3530.77 2630.09 3530.77 2632.87C3530.77 2635.7 3529.77 2638.12 3527.77 2640.12C3525.82 2642.07 3523.43 2643.05 3520.59 2643.05C3517.71 2643.05 3515.3 2642.07 3513.34 2640.12C3511.39 2638.17 3510.41 2635.73 3510.41 2632.8ZM3572.38 2543.88H3552.82L3562.2 2527.91H3589.44V2641H3572.38V2543.88ZM3691.32 2543.88H3656.46L3650.89 2562.63C3651.72 2562.53 3652.5 2562.46 3653.24 2562.41C3654.02 2562.36 3654.72 2562.34 3655.36 2562.34C3666.35 2562.34 3675.35 2566.05 3682.39 2573.47C3689.47 2580.84 3693.01 2590.29 3693.01 2601.82C3693.01 2613.73 3689 2623.54 3680.99 2631.26C3672.99 2638.97 3662.9 2642.83 3650.75 2642.83C3635.75 2642.83 3623.94 2635.8 3615.3 2621.74L3628.19 2610.82C3631.75 2616.88 3635.34 2621.15 3638.95 2623.64C3642.57 2626.08 3646.99 2627.3 3652.21 2627.3C3659.05 2627.3 3664.78 2624.91 3669.42 2620.13C3674.06 2615.19 3676.38 2609.21 3676.38 2602.18C3676.38 2594.96 3674.08 2589.05 3669.5 2584.46C3664.91 2579.72 3659.17 2577.35 3652.28 2577.35C3644.62 2577.35 3638 2580.7 3632.43 2587.39H3626.79L3644.59 2527.91H3691.32V2543.88Z" fill="black"/>
<path d="M4547.49 2544.76L4533.65 2552.96C4531.06 2548.47 4528.59 2545.54 4526.25 2544.17C4523.81 2542.61 4520.66 2541.83 4516.8 2541.83C4512.07 2541.83 4508.13 2543.17 4505.01 2545.86C4501.88 2548.5 4500.32 2551.82 4500.32 2555.82C4500.32 2561.34 4504.42 2565.78 4512.63 2569.15L4523.91 2573.76C4533.09 2577.47 4539.8 2582.02 4544.05 2587.39C4548.3 2592.71 4550.42 2599.25 4550.42 2607.02C4550.42 2617.42 4546.95 2626.01 4540.02 2632.8C4533.04 2639.63 4524.37 2643.05 4514.02 2643.05C4504.2 2643.05 4496.1 2640.15 4489.7 2634.33C4483.4 2628.52 4479.47 2620.35 4477.91 2609.8L4495.2 2605.99C4495.98 2612.63 4497.34 2617.22 4499.3 2619.76C4502.81 2624.64 4507.94 2627.08 4514.68 2627.08C4520 2627.08 4524.42 2625.3 4527.93 2621.74C4531.45 2618.17 4533.21 2613.66 4533.21 2608.19C4533.21 2605.99 4532.89 2603.99 4532.26 2602.18C4531.67 2600.33 4530.72 2598.64 4529.4 2597.13C4528.13 2595.57 4526.47 2594.12 4524.42 2592.81C4522.37 2591.44 4519.93 2590.15 4517.09 2588.92L4506.18 2584.38C4490.7 2577.84 4482.96 2568.27 4482.96 2555.67C4482.96 2547.18 4486.21 2540.07 4492.71 2534.36C4499.2 2528.6 4507.28 2525.72 4516.95 2525.72C4529.99 2525.72 4540.17 2532.06 4547.49 2544.76ZM4632.82 2609.21H4581.69C4582.13 2615.07 4584.04 2619.74 4587.41 2623.2C4590.78 2626.62 4595.1 2628.33 4600.37 2628.33C4604.47 2628.33 4607.87 2627.35 4610.55 2625.4C4613.19 2623.45 4616.19 2619.83 4619.56 2614.56L4633.48 2622.32C4631.33 2625.99 4629.06 2629.13 4626.67 2631.77C4624.27 2634.36 4621.71 2636.51 4618.97 2638.22C4616.24 2639.88 4613.29 2641.1 4610.11 2641.88C4606.94 2642.66 4603.5 2643.05 4599.79 2643.05C4589.14 2643.05 4580.6 2639.63 4574.15 2632.8C4567.71 2625.91 4564.48 2616.78 4564.48 2605.4C4564.48 2594.12 4567.61 2584.99 4573.86 2578.01C4580.16 2571.13 4588.51 2567.68 4598.91 2567.68C4609.4 2567.68 4617.71 2571.03 4623.81 2577.72C4629.86 2584.36 4632.89 2593.56 4632.89 2605.33L4632.82 2609.21ZM4615.9 2595.74C4613.6 2586.95 4608.06 2582.55 4599.27 2582.55C4597.27 2582.55 4595.39 2582.87 4593.63 2583.5C4591.88 2584.09 4590.26 2584.97 4588.8 2586.14C4587.38 2587.26 4586.16 2588.63 4585.14 2590.24C4584.11 2591.85 4583.33 2593.69 4582.79 2595.74H4615.9ZM4667.39 2679.82H4650.91V2569.66H4667.39V2577.43C4673.88 2570.93 4681.25 2567.68 4689.51 2567.68C4699.32 2567.68 4707.4 2571.3 4713.75 2578.52C4720.2 2585.7 4723.42 2594.76 4723.42 2605.7C4723.42 2616.39 4720.22 2625.3 4713.82 2632.43C4707.48 2639.51 4699.47 2643.05 4689.8 2643.05C4681.45 2643.05 4673.98 2639.71 4667.39 2633.02V2679.82ZM4706.57 2605.77C4706.57 2598.93 4704.72 2593.37 4701.01 2589.07C4697.25 2584.73 4692.51 2582.55 4686.8 2582.55C4680.74 2582.55 4675.83 2584.65 4672.08 2588.85C4668.32 2593.05 4666.44 2598.57 4666.44 2605.4C4666.44 2612.09 4668.32 2617.61 4672.08 2621.96C4675.79 2626.21 4680.67 2628.33 4686.72 2628.33C4692.44 2628.33 4697.15 2626.18 4700.86 2621.88C4704.67 2617.59 4706.57 2612.22 4706.57 2605.77ZM4743.41 2632.8C4743.41 2630.06 4744.41 2627.69 4746.42 2625.69C4748.42 2623.69 4750.81 2622.69 4753.59 2622.69C4756.38 2622.69 4758.77 2623.69 4760.77 2625.69C4762.77 2627.69 4763.77 2630.09 4763.77 2632.87C4763.77 2635.7 4762.77 2638.12 4760.77 2640.12C4758.82 2642.07 4756.43 2643.05 4753.59 2643.05C4750.71 2643.05 4748.3 2642.07 4746.34 2640.12C4744.39 2638.17 4743.41 2635.73 4743.41 2632.8ZM4814.31 2624.96H4856.43V2641H4780.47L4819.73 2593.47C4823.59 2588.73 4826.81 2584.63 4829.4 2581.16C4832.04 2577.69 4834.04 2574.79 4835.41 2572.45C4838.19 2567.86 4839.58 2563.73 4839.58 2560.07C4839.58 2554.79 4837.72 2550.38 4834.01 2546.81C4830.3 2543.25 4825.71 2541.46 4820.24 2541.46C4808.82 2541.46 4802.28 2548.23 4800.62 2561.75H4783.62C4786.36 2537.92 4798.39 2526.01 4819.73 2526.01C4830.03 2526.01 4838.68 2529.28 4845.66 2535.82C4852.69 2542.37 4856.21 2550.47 4856.21 2560.14C4856.21 2566.29 4854.57 2572.32 4851.3 2578.23C4849.64 2581.31 4847.2 2584.97 4843.97 2589.22C4840.8 2593.42 4836.77 2598.4 4831.89 2604.16L4814.31 2624.96ZM4906.89 2624.96H4949V2641H4873.05L4912.31 2593.47C4916.17 2588.73 4919.39 2584.63 4921.98 2581.16C4924.61 2577.69 4926.62 2574.79 4927.98 2572.45C4930.77 2567.86 4932.16 2563.73 4932.16 2560.07C4932.16 2554.79 4930.3 2550.38 4926.59 2546.81C4922.88 2543.25 4918.29 2541.46 4912.82 2541.46C4901.4 2541.46 4894.85 2548.23 4893.19 2561.75H4876.2C4878.94 2537.92 4890.97 2526.01 4912.31 2526.01C4922.61 2526.01 4931.25 2529.28 4938.24 2535.82C4945.27 2542.37 4948.78 2550.47 4948.78 2560.14C4948.78 2566.29 4947.15 2572.32 4943.88 2578.23C4942.22 2581.31 4939.78 2584.97 4936.55 2589.22C4933.38 2593.42 4929.35 2598.4 4924.47 2604.16L4906.89 2624.96Z" fill="black"/>
<path d="M5832.49 2887.76L5818.65 2895.96C5816.06 2891.47 5813.59 2888.54 5811.25 2887.17C5808.81 2885.61 5805.66 2884.83 5801.8 2884.83C5797.07 2884.83 5793.13 2886.17 5790.01 2888.86C5786.88 2891.5 5785.32 2894.82 5785.32 2898.82C5785.32 2904.34 5789.42 2908.78 5797.63 2912.15L5808.91 2916.76C5818.09 2920.47 5824.8 2925.02 5829.05 2930.39C5833.3 2935.71 5835.42 2942.25 5835.42 2950.02C5835.42 2960.42 5831.95 2969.01 5825.02 2975.8C5818.04 2982.63 5809.37 2986.05 5799.02 2986.05C5789.2 2986.05 5781.1 2983.15 5774.7 2977.33C5768.4 2971.52 5764.47 2963.35 5762.91 2952.8L5780.2 2948.99C5780.98 2955.63 5782.34 2960.22 5784.3 2962.76C5787.81 2967.64 5792.94 2970.08 5799.68 2970.08C5805 2970.08 5809.42 2968.3 5812.93 2964.74C5816.45 2961.17 5818.21 2956.66 5818.21 2951.19C5818.21 2948.99 5817.89 2946.99 5817.26 2945.18C5816.67 2943.33 5815.72 2941.64 5814.4 2940.13C5813.13 2938.57 5811.47 2937.12 5809.42 2935.81C5807.37 2934.44 5804.93 2933.15 5802.09 2931.92L5791.18 2927.38C5775.7 2920.84 5767.96 2911.27 5767.96 2898.67C5767.96 2890.18 5771.21 2883.07 5777.71 2877.36C5784.2 2871.6 5792.28 2868.72 5801.95 2868.72C5814.99 2868.72 5825.17 2875.06 5832.49 2887.76ZM5917.82 2952.21H5866.69C5867.13 2958.07 5869.04 2962.74 5872.41 2966.2C5875.78 2969.62 5880.1 2971.33 5885.37 2971.33C5889.47 2971.33 5892.87 2970.35 5895.55 2968.4C5898.19 2966.45 5901.19 2962.83 5904.56 2957.56L5918.48 2965.32C5916.33 2968.99 5914.06 2972.13 5911.67 2974.77C5909.27 2977.36 5906.71 2979.51 5903.97 2981.22C5901.24 2982.88 5898.29 2984.1 5895.11 2984.88C5891.94 2985.66 5888.5 2986.05 5884.79 2986.05C5874.14 2986.05 5865.6 2982.63 5859.15 2975.8C5852.71 2968.91 5849.48 2959.78 5849.48 2948.4C5849.48 2937.12 5852.61 2927.99 5858.86 2921.01C5865.16 2914.13 5873.51 2910.68 5883.91 2910.68C5894.4 2910.68 5902.71 2914.03 5908.81 2920.72C5914.86 2927.36 5917.89 2936.56 5917.89 2948.33L5917.82 2952.21ZM5900.9 2938.74C5898.6 2929.95 5893.06 2925.55 5884.27 2925.55C5882.27 2925.55 5880.39 2925.87 5878.63 2926.5C5876.88 2927.09 5875.26 2927.97 5873.8 2929.14C5872.38 2930.26 5871.16 2931.63 5870.14 2933.24C5869.11 2934.85 5868.33 2936.69 5867.79 2938.74H5900.9ZM5952.39 3022.82H5935.91V2912.66H5952.39V2920.43C5958.88 2913.93 5966.25 2910.68 5974.51 2910.68C5984.32 2910.68 5992.4 2914.3 5998.75 2921.52C6005.2 2928.7 6008.42 2937.76 6008.42 2948.7C6008.42 2959.39 6005.22 2968.3 5998.82 2975.43C5992.48 2982.51 5984.47 2986.05 5974.8 2986.05C5966.45 2986.05 5958.98 2982.71 5952.39 2976.02V3022.82ZM5991.57 2948.77C5991.57 2941.93 5989.72 2936.37 5986.01 2932.07C5982.25 2927.73 5977.51 2925.55 5971.8 2925.55C5965.74 2925.55 5960.83 2927.65 5957.08 2931.85C5953.32 2936.05 5951.44 2941.57 5951.44 2948.4C5951.44 2955.09 5953.32 2960.61 5957.08 2964.96C5960.79 2969.21 5965.67 2971.33 5971.72 2971.33C5977.44 2971.33 5982.15 2969.18 5985.86 2964.88C5989.67 2960.59 5991.57 2955.22 5991.57 2948.77ZM6044.16 2928.04V2984H6027.68V2928.04H6020.65V2912.66H6027.68V2886.51H6044.16V2912.66H6056.98V2928.04H6044.16ZM6057.78 2940.57H6090.45V2954.92H6057.78V2940.57ZM6098.36 2926.94C6098.36 2911.03 6104.19 2897.35 6115.86 2885.93C6127.49 2874.5 6141.45 2868.79 6157.76 2868.79C6173.87 2868.79 6187.69 2874.55 6199.21 2886.08C6210.79 2897.6 6216.57 2911.44 6216.57 2927.6C6216.57 2943.86 6210.76 2957.66 6199.14 2968.99C6187.47 2980.36 6173.38 2986.05 6156.88 2986.05C6142.28 2986.05 6129.17 2981 6117.55 2970.89C6104.76 2959.71 6098.36 2945.06 6098.36 2926.94ZM6115.57 2927.16C6115.57 2939.66 6119.77 2949.94 6128.17 2958C6136.52 2966.06 6146.16 2970.08 6157.1 2970.08C6168.96 2970.08 6178.97 2965.98 6187.13 2957.78C6195.28 2949.48 6199.36 2939.37 6199.36 2927.46C6199.36 2915.4 6195.33 2905.29 6187.28 2897.13C6179.27 2888.93 6169.36 2884.83 6157.54 2884.83C6145.77 2884.83 6135.83 2888.93 6127.73 2897.13C6119.62 2905.24 6115.57 2915.25 6115.57 2927.16ZM6290.4 2915.74V2937.64C6286.64 2933.05 6283.27 2929.9 6280.29 2928.19C6277.36 2926.43 6273.92 2925.55 6269.97 2925.55C6263.76 2925.55 6258.61 2927.73 6254.51 2932.07C6250.41 2936.42 6248.36 2941.86 6248.36 2948.4C6248.36 2955.09 6250.34 2960.59 6254.29 2964.88C6258.3 2969.18 6263.4 2971.33 6269.6 2971.33C6273.55 2971.33 6277.05 2970.47 6280.07 2968.77C6283 2967.11 6286.45 2963.88 6290.4 2959.1V2980.85C6283.71 2984.32 6277.02 2986.05 6270.33 2986.05C6259.3 2986.05 6250.07 2982.49 6242.65 2975.36C6235.22 2968.18 6231.51 2959.27 6231.51 2948.62C6231.51 2937.98 6235.27 2929 6242.79 2921.67C6250.31 2914.35 6259.54 2910.68 6270.48 2910.68C6277.51 2910.68 6284.15 2912.37 6290.4 2915.74ZM6323.36 2928.04V2984H6306.88V2928.04H6299.85V2912.66H6306.88V2886.51H6323.36V2912.66H6336.18V2928.04H6323.36ZM6420.84 2967.96H6462.96V2984H6387.01L6426.26 2936.47C6430.12 2931.73 6433.34 2927.63 6435.93 2924.16C6438.57 2920.69 6440.57 2917.79 6441.94 2915.45C6444.72 2910.86 6446.11 2906.73 6446.11 2903.07C6446.11 2897.79 6444.26 2893.38 6440.55 2889.81C6436.84 2886.25 6432.25 2884.46 6426.78 2884.46C6415.35 2884.46 6408.81 2891.23 6407.15 2904.75H6390.16C6392.89 2880.92 6404.93 2869.01 6426.26 2869.01C6436.57 2869.01 6445.21 2872.28 6452.19 2878.82C6459.22 2885.37 6462.74 2893.47 6462.74 2903.14C6462.74 2909.29 6461.1 2915.32 6457.83 2921.23C6456.17 2924.31 6453.73 2927.97 6450.51 2932.22C6447.33 2936.42 6443.31 2941.4 6438.42 2947.16L6420.84 2967.96ZM6482.22 2926.72C6482.22 2908.71 6486.42 2894.33 6494.82 2883.58C6502.34 2873.87 6511.45 2869.01 6522.14 2869.01C6532.83 2869.01 6541.94 2873.87 6549.46 2883.58C6557.86 2894.33 6562.06 2908.95 6562.06 2927.46C6562.06 2945.91 6557.86 2960.51 6549.46 2971.26C6541.94 2980.97 6532.86 2985.83 6522.21 2985.83C6511.57 2985.83 6502.44 2980.97 6494.82 2971.26C6486.42 2960.51 6482.22 2945.67 6482.22 2926.72ZM6498.99 2926.8C6498.99 2939.35 6501.17 2949.77 6505.51 2958.07C6509.86 2966.23 6515.4 2970.3 6522.14 2970.3C6528.83 2970.3 6534.37 2966.23 6538.76 2958.07C6543.16 2949.97 6545.36 2939.74 6545.36 2927.38C6545.36 2915.03 6543.16 2904.78 6538.76 2896.62C6534.37 2888.52 6528.83 2884.46 6522.14 2884.46C6515.5 2884.46 6509.98 2888.52 6505.59 2896.62C6501.19 2904.68 6498.99 2914.74 6498.99 2926.8ZM6597.5 2886.88H6577.95L6587.32 2870.91H6614.57V2984H6597.5V2886.88ZM6664.23 2925.19C6655.93 2919.33 6651.78 2911.34 6651.78 2901.24C6651.78 2892.06 6654.93 2884.39 6661.23 2878.24C6667.57 2872.09 6675.46 2869.01 6684.88 2869.01C6694.26 2869.01 6702.07 2872.09 6708.32 2878.24C6714.57 2884.34 6717.7 2892.03 6717.7 2901.31C6717.7 2911.03 6713.57 2918.96 6705.32 2925.11C6709.86 2927.55 6713.42 2931.12 6716.01 2935.81C6718.65 2940.49 6719.97 2945.77 6719.97 2951.63C6719.97 2961.64 6716.69 2969.84 6710.15 2976.24C6703.61 2982.63 6695.23 2985.83 6685.03 2985.83C6674.58 2985.83 6665.96 2982.61 6659.17 2976.16C6652.34 2969.72 6648.92 2961.61 6648.92 2951.85C6648.92 2939.15 6654.02 2930.26 6664.23 2925.19ZM6667.82 2901.16C6667.82 2906 6669.45 2910.05 6672.72 2913.32C6676.04 2916.64 6680.05 2918.3 6684.74 2918.3C6689.38 2918.3 6693.35 2916.64 6696.67 2913.32C6700 2910 6701.66 2906.02 6701.66 2901.38C6701.66 2896.74 6700 2892.76 6696.67 2889.44C6693.35 2886.12 6689.38 2884.46 6684.74 2884.46C6680.1 2884.46 6676.12 2886.12 6672.8 2889.44C6669.48 2892.76 6667.82 2896.67 6667.82 2901.16ZM6665.69 2951.26C6665.69 2956.49 6667.5 2960.98 6671.11 2964.74C6674.78 2968.45 6679.22 2970.3 6684.44 2970.3C6689.62 2970.3 6694.04 2968.47 6697.7 2964.81C6701.36 2961.1 6703.19 2956.66 6703.19 2951.48C6703.19 2946.26 6701.36 2941.81 6697.7 2938.15C6694.04 2934.49 6689.62 2932.66 6684.44 2932.66C6679.32 2932.66 6674.9 2934.49 6671.19 2938.15C6667.52 2941.81 6665.69 2946.18 6665.69 2951.26Z" fill="black"/>
<path d="M2198.55 3423V3309.91H2222.28C2233.66 3309.91 2242.64 3311.04 2249.23 3313.28C2256.31 3315.48 2262.73 3319.22 2268.5 3324.49C2280.17 3335.13 2286 3349.12 2286 3366.46C2286 3383.84 2279.92 3397.9 2267.76 3408.64C2261.66 3414.02 2255.26 3417.75 2248.57 3419.85C2242.32 3421.95 2233.46 3423 2221.99 3423H2198.55ZM2215.62 3406.96H2223.31C2230.97 3406.96 2237.34 3406.15 2242.42 3404.54C2247.5 3402.83 2252.09 3400.12 2256.19 3396.41C2264.59 3388.75 2268.79 3378.76 2268.79 3366.46C2268.79 3354.05 2264.64 3344 2256.34 3336.28C2248.87 3329.4 2237.86 3325.95 2223.31 3325.95H2215.62V3406.96ZM2320.86 3351.66V3392.6C2320.86 3404.42 2325.53 3410.33 2334.85 3410.33C2344.18 3410.33 2348.84 3404.42 2348.84 3392.6V3351.66H2365.32V3392.97C2365.32 3398.68 2364.61 3403.62 2363.2 3407.77C2361.83 3411.48 2359.46 3414.82 2356.09 3417.8C2350.53 3422.63 2343.45 3425.05 2334.85 3425.05C2326.31 3425.05 2319.25 3422.63 2313.69 3417.8C2310.27 3414.82 2307.85 3411.48 2306.44 3407.77C2305.07 3404.45 2304.38 3399.51 2304.38 3392.97V3351.66H2320.86ZM2386.12 3351.66H2402.68V3358.25C2408.44 3352.54 2414.93 3349.68 2422.16 3349.68C2430.46 3349.68 2436.93 3352.3 2441.57 3357.52C2445.57 3361.96 2447.57 3369.22 2447.57 3379.27V3423H2431.02V3383.16C2431.02 3376.12 2430.04 3371.27 2428.09 3368.58C2426.19 3365.85 2422.72 3364.48 2417.69 3364.48C2412.22 3364.48 2408.34 3366.29 2406.04 3369.9C2403.8 3373.46 2402.68 3379.69 2402.68 3388.58V3423H2386.12V3351.66ZM2484.93 3299.29V3374.73L2508.14 3351.66H2530.26L2499.28 3381.62L2532.53 3423H2511.15L2487.56 3392.9L2484.93 3395.53V3423H2468.45V3299.29H2484.93ZM2559.63 3351.66V3423H2543.15V3351.66H2559.63ZM2540.66 3322C2540.66 3319.12 2541.71 3316.63 2543.81 3314.53C2545.91 3312.43 2548.43 3311.38 2551.36 3311.38C2554.34 3311.38 2556.88 3312.43 2558.97 3314.53C2561.07 3316.58 2562.12 3319.09 2562.12 3322.07C2562.12 3325.05 2561.07 3327.59 2558.97 3329.69C2556.92 3331.79 2554.41 3332.84 2551.43 3332.84C2548.45 3332.84 2545.91 3331.79 2543.81 3329.69C2541.71 3327.59 2540.66 3325.03 2540.66 3322ZM2580.51 3351.66H2597.06V3358.25C2602.82 3352.54 2609.32 3349.68 2616.54 3349.68C2624.84 3349.68 2631.31 3352.3 2635.95 3357.52C2639.96 3361.96 2641.96 3369.22 2641.96 3379.27V3423H2625.41V3383.16C2625.41 3376.12 2624.43 3371.27 2622.48 3368.58C2620.57 3365.85 2617.1 3364.48 2612.08 3364.48C2606.61 3364.48 2602.72 3366.29 2600.43 3369.9C2598.18 3373.46 2597.06 3379.69 2597.06 3388.58V3423H2580.51V3351.66ZM2712.27 3423V3309.91H2729.26C2736.83 3309.91 2742.86 3310.5 2747.35 3311.67C2751.89 3312.84 2755.73 3314.82 2758.85 3317.6C2762.03 3320.49 2764.54 3324.07 2766.4 3328.37C2768.3 3332.72 2769.25 3337.11 2769.25 3341.55C2769.25 3349.66 2766.15 3356.52 2759.95 3362.14C2765.96 3364.19 2770.69 3367.78 2774.16 3372.9C2777.68 3377.98 2779.43 3383.89 2779.43 3390.63C2779.43 3399.46 2776.31 3406.94 2770.06 3413.04C2766.3 3416.8 2762.08 3419.41 2757.39 3420.88C2752.26 3422.29 2745.84 3423 2738.12 3423H2712.27ZM2729.34 3358.47H2734.68C2741.03 3358.47 2745.67 3357.08 2748.6 3354.3C2751.58 3351.47 2753.07 3347.32 2753.07 3341.85C2753.07 3336.53 2751.55 3332.5 2748.53 3329.76C2745.5 3326.98 2741.1 3325.59 2735.34 3325.59H2729.34V3358.47ZM2729.34 3406.96H2739.88C2747.6 3406.96 2753.26 3405.45 2756.88 3402.42C2760.68 3399.15 2762.59 3395 2762.59 3389.97C2762.59 3385.08 2760.76 3380.98 2757.09 3377.66C2753.53 3374.39 2747.16 3372.76 2737.98 3372.76H2729.34V3406.96ZM2814.37 3351.66V3392.6C2814.37 3404.42 2819.03 3410.33 2828.36 3410.33C2837.69 3410.33 2842.35 3404.42 2842.35 3392.6V3351.66H2858.83V3392.97C2858.83 3398.68 2858.12 3403.62 2856.7 3407.77C2855.34 3411.48 2852.97 3414.82 2849.6 3417.8C2844.03 3422.63 2836.95 3425.05 2828.36 3425.05C2819.81 3425.05 2812.76 3422.63 2807.19 3417.8C2803.77 3414.82 2801.36 3411.48 2799.94 3407.77C2798.57 3404.45 2797.89 3399.51 2797.89 3392.97V3351.66H2814.37ZM2903.29 3407.47H2945.69V3423H2870.62L2916.84 3367.04H2880.43V3351.66H2949.43L2903.29 3407.47ZM2984.88 3407.47H3027.29V3423H2952.21L2998.43 3367.04H2962.03V3351.66H3031.02L2984.88 3407.47ZM3156.19 3326.76L3142.35 3334.96C3139.76 3330.47 3137.29 3327.54 3134.95 3326.17C3132.51 3324.61 3129.36 3323.83 3125.5 3323.83C3120.77 3323.83 3116.84 3325.17 3113.71 3327.86C3110.59 3330.5 3109.02 3333.82 3109.02 3337.82C3109.02 3343.34 3113.12 3347.78 3121.33 3351.15L3132.61 3355.76C3141.79 3359.47 3148.5 3364.02 3152.75 3369.39C3157 3374.71 3159.12 3381.25 3159.12 3389.02C3159.12 3399.42 3155.65 3408.01 3148.72 3414.8C3141.74 3421.63 3133.07 3425.05 3122.72 3425.05C3112.91 3425.05 3104.8 3422.15 3098.4 3416.33C3092.1 3410.52 3088.17 3402.35 3086.61 3391.8L3103.9 3387.99C3104.68 3394.63 3106.04 3399.22 3108 3401.76C3111.51 3406.64 3116.64 3409.08 3123.38 3409.08C3128.7 3409.08 3133.12 3407.3 3136.64 3403.74C3140.15 3400.17 3141.91 3395.66 3141.91 3390.19C3141.91 3387.99 3141.59 3385.99 3140.96 3384.18C3140.37 3382.33 3139.42 3380.64 3138.1 3379.13C3136.83 3377.57 3135.17 3376.12 3133.12 3374.81C3131.07 3373.44 3128.63 3372.15 3125.8 3370.92L3114.88 3366.38C3099.4 3359.84 3091.67 3350.27 3091.67 3337.67C3091.67 3329.18 3094.91 3322.07 3101.41 3316.36C3107.9 3310.6 3115.98 3307.72 3125.65 3307.72C3138.69 3307.72 3148.87 3314.06 3156.19 3326.76ZM3232.07 3354.74V3376.64C3228.31 3372.05 3224.94 3368.9 3221.96 3367.19C3219.03 3365.43 3215.59 3364.55 3211.64 3364.55C3205.43 3364.55 3200.28 3366.73 3196.18 3371.07C3192.08 3375.42 3190.03 3380.86 3190.03 3387.4C3190.03 3394.09 3192.01 3399.59 3195.96 3403.88C3199.97 3408.18 3205.07 3410.33 3211.27 3410.33C3215.22 3410.33 3218.72 3409.47 3221.74 3407.77C3224.67 3406.11 3228.12 3402.88 3232.07 3398.1V3419.85C3225.38 3423.32 3218.69 3425.05 3212 3425.05C3200.97 3425.05 3191.74 3421.49 3184.32 3414.36C3176.89 3407.18 3173.18 3398.27 3173.18 3387.62C3173.18 3376.98 3176.94 3368 3184.46 3360.67C3191.98 3353.35 3201.21 3349.68 3212.15 3349.68C3219.18 3349.68 3225.82 3351.37 3232.07 3354.74ZM3244.67 3386.82C3244.67 3376.52 3248.35 3367.75 3255.73 3360.52C3263.1 3353.3 3272.08 3349.68 3282.68 3349.68C3293.33 3349.68 3302.36 3353.32 3309.78 3360.6C3317.1 3367.87 3320.77 3376.81 3320.77 3387.4C3320.77 3398.1 3317.08 3407.06 3309.71 3414.28C3302.29 3421.46 3293.18 3425.05 3282.39 3425.05C3271.69 3425.05 3262.73 3421.39 3255.51 3414.06C3248.28 3406.84 3244.67 3397.76 3244.67 3386.82ZM3261.51 3387.11C3261.51 3394.24 3263.42 3399.88 3267.23 3404.03C3271.13 3408.23 3276.28 3410.33 3282.68 3410.33C3289.13 3410.33 3294.28 3408.25 3298.13 3404.1C3301.99 3399.95 3303.92 3394.41 3303.92 3387.48C3303.92 3380.54 3301.99 3375 3298.13 3370.85C3294.23 3366.65 3289.08 3364.55 3282.68 3364.55C3276.38 3364.55 3271.28 3366.65 3267.37 3370.85C3263.47 3375.05 3261.51 3380.47 3261.51 3387.11ZM3338.27 3351.66H3354.75V3358.03C3357.78 3354.86 3360.46 3352.69 3362.81 3351.52C3365.2 3350.29 3368.03 3349.68 3371.3 3349.68C3375.65 3349.68 3380.19 3351.1 3384.93 3353.93L3377.38 3369.02C3374.26 3366.77 3371.21 3365.65 3368.23 3365.65C3359.24 3365.65 3354.75 3372.44 3354.75 3386.01V3423H3338.27V3351.66ZM3458.32 3391.21H3407.19C3407.63 3397.07 3409.54 3401.74 3412.91 3405.2C3416.27 3408.62 3420.6 3410.33 3425.87 3410.33C3429.97 3410.33 3433.36 3409.35 3436.05 3407.4C3438.69 3405.45 3441.69 3401.83 3445.06 3396.56L3458.97 3404.32C3456.83 3407.99 3454.56 3411.13 3452.16 3413.77C3449.77 3416.36 3447.21 3418.51 3444.47 3420.22C3441.74 3421.88 3438.78 3423.1 3435.61 3423.88C3432.44 3424.66 3428.99 3425.05 3425.28 3425.05C3414.64 3425.05 3406.09 3421.63 3399.65 3414.8C3393.2 3407.91 3389.98 3398.78 3389.98 3387.4C3389.98 3376.12 3393.11 3366.99 3399.36 3360.01C3405.65 3353.13 3414 3349.68 3424.4 3349.68C3434.9 3349.68 3443.2 3353.03 3449.31 3359.72C3455.36 3366.36 3458.39 3375.56 3458.39 3387.33L3458.32 3391.21ZM3441.4 3377.74C3439.1 3368.95 3433.56 3364.55 3424.77 3364.55C3422.77 3364.55 3420.89 3364.87 3419.13 3365.5C3417.37 3366.09 3415.76 3366.97 3414.3 3368.14C3412.88 3369.26 3411.66 3370.63 3410.63 3372.24C3409.61 3373.85 3408.83 3375.69 3408.29 3377.74H3441.4ZM3575.28 3351.66H3591.84V3423H3575.28V3415.53C3568.5 3421.88 3561.2 3425.05 3553.38 3425.05C3543.52 3425.05 3535.37 3421.49 3528.92 3414.36C3522.52 3407.08 3519.33 3398 3519.33 3387.11C3519.33 3376.42 3522.52 3367.51 3528.92 3360.38C3535.32 3353.25 3543.33 3349.68 3552.94 3349.68C3561.25 3349.68 3568.69 3353.1 3575.28 3359.94V3351.66ZM3536.17 3387.11C3536.17 3393.95 3538 3399.51 3541.67 3403.81C3545.42 3408.16 3550.16 3410.33 3555.87 3410.33C3561.98 3410.33 3566.91 3408.23 3570.67 3404.03C3574.43 3399.68 3576.31 3394.17 3576.31 3387.48C3576.31 3380.79 3574.43 3375.27 3570.67 3370.92C3566.91 3366.68 3562.03 3364.55 3556.02 3364.55C3550.36 3364.55 3545.62 3366.7 3541.81 3371C3538.05 3375.34 3536.17 3380.71 3536.17 3387.11ZM3629.7 3367.04V3423H3613.15V3367.04H3607.29V3351.66H3613.15V3324.12C3613.15 3315.14 3614.71 3308.79 3617.84 3305.08C3622.13 3299.9 3628.38 3297.32 3636.59 3297.32C3639.52 3297.32 3643.2 3298.17 3647.65 3299.88V3316.73L3645.96 3315.85C3642.4 3314.04 3639.47 3313.14 3637.17 3313.14C3634.24 3313.14 3632.27 3314.19 3631.24 3316.29C3630.21 3318.34 3629.7 3322.29 3629.7 3328.15V3351.66H3647.65V3367.04H3629.7ZM3679.58 3367.04V3423H3663.1V3367.04H3656.07V3351.66H3663.1V3325.51H3679.58V3351.66H3692.4V3367.04H3679.58ZM3769.89 3391.21H3718.76C3719.2 3397.07 3721.11 3401.74 3724.48 3405.2C3727.85 3408.62 3732.17 3410.33 3737.44 3410.33C3741.54 3410.33 3744.94 3409.35 3747.62 3407.4C3750.26 3405.45 3753.26 3401.83 3756.63 3396.56L3770.55 3404.32C3768.4 3407.99 3766.13 3411.13 3763.74 3413.77C3761.34 3416.36 3758.78 3418.51 3756.04 3420.22C3753.31 3421.88 3750.36 3423.1 3747.18 3423.88C3744.01 3424.66 3740.57 3425.05 3736.86 3425.05C3726.21 3425.05 3717.67 3421.63 3711.22 3414.8C3704.78 3407.91 3701.55 3398.78 3701.55 3387.4C3701.55 3376.12 3704.68 3366.99 3710.93 3360.01C3717.23 3353.13 3725.58 3349.68 3735.98 3349.68C3746.47 3349.68 3754.78 3353.03 3760.88 3359.72C3766.93 3366.36 3769.96 3375.56 3769.96 3387.33L3769.89 3391.21ZM3752.97 3377.74C3750.67 3368.95 3745.13 3364.55 3736.34 3364.55C3734.34 3364.55 3732.46 3364.87 3730.7 3365.5C3728.95 3366.09 3727.33 3366.97 3725.87 3368.14C3724.45 3369.26 3723.23 3370.63 3722.21 3372.24C3721.18 3373.85 3720.4 3375.69 3719.86 3377.74H3752.97ZM3787.98 3351.66H3804.46V3358.03C3807.49 3354.86 3810.17 3352.69 3812.51 3351.52C3814.91 3350.29 3817.74 3349.68 3821.01 3349.68C3825.36 3349.68 3829.9 3351.1 3834.63 3353.93L3827.09 3369.02C3823.96 3366.77 3820.91 3365.65 3817.93 3365.65C3808.95 3365.65 3804.46 3372.44 3804.46 3386.01V3423H3787.98V3351.66ZM3945.89 3354.74V3376.64C3942.13 3372.05 3938.76 3368.9 3935.78 3367.19C3932.85 3365.43 3929.41 3364.55 3925.45 3364.55C3919.25 3364.55 3914.1 3366.73 3910 3371.07C3905.9 3375.42 3903.85 3380.86 3903.85 3387.4C3903.85 3394.09 3905.83 3399.59 3909.78 3403.88C3913.78 3408.18 3918.89 3410.33 3925.09 3410.33C3929.04 3410.33 3932.53 3409.47 3935.56 3407.77C3938.49 3406.11 3941.93 3402.88 3945.89 3398.1V3419.85C3939.2 3423.32 3932.51 3425.05 3925.82 3425.05C3914.79 3425.05 3905.56 3421.49 3898.13 3414.36C3890.71 3407.18 3887 3398.27 3887 3387.62C3887 3376.98 3890.76 3368 3898.28 3360.67C3905.8 3353.35 3915.03 3349.68 3925.97 3349.68C3933 3349.68 3939.64 3351.37 3945.89 3354.74ZM3965.81 3299.29H3982.29V3357.59C3988.15 3352.32 3994.62 3349.68 4001.7 3349.68C4009.76 3349.68 4016.2 3352.3 4021.04 3357.52C4025.14 3362.06 4027.19 3369.31 4027.19 3379.27V3423H4010.71V3380.81C4010.71 3375.1 4009.68 3370.97 4007.63 3368.43C4005.63 3365.85 4002.38 3364.55 3997.89 3364.55C3992.13 3364.55 3988.08 3366.33 3985.73 3369.9C3983.44 3373.51 3982.29 3379.71 3982.29 3388.5V3423H3965.81V3299.29ZM4100.72 3351.66H4117.28V3423H4100.72V3415.53C4093.94 3421.88 4086.64 3425.05 4078.82 3425.05C4068.96 3425.05 4060.81 3421.49 4054.36 3414.36C4047.96 3407.08 4044.77 3398 4044.77 3387.11C4044.77 3376.42 4047.96 3367.51 4054.36 3360.38C4060.76 3353.25 4068.76 3349.68 4078.38 3349.68C4086.68 3349.68 4094.13 3353.1 4100.72 3359.94V3351.66ZM4061.61 3387.11C4061.61 3393.95 4063.44 3399.51 4067.1 3403.81C4070.86 3408.16 4075.6 3410.33 4081.31 3410.33C4087.42 3410.33 4092.35 3408.23 4096.11 3404.03C4099.87 3399.68 4101.75 3394.17 4101.75 3387.48C4101.75 3380.79 4099.87 3375.27 4096.11 3370.92C4092.35 3366.68 4087.47 3364.55 4081.46 3364.55C4075.8 3364.55 4071.06 3366.7 4067.25 3371C4063.49 3375.34 4061.61 3380.71 4061.61 3387.11ZM4138.08 3351.66H4154.63V3358.25C4160.39 3352.54 4166.88 3349.68 4174.11 3349.68C4182.41 3349.68 4188.88 3352.3 4193.52 3357.52C4197.52 3361.96 4199.53 3369.22 4199.53 3379.27V3423H4182.97V3383.16C4182.97 3376.12 4182 3371.27 4180.04 3368.58C4178.14 3365.85 4174.67 3364.48 4169.64 3364.48C4164.17 3364.48 4160.29 3366.29 4158 3369.9C4155.75 3373.46 4154.63 3379.69 4154.63 3388.58V3423H4138.08V3351.66ZM4289.39 3421.32C4289.39 3424.68 4289.27 3427.64 4289.03 3430.18C4288.83 3432.77 4288.54 3435.04 4288.15 3436.99C4286.98 3442.36 4284.68 3446.97 4281.26 3450.83C4274.82 3458.25 4265.96 3461.96 4254.68 3461.96C4245.16 3461.96 4237.32 3459.4 4231.17 3454.27C4224.82 3449 4221.16 3441.7 4220.18 3432.38H4236.73C4237.37 3435.89 4238.42 3438.6 4239.88 3440.5C4243.3 3444.95 4248.28 3447.17 4254.82 3447.17C4266.88 3447.17 4272.92 3439.77 4272.92 3424.98V3415.02C4266.37 3421.71 4258.83 3425.05 4250.28 3425.05C4240.57 3425.05 4232.61 3421.54 4226.41 3414.5C4220.16 3407.38 4217.03 3398.46 4217.03 3387.77C4217.03 3377.37 4219.94 3368.53 4225.75 3361.26C4232 3353.54 4240.25 3349.68 4250.5 3349.68C4259.49 3349.68 4266.96 3353.03 4272.92 3359.72V3351.66H4289.39V3421.32ZM4273.57 3387.48C4273.57 3380.54 4271.72 3375 4268.01 3370.85C4264.25 3366.6 4259.44 3364.48 4253.58 3364.48C4247.33 3364.48 4242.4 3366.8 4238.78 3371.44C4235.51 3375.59 4233.88 3380.96 4233.88 3387.55C4233.88 3394.04 4235.51 3399.37 4238.78 3403.52C4242.35 3408.06 4247.28 3410.33 4253.58 3410.33C4259.88 3410.33 4264.86 3408.03 4268.52 3403.44C4271.89 3399.29 4273.57 3393.97 4273.57 3387.48ZM4375.16 3391.21H4324.04C4324.48 3397.07 4326.38 3401.74 4329.75 3405.2C4333.12 3408.62 4337.44 3410.33 4342.71 3410.33C4346.82 3410.33 4350.21 3409.35 4352.9 3407.4C4355.53 3405.45 4358.54 3401.83 4361.9 3396.56L4375.82 3404.32C4373.67 3407.99 4371.4 3411.13 4369.01 3413.77C4366.62 3416.36 4364.05 3418.51 4361.32 3420.22C4358.58 3421.88 4355.63 3423.1 4352.46 3423.88C4349.28 3424.66 4345.84 3425.05 4342.13 3425.05C4331.48 3425.05 4322.94 3421.63 4316.49 3414.8C4310.05 3407.91 4306.83 3398.78 4306.83 3387.4C4306.83 3376.12 4309.95 3366.99 4316.2 3360.01C4322.5 3353.13 4330.85 3349.68 4341.25 3349.68C4351.75 3349.68 4360.05 3353.03 4366.15 3359.72C4372.21 3366.36 4375.23 3375.56 4375.23 3387.33L4375.16 3391.21ZM4358.24 3377.74C4355.95 3368.95 4350.41 3364.55 4341.62 3364.55C4339.61 3364.55 4337.73 3364.87 4335.98 3365.5C4334.22 3366.09 4332.61 3366.97 4331.14 3368.14C4329.73 3369.26 4328.51 3370.63 4327.48 3372.24C4326.46 3373.85 4325.67 3375.69 4325.14 3377.74H4358.24ZM4456.02 3351.66V3423H4439.54V3351.66H4456.02ZM4437.05 3322C4437.05 3319.12 4438.1 3316.63 4440.2 3314.53C4442.3 3312.43 4444.81 3311.38 4447.74 3311.38C4450.72 3311.38 4453.26 3312.43 4455.36 3314.53C4457.46 3316.58 4458.51 3319.09 4458.51 3322.07C4458.51 3325.05 4457.46 3327.59 4455.36 3329.69C4453.31 3331.79 4450.8 3332.84 4447.82 3332.84C4444.84 3332.84 4442.3 3331.79 4440.2 3329.69C4438.1 3327.59 4437.05 3325.03 4437.05 3322ZM4476.89 3351.66H4493.45V3358.25C4499.21 3352.54 4505.7 3349.68 4512.93 3349.68C4521.23 3349.68 4527.7 3352.3 4532.34 3357.52C4536.34 3361.96 4538.34 3369.22 4538.34 3379.27V3423H4521.79V3383.16C4521.79 3376.12 4520.82 3371.27 4518.86 3368.58C4516.96 3365.85 4513.49 3364.48 4508.46 3364.48C4502.99 3364.48 4499.11 3366.29 4496.82 3369.9C4494.57 3373.46 4493.45 3379.69 4493.45 3388.58V3423H4476.89V3351.66ZM4605.51 3351.66H4622.06V3358.25C4627.82 3352.54 4634.32 3349.68 4641.54 3349.68C4649.84 3349.68 4656.31 3352.3 4660.95 3357.52C4664.96 3361.96 4666.96 3369.22 4666.96 3379.27V3423H4650.41V3383.16C4650.41 3376.12 4649.43 3371.27 4647.48 3368.58C4645.57 3365.85 4642.1 3364.48 4637.08 3364.48C4631.61 3364.48 4627.72 3366.29 4625.43 3369.9C4623.18 3373.46 4622.06 3379.69 4622.06 3388.58V3423H4605.51V3351.66ZM4740.42 3351.66H4756.97V3423H4740.42V3415.53C4733.63 3421.88 4726.33 3425.05 4718.52 3425.05C4708.66 3425.05 4700.5 3421.49 4694.06 3414.36C4687.66 3407.08 4684.46 3398 4684.46 3387.11C4684.46 3376.42 4687.66 3367.51 4694.06 3360.38C4700.45 3353.25 4708.46 3349.68 4718.08 3349.68C4726.38 3349.68 4733.83 3353.1 4740.42 3359.94V3351.66ZM4701.31 3387.11C4701.31 3393.95 4703.14 3399.51 4706.8 3403.81C4710.56 3408.16 4715.3 3410.33 4721.01 3410.33C4727.11 3410.33 4732.05 3408.23 4735.81 3404.03C4739.57 3399.68 4741.45 3394.17 4741.45 3387.48C4741.45 3380.79 4739.57 3375.27 4735.81 3370.92C4732.05 3366.68 4727.16 3364.55 4721.16 3364.55C4715.49 3364.55 4710.76 3366.7 4706.95 3371C4703.19 3375.34 4701.31 3380.71 4701.31 3387.11ZM4777.77 3351.66H4794.25V3358.25C4797.43 3354.93 4800.14 3352.69 4802.38 3351.52C4804.78 3350.29 4807.78 3349.68 4811.39 3349.68C4819.45 3349.68 4825.82 3353.2 4830.51 3360.23C4835.68 3353.2 4842.69 3349.68 4851.53 3349.68C4867.59 3349.68 4875.62 3359.43 4875.62 3378.91V3423H4859.07V3383.38C4859.07 3376.54 4858.24 3371.71 4856.58 3368.87C4854.87 3365.99 4852.07 3364.55 4848.16 3364.55C4843.62 3364.55 4840.3 3366.26 4838.2 3369.68C4836.15 3373.1 4835.12 3378.59 4835.12 3386.16V3423H4818.57V3383.6C4818.57 3370.9 4814.91 3364.55 4807.58 3364.55C4802.94 3364.55 4799.55 3366.29 4797.4 3369.75C4795.3 3373.22 4794.25 3378.69 4794.25 3386.16V3423H4777.77V3351.66ZM4961.39 3391.21H4910.27C4910.71 3397.07 4912.61 3401.74 4915.98 3405.2C4919.35 3408.62 4923.67 3410.33 4928.95 3410.33C4933.05 3410.33 4936.44 3409.35 4939.13 3407.4C4941.76 3405.45 4944.77 3401.83 4948.13 3396.56L4962.05 3404.32C4959.9 3407.99 4957.63 3411.13 4955.24 3413.77C4952.85 3416.36 4950.28 3418.51 4947.55 3420.22C4944.81 3421.88 4941.86 3423.1 4938.69 3423.88C4935.51 3424.66 4932.07 3425.05 4928.36 3425.05C4917.71 3425.05 4909.17 3421.63 4902.72 3414.8C4896.28 3407.91 4893.06 3398.78 4893.06 3387.4C4893.06 3376.12 4896.18 3366.99 4902.43 3360.01C4908.73 3353.13 4917.08 3349.68 4927.48 3349.68C4937.98 3349.68 4946.28 3353.03 4952.38 3359.72C4958.44 3366.36 4961.46 3375.56 4961.46 3387.33L4961.39 3391.21ZM4944.47 3377.74C4942.18 3368.95 4936.64 3364.55 4927.85 3364.55C4925.84 3364.55 4923.96 3364.87 4922.21 3365.5C4920.45 3366.09 4918.84 3366.97 4917.37 3368.14C4915.96 3369.26 4914.74 3370.63 4913.71 3372.24C4912.69 3373.85 4911.9 3375.69 4911.37 3377.74H4944.47Z" fill="black"/>
<path d="M480.26 2870.29L465.025 2994H448.912L449.791 2986.6C445.787 2990.17 442.32 2992.58 439.391 2993.85C436.51 2995.03 432.945 2995.61 428.697 2995.61C419.029 2995.61 411.119 2992.41 404.967 2986.02C398.814 2979.57 395.738 2971.27 395.738 2961.11C395.738 2950.27 399.107 2941.27 405.846 2934.09C412.584 2926.91 421.056 2923.32 431.261 2923.32C436.485 2923.32 440.88 2924.22 444.444 2926.03C448.155 2927.89 452.037 2931.04 456.09 2935.48L464.073 2870.29H480.26ZM453.6 2956.5C453.6 2950.64 451.793 2945.9 448.18 2942.29C444.566 2938.68 439.83 2936.87 433.971 2936.87C427.623 2936.87 422.374 2939.24 418.224 2943.98C414.073 2948.71 411.998 2954.69 411.998 2961.92C411.998 2968.02 413.78 2972.93 417.345 2976.64C420.909 2980.3 425.646 2982.13 431.554 2982.13C437.706 2982.13 442.906 2979.64 447.154 2974.66C451.451 2969.78 453.6 2963.73 453.6 2956.5ZM565.074 2925.01L556.578 2994H540.392L541.344 2986.53C534.41 2992.58 527.232 2995.61 519.811 2995.61C510.68 2995.61 503.233 2992.51 497.472 2986.31C491.71 2980.11 488.829 2972.08 488.829 2962.21C488.829 2950.84 492.125 2941.51 498.717 2934.23C505.406 2926.96 513.976 2923.32 524.425 2923.32C529.356 2923.32 533.556 2924.13 537.022 2925.74C540.538 2927.35 544.127 2930.13 547.789 2934.09L548.888 2925.01H565.074ZM545.372 2957.53C545.372 2951.42 543.614 2946.47 540.099 2942.66C536.583 2938.8 532.042 2936.87 526.476 2936.87C520.421 2936.87 515.343 2939.24 511.241 2943.98C507.14 2948.76 505.089 2954.62 505.089 2961.55C505.089 2967.61 506.798 2972.56 510.216 2976.42C513.634 2980.28 518.028 2982.21 523.399 2982.21C529.356 2982.21 534.508 2979.79 538.854 2974.96C543.199 2970.03 545.372 2964.21 545.372 2957.53ZM603.233 2940.02L596.568 2994H580.382L587.047 2940.02H577.892L579.723 2925.01H588.878L592.833 2893H609.02L605.064 2925.01H620.006L618.175 2940.02H603.233ZM702.33 2925.01L693.834 2994H677.647L678.6 2986.53C671.666 2992.58 664.488 2995.61 657.066 2995.61C647.936 2995.61 640.489 2992.51 634.728 2986.31C628.966 2980.11 626.085 2972.08 626.085 2962.21C626.085 2950.84 629.381 2941.51 635.973 2934.23C642.662 2926.96 651.231 2923.32 661.681 2923.32C666.612 2923.32 670.812 2924.13 674.278 2925.74C677.794 2927.35 681.383 2930.13 685.045 2934.09L686.144 2925.01H702.33ZM682.628 2957.53C682.628 2951.42 680.87 2946.47 677.354 2942.66C673.839 2938.8 669.298 2936.87 663.731 2936.87C657.677 2936.87 652.599 2939.24 648.497 2943.98C644.396 2948.76 642.345 2954.62 642.345 2961.55C642.345 2967.61 644.054 2972.56 647.472 2976.42C650.89 2980.28 655.284 2982.21 660.655 2982.21C666.612 2982.21 671.764 2979.79 676.109 2974.96C680.455 2970.03 682.628 2964.21 682.628 2957.53ZM786.705 2940.02L780.113 2994H763.927L770.592 2940.02H760.045L761.876 2925.01H772.423L776.231 2894.17C777.208 2885.97 779.43 2879.94 782.896 2876.08C786.363 2872.22 791.319 2870.29 797.765 2870.29C801.671 2870.29 806.236 2871.54 811.461 2874.03L809.703 2888.24C806.676 2885.8 803.893 2884.58 801.354 2884.58C798.424 2884.58 796.251 2885.58 794.835 2887.58C793.517 2889.58 792.516 2893.27 791.832 2898.64L788.609 2925.01H803.258L801.427 2940.02H786.705ZM833.653 2925.01L832.921 2930.94C838.39 2925.76 843.907 2923.17 849.474 2923.17C854.356 2923.17 858.8 2924.96 862.804 2928.52L852.477 2941.85C849.498 2939.31 846.52 2938.04 843.541 2938.04C841.49 2938.04 839.684 2938.46 838.121 2939.29C836.559 2940.07 835.191 2941.34 834.02 2943.1C832.896 2944.81 831.944 2947.03 831.163 2949.76C830.431 2952.5 829.845 2955.77 829.405 2959.58L825.157 2994H808.971L817.467 2925.01H833.653ZM941.539 2958.84C941.539 2969.39 937.877 2978.25 930.553 2985.43C923.277 2992.61 914.293 2996.2 903.6 2996.2C892.418 2996.2 883.287 2992.8 876.207 2986.02C869.078 2979.18 865.514 2970.54 865.514 2960.09C865.514 2949.4 869.2 2940.51 876.573 2933.43C883.995 2926.3 893.272 2922.74 904.405 2922.74C915.343 2922.74 924.254 2926.1 931.139 2932.84C938.072 2939.48 941.539 2948.15 941.539 2958.84ZM925.206 2958.04C925.206 2951.4 923.277 2946.15 919.42 2942.29C915.562 2938.29 910.509 2936.29 904.259 2936.29C897.765 2936.29 892.394 2938.51 888.146 2942.95C883.897 2947.44 881.773 2953.08 881.773 2959.87C881.773 2966.71 883.775 2972.2 887.779 2976.35C891.783 2980.6 896.959 2982.72 903.307 2982.72C909.654 2982.72 914.879 2980.4 918.98 2975.76C923.131 2971.17 925.206 2965.26 925.206 2958.04ZM980.797 2925.01L980.064 2931.45C985.533 2925.98 991.856 2923.25 999.034 2923.25C1003.38 2923.25 1006.72 2924.05 1009.07 2925.67C1011.41 2927.18 1013.51 2930.04 1015.37 2934.23C1022.2 2926.96 1029.58 2923.32 1037.49 2923.32C1051.16 2923.32 1057.99 2929.6 1057.99 2942.14C1057.99 2943.41 1057.87 2945.2 1057.63 2947.49C1057.43 2949.79 1057.14 2952.62 1056.75 2955.99L1052.06 2994H1035.88L1040.86 2954.08C1041.29 2950.37 1041.51 2947.64 1041.51 2945.88C1041.51 2939.87 1038.49 2936.87 1032.43 2936.87C1030.04 2936.87 1027.96 2937.24 1026.21 2937.97C1024.45 2938.65 1022.94 2939.75 1021.67 2941.27C1020.45 2942.73 1019.42 2944.66 1018.59 2947.05C1017.81 2949.4 1017.2 2952.2 1016.76 2955.47L1012.07 2994H995.885L1000.94 2953.06C1001.38 2949.35 1001.6 2946.81 1001.6 2945.44C1001.6 2939.73 998.497 2936.87 992.296 2936.87C983.312 2936.87 978.062 2943.1 976.549 2955.55L971.788 2994H955.602L964.098 2925.01H980.797ZM1195.91 2925.01L1133.43 3033.48H1114.98L1142.74 2985.43L1118.05 2925.01H1135.34L1152.4 2969.1L1177.38 2925.01H1195.91ZM1274.79 2958.84C1274.79 2969.39 1271.13 2978.25 1263.8 2985.43C1256.53 2992.61 1247.54 2996.2 1236.85 2996.2C1225.67 2996.2 1216.54 2992.8 1209.46 2986.02C1202.33 2979.18 1198.77 2970.54 1198.77 2960.09C1198.77 2949.4 1202.45 2940.51 1209.83 2933.43C1217.25 2926.3 1226.52 2922.74 1237.66 2922.74C1248.59 2922.74 1257.51 2926.1 1264.39 2932.84C1271.32 2939.48 1274.79 2948.15 1274.79 2958.84ZM1258.46 2958.04C1258.46 2951.4 1256.53 2946.15 1252.67 2942.29C1248.81 2938.29 1243.76 2936.29 1237.51 2936.29C1231.02 2936.29 1225.65 2938.51 1221.4 2942.95C1217.15 2947.44 1215.03 2953.08 1215.03 2959.87C1215.03 2966.71 1217.03 2972.2 1221.03 2976.35C1225.04 2980.6 1230.21 2982.72 1236.56 2982.72C1242.91 2982.72 1248.13 2980.4 1252.23 2975.76C1256.38 2971.17 1258.46 2965.26 1258.46 2958.04ZM1356.75 2925.01L1351.84 2965.14C1351.45 2968.56 1350.96 2971.54 1350.38 2974.08C1349.79 2976.62 1349.16 2978.74 1348.47 2980.45C1347.11 2983.72 1344.81 2986.63 1341.59 2989.17C1336.12 2993.46 1328.92 2995.61 1319.98 2995.61C1311.49 2995.61 1304.7 2993.44 1299.62 2989.09C1294.54 2984.7 1292 2978.81 1292 2971.44C1292 2970.32 1292.05 2969 1292.15 2967.49C1292.3 2965.97 1292.49 2964.24 1292.74 2962.29L1297.28 2925.01H1313.46L1308.7 2963.75C1308.51 2965.41 1308.36 2966.88 1308.26 2968.15C1308.17 2969.37 1308.12 2970.39 1308.12 2971.22C1308.12 2978.5 1312.39 2982.13 1320.93 2982.13C1325.57 2982.13 1328.99 2980.94 1331.19 2978.55C1333.38 2976.15 1334.85 2971.95 1335.58 2965.95L1340.64 2925.01H1356.75ZM1448.81 2925.01L1440.32 2994.51C1439.78 2998.66 1439.17 3002.28 1438.49 3005.35C1437.85 3008.43 1437.12 3011.02 1436.29 3013.12C1434.58 3017.41 1432.04 3021.1 1428.67 3024.18C1422.13 3030.04 1413.63 3032.96 1403.18 3032.96C1392.39 3032.96 1383.65 3030.13 1376.96 3024.47C1373.55 3021.64 1371.15 3018.41 1369.79 3014.8C1368.42 3011.48 1367.74 3006.82 1367.74 3000.81H1383.41C1383.8 3007.31 1385.46 3012.02 1388.39 3014.95C1391.32 3017.93 1395.86 3019.42 1402.01 3019.42C1408.65 3019.42 1413.71 3017.63 1417.17 3014.07C1420.64 3010.55 1422.84 3004.94 1423.77 2997.22L1424.94 2987.77C1418.1 2993 1410.92 2995.61 1403.4 2995.61C1394.03 2995.61 1386.29 2992.41 1380.19 2986.02C1374.08 2979.47 1371.03 2971.32 1371.03 2961.55C1371.03 2950.57 1374.57 2941.46 1381.65 2934.23C1388.78 2926.96 1397.69 2923.32 1408.38 2923.32C1413.51 2923.32 1417.66 2924.08 1420.84 2925.59C1424.3 2927.06 1427.89 2929.72 1431.6 2933.58L1432.63 2925.01H1448.81ZM1430.21 2957.75C1430.21 2951.5 1428.31 2946.47 1424.5 2942.66C1420.69 2938.8 1415.71 2936.87 1409.56 2936.87C1403.16 2936.87 1397.84 2939.21 1393.59 2943.9C1389.39 2948.54 1387.29 2954.38 1387.29 2961.41C1387.29 2967.56 1389.1 2972.59 1392.71 2976.5C1396.37 2980.25 1401.21 2982.13 1407.21 2982.13C1413.9 2982.13 1419.4 2979.84 1423.69 2975.25C1428.04 2970.61 1430.21 2964.78 1430.21 2957.75ZM1539.2 2958.84C1539.2 2969.39 1535.53 2978.25 1528.21 2985.43C1520.93 2992.61 1511.95 2996.2 1501.26 2996.2C1490.07 2996.2 1480.94 2992.8 1473.86 2986.02C1466.73 2979.18 1463.17 2970.54 1463.17 2960.09C1463.17 2949.4 1466.86 2940.51 1474.23 2933.43C1481.65 2926.3 1490.93 2922.74 1502.06 2922.74C1513 2922.74 1521.91 2926.1 1528.79 2932.84C1535.73 2939.48 1539.2 2948.15 1539.2 2958.84ZM1522.86 2958.04C1522.86 2951.4 1520.93 2946.15 1517.08 2942.29C1513.22 2938.29 1508.17 2936.29 1501.92 2936.29C1495.42 2936.29 1490.05 2938.51 1485.8 2942.95C1481.55 2947.44 1479.43 2953.08 1479.43 2959.87C1479.43 2966.71 1481.43 2972.2 1485.44 2976.35C1489.44 2980.6 1494.62 2982.72 1500.96 2982.72C1507.31 2982.72 1512.54 2980.4 1516.64 2975.76C1520.79 2971.17 1522.86 2965.26 1522.86 2958.04ZM1620.93 2925.01L1573.47 3002.94L1548.94 2925.01H1565.78L1577.65 2969.1L1602.4 2925.01H1620.93ZM1639.9 2986.02C1639.9 2988.6 1638.9 2990.85 1636.9 2992.75C1634.9 2994.66 1632.58 2995.61 1629.94 2995.61C1627.26 2995.61 1624.96 2994.63 1623.06 2992.68C1621.15 2990.73 1620.2 2988.34 1620.2 2985.5C1620.2 2982.77 1621.08 2980.47 1622.84 2978.62C1624.69 2976.76 1626.92 2975.84 1629.5 2975.84C1632.38 2975.84 1634.83 2976.84 1636.83 2978.84C1638.88 2980.84 1639.9 2983.23 1639.9 2986.02ZM1722.89 2931.67L1720.84 2948.15C1717.52 2943.9 1714.34 2940.85 1711.31 2939C1708.34 2937.19 1704.82 2936.29 1700.77 2936.29C1694.62 2936.29 1689.56 2938.56 1685.61 2943.1C1681.65 2947.64 1679.67 2953.47 1679.67 2960.6C1679.67 2967.29 1681.53 2972.64 1685.24 2976.64C1689 2980.69 1693.86 2982.72 1699.82 2982.72C1705.53 2982.72 1711.44 2980.25 1717.54 2975.32L1715.42 2992.39C1709.17 2994.93 1703.21 2996.2 1697.54 2996.2C1687.44 2996.2 1679.21 2992.9 1672.86 2986.31C1666.56 2979.72 1663.41 2971.17 1663.41 2960.67C1663.41 2949.88 1666.81 2940.88 1673.59 2933.65C1680.43 2926.37 1688.93 2922.74 1699.08 2922.74C1707.38 2922.74 1715.32 2925.71 1722.89 2931.67ZM1808.43 2958.84C1808.43 2969.39 1804.77 2978.25 1797.45 2985.43C1790.17 2992.61 1781.19 2996.2 1770.49 2996.2C1759.31 2996.2 1750.18 2992.8 1743.1 2986.02C1735.97 2979.18 1732.41 2970.54 1732.41 2960.09C1732.41 2949.4 1736.09 2940.51 1743.47 2933.43C1750.89 2926.3 1760.17 2922.74 1771.3 2922.74C1782.24 2922.74 1791.15 2926.1 1798.03 2932.84C1804.97 2939.48 1808.43 2948.15 1808.43 2958.84ZM1792.1 2958.04C1792.1 2951.4 1790.17 2946.15 1786.31 2942.29C1782.46 2938.29 1777.4 2936.29 1771.15 2936.29C1764.66 2936.29 1759.29 2938.51 1755.04 2942.95C1750.79 2947.44 1748.67 2953.08 1748.67 2959.87C1748.67 2966.71 1750.67 2972.2 1754.67 2976.35C1758.68 2980.6 1763.85 2982.72 1770.2 2982.72C1776.55 2982.72 1781.77 2980.4 1785.88 2975.76C1790.03 2971.17 1792.1 2965.26 1792.1 2958.04ZM1847.69 2925.01L1846.96 2931.45C1852.43 2925.98 1858.75 2923.25 1865.93 2923.25C1870.27 2923.25 1873.62 2924.05 1875.96 2925.67C1878.31 2927.18 1880.41 2930.04 1882.26 2934.23C1889.1 2926.96 1896.47 2923.32 1904.38 2923.32C1918.05 2923.32 1924.89 2929.6 1924.89 2942.14C1924.89 2943.41 1924.77 2945.2 1924.52 2947.49C1924.33 2949.79 1924.03 2952.62 1923.64 2955.99L1918.96 2994H1902.77L1907.75 2954.08C1908.19 2950.37 1908.41 2947.64 1908.41 2945.88C1908.41 2939.87 1905.38 2936.87 1899.33 2936.87C1896.93 2936.87 1894.86 2937.24 1893.1 2937.97C1891.34 2938.65 1889.83 2939.75 1888.56 2941.27C1887.34 2942.73 1886.31 2944.66 1885.48 2947.05C1884.7 2949.4 1884.09 2952.2 1883.65 2955.47L1878.97 2994H1862.78L1867.83 2953.06C1868.27 2949.35 1868.49 2946.81 1868.49 2945.44C1868.49 2939.73 1865.39 2936.87 1859.19 2936.87C1850.21 2936.87 1844.96 2943.1 1843.44 2955.55L1838.68 2994H1822.5L1830.99 2925.01H1847.69Z" fill="black"/>
<path d="M5975.49 2544.76L5961.65 2552.96C5959.06 2548.47 5956.59 2545.54 5954.25 2544.17C5951.81 2542.61 5948.66 2541.83 5944.8 2541.83C5940.07 2541.83 5936.13 2543.17 5933.01 2545.86C5929.88 2548.5 5928.32 2551.82 5928.32 2555.82C5928.32 2561.34 5932.42 2565.78 5940.63 2569.15L5951.91 2573.76C5961.09 2577.47 5967.8 2582.02 5972.05 2587.39C5976.3 2592.71 5978.42 2599.25 5978.42 2607.02C5978.42 2617.42 5974.95 2626.01 5968.02 2632.8C5961.04 2639.63 5952.37 2643.05 5942.02 2643.05C5932.2 2643.05 5924.1 2640.15 5917.7 2634.33C5911.4 2628.52 5907.47 2620.35 5905.91 2609.8L5923.2 2605.99C5923.98 2612.63 5925.34 2617.22 5927.3 2619.76C5930.81 2624.64 5935.94 2627.08 5942.68 2627.08C5948 2627.08 5952.42 2625.3 5955.93 2621.74C5959.45 2618.17 5961.21 2613.66 5961.21 2608.19C5961.21 2605.99 5960.89 2603.99 5960.26 2602.18C5959.67 2600.33 5958.72 2598.64 5957.4 2597.13C5956.13 2595.57 5954.47 2594.12 5952.42 2592.81C5950.37 2591.44 5947.93 2590.15 5945.09 2588.92L5934.18 2584.38C5918.7 2577.84 5910.96 2568.27 5910.96 2555.67C5910.96 2547.18 5914.21 2540.07 5920.71 2534.36C5927.2 2528.6 5935.28 2525.72 5944.95 2525.72C5957.99 2525.72 5968.17 2532.06 5975.49 2544.76ZM6060.82 2609.21H6009.69C6010.13 2615.07 6012.04 2619.74 6015.41 2623.2C6018.78 2626.62 6023.1 2628.33 6028.37 2628.33C6032.47 2628.33 6035.87 2627.35 6038.55 2625.4C6041.19 2623.45 6044.19 2619.83 6047.56 2614.56L6061.48 2622.32C6059.33 2625.99 6057.06 2629.13 6054.67 2631.77C6052.27 2634.36 6049.71 2636.51 6046.97 2638.22C6044.24 2639.88 6041.29 2641.1 6038.11 2641.88C6034.94 2642.66 6031.5 2643.05 6027.79 2643.05C6017.14 2643.05 6008.6 2639.63 6002.15 2632.8C5995.71 2625.91 5992.48 2616.78 5992.48 2605.4C5992.48 2594.12 5995.61 2584.99 6001.86 2578.01C6008.16 2571.13 6016.51 2567.68 6026.91 2567.68C6037.4 2567.68 6045.71 2571.03 6051.81 2577.72C6057.86 2584.36 6060.89 2593.56 6060.89 2605.33L6060.82 2609.21ZM6043.9 2595.74C6041.6 2586.95 6036.06 2582.55 6027.27 2582.55C6025.27 2582.55 6023.39 2582.87 6021.63 2583.5C6019.88 2584.09 6018.26 2584.97 6016.8 2586.14C6015.38 2587.26 6014.16 2588.63 6013.14 2590.24C6012.11 2591.85 6011.33 2593.69 6010.79 2595.74H6043.9ZM6095.39 2679.82H6078.91V2569.66H6095.39V2577.43C6101.88 2570.93 6109.25 2567.68 6117.51 2567.68C6127.32 2567.68 6135.4 2571.3 6141.75 2578.52C6148.2 2585.7 6151.42 2594.76 6151.42 2605.7C6151.42 2616.39 6148.22 2625.3 6141.82 2632.43C6135.48 2639.51 6127.47 2643.05 6117.8 2643.05C6109.45 2643.05 6101.98 2639.71 6095.39 2633.02V2679.82ZM6134.57 2605.77C6134.57 2598.93 6132.72 2593.37 6129.01 2589.07C6125.25 2584.73 6120.51 2582.55 6114.8 2582.55C6108.74 2582.55 6103.83 2584.65 6100.08 2588.85C6096.32 2593.05 6094.44 2598.57 6094.44 2605.4C6094.44 2612.09 6096.32 2617.61 6100.08 2621.96C6103.79 2626.21 6108.67 2628.33 6114.72 2628.33C6120.44 2628.33 6125.15 2626.18 6128.86 2621.88C6132.67 2617.59 6134.57 2612.22 6134.57 2605.77ZM6171.41 2632.8C6171.41 2630.06 6172.41 2627.69 6174.42 2625.69C6176.42 2623.69 6178.81 2622.69 6181.59 2622.69C6184.38 2622.69 6186.77 2623.69 6188.77 2625.69C6190.77 2627.69 6191.77 2630.09 6191.77 2632.87C6191.77 2635.7 6190.77 2638.12 6188.77 2640.12C6186.82 2642.07 6184.43 2643.05 6181.59 2643.05C6178.71 2643.05 6176.3 2642.07 6174.34 2640.12C6172.39 2638.17 6171.41 2635.73 6171.41 2632.8ZM6242.31 2624.96H6284.43V2641H6208.47L6247.73 2593.47C6251.59 2588.73 6254.81 2584.63 6257.4 2581.16C6260.04 2577.69 6262.04 2574.79 6263.41 2572.45C6266.19 2567.86 6267.58 2563.73 6267.58 2560.07C6267.58 2554.79 6265.72 2550.38 6262.01 2546.81C6258.3 2543.25 6253.71 2541.46 6248.24 2541.46C6236.82 2541.46 6230.28 2548.23 6228.62 2561.75H6211.62C6214.36 2537.92 6226.39 2526.01 6247.73 2526.01C6258.03 2526.01 6266.68 2529.28 6273.66 2535.82C6280.69 2542.37 6284.21 2550.47 6284.21 2560.14C6284.21 2566.29 6282.57 2572.32 6279.3 2578.23C6277.64 2581.31 6275.2 2584.97 6271.97 2589.22C6268.8 2593.42 6264.77 2598.4 6259.89 2604.16L6242.31 2624.96ZM6331.01 2644.88L6318.48 2635.58L6345.51 2598.74C6344.04 2598.93 6342.8 2599.08 6341.77 2599.18C6340.75 2599.28 6339.92 2599.33 6339.28 2599.33C6330.15 2599.33 6322.24 2595.83 6315.55 2588.85C6308.91 2581.92 6305.59 2573.57 6305.59 2563.8C6305.59 2553.4 6309.28 2544.52 6316.65 2537.14C6324.07 2529.72 6332.96 2526.01 6343.31 2526.01C6353.62 2526.01 6362.58 2529.67 6370.19 2537C6377.81 2544.27 6381.62 2552.87 6381.62 2562.78C6381.62 2571.57 6377.91 2581.06 6370.49 2591.27L6331.01 2644.88ZM6322.22 2562.56C6322.22 2568.66 6324.29 2573.79 6328.44 2577.94C6332.64 2582.14 6337.7 2584.24 6343.61 2584.24C6349.51 2584.24 6354.54 2582.16 6358.69 2578.01C6362.89 2573.81 6364.99 2568.76 6364.99 2562.85C6364.99 2556.94 6362.89 2551.89 6358.69 2547.69C6354.54 2543.54 6349.49 2541.46 6343.53 2541.46C6337.67 2541.46 6332.67 2543.54 6328.52 2547.69C6324.32 2551.89 6322.22 2556.84 6322.22 2562.56Z" fill="black"/>
<path d="M3717.84 711V620.531H3736.82C3745.93 620.531 3753.11 621.43 3758.39 623.227C3764.05 624.984 3769.19 627.973 3773.8 632.191C3783.13 640.707 3787.8 651.898 3787.8 665.766C3787.8 679.672 3782.94 690.922 3773.21 699.516C3768.33 703.812 3763.21 706.801 3757.86 708.48C3752.86 710.16 3745.77 711 3736.59 711H3717.84ZM3731.49 698.168H3737.64C3743.78 698.168 3748.88 697.523 3752.94 696.234C3757 694.867 3760.67 692.699 3763.95 689.73C3770.67 683.598 3774.03 675.609 3774.03 665.766C3774.03 655.844 3770.71 647.797 3764.07 641.625C3758.09 636.117 3749.29 633.363 3737.64 633.363H3731.49V698.168ZM3815.69 653.93V686.684C3815.69 696.137 3819.42 700.863 3826.88 700.863C3834.34 700.863 3838.07 696.137 3838.07 686.684V653.93H3851.26V686.977C3851.26 691.547 3850.69 695.492 3849.56 698.812C3848.46 701.781 3846.57 704.457 3843.88 706.84C3839.42 710.707 3833.76 712.641 3826.88 712.641C3820.05 712.641 3814.4 710.707 3809.95 706.84C3807.21 704.457 3805.28 701.781 3804.15 698.812C3803.05 696.156 3802.51 692.211 3802.51 686.977V653.93H3815.69ZM3867.9 653.93H3881.14V659.203C3885.75 654.633 3890.95 652.348 3896.73 652.348C3903.37 652.348 3908.54 654.438 3912.25 658.617C3915.46 662.172 3917.06 667.973 3917.06 676.02V711H3903.82V679.125C3903.82 673.5 3903.04 669.613 3901.47 667.465C3899.95 665.277 3897.18 664.184 3893.15 664.184C3888.78 664.184 3885.67 665.629 3883.84 668.52C3882.04 671.371 3881.14 676.352 3881.14 683.461V711H3867.9V653.93ZM3946.94 612.035V672.387L3965.52 653.93H3983.21L3958.43 677.895L3985.03 711H3967.92L3949.05 686.918L3946.94 689.027V711H3933.76V612.035H3946.94ZM4006.71 653.93V711H3993.52V653.93H4006.71ZM3991.53 630.199C3991.53 627.895 3992.37 625.902 3994.05 624.223C3995.73 622.543 3997.74 621.703 4000.09 621.703C4002.47 621.703 4004.5 622.543 4006.18 624.223C4007.86 625.863 4008.7 627.875 4008.7 630.258C4008.7 632.641 4007.86 634.672 4006.18 636.352C4004.54 638.031 4002.53 638.871 4000.14 638.871C3997.76 638.871 3995.73 638.031 3994.05 636.352C3992.37 634.672 3991.53 632.621 3991.53 630.199ZM4023.41 653.93H4036.65V659.203C4041.26 654.633 4046.45 652.348 4052.23 652.348C4058.88 652.348 4064.05 654.438 4067.76 658.617C4070.96 662.172 4072.57 667.973 4072.57 676.02V711H4059.32V679.125C4059.32 673.5 4058.54 669.613 4056.98 667.465C4055.46 665.277 4052.68 664.184 4048.66 664.184C4044.29 664.184 4041.18 665.629 4039.34 668.52C4037.55 671.371 4036.65 676.352 4036.65 683.461V711H4023.41V653.93ZM4101.75 616.605L4113.46 621.176L4096.77 654.691L4087.86 651L4101.75 616.605ZM4168.19 711V620.531H4187.18C4196.28 620.531 4203.46 621.43 4208.74 623.227C4214.4 624.984 4219.54 627.973 4224.15 632.191C4233.48 640.707 4238.15 651.898 4238.15 665.766C4238.15 679.672 4233.29 690.922 4223.56 699.516C4218.68 703.812 4213.56 706.801 4208.21 708.48C4203.21 710.16 4196.12 711 4186.94 711H4168.19ZM4181.84 698.168H4188C4194.13 698.168 4199.23 697.523 4203.29 696.234C4207.35 694.867 4211.02 692.699 4214.3 689.73C4221.02 683.598 4224.38 675.609 4224.38 665.766C4224.38 655.844 4221.06 647.797 4214.42 641.625C4208.45 636.117 4199.64 633.363 4188 633.363H4181.84V698.168ZM4250.16 682.055C4250.16 673.812 4253.11 666.801 4259.01 661.02C4264.91 655.238 4272.1 652.348 4280.57 652.348C4289.09 652.348 4296.32 655.258 4302.25 661.078C4308.11 666.898 4311.04 674.047 4311.04 682.523C4311.04 691.078 4308.09 698.246 4302.2 704.027C4296.26 709.77 4288.97 712.641 4280.34 712.641C4271.79 712.641 4264.62 709.711 4258.84 703.852C4253.05 698.07 4250.16 690.805 4250.16 682.055ZM4263.64 682.289C4263.64 687.992 4265.16 692.504 4268.21 695.824C4271.34 699.184 4275.46 700.863 4280.57 700.863C4285.73 700.863 4289.85 699.203 4292.94 695.883C4296.02 692.562 4297.57 688.129 4297.57 682.582C4297.57 677.035 4296.02 672.602 4292.94 669.281C4289.81 665.922 4285.69 664.242 4280.57 664.242C4275.54 664.242 4271.45 665.922 4268.33 669.281C4265.2 672.641 4263.64 676.977 4263.64 682.289ZM4325.05 653.93H4338.29V659.203C4342.9 654.633 4348.09 652.348 4353.88 652.348C4360.52 652.348 4365.69 654.438 4369.4 658.617C4372.61 662.172 4374.21 667.973 4374.21 676.02V711H4360.96V679.125C4360.96 673.5 4360.18 669.613 4358.62 667.465C4357.1 665.277 4354.32 664.184 4350.3 664.184C4345.93 664.184 4342.82 665.629 4340.98 668.52C4339.19 671.371 4338.29 676.352 4338.29 683.461V711H4325.05V653.93ZM4404.09 653.93V686.684C4404.09 696.137 4407.82 700.863 4415.28 700.863C4422.74 700.863 4426.47 696.137 4426.47 686.684V653.93H4439.66V686.977C4439.66 691.547 4439.09 695.492 4437.96 698.812C4436.86 701.781 4434.97 704.457 4432.27 706.84C4427.82 710.707 4422.16 712.641 4415.28 712.641C4408.45 712.641 4402.8 710.707 4398.35 706.84C4395.61 704.457 4393.68 701.781 4392.55 698.812C4391.45 696.156 4390.91 692.211 4390.91 686.977V653.93H4404.09ZM4469.89 666.234V711H4456.71V666.234H4451.08V653.93H4456.71V633.012H4469.89V653.93H4480.14V666.234H4469.89ZM4522.27 663.656L4511.38 669.457C4509.66 665.941 4507.53 664.184 4504.99 664.184C4503.78 664.184 4502.74 664.594 4501.88 665.414C4501.02 666.195 4500.59 667.211 4500.59 668.461C4500.59 670.648 4503.13 672.816 4508.21 674.965C4515.2 677.973 4519.91 680.746 4522.33 683.285C4524.75 685.824 4525.96 689.242 4525.96 693.539C4525.96 699.047 4523.93 703.656 4519.87 707.367C4515.93 710.883 4511.16 712.641 4505.57 712.641C4496 712.641 4489.23 707.973 4485.24 698.637L4496.49 693.422C4498.05 696.156 4499.25 697.895 4500.07 698.637C4501.67 700.121 4503.58 700.863 4505.81 700.863C4510.26 700.863 4512.49 698.832 4512.49 694.77C4512.49 692.426 4510.77 690.238 4507.33 688.207C4506 687.543 4504.68 686.898 4503.35 686.273C4502.02 685.648 4500.67 685.004 4499.3 684.34C4495.48 682.465 4492.78 680.59 4491.22 678.715C4489.23 676.332 4488.23 673.266 4488.23 669.516C4488.23 664.555 4489.93 660.453 4493.33 657.211C4496.8 653.969 4501.02 652.348 4505.98 652.348C4513.29 652.348 4518.72 656.117 4522.27 663.656ZM4616.96 653.93H4630.2V711H4616.96V705.023C4611.53 710.102 4605.69 712.641 4599.44 712.641C4591.55 712.641 4585.03 709.789 4579.87 704.086C4574.75 698.266 4572.2 691 4572.2 682.289C4572.2 673.734 4574.75 666.605 4579.87 660.902C4584.99 655.199 4591.39 652.348 4599.09 652.348C4605.73 652.348 4611.69 655.082 4616.96 660.551V653.93ZM4585.67 682.289C4585.67 687.758 4587.14 692.211 4590.07 695.648C4593.07 699.125 4596.86 700.863 4601.43 700.863C4606.32 700.863 4610.26 699.184 4613.27 695.824C4616.28 692.348 4617.78 687.934 4617.78 682.582C4617.78 677.23 4616.28 672.816 4613.27 669.34C4610.26 665.941 4606.36 664.242 4601.55 664.242C4597.02 664.242 4593.23 665.961 4590.18 669.398C4587.18 672.875 4585.67 677.172 4585.67 682.289ZM4646.84 653.93H4660.09V659.203C4664.7 654.633 4669.89 652.348 4675.67 652.348C4682.31 652.348 4687.49 654.438 4691.2 658.617C4694.4 662.172 4696 667.973 4696 676.02V711H4682.76V679.125C4682.76 673.5 4681.98 669.613 4680.42 667.465C4678.89 665.277 4676.12 664.184 4672.1 664.184C4667.72 664.184 4664.62 665.629 4662.78 668.52C4660.98 671.371 4660.09 676.352 4660.09 683.461V711H4646.84V653.93ZM4712.7 653.93H4725.95V659.203C4730.55 654.633 4735.75 652.348 4741.53 652.348C4748.17 652.348 4753.35 654.437 4757.06 658.617C4760.26 662.172 4761.86 667.973 4761.86 676.02V711L4748.62 711V679.125C4748.62 673.5 4747.84 669.613 4746.28 667.465C4744.75 665.277 4741.98 664.184 4737.96 664.184C4733.58 664.184 4730.48 665.629 4728.64 668.52C4726.84 671.371 4725.95 676.352 4725.95 683.461V711H4712.7V653.93ZM4775.87 682.055C4775.87 673.812 4778.82 666.801 4784.71 661.02C4790.61 655.238 4797.8 652.348 4806.28 652.348C4814.79 652.348 4822.02 655.258 4827.96 661.078C4833.82 666.898 4836.75 674.047 4836.75 682.523C4836.75 691.078 4833.8 698.246 4827.9 704.027C4821.96 709.77 4814.68 712.641 4806.04 712.641C4797.49 712.641 4790.32 709.711 4784.54 703.852C4778.76 698.07 4775.87 690.805 4775.87 682.055ZM4789.34 682.289C4789.34 687.992 4790.87 692.504 4793.91 695.824C4797.04 699.184 4801.16 700.863 4806.28 700.863C4811.43 700.863 4815.55 699.203 4818.64 695.883C4821.73 692.562 4823.27 688.129 4823.27 682.582C4823.27 677.035 4821.73 672.602 4818.64 669.281C4815.52 665.922 4811.39 664.242 4806.28 664.242C4801.24 664.242 4797.16 665.922 4794.03 669.281C4790.91 672.641 4789.34 676.977 4789.34 682.289ZM4863.93 653.93V686.684C4863.93 696.137 4867.66 700.863 4875.12 700.863C4882.59 700.863 4886.32 696.137 4886.32 686.684V653.93H4899.5V686.977C4899.5 691.547 4898.93 695.492 4897.8 698.812C4896.71 701.781 4894.81 704.457 4892.12 706.84C4887.66 710.707 4882 712.641 4875.12 712.641C4868.29 712.641 4862.64 710.707 4858.19 706.84C4855.46 704.457 4853.52 701.781 4852.39 698.812C4851.3 696.156 4850.75 692.211 4850.75 686.977V653.93H4863.93ZM4916.14 653.93H4929.38V659.203C4933.99 654.633 4939.19 652.348 4944.97 652.348C4951.61 652.348 4956.79 654.437 4960.5 658.617C4963.7 662.172 4965.3 667.973 4965.3 676.02V711H4952.06V679.125C4952.06 673.5 4951.28 669.613 4949.71 667.465C4948.19 665.277 4945.42 664.184 4941.39 664.184C4937.02 664.184 4933.91 665.629 4932.08 668.52C4930.28 671.371 4929.38 676.352 4929.38 683.461V711H4916.14V653.93ZM5026.41 656.391V673.91C5023.41 670.238 5020.71 667.719 5018.33 666.352C5015.98 664.945 5013.23 664.242 5010.07 664.242C5005.11 664.242 5000.98 665.98 4997.7 669.457C4994.42 672.934 4992.78 677.289 4992.78 682.523C4992.78 687.875 4994.36 692.27 4997.53 695.707C5000.73 699.145 5004.81 700.863 5009.77 700.863C5012.94 700.863 5015.73 700.18 5018.15 698.812C5020.5 697.484 5023.25 694.906 5026.41 691.078V708.48C5021.06 711.254 5015.71 712.641 5010.36 712.641C5001.53 712.641 4994.15 709.789 4988.21 704.086C4982.27 698.344 4979.3 691.215 4979.3 682.699C4979.3 674.184 4982.31 666.996 4988.33 661.137C4994.34 655.277 5001.73 652.348 5010.48 652.348C5016.1 652.348 5021.41 653.695 5026.41 656.391ZM5091.16 685.57H5050.26C5050.61 690.258 5052.14 693.988 5054.83 696.762C5057.53 699.496 5060.98 700.863 5065.2 700.863C5068.48 700.863 5071.2 700.082 5073.35 698.52C5075.46 696.957 5077.86 694.066 5080.55 689.848L5091.69 696.059C5089.97 698.988 5088.15 701.508 5086.24 703.617C5084.32 705.687 5082.27 707.406 5080.09 708.773C5077.9 710.102 5075.54 711.078 5073 711.703C5070.46 712.328 5067.7 712.641 5064.73 712.641C5056.22 712.641 5049.38 709.906 5044.23 704.437C5039.07 698.93 5036.49 691.625 5036.49 682.523C5036.49 673.5 5038.99 666.195 5043.99 660.609C5049.03 655.102 5055.71 652.348 5064.03 652.348C5072.43 652.348 5079.07 655.023 5083.95 660.375C5088.8 665.687 5091.22 673.051 5091.22 682.465L5091.16 685.57ZM5077.62 674.789C5075.79 667.758 5071.36 664.242 5064.32 664.242C5062.72 664.242 5061.22 664.496 5059.81 665.004C5058.41 665.473 5057.12 666.176 5055.95 667.113C5054.81 668.012 5053.84 669.105 5053.02 670.395C5052.2 671.684 5051.57 673.148 5051.14 674.789H5077.62ZM5138.8 663.656L5127.9 669.457C5126.18 665.941 5124.05 664.184 5121.51 664.184C5120.3 664.184 5119.27 664.594 5118.41 665.414C5117.55 666.195 5117.12 667.211 5117.12 668.461C5117.12 670.648 5119.66 672.816 5124.73 674.965C5131.73 677.973 5136.43 680.746 5138.86 683.285C5141.28 685.824 5142.49 689.242 5142.49 693.539C5142.49 699.047 5140.46 703.656 5136.39 707.367C5132.45 710.883 5127.68 712.641 5122.1 712.641C5112.53 712.641 5105.75 707.973 5101.77 698.637L5113.02 693.422C5114.58 696.156 5115.77 697.895 5116.59 698.637C5118.19 700.121 5120.11 700.863 5122.33 700.863C5126.79 700.863 5129.01 698.832 5129.01 694.77C5129.01 692.426 5127.29 690.238 5123.86 688.207C5122.53 687.543 5121.2 686.898 5119.87 686.273C5118.54 685.648 5117.2 685.004 5115.83 684.34C5112 682.465 5109.3 680.59 5107.74 678.715C5105.75 676.332 5104.75 673.266 5104.75 669.516C5104.75 664.555 5106.45 660.453 5109.85 657.211C5113.33 653.969 5117.55 652.348 5122.51 652.348C5129.81 652.348 5135.24 656.117 5138.8 663.656ZM3759.73 796.391V813.91C3756.73 810.238 3754.03 807.719 3751.65 806.352C3749.3 804.945 3746.55 804.242 3743.39 804.242C3738.43 804.242 3734.3 805.98 3731.02 809.457C3727.74 812.934 3726.1 817.289 3726.1 822.523C3726.1 827.875 3727.68 832.27 3730.85 835.707C3734.05 839.145 3738.13 840.863 3743.09 840.863C3746.26 840.863 3749.05 840.18 3751.47 838.812C3753.82 837.484 3756.57 834.906 3759.73 831.078V848.48C3754.38 851.254 3749.03 852.641 3743.68 852.641C3734.85 852.641 3727.47 849.789 3721.53 844.086C3715.59 838.344 3712.62 831.215 3712.62 822.699C3712.62 814.184 3715.63 806.996 3721.65 801.137C3727.66 795.277 3735.05 792.348 3743.8 792.348C3749.42 792.348 3754.73 793.695 3759.73 796.391ZM3775.67 752.035H3788.86V798.676C3793.54 794.457 3798.72 792.348 3804.38 792.348C3810.83 792.348 3815.98 794.438 3819.85 798.617C3823.13 802.25 3824.77 808.051 3824.77 816.02V851H3811.59V817.25C3811.59 812.68 3810.77 809.379 3809.13 807.348C3807.53 805.277 3804.93 804.242 3801.34 804.242C3796.73 804.242 3793.48 805.668 3791.61 808.52C3789.77 811.41 3788.86 816.371 3788.86 823.402V851H3775.67V752.035ZM3883.6 793.93H3896.84V851H3883.6V845.023C3878.17 850.102 3872.33 852.641 3866.08 852.641C3858.19 852.641 3851.67 849.789 3846.51 844.086C3841.39 838.266 3838.84 831 3838.84 822.289C3838.84 813.734 3841.39 806.605 3846.51 800.902C3851.63 795.199 3858.04 792.348 3865.73 792.348C3872.37 792.348 3878.33 795.082 3883.6 800.551V793.93ZM3852.31 822.289C3852.31 827.758 3853.78 832.211 3856.71 835.648C3859.71 839.125 3863.5 840.863 3868.07 840.863C3872.96 840.863 3876.9 839.184 3879.91 835.824C3882.92 832.348 3884.42 827.934 3884.42 822.582C3884.42 817.23 3882.92 812.816 3879.91 809.34C3876.9 805.941 3873 804.242 3868.19 804.242C3863.66 804.242 3859.87 805.961 3856.82 809.398C3853.82 812.875 3852.31 817.172 3852.31 822.289ZM3913.48 793.93H3926.73V799.203C3931.34 794.633 3936.53 792.348 3942.31 792.348C3948.95 792.348 3954.13 794.438 3957.84 798.617C3961.04 802.172 3962.64 807.973 3962.64 816.02V851H3949.4V819.125C3949.4 813.5 3948.62 809.613 3947.06 807.465C3945.54 805.277 3942.76 804.184 3938.74 804.184C3934.36 804.184 3931.26 805.629 3929.42 808.52C3927.62 811.371 3926.73 816.352 3926.73 823.461V851H3913.48V793.93ZM4034.54 849.652C4034.54 852.348 4034.44 854.711 4034.25 856.742C4034.09 858.812 4033.86 860.629 4033.54 862.191C4032.61 866.488 4030.77 870.18 4028.04 873.266C4022.88 879.203 4015.79 882.172 4006.77 882.172C3999.15 882.172 3992.88 880.121 3987.96 876.02C3982.88 871.801 3979.95 865.961 3979.17 858.5H3992.41C3992.92 861.312 3993.76 863.48 3994.93 865.004C3997.66 868.559 4001.65 870.336 4006.88 870.336C4016.53 870.336 4021.36 864.418 4021.36 852.582V844.613C4016.12 849.965 4010.09 852.641 4003.25 852.641C3995.48 852.641 3989.11 849.828 3984.15 844.203C3979.15 838.5 3976.65 831.371 3976.65 822.816C3976.65 814.496 3978.97 807.426 3983.62 801.605C3988.62 795.434 3995.22 792.348 4003.43 792.348C4010.61 792.348 4016.59 795.023 4021.36 800.375V793.93H4034.54V849.652ZM4021.88 822.582C4021.88 817.035 4020.4 812.602 4017.43 809.281C4014.42 805.883 4010.57 804.184 4005.89 804.184C4000.89 804.184 3996.94 806.039 3994.05 809.75C3991.43 813.07 3990.12 817.367 3990.12 822.641C3990.12 827.836 3991.43 832.094 3994.05 835.414C3996.9 839.047 4000.85 840.863 4005.89 840.863C4010.93 840.863 4014.91 839.027 4017.84 835.355C4020.54 832.035 4021.88 827.777 4021.88 822.582ZM4103.15 825.57H4062.25C4062.61 830.258 4064.13 833.988 4066.82 836.762C4069.52 839.496 4072.98 840.863 4077.2 840.863C4080.48 840.863 4083.19 840.082 4085.34 838.52C4087.45 836.957 4089.85 834.066 4092.55 829.848L4103.68 836.059C4101.96 838.988 4100.14 841.508 4098.23 843.617C4096.32 845.688 4094.27 847.406 4092.08 848.773C4089.89 850.102 4087.53 851.078 4084.99 851.703C4082.45 852.328 4079.7 852.641 4076.73 852.641C4068.21 852.641 4061.38 849.906 4056.22 844.438C4051.06 838.93 4048.48 831.625 4048.48 822.523C4048.48 813.5 4050.98 806.195 4055.98 800.609C4061.02 795.102 4067.7 792.348 4076.02 792.348C4084.42 792.348 4091.06 795.023 4095.95 800.375C4100.79 805.688 4103.21 813.051 4103.21 822.465L4103.15 825.57ZM4089.62 814.789C4087.78 807.758 4083.35 804.242 4076.32 804.242C4074.71 804.242 4073.21 804.496 4071.8 805.004C4070.4 805.473 4069.11 806.176 4067.94 807.113C4066.8 808.012 4065.83 809.105 4065.01 810.395C4064.19 811.684 4063.56 813.148 4063.13 814.789H4089.62ZM4168.25 806.234V851H4155.07V806.234H4149.44V793.93H4155.07V773.012H4168.25V793.93H4178.5V806.234H4168.25ZM4185.59 822.055C4185.59 813.812 4188.54 806.801 4194.44 801.02C4200.34 795.238 4207.53 792.348 4216 792.348C4224.52 792.348 4231.75 795.258 4237.68 801.078C4243.54 806.898 4246.47 814.047 4246.47 822.523C4246.47 831.078 4243.52 838.246 4237.62 844.027C4231.69 849.77 4224.4 852.641 4215.77 852.641C4207.21 852.641 4200.05 849.711 4194.27 843.852C4188.48 838.07 4185.59 830.805 4185.59 822.055ZM4199.07 822.289C4199.07 827.992 4200.59 832.504 4203.64 835.824C4206.77 839.184 4210.89 840.863 4216 840.863C4221.16 840.863 4225.28 839.203 4228.37 835.883C4231.45 832.562 4233 828.129 4233 822.582C4233 817.035 4231.45 812.602 4228.37 809.281C4225.24 805.922 4221.12 804.242 4216 804.242C4210.96 804.242 4206.88 805.922 4203.76 809.281C4200.63 812.641 4199.07 816.977 4199.07 822.289ZM4300.03 851V760.531H4319.01C4328.11 760.531 4335.3 761.43 4340.57 763.227C4346.24 764.984 4351.38 767.973 4355.98 772.191C4365.32 780.707 4369.99 791.898 4369.99 805.766C4369.99 819.672 4365.12 830.922 4355.4 839.516C4350.52 843.812 4345.4 846.801 4340.05 848.48C4335.05 850.16 4327.96 851 4318.78 851H4300.03ZM4313.68 838.168H4319.83C4325.96 838.168 4331.06 837.523 4335.12 836.234C4339.19 834.867 4342.86 832.699 4346.14 829.73C4352.86 823.598 4356.22 815.609 4356.22 805.766C4356.22 795.844 4352.9 787.797 4346.26 781.625C4340.28 776.117 4331.47 773.363 4319.83 773.363H4313.68V838.168ZM4397.88 793.93V826.684C4397.88 836.137 4401.61 840.863 4409.07 840.863C4416.53 840.863 4420.26 836.137 4420.26 826.684V793.93H4433.45V826.977C4433.45 831.547 4432.88 835.492 4431.75 838.812C4430.65 841.781 4428.76 844.457 4426.06 846.84C4421.61 850.707 4415.95 852.641 4409.07 852.641C4402.23 852.641 4396.59 850.707 4392.14 846.84C4389.4 844.457 4387.47 841.781 4386.34 838.812C4385.24 836.156 4384.7 832.211 4384.7 826.977V793.93H4397.88ZM4450.09 793.93H4463.33V799.203C4467.94 794.633 4473.13 792.348 4478.91 792.348C4485.55 792.348 4490.73 794.438 4494.44 798.617C4497.64 802.172 4499.25 807.973 4499.25 816.02V851H4486V819.125C4486 813.5 4485.22 809.613 4483.66 807.465C4482.14 805.277 4479.36 804.184 4475.34 804.184C4470.96 804.184 4467.86 805.629 4466.02 808.52C4464.23 811.371 4463.33 816.352 4463.33 823.461V851H4450.09V793.93ZM4529.13 752.035V812.387L4547.7 793.93H4565.4L4540.61 817.895L4567.21 851H4550.11L4531.24 826.918L4529.13 829.027V851H4515.95V752.035H4529.13ZM4588.89 793.93V851H4575.71V793.93H4588.89ZM4573.72 770.199C4573.72 767.895 4574.56 765.902 4576.24 764.223C4577.92 762.543 4579.93 761.703 4582.27 761.703C4584.66 761.703 4586.69 762.543 4588.37 764.223C4590.05 765.863 4590.89 767.875 4590.89 770.258C4590.89 772.641 4590.05 774.672 4588.37 776.352C4586.73 778.031 4584.71 778.871 4582.33 778.871C4579.95 778.871 4577.92 778.031 4576.24 776.352C4574.56 774.672 4573.72 772.621 4573.72 770.199ZM4605.59 793.93H4618.84V799.203C4623.45 794.633 4628.64 792.348 4634.42 792.348C4641.06 792.348 4646.24 794.438 4649.95 798.617C4653.15 802.172 4654.75 807.973 4654.75 816.02V851H4641.51V819.125C4641.51 813.5 4640.73 809.613 4639.17 807.465C4637.64 805.277 4634.87 804.184 4630.85 804.184C4626.47 804.184 4623.37 805.629 4621.53 808.52C4619.73 811.371 4618.84 816.352 4618.84 823.461V851H4605.59V793.93ZM4683.93 756.605L4695.65 761.176L4678.95 794.691L4670.05 791L4683.93 756.605Z" fill="black"/>
<path d="M700 2055.5H6636.5" stroke="#8E8E8E" stroke-opacity="0.6" stroke-width="6"/>
<path d="M700 2411H6636.5" stroke="#8E8E8E" stroke-opacity="0.6" stroke-width="6"/>
<path d="M700 1648H6636.5" stroke="#8E8E8E" stroke-opacity="0.6" stroke-width="6"/>
<path d="M700 1272H6636.5" stroke="#8E8E8E" stroke-opacity="0.6" stroke-width="6"/>
<path d="M739 895H6675.5" stroke="#8E8E8E" stroke-opacity="0.6" stroke-width="6"/>
<path d="M739 571H6675.5" stroke="#8E8E8E" stroke-opacity="0.6" stroke-width="6"/>
<path d="M700 2470V2352" stroke="black" stroke-width="6"/>
<path d="M2059 2470V2352" stroke="black" stroke-width="6"/>
<path d="M3482 2470V2352" stroke="black" stroke-width="6"/>
<path d="M4726 2470V2352" stroke="black" stroke-width="6"/>
<path d="M6123 2470V2352" stroke="black" stroke-width="6"/>
<path d="M5109.49 61.7598L5095.65 69.9629C5093.06 65.4707 5090.59 62.541 5088.25 61.1738C5085.81 59.6113 5082.66 58.8301 5078.8 58.8301C5074.07 58.8301 5070.13 60.1729 5067.01 62.8584C5063.88 65.4951 5062.32 68.8154 5062.32 72.8193C5062.32 78.3369 5066.42 82.7803 5074.63 86.1494L5085.91 90.7637C5095.09 94.4746 5101.8 99.0156 5106.05 104.387C5110.3 109.709 5112.42 116.252 5112.42 124.016C5112.42 134.416 5108.95 143.01 5102.02 149.797C5095.04 156.633 5086.37 160.051 5076.02 160.051C5066.2 160.051 5058.1 157.146 5051.7 151.335C5045.4 145.524 5041.47 137.346 5039.91 126.799L5057.2 122.99C5057.98 129.631 5059.34 134.221 5061.3 136.76C5064.81 141.643 5069.94 144.084 5076.68 144.084C5082 144.084 5086.42 142.302 5089.93 138.737C5093.45 135.173 5095.21 130.656 5095.21 125.188C5095.21 122.99 5094.89 120.988 5094.26 119.182C5093.67 117.326 5092.72 115.642 5091.4 114.128C5090.13 112.565 5088.47 111.125 5086.42 109.807C5084.37 108.439 5081.93 107.146 5079.09 105.925L5068.18 101.384C5052.7 94.8408 5044.96 85.2705 5044.96 72.6729C5044.96 64.1768 5048.21 57.0723 5054.71 51.3594C5061.2 45.5977 5069.28 42.7168 5078.95 42.7168C5091.99 42.7168 5102.17 49.0645 5109.49 61.7598ZM5194.82 126.213L5143.69 126.213C5144.13 132.072 5146.04 136.735 5149.41 140.202C5152.78 143.62 5157.1 145.329 5162.37 145.329C5166.47 145.329 5169.87 144.353 5172.55 142.399C5175.19 140.446 5178.19 136.833 5181.56 131.56L5195.48 139.323C5193.33 142.985 5191.06 146.135 5188.67 148.771C5186.27 151.359 5183.71 153.508 5180.97 155.217C5178.24 156.877 5175.29 158.098 5172.11 158.879C5168.94 159.66 5165.5 160.051 5161.79 160.051C5151.14 160.051 5142.6 156.633 5136.15 149.797C5129.71 142.912 5126.48 133.781 5126.48 122.404C5126.48 111.125 5129.61 101.994 5135.86 95.0117C5142.16 88.127 5150.51 84.6846 5160.91 84.6846C5171.4 84.6846 5179.71 88.0293 5185.81 94.7187C5191.86 101.359 5194.89 110.563 5194.89 122.331L5194.82 126.213ZM5177.9 112.736C5175.6 103.947 5170.06 99.5527 5161.27 99.5527C5159.27 99.5527 5157.39 99.8701 5155.63 100.505C5153.88 101.091 5152.26 101.97 5150.8 103.142C5149.38 104.265 5148.16 105.632 5147.14 107.243C5146.11 108.854 5145.33 110.686 5144.79 112.736L5177.9 112.736ZM5229.39 196.818H5212.91V86.6621H5229.39V94.4258C5235.88 87.9316 5243.25 84.6846 5251.51 84.6846C5261.32 84.6846 5269.4 88.2979 5275.75 95.5244C5282.2 102.702 5285.42 111.76 5285.42 122.697C5285.42 133.391 5282.22 142.302 5275.82 149.431C5269.48 156.511 5261.47 160.051 5251.8 160.051C5243.45 160.051 5235.98 156.706 5229.39 150.017V196.818ZM5268.57 122.771C5268.57 115.935 5266.72 110.368 5263.01 106.071C5259.25 101.726 5254.51 99.5527 5248.8 99.5527C5242.74 99.5527 5237.83 101.652 5234.08 105.852C5230.32 110.051 5228.44 115.568 5228.44 122.404C5228.44 129.094 5230.32 134.611 5234.08 138.957C5237.79 143.205 5242.67 145.329 5248.72 145.329C5254.44 145.329 5259.15 143.181 5262.86 138.884C5266.67 134.587 5268.57 129.216 5268.57 122.771ZM5305.41 149.797C5305.41 147.062 5306.41 144.694 5308.42 142.692C5310.42 140.69 5312.81 139.689 5315.59 139.689C5318.38 139.689 5320.77 140.69 5322.77 142.692C5324.77 144.694 5325.77 147.087 5325.77 149.87C5325.77 152.702 5324.77 155.119 5322.77 157.121C5320.82 159.074 5318.43 160.051 5315.59 160.051C5312.71 160.051 5310.3 159.074 5308.34 157.121C5306.39 155.168 5305.41 152.727 5305.41 149.797ZM5376.31 141.96H5418.43V158H5342.47L5381.73 110.466C5385.59 105.729 5388.81 101.628 5391.4 98.1611C5394.04 94.6943 5396.04 91.7891 5397.41 89.4453C5400.19 84.8555 5401.58 80.7295 5401.58 77.0674C5401.58 71.7939 5399.72 67.375 5396.01 63.8105C5392.3 60.2461 5387.71 58.4639 5382.24 58.4639C5370.82 58.4639 5364.28 65.2266 5362.62 78.752H5345.62C5348.36 54.9238 5360.39 43.0098 5381.73 43.0098C5392.03 43.0098 5400.68 46.2812 5407.66 52.8242C5414.69 59.3672 5418.21 67.4727 5418.21 77.1406C5418.21 83.293 5416.57 89.3232 5413.3 95.2314C5411.64 98.3076 5409.2 101.97 5405.97 106.218C5402.8 110.417 5398.77 115.397 5393.89 121.159L5376.31 141.96ZM5510.2 60.8809H5475.33L5469.77 79.6309C5470.6 79.5332 5471.38 79.46 5472.11 79.4111C5472.89 79.3623 5473.6 79.3379 5474.24 79.3379C5485.22 79.3379 5494.23 83.0488 5501.26 90.4707C5508.34 97.8437 5511.88 107.292 5511.88 118.815C5511.88 130.729 5507.88 140.544 5499.87 148.259C5491.86 155.974 5481.78 159.831 5469.62 159.831C5454.63 159.831 5442.82 152.8 5434.17 138.737L5447.06 127.824C5450.63 133.879 5454.22 138.151 5457.83 140.642C5461.44 143.083 5465.86 144.304 5471.09 144.304C5477.92 144.304 5483.66 141.911 5488.3 137.126C5492.94 132.194 5495.26 126.213 5495.26 119.182C5495.26 111.955 5492.96 106.047 5488.37 101.457C5483.78 96.7207 5478.04 94.3525 5471.16 94.3525C5463.49 94.3525 5456.88 97.6973 5451.31 104.387H5445.67L5463.47 44.9141H5510.2V60.8809Z" fill="black"/>
<circle cx="5289" cy="287" r="44" fill="#FF98CE"/>
</svg>
